<svg width="16" height="16" viewBox="0 0 16 16" fill="none" xmlns="http://www.w3.org/2000/svg">
<path d="M15.2 8.5332H14.9333V2.9332C14.9333 1.59986 13.8667 0.533203 12.5333 0.533203C11.353 0.533203 10.5041 1.40839 10.4092 2.69073C9.7895 2.80786 9.33334 3.34155 9.33334 3.99986C9.33334 4.15986 9.44 4.26652 9.6 4.26652H11.7333C11.8933 4.26652 12 4.15986 12 3.99986C12 3.34883 11.5539 2.81958 10.9448 2.69464C11.0245 1.84727 11.5334 1.06652 12.5333 1.06652C13.5733 1.06652 14.4 1.89317 14.4 2.93317V8.53317H6.37422C6.25359 7.91814 5.72178 7.46652 5.06669 7.46652C4.80003 7.14652 4.42669 6.93317 4.00003 6.93317C3.49338 6.93317 3.04003 7.22652 2.82669 7.65317C2.61334 7.54652 2.37334 7.46652 2.13334 7.46652C1.47825 7.46652 0.946438 7.91814 0.825813 8.53317H0.8C0.346656 8.53317 0 8.87983 0 9.33317C0 9.78652 0.346656 10.1332 0.8 10.1332H1.12047L1.84 12.9865C2.05334 13.8132 2.8 14.3999 3.65334 14.3999H3.86669L3.52003 15.0932C3.44003 15.2265 3.49338 15.3865 3.62669 15.4399C3.65334 15.4665 3.70669 15.4665 3.73334 15.4665C3.84 15.4665 3.92 15.4132 3.97334 15.3332L4.44 14.3999H11.84L12.2933 15.3065C12.3467 15.4132 12.4267 15.4665 12.5333 15.4665C12.5867 15.4665 12.6133 15.4665 12.64 15.4132C12.7467 15.3598 12.8 15.1998 12.7467 15.0665L12.4126 14.3984C13.2382 14.3691 13.9522 13.7925 14.16 13.0132L14.8862 10.1332H15.2C15.6533 10.1332 16 9.78652 16 9.33317C16 8.87986 15.6533 8.5332 15.2 8.5332ZM11.44 3.7332H9.92C10.0267 3.4132 10.3467 3.19986 10.6933 3.19986C11.04 3.19986 11.3333 3.4132 11.44 3.7332ZM2.13334 7.99986C2.37334 7.99986 2.58669 8.10652 2.77334 8.2932C2.82669 8.3732 2.93334 8.39986 3.04 8.3732C3.14666 8.34655 3.2 8.26655 3.22666 8.15986C3.30666 7.75986 3.62666 7.46652 4.02666 7.46652C4.32 7.46652 4.58666 7.59986 4.72 7.86652C4.77334 7.97317 4.90666 8.02652 5.01334 7.99986C5.04 7.99986 5.06669 7.99986 5.09334 7.99986C5.44 7.99986 5.73334 8.2132 5.84 8.5332H1.38666C1.49334 8.2132 1.78666 7.99986 2.13334 7.99986ZM13.68 12.8532C13.52 13.4399 12.9867 13.8665 12.3733 13.8665H3.68C3.06666 13.8665 2.53334 13.4399 2.37334 12.8532L1.68 10.1332H14.32L13.68 12.8532ZM15.2 9.59986H14.6667H1.33334H0.8C0.64 9.59986 0.533344 9.4932 0.533344 9.3332C0.533344 9.1732 0.64 9.06655 0.8 9.06655H1.06666H6.13331H15.2C15.36 9.06655 15.4667 9.1732 15.4667 9.3332C15.4667 9.4932 15.36 9.59986 15.2 9.59986Z" fill="black"/>
<path d="M9.6 5.46652C9.76 5.46652 9.86666 5.35987 9.86666 5.19987V5.06652C9.86666 4.90652 9.76 4.79987 9.6 4.79987C9.44 4.79987 9.33334 4.90652 9.33334 5.06652V5.19987C9.33334 5.35987 9.44 5.46652 9.6 5.46652Z" fill="black"/>
<path d="M9.6 6.6932C9.76 6.6932 9.86666 6.55986 9.86666 6.42655V6.1332C9.86666 5.9732 9.76 5.86655 9.6 5.86655C9.44 5.86655 9.33334 5.9732 9.33334 6.1332V6.42655C9.33334 6.58652 9.44 6.6932 9.6 6.6932Z" fill="black"/>
<path d="M9.6 7.7332C9.76 7.7332 9.86666 7.62654 9.86666 7.46654V7.3332C9.86666 7.1732 9.76 7.06654 9.6 7.06654C9.44 7.06654 9.33334 7.1732 9.33334 7.3332V7.46654C9.33334 7.62651 9.44 7.7332 9.6 7.7332Z" fill="black"/>
<path d="M10.6667 5.46652C10.8267 5.46652 10.9333 5.35987 10.9333 5.19987V5.06652C10.9333 4.90652 10.8267 4.79987 10.6667 4.79987C10.5067 4.79987 10.4 4.90652 10.4 5.06652V5.19987C10.4 5.35987 10.5067 5.46652 10.6667 5.46652Z" fill="black"/>
<path d="M10.4 6.42652C10.4 6.58652 10.5067 6.69317 10.6667 6.69317C10.8267 6.69317 10.9333 6.55983 10.9333 6.42652V6.13317C10.9333 5.97317 10.8267 5.86652 10.6667 5.86652C10.5067 5.86652 10.4 5.97317 10.4 6.13317V6.42652Z" fill="black"/>
<path d="M10.4 7.46651C10.4 7.62651 10.5067 7.73317 10.6667 7.73317C10.8267 7.73317 10.9333 7.62651 10.9333 7.46651V7.33317C10.9333 7.17317 10.8267 7.06651 10.6667 7.06651C10.5067 7.06651 10.4 7.17317 10.4 7.33317V7.46651Z" fill="black"/>
<path d="M11.7333 5.46652C11.8933 5.46652 12 5.35987 12 5.19987V5.06652C12 4.90652 11.8933 4.79987 11.7333 4.79987C11.5733 4.79987 11.4667 4.90652 11.4667 5.06652V5.19987C11.4666 5.35987 11.5733 5.46652 11.7333 5.46652Z" fill="black"/>
<path d="M11.4666 6.42652C11.4666 6.58652 11.5733 6.69317 11.7333 6.69317C11.8933 6.69317 12 6.55986 12 6.42652V6.13317C12 5.97317 11.8933 5.86652 11.7333 5.86652C11.5733 5.86652 11.4667 5.97317 11.4667 6.13317V6.42652H11.4666Z" fill="black"/>
<path d="M11.4666 7.46651C11.4666 7.62651 11.5733 7.73317 11.7333 7.73317C11.8933 7.73317 12 7.62651 12 7.46651V7.33317C12 7.17317 11.8933 7.06651 11.7333 7.06651C11.5733 7.06651 11.4666 7.17317 11.4666 7.33317V7.46651Z" fill="black"/>
</svg>
