<svg width="16" height="14" viewBox="0 0 16 14" fill="none" xmlns="http://www.w3.org/2000/svg">
<path d="M15.6029 6.76547H15.3763C15.1436 6.76547 14.9276 6.83847 14.75 6.96275V6.44872C14.75 5.86188 14.2726 5.38447 13.6857 5.38447H11.7153C11.5859 5.38447 11.4809 5.48941 11.4809 5.61885C11.4809 5.74828 11.5859 5.85322 11.7153 5.85322H13.6857C14.014 5.85322 14.2812 6.12035 14.2812 6.44872V8.11338H5.85684V6.44872C5.85684 6.12035 6.12397 5.85322 6.45234 5.85322L10.6216 5.85322C10.751 5.85322 10.8559 5.74828 10.8559 5.61885C10.8559 5.48941 10.751 5.38447 10.6216 5.38447L3.73219 5.38447C3.92034 5.12113 3.99391 4.77885 3.90381 4.4425C3.87031 4.31747 3.74172 4.24328 3.61675 4.27675C3.49172 4.31025 3.41753 4.43878 3.451 4.56382C3.54403 4.91094 3.33728 5.26903 2.99016 5.36203C2.64284 5.45513 2.28494 5.24828 2.19194 4.90119L1.74125 3.21919C1.64822 2.87207 1.85497 2.51397 2.20213 2.42097C2.55006 2.32778 2.90712 2.53385 3.00031 2.88182L3.16559 3.49866C3.19909 3.62369 3.32772 3.69788 3.45266 3.66441C3.57769 3.63091 3.65188 3.50238 3.61841 3.37735L3.45312 2.7605C3.29284 2.16238 2.67909 1.80788 2.08081 1.96819C1.94884 2.00357 1.82678 2.06141 1.71884 2.1385V2.02463C1.71884 1.42082 1.22759 0.929565 0.623781 0.929565H0.397188C0.178156 0.929534 0 1.10772 0 1.32669L0 12.673C0 12.892 0.178156 13.0701 0.397125 13.0701H1.32166C1.54062 13.0701 1.71878 12.892 1.71878 12.673L1.71878 10.5119H1.98416C2.11359 10.5119 2.21853 10.407 2.21853 10.2775C2.21853 10.1481 2.11359 10.0432 1.98416 10.0432H1.71878V8.5821H14.2811V10.0432H3.07797C2.94853 10.0432 2.84359 10.1481 2.84359 10.2775C2.84359 10.407 2.94853 10.5119 3.07797 10.5119H14.2812V12.673C14.2812 12.892 14.4593 13.0701 14.6783 13.0701H15.6028C15.8218 13.0701 16 12.892 16 12.673V7.1626C16 6.94363 15.8218 6.76547 15.6029 6.76547ZM5.21266 5.85322H5.57069C5.45547 6.02328 5.38809 6.22828 5.38809 6.44872V8.11338H4.61719V6.44872C4.61719 6.12035 4.88431 5.85322 5.21266 5.85322ZM1.73916 5.02253C1.78212 5.18288 1.858 5.32582 1.95753 5.446C1.87247 5.47635 1.79237 5.51725 1.71881 5.5671V4.94666L1.73916 5.02253ZM1.25006 12.6014H0.46875L0.46875 1.39828H0.62375C0.969094 1.39828 1.25006 1.67925 1.25006 2.0246L1.25006 12.6014ZM1.71881 6.44872C1.71881 6.12035 1.98594 5.85322 2.31431 5.85322H4.33103C4.21578 6.02328 4.14844 6.22825 4.14844 6.44872V8.11338H1.71881L1.71881 6.44872ZM15.5312 12.6014H14.7499V7.86053C14.7499 7.51519 15.0309 7.23422 15.3763 7.23422H15.5312V12.6014Z" fill="black"/>
</svg>
