<svg width="252" height="252" viewBox="0 0 252 252" fill="none" xmlns="http://www.w3.org/2000/svg">
<path d="M235.725 139.069C235.725 139.139 187.427 139.199 127.86 139.199C68.2926 139.199 19.9851 139.139 19.9851 139.069C19.9851 138.999 68.2775 138.918 127.86 138.918C187.442 138.918 235.725 138.994 235.725 139.069Z" fill="#E0E0E0"/>
<path d="M85.5011 120.846C83.2021 120.204 81.0579 119.1 79.1988 117.603C77.3397 116.105 75.8047 114.245 74.6871 112.136C73.5695 110.026 72.8927 107.712 72.6978 105.333C72.5029 102.953 72.7941 100.56 73.5535 98.2964C74.7332 94.7824 77.0123 91.675 77.9862 88.0907C79.0956 84.0245 78.433 79.7124 77.7502 75.5407C77.0675 71.3691 76.3697 67.082 77.4089 62.9907C78.448 58.8994 81.716 55.0692 85.9429 54.778C89.8384 54.512 93.4428 57.3985 95.0692 60.9526C96.6957 64.5068 96.7108 68.583 96.3293 72.4986C95.9477 76.4142 95.2098 80.2746 95.4407 84.1802C95.9126 92.0766 100.335 99.5163 99.8182 107.413C99.5471 111.524 97.9557 114.155 95.2299 117.247C92.8805 119.913 88.98 121.67 85.5212 120.851" fill="#F0F0F0"/>
<path d="M86.2491 140.489C86.1889 140.489 86.1387 126.233 86.1387 108.653C86.1387 91.0725 86.1889 76.8057 86.2491 76.8057C86.3094 76.8057 86.3545 91.0625 86.3545 108.653C86.3545 126.243 86.3043 140.489 86.2491 140.489Z" fill="#E0E0E0"/>
<path d="M93.3223 102.056C93.3574 102.101 91.8163 103.371 89.8736 104.882C87.9308 106.393 86.3294 107.593 86.2943 107.543C86.2592 107.493 87.8003 106.233 89.743 104.717C91.6858 103.201 93.2872 102.011 93.3223 102.056Z" fill="#E0E0E0"/>
<path d="M86.2541 101.138C85.4905 100.741 84.7617 100.281 84.0754 99.7622C83.3524 99.3001 82.666 98.7832 82.0222 98.2161C82.7864 98.6095 83.5153 99.068 84.2009 99.5865C84.9271 100.046 85.6139 100.565 86.2541 101.138Z" fill="#E0E0E0"/>
<path d="M42.7056 78.5276L34.1064 95.8717L36.6716 95.9671L29.3876 109.752H33.2128L27.244 122.001H60.612L53.2677 109.752L56.7867 109.601L49.7437 95.8215L52.349 95.6709L42.7056 78.5276Z" fill="#F0F0F0"/>
<path d="M43.032 98.5874C43.1022 98.5874 43.032 107.593 42.9215 118.698C42.8111 129.802 42.6203 138.808 42.55 138.808C42.4798 138.808 42.55 129.802 42.6605 118.693C42.7709 107.583 42.9567 98.5824 43.032 98.5874Z" fill="#E0E0E0"/>
<path d="M47.9917 103.778C47.2359 104.573 46.4185 105.306 45.5469 105.972C44.7313 106.709 43.8584 107.381 42.9365 107.98C43.693 107.186 44.5105 106.453 45.3813 105.786C46.1975 105.049 47.0704 104.378 47.9917 103.778Z" fill="#E0E0E0"/>
<path d="M33.7047 45.0441H58.1772C58.1772 45.0441 58.1772 39.4418 55.2857 39.4418C54.2504 39.4084 53.2358 39.737 52.4166 40.3711C51.5975 41.0052 51.025 41.905 50.7978 42.9156C50.7978 42.9156 50.7978 32.4941 45.5369 34.0001C40.562 35.4559 40.0149 42.1476 40.0149 42.1476C40.0149 42.1476 39.1163 38.7792 36.4205 40.6767C33.7248 42.5743 33.7047 45.0441 33.7047 45.0441Z" fill="#F0F0F0"/>
<path d="M241.909 221.005C241.909 221.076 191.283 221.136 128.849 221.136C66.4151 221.136 15.7733 221.076 15.7733 221.005C15.7733 220.935 66.39 220.875 128.849 220.875C191.308 220.875 241.909 220.93 241.909 221.005Z" fill="#263238"/>
<path d="M112.137 71.048V163.215H215.795V71.048H204.58L181.88 42.5996L162.734 70.7718L112.137 71.048Z" fill="#FF914D"/>
<g opacity="0.5">
<path d="M112.137 71.048V163.215H215.795V71.048H204.58L181.88 42.5996L162.734 70.7718L112.137 71.048Z" fill="white"/>
</g>
<path d="M132.629 37.168C132.127 37.8507 102.855 72.3833 102.855 72.3833H162.061L181.88 42.5996L204.58 71.0479L225.343 71.0228L199.997 36.3196L132.629 37.168Z" fill="#263238"/>
<path d="M152.297 159.395H127.734V163.22H152.297V159.395Z" fill="#E6E6E6"/>
<path d="M154.852 165.118H122.077V168.084H154.852V165.118Z" fill="#E6E6E6"/>
<path d="M129.366 122.337L129.567 159.189H150.666V122.337H129.366Z" fill="#FF914D"/>
<g opacity="0.2">
<path d="M129.366 122.337L129.567 159.189H150.666V122.337H129.366Z" fill="black"/>
</g>
<g opacity="0.4">
<path d="M145.937 141.694C146.45 141.694 146.866 141.279 146.866 140.766C146.866 140.253 146.45 139.837 145.937 139.837C145.424 139.837 145.008 140.253 145.008 140.766C145.008 141.279 145.424 141.694 145.937 141.694Z" fill="black"/>
</g>
<path d="M140.088 109.682L120.631 125.721V130.158L140.259 114.215L158.236 128.949V124.315L140.088 109.682Z" fill="#263238"/>
<path d="M150.636 32.4038H146.087V38.7039H150.636V32.4038Z" fill="#FF914D"/>
<path d="M158.502 29.0857H153.708V38.704H158.502V29.0857Z" fill="#FF914D"/>
<g opacity="0.4">
<path d="M150.636 32.4038H146.087V38.7039H150.636V32.4038Z" fill="black"/>
<path d="M158.502 29.0857H153.708V38.704H158.502V29.0857Z" fill="black"/>
</g>
<path d="M185.284 57.4136H179.922V62.7749H185.284V57.4136Z" fill="white"/>
<g opacity="0.1">
<path d="M162.061 72.3833H164.918L183.672 44.8486L181.88 42.5996L162.061 72.3833Z" fill="black"/>
</g>
<g opacity="0.1">
<path d="M112.137 72.3833V75.3602L162.061 72.3833H112.137Z" fill="black"/>
</g>
<g opacity="0.1">
<path d="M204.58 71.0479L215.795 74.7677V71.0479H204.58Z" fill="black"/>
</g>
<path d="M153.708 161.749H125.159V165.459H153.708V161.749Z" fill="#E6E6E6"/>
<path d="M152.96 161.799C152.96 161.87 146.785 161.93 139.17 161.93C131.555 161.93 125.385 161.87 125.385 161.799C125.385 161.729 131.555 161.669 139.17 161.669C146.785 161.669 152.96 161.724 152.96 161.799Z" fill="#E0E0E0"/>
<path d="M152.96 165.118C152.96 165.188 146.785 165.248 139.17 165.248C131.555 165.248 125.385 165.188 125.385 165.118C125.385 165.047 131.555 164.987 139.17 164.987C146.785 164.987 152.96 165.022 152.96 165.118Z" fill="#E0E0E0"/>
<path d="M151.524 77.4885H127.734V100.089H151.524V77.4885Z" fill="white"/>
<path d="M138.497 77.4885C138.497 77.4885 131.75 88.9893 128.056 89.0897C128.056 89.0897 131.479 90.8367 131.74 100.089H127.724V77.4986L138.497 77.4885Z" fill="#FF914D"/>
<path d="M140.761 77.4885C140.761 77.4885 147.503 88.9893 151.203 89.0897C151.203 89.0897 147.774 90.8367 147.518 100.089H151.534V77.4986L140.761 77.4885Z" fill="#FF914D"/>
<path d="M139.812 77.2878H139.059V101.394H139.812V77.2878Z" fill="#263238"/>
<path d="M127.383 88.9643V89.7173H151.489V88.9643H127.383Z" fill="#263238"/>
<path d="M152.719 100.089H126.148V100.651H152.719V100.089Z" fill="#263238"/>
<path d="M201.192 77.4885H177.402V100.089H201.192V77.4885Z" fill="white"/>
<path d="M188.165 77.4885C188.165 77.4885 181.423 88.9893 177.724 89.0897C177.724 89.0897 181.152 90.8367 181.408 100.089H177.392V77.4986L188.165 77.4885Z" fill="#FF914D"/>
<path d="M190.429 77.4885C190.429 77.4885 197.171 88.9893 200.871 89.0897C200.871 89.0897 197.447 90.8367 197.186 100.089H201.202V77.4986L190.429 77.4885Z" fill="#FF914D"/>
<path d="M189.48 77.2878H188.727V101.394H189.48V77.2878Z" fill="#263238"/>
<path d="M177.051 88.9643V89.7173H201.157V88.9643H177.051Z" fill="#263238"/>
<path d="M202.392 100.089H175.821V100.651H202.392V100.089Z" fill="#263238"/>
<path d="M201.192 125.214H177.402V147.814H201.192V125.214Z" fill="white"/>
<path d="M188.165 125.214C188.165 125.214 181.423 136.719 177.724 136.82C177.724 136.82 181.152 138.567 181.408 147.814H177.392V125.224L188.165 125.214Z" fill="#FF914D"/>
<path d="M190.429 125.214C190.429 125.214 197.171 136.719 200.871 136.82C200.871 136.82 197.447 138.567 197.186 147.814H201.202V125.224L190.429 125.214Z" fill="#FF914D"/>
<path d="M189.48 125.013H188.727V149.119H189.48V125.013Z" fill="#263238"/>
<path d="M177.051 136.695V137.448H201.157V136.695H177.051Z" fill="#263238"/>
<path d="M202.392 147.814H175.821V148.376H202.392V147.814Z" fill="#263238"/>
<path d="M114.547 145.183V220.644H121.023V150.253H170.294V145.183H114.547Z" fill="#455A64"/>
<path d="M121.023 150.253H118.929V220.644H121.023V150.253Z" fill="#263238"/>
<path d="M170.294 145.183H166.353V150.253H170.294V145.183Z" fill="#263238"/>
<path d="M171.454 153.948H123.914V183.927H171.454V153.948Z" fill="#FF914D"/>
<path d="M171.454 153.948H123.914V183.927H171.454V153.948Z" fill="#FF914D"/>
<path d="M171.459 153.948H168.833V183.927H171.459V153.948Z" fill="#FF914D"/>
<g opacity="0.2">
<path d="M171.459 153.948H168.833V183.927H171.459V153.948Z" fill="black"/>
</g>
<path d="M166.353 181.342C166.353 181.342 166.353 181.182 166.353 180.885C166.353 180.589 166.353 180.142 166.353 179.575C166.353 178.421 166.353 176.739 166.328 174.585C166.328 170.273 166.298 164.078 166.273 156.513L166.378 156.614L126.72 156.644L126.851 156.513C126.851 165.318 126.851 173.712 126.851 181.352L126.73 181.232L155.244 181.287L163.422 181.322H165.605H166.168H166.363H165.63H163.472L155.314 181.357L126.7 181.417H126.58V181.297C126.58 173.657 126.58 165.263 126.58 156.458V156.323H126.715L166.373 156.353H166.474V156.488C166.474 164.088 166.434 170.308 166.424 174.635C166.424 176.779 166.424 178.451 166.393 179.6V180.89C166.358 181.197 166.353 181.342 166.353 181.342Z" fill="#263238"/>
<path d="M133.096 150.253H131.685V153.948H133.096V150.253Z" fill="#FF914D"/>
<path d="M156.313 150.253H154.903V153.948H156.313V150.253Z" fill="#FF914D"/>
<path d="M139.622 162.688V164.264H142.779V165.83H139.622V168.28H137.614V161.122H143.226V162.688H139.622Z" fill="#FF914D"/>
<path opacity="0.2" d="M139.622 162.688V164.264H142.779V165.83H139.622V168.28H137.614V161.122H143.226V162.688H139.622Z" fill="black"/>
<path d="M143.733 164.701C143.733 162.557 145.42 160.981 147.709 160.981C149.998 160.981 151.69 162.557 151.69 164.701C151.69 166.844 150.003 168.426 147.709 168.426C145.415 168.426 143.733 166.849 143.733 164.701ZM149.642 164.701C149.62 164.323 149.488 163.959 149.262 163.655C149.037 163.352 148.727 163.12 148.371 162.991C148.015 162.861 147.629 162.838 147.261 162.926C146.892 163.013 146.558 163.206 146.298 163.481C146.038 163.757 145.864 164.102 145.799 164.475C145.733 164.848 145.778 165.232 145.928 165.579C146.078 165.927 146.327 166.223 146.643 166.431C146.96 166.639 147.33 166.749 147.709 166.749C147.973 166.752 148.236 166.7 148.479 166.596C148.722 166.493 148.942 166.34 149.123 166.147C149.305 165.955 149.445 165.727 149.534 165.478C149.623 165.229 149.66 164.965 149.642 164.701Z" fill="#FF914D"/>
<path opacity="0.2" d="M143.733 164.701C143.733 162.557 145.42 160.981 147.709 160.981C149.998 160.981 151.69 162.557 151.69 164.701C151.69 166.844 150.003 168.426 147.709 168.426C145.415 168.426 143.733 166.849 143.733 164.701ZM149.642 164.701C149.62 164.323 149.488 163.959 149.262 163.655C149.037 163.352 148.727 163.12 148.371 162.991C148.015 162.861 147.629 162.838 147.261 162.926C146.892 163.013 146.558 163.206 146.298 163.481C146.038 163.757 145.864 164.102 145.799 164.475C145.733 164.848 145.778 165.232 145.928 165.579C146.078 165.927 146.327 166.223 146.643 166.431C146.96 166.639 147.33 166.749 147.709 166.749C147.973 166.752 148.236 166.7 148.479 166.596C148.722 166.493 148.942 166.34 149.123 166.147C149.305 165.955 149.445 165.727 149.534 165.478C149.623 165.229 149.66 164.965 149.642 164.701Z" fill="black"/>
<path d="M155.882 166.378H154.777V168.28H152.769V161.122H156.042C157.995 161.122 159.22 162.126 159.22 163.772C159.239 164.246 159.116 164.714 158.866 165.117C158.616 165.519 158.252 165.838 157.819 166.031L159.365 168.28H157.182L155.882 166.378ZM155.882 162.718H154.757V164.816H155.882C156.72 164.816 157.142 164.425 157.142 163.772C157.142 163.12 156.74 162.718 155.902 162.718H155.882Z" fill="#FF914D"/>
<path opacity="0.2" d="M155.882 166.378H154.777V168.28H152.769V161.122H156.042C157.995 161.122 159.22 162.126 159.22 163.772C159.239 164.246 159.116 164.714 158.866 165.117C158.616 165.519 158.252 165.838 157.819 166.031L159.365 168.28H157.182L155.882 166.378ZM155.882 162.718H154.757V164.816H155.882C156.72 164.816 157.142 164.425 157.142 163.772C157.142 163.12 156.74 162.718 155.902 162.718H155.882Z" fill="black"/>
<path d="M133.929 177.813L134.627 176.247C135.367 176.719 136.224 176.975 137.102 176.985C137.98 176.985 138.327 176.739 138.327 176.377C138.327 175.188 134.055 176.056 134.055 173.265C134.055 171.925 135.149 170.83 137.383 170.83C138.331 170.815 139.267 171.041 140.104 171.488L139.451 173.064C138.815 172.701 138.1 172.501 137.368 172.482C136.479 172.482 136.158 172.783 136.158 173.16C136.158 174.304 140.415 173.451 140.415 176.217C140.415 177.522 139.321 178.636 137.092 178.636C135.981 178.664 134.885 178.379 133.929 177.813Z" fill="#FF914D"/>
<path opacity="0.2" d="M133.929 177.813L134.627 176.247C135.367 176.719 136.224 176.975 137.102 176.985C137.98 176.985 138.327 176.739 138.327 176.377C138.327 175.188 134.055 176.056 134.055 173.265C134.055 171.925 135.149 170.83 137.383 170.83C138.331 170.815 139.267 171.041 140.104 171.488L139.451 173.064C138.815 172.701 138.1 172.501 137.368 172.482C136.479 172.482 136.158 172.783 136.158 173.16C136.158 174.304 140.415 173.451 140.415 176.217C140.415 177.522 139.321 178.636 137.092 178.636C135.981 178.664 134.885 178.379 133.929 177.813Z" fill="black"/>
<path d="M146.424 177.03H143.246L142.659 178.491H140.49L143.803 170.961H145.897L149.22 178.491H147.011L146.424 177.03ZM145.801 175.464L144.833 173.054L143.869 175.454L145.801 175.464Z" fill="#FF914D"/>
<path opacity="0.2" d="M146.424 177.03H143.246L142.659 178.491H140.49L143.803 170.961H145.897L149.22 178.491H147.011L146.424 177.03ZM145.801 175.464L144.833 173.054L143.869 175.454L145.801 175.464Z" fill="black"/>
<path d="M149.822 170.981H151.946V176.804H155.53V178.491H149.822V170.981Z" fill="#FF914D"/>
<path opacity="0.2" d="M149.822 170.981H151.946V176.804H155.53V178.491H149.822V170.981Z" fill="black"/>
<path d="M162.393 176.849V178.491H156.369V170.961H162.252V172.602H158.467V173.867H161.8V175.454H158.467V176.829L162.393 176.849Z" fill="#FF914D"/>
<path opacity="0.2" d="M162.393 176.849V178.491H156.369V170.961H162.252V172.602H158.467V173.867H161.8V175.454H158.467V176.829L162.393 176.849Z" fill="black"/>
<path d="M165.42 158.556C165.394 158.556 165.389 158.461 165.334 158.31C165.261 158.107 165.126 157.931 164.948 157.808C164.82 157.717 164.671 157.659 164.515 157.64C164.359 157.62 164.2 157.64 164.054 157.698C163.878 157.765 163.727 157.884 163.62 158.039C163.514 158.194 163.457 158.378 163.457 158.566C163.458 158.754 163.515 158.938 163.622 159.092C163.728 159.247 163.879 159.366 164.054 159.435C164.201 159.49 164.359 159.508 164.514 159.489C164.67 159.47 164.819 159.413 164.948 159.324C165.125 159.2 165.26 159.025 165.334 158.822C165.389 158.672 165.394 158.581 165.42 158.581C165.445 158.581 165.46 158.672 165.42 158.847C165.377 159.099 165.243 159.326 165.043 159.485C164.893 159.606 164.715 159.687 164.526 159.721C164.336 159.754 164.141 159.739 163.959 159.676C163.732 159.595 163.537 159.446 163.398 159.25C163.26 159.054 163.186 158.819 163.186 158.579C163.186 158.339 163.26 158.104 163.398 157.908C163.537 157.712 163.732 157.563 163.959 157.482C164.141 157.419 164.336 157.404 164.526 157.437C164.715 157.47 164.893 157.552 165.043 157.673C165.243 157.832 165.377 158.059 165.42 158.31C165.46 158.461 165.43 158.556 165.42 158.556Z" fill="#263238"/>
<path d="M164.943 157.929C164.993 157.979 164.807 158.26 164.521 158.561C164.235 158.863 163.969 159.063 163.914 159.018C163.858 158.973 164.049 158.687 164.335 158.386C164.621 158.085 164.887 157.879 164.943 157.929Z" fill="#263238"/>
<path d="M165.053 158.948C165.053 159.013 164.667 158.948 164.32 158.637C163.974 158.325 163.818 158.019 163.873 157.979C163.929 157.939 164.17 158.175 164.486 158.436C164.802 158.697 165.083 158.878 165.053 158.948Z" fill="#263238"/>
<path d="M165.033 179.721C165.033 179.721 165.003 179.625 164.953 179.475C164.878 179.272 164.743 179.097 164.566 178.973C164.438 178.882 164.289 178.824 164.133 178.805C163.977 178.785 163.819 178.805 163.673 178.862C163.497 178.929 163.345 179.048 163.239 179.204C163.132 179.359 163.075 179.542 163.075 179.731C163.078 179.914 163.135 180.093 163.238 180.245C163.342 180.396 163.488 180.514 163.658 180.584C163.804 180.639 163.962 180.658 164.118 180.638C164.273 180.619 164.422 180.563 164.551 180.474C164.727 180.348 164.861 180.173 164.938 179.972C164.988 179.821 164.998 179.731 165.018 179.731C165.038 179.731 165.063 179.821 165.018 179.997C164.975 180.247 164.843 180.474 164.646 180.634C164.497 180.755 164.318 180.836 164.129 180.869C163.939 180.903 163.744 180.887 163.562 180.825C163.334 180.747 163.135 180.599 162.995 180.402C162.854 180.205 162.779 179.97 162.779 179.728C162.779 179.487 162.854 179.251 162.995 179.054C163.135 178.858 163.334 178.71 163.562 178.631C163.744 178.569 163.939 178.554 164.129 178.587C164.318 178.62 164.497 178.701 164.646 178.822C164.843 178.983 164.975 179.209 165.018 179.46C165.078 179.625 165.048 179.721 165.033 179.721Z" fill="#263238"/>
<path d="M164.556 179.078C164.611 179.128 164.426 179.409 164.139 179.711C163.853 180.012 163.587 180.213 163.532 180.167C163.477 180.122 163.668 179.836 163.949 179.535C164.23 179.234 164.506 179.043 164.556 179.078Z" fill="#263238"/>
<path d="M164.662 180.112C164.662 180.178 164.275 180.087 163.929 179.801C163.582 179.515 163.427 179.184 163.482 179.143C163.537 179.103 163.778 179.339 164.094 179.6C164.411 179.861 164.702 180.042 164.662 180.112Z" fill="#263238"/>
<path d="M129.878 179.209C129.878 179.209 129.848 179.118 129.793 178.968C129.718 178.765 129.583 178.59 129.406 178.466C129.277 178.377 129.128 178.32 128.973 178.301C128.817 178.282 128.659 178.3 128.513 178.355C128.338 178.424 128.188 178.544 128.081 178.698C127.975 178.853 127.917 179.036 127.915 179.224C127.918 179.411 127.977 179.592 128.084 179.745C128.192 179.898 128.343 180.016 128.518 180.082C128.664 180.14 128.822 180.16 128.978 180.14C129.134 180.121 129.283 180.063 129.411 179.972C129.59 179.849 129.725 179.673 129.798 179.47C129.853 179.319 129.858 179.224 129.883 179.224C129.908 179.224 129.923 179.319 129.883 179.495C129.841 179.746 129.706 179.973 129.507 180.132C129.357 180.253 129.179 180.335 128.989 180.368C128.799 180.401 128.604 180.386 128.422 180.323C128.196 180.242 128 180.093 127.862 179.897C127.723 179.701 127.649 179.466 127.649 179.226C127.649 178.986 127.723 178.752 127.862 178.555C128 178.359 128.196 178.21 128.422 178.129C128.604 178.066 128.799 178.051 128.989 178.084C129.179 178.118 129.357 178.199 129.507 178.32C129.706 178.479 129.841 178.706 129.883 178.958C129.918 179.118 129.888 179.214 129.878 179.209Z" fill="#263238"/>
<path d="M129.401 178.576C129.451 178.621 129.266 178.907 128.984 179.209C128.703 179.51 128.427 179.711 128.372 179.665C128.317 179.62 128.507 179.329 128.794 179.028C129.08 178.727 129.346 178.536 129.401 178.576Z" fill="#263238"/>
<path d="M129.522 179.605C129.496 179.67 129.135 179.575 128.789 179.294C128.442 179.013 128.287 178.672 128.342 178.636C128.397 178.601 128.638 178.832 128.954 179.088C129.271 179.344 129.522 179.535 129.522 179.605Z" fill="#263238"/>
<path d="M130.064 158.968C130.039 158.968 130.034 158.878 129.978 158.727C129.904 158.524 129.769 158.349 129.592 158.225C129.463 158.136 129.314 158.08 129.159 158.06C129.003 158.041 128.845 158.06 128.698 158.115C128.523 158.183 128.373 158.302 128.266 158.457C128.16 158.612 128.102 158.795 128.101 158.983C128.101 159.171 128.158 159.355 128.264 159.51C128.371 159.665 128.522 159.784 128.698 159.852C128.845 159.909 129.003 159.929 129.159 159.91C129.315 159.89 129.464 159.833 129.592 159.741C129.77 159.619 129.905 159.443 129.978 159.239C130.034 159.089 130.039 158.993 130.064 158.993C130.089 158.993 130.104 159.089 130.064 159.264C130.021 159.516 129.887 159.743 129.687 159.902C129.537 160.023 129.359 160.104 129.17 160.137C128.98 160.171 128.785 160.155 128.603 160.093C128.377 160.012 128.181 159.863 128.042 159.667C127.904 159.47 127.83 159.236 127.83 158.996C127.83 158.755 127.904 158.521 128.042 158.325C128.181 158.128 128.377 157.98 128.603 157.899C128.785 157.836 128.98 157.82 129.17 157.854C129.359 157.887 129.537 157.968 129.687 158.09C129.887 158.248 130.021 158.475 130.064 158.727C130.104 158.878 130.074 158.968 130.064 158.968Z" fill="#263238"/>
<path d="M129.587 158.346C129.637 158.391 129.451 158.677 129.165 158.978C128.879 159.279 128.613 159.48 128.558 159.435C128.503 159.39 128.693 159.099 128.979 158.797C129.266 158.496 129.522 158.295 129.587 158.346Z" fill="#263238"/>
<path d="M129.697 159.365C129.672 159.43 129.311 159.334 128.964 159.053C128.618 158.772 128.462 158.431 128.517 158.396C128.573 158.361 128.814 158.591 129.13 158.847C129.446 159.103 129.727 159.294 129.697 159.365Z" fill="#263238"/>
<path d="M137.609 162.688V164.264H140.766V165.83H137.609V168.28H135.601V161.122H141.218V162.688H137.609Z" fill="#FAFAFA"/>
<path d="M141.72 164.701C141.72 162.557 143.407 160.981 145.696 160.981C147.985 160.981 149.672 162.557 149.672 164.701C149.672 166.844 147.985 168.426 145.696 168.426C143.407 168.426 141.72 166.849 141.72 164.701ZM147.629 164.701C147.607 164.323 147.475 163.959 147.249 163.655C147.024 163.352 146.714 163.12 146.358 162.991C146.002 162.861 145.616 162.838 145.248 162.926C144.879 163.013 144.545 163.206 144.285 163.481C144.025 163.757 143.851 164.102 143.786 164.475C143.72 164.848 143.765 165.232 143.915 165.579C144.065 165.927 144.314 166.223 144.63 166.431C144.947 166.639 145.317 166.749 145.696 166.749C145.96 166.752 146.223 166.7 146.466 166.596C146.709 166.493 146.929 166.34 147.11 166.147C147.292 165.955 147.431 165.727 147.521 165.478C147.61 165.229 147.647 164.965 147.629 164.701Z" fill="#FAFAFA"/>
<path d="M153.869 166.378H152.764V168.28H150.756V161.122H154.029C155.982 161.122 157.212 162.126 157.212 163.772C157.231 164.246 157.108 164.714 156.858 165.117C156.608 165.519 156.244 165.838 155.811 166.031L157.352 168.28H155.184L153.869 166.378ZM153.869 162.718H152.764V164.816H153.889C154.727 164.816 155.144 164.425 155.144 163.772C155.144 163.12 154.727 162.718 153.889 162.718H153.869Z" fill="#FAFAFA"/>
<path d="M131.911 177.813L132.609 176.247C133.351 176.719 134.21 176.974 135.089 176.985C135.967 176.985 136.309 176.739 136.309 176.377C136.309 175.188 132.042 176.056 132.042 173.265C132.042 171.925 133.136 170.83 135.365 170.83C136.314 170.815 137.252 171.041 138.091 171.488L137.433 173.054C136.799 172.692 136.085 172.492 135.355 172.472C134.466 172.472 134.145 172.773 134.145 173.15C134.145 174.294 138.402 173.441 138.402 176.207C138.402 177.512 137.308 178.626 135.074 178.626C133.964 178.657 132.868 178.375 131.911 177.813Z" fill="#FAFAFA"/>
<path d="M144.406 177.03H141.233L140.641 178.491H138.477L141.79 170.961H143.884L147.207 178.491H144.998L144.406 177.03ZM143.783 175.464L142.819 173.054L141.856 175.454L143.783 175.464Z" fill="#FAFAFA"/>
<path d="M147.809 170.981H149.928V176.804H153.512V178.491H147.809V170.981Z" fill="#FAFAFA"/>
<path d="M160.374 176.849V178.491H154.35V170.961H160.239V172.602H156.454V173.867H159.787V175.454H156.454V176.829L160.374 176.849Z" fill="#FAFAFA"/>
<path d="M189.495 209.529C186.483 207.908 185.274 205.619 184.561 202.271C184.218 200.59 184.239 198.855 184.622 197.183C185.006 195.511 185.743 193.94 186.785 192.577C188.537 190.323 191.107 188.676 192.307 186.091C193.582 183.33 193.12 179.821 195.063 177.487C196.398 175.88 198.546 175.243 200.258 174.043C201.649 173.039 202.733 171.714 203.978 170.529C205.223 169.344 206.744 168.34 208.446 168.27C211.016 168.17 213.285 170.444 213.702 172.979C214.119 175.514 212.974 178.119 211.217 180.007C209.947 181.367 208.31 182.487 207.572 184.199C206.182 187.416 208.481 191.392 206.955 194.545C205.841 196.849 202.869 198.229 202.733 200.785C202.678 201.723 203.049 202.632 203.15 203.566C203.466 206.492 201.006 209.163 198.19 210.011C195.374 210.86 192.332 210.297 189.495 209.509" fill="#FF914D"/>
<path d="M204.114 179.198C204.04 179.334 203.95 179.46 203.848 179.575L203.029 180.614C202.668 181.056 202.231 181.618 201.764 182.271C201.297 182.923 200.72 183.661 200.183 184.53C199.902 184.956 199.606 185.403 199.304 185.87C199.003 186.337 198.722 186.874 198.411 187.376C197.783 188.38 197.211 189.55 196.584 190.744C193.956 195.995 192.162 201.623 191.267 207.426C191.087 208.766 190.891 210.036 190.816 211.236C190.77 211.834 190.705 212.411 190.68 212.968C190.655 213.525 190.645 214.062 190.625 214.574C190.565 215.578 190.625 216.522 190.625 217.33C190.625 218.139 190.66 218.836 190.705 219.414C190.75 219.991 190.755 220.418 190.775 220.734C190.789 220.888 190.789 221.042 190.775 221.196C190.735 221.047 190.712 220.893 190.705 220.739C190.67 220.403 190.625 219.966 190.57 219.424C190.514 218.882 190.444 218.154 190.429 217.34C190.414 216.527 190.344 215.593 190.384 214.569C190.384 214.067 190.409 213.515 190.419 212.958C190.429 212.401 190.494 211.813 190.535 211.211C190.6 210.006 190.786 208.726 190.956 207.376C191.821 201.53 193.621 195.862 196.287 190.589C196.925 189.389 197.512 188.24 198.155 187.215C198.471 186.713 198.757 186.211 199.069 185.709L199.972 184.374C200.529 183.511 201.117 182.788 201.604 182.135C202.091 181.483 202.537 180.94 202.919 180.509L203.787 179.505C203.884 179.391 203.994 179.288 204.114 179.198Z" fill="#263238"/>
<path d="M176.298 198.551C176.9 198.6 177.486 198.77 178.022 199.051C178.557 199.331 179.031 199.716 179.415 200.182C180.178 201.124 180.714 202.228 180.981 203.41C181.564 205.669 181.172 208.325 180.51 210.559C178.075 209.67 176.594 207.045 175.926 205.679C174.867 203.506 174.28 198.942 176.298 198.551Z" fill="#FF914D"/>
<path d="M183.998 213.324C183.636 212.754 183.431 212.097 183.405 211.421C183.38 210.746 183.534 210.075 183.853 209.479C184.178 208.887 184.618 208.367 185.147 207.948C185.677 207.529 186.285 207.22 186.935 207.039C187.226 206.924 187.538 206.874 187.85 206.891C188.162 206.908 188.466 206.993 188.742 207.14C188.975 207.32 189.156 207.559 189.264 207.833C189.373 208.107 189.406 208.405 189.36 208.696C189.264 209.274 189.016 209.816 188.642 210.267C187.442 211.864 185.986 213.189 183.998 213.339" fill="#FF914D"/>
<g opacity="0.2">
<path d="M176.298 198.551C176.9 198.6 177.486 198.77 178.022 199.051C178.557 199.331 179.031 199.716 179.415 200.182C180.178 201.124 180.714 202.228 180.981 203.41C181.564 205.669 181.172 208.325 180.51 210.559C178.075 209.67 176.594 207.045 175.926 205.679C174.867 203.506 174.28 198.942 176.298 198.551Z" fill="black"/>
</g>
<g opacity="0.2">
<path d="M183.998 213.324C183.636 212.754 183.431 212.097 183.405 211.421C183.38 210.746 183.534 210.075 183.853 209.479C184.178 208.887 184.618 208.367 185.147 207.948C185.677 207.529 186.285 207.22 186.935 207.039C187.226 206.924 187.538 206.874 187.85 206.891C188.162 206.908 188.466 206.993 188.742 207.14C188.975 207.32 189.156 207.559 189.264 207.833C189.373 208.107 189.406 208.405 189.36 208.696C189.264 209.274 189.016 209.816 188.642 210.267C187.442 211.864 185.986 213.189 183.998 213.339" fill="black"/>
</g>
<g opacity="0.2">
<path d="M181.463 215.538C180.66 214.362 179.588 213.395 178.336 212.716C177.084 212.036 175.689 211.665 174.265 211.633C173.542 211.633 172.683 211.793 172.397 212.461C172.111 213.129 172.588 213.867 173.11 214.369C174.219 215.398 175.608 216.076 177.102 216.317C178.595 216.558 180.127 216.352 181.504 215.724" fill="black"/>
</g>
<path d="M181.463 215.538C180.66 214.362 179.588 213.395 178.336 212.716C177.084 212.036 175.689 211.665 174.265 211.633C173.542 211.633 172.683 211.793 172.397 212.461C172.111 213.129 172.588 213.867 173.11 214.369C174.219 215.398 175.608 216.076 177.102 216.317C178.595 216.558 180.127 216.352 181.504 215.724" fill="#FF914D"/>
<path d="M184.019 221.07C183.955 220.92 183.914 220.761 183.898 220.599C183.838 220.287 183.758 219.841 183.677 219.283C183.443 217.826 183.405 216.343 183.567 214.876C183.744 213.391 184.324 211.983 185.243 210.805C185.521 210.452 185.844 210.136 186.202 209.866C186.328 209.759 186.468 209.671 186.619 209.605C186.175 210.008 185.764 210.446 185.389 210.915C184.545 212.102 184.015 213.484 183.848 214.931C183.696 216.377 183.71 217.835 183.888 219.278C183.966 219.873 184.009 220.471 184.019 221.07Z" fill="#263238"/>
<path d="M177.056 201.99C177.192 202.221 177.312 202.463 177.412 202.712C177.633 203.184 177.914 203.877 178.296 204.72C179.024 206.432 179.992 208.812 180.996 211.462C182 214.113 182.849 216.542 183.431 218.31C183.727 219.188 183.933 219.906 184.104 220.403C184.194 220.658 184.265 220.92 184.315 221.186C184.19 220.946 184.088 220.696 184.008 220.438C183.818 219.906 183.562 219.208 183.255 218.37C182.628 216.618 181.749 214.208 180.745 211.558C179.741 208.907 178.803 206.538 178.12 204.791L177.317 202.743C177.209 202.499 177.121 202.247 177.056 201.99Z" fill="#263238"/>
<path d="M175.51 213.405C175.665 213.383 175.822 213.383 175.977 213.405C176.16 213.413 176.343 213.435 176.524 213.47C176.766 213.506 177.005 213.556 177.242 213.621C177.857 213.778 178.455 213.995 179.029 214.268C179.728 214.615 180.387 215.036 180.997 215.523C181.599 216.019 182.144 216.579 182.623 217.195C183.013 217.697 183.35 218.239 183.627 218.811C183.738 219.028 183.835 219.251 183.918 219.479C183.989 219.642 184.05 219.81 184.099 219.981C184.156 220.129 184.19 220.285 184.199 220.443C184.154 220.443 183.968 219.815 183.466 218.877C183.177 218.33 182.841 217.81 182.462 217.321C181.98 216.731 181.442 216.19 180.856 215.704C180.261 215.231 179.622 214.816 178.948 214.464C178.392 214.186 177.812 213.956 177.216 213.776C176.167 213.505 175.505 213.455 175.51 213.405Z" fill="#263238"/>
<path d="M61.7514 219.459L61.6259 220.568C61.6259 220.568 58.6993 227.436 59.2414 227.953C59.6104 228.3 60.0759 228.528 60.5768 228.606C61.0777 228.684 61.5905 228.609 62.0476 228.39C63.3428 227.852 68.2222 221.618 68.2222 221.618L68.418 220.704L61.7514 219.459Z" fill="#FF914D"/>
<path d="M59.4373 226.507C59.4373 226.507 60.9935 225.503 62.2937 227.511C62.2937 227.511 62.9764 227.129 64.7184 225.131C66.4603 223.134 68.137 221.191 68.137 221.191C68.137 221.191 68.3177 220.995 68.2826 221.191C68.2474 221.387 68.2073 221.668 68.2073 221.668L64.874 225.684C64.874 225.684 62.866 228.038 62.3138 228.289C61.7449 228.638 61.0638 228.755 60.4112 228.615C59.9113 228.516 59.465 228.238 59.1562 227.832C59.1411 227.717 59.4373 226.507 59.4373 226.507Z" fill="#F0F0F0"/>
<path d="M62.63 228.184C62.3643 227.581 61.9186 227.076 61.3541 226.737C60.7896 226.398 60.134 226.242 59.4774 226.291C59.6647 226.221 59.8654 226.193 60.0648 226.211C60.5487 226.219 61.0218 226.356 61.4352 226.607C61.8507 226.85 62.1965 227.196 62.4392 227.611C62.5501 227.783 62.6157 227.98 62.63 228.184Z" fill="#263238"/>
<path d="M68.418 220.87C68.3261 221.006 68.2255 221.137 68.1168 221.261L67.2735 222.295L64.3669 225.664C63.8511 226.303 63.2818 226.898 62.6651 227.441C62.1433 227.886 61.4921 228.152 60.8077 228.199C60.343 228.215 59.8877 228.065 59.5226 227.777C59.3887 227.675 59.279 227.545 59.2013 227.396C59.3136 227.515 59.4344 227.625 59.5627 227.727C59.9226 227.986 60.3602 228.113 60.8027 228.088C61.459 228.027 62.0792 227.76 62.5747 227.325C63.1805 226.784 63.7412 226.195 64.2514 225.563L67.1881 222.22L68.0917 221.216C68.1895 221.091 68.2988 220.975 68.418 220.87Z" fill="#263238"/>
<path d="M62.7154 224.474C62.4377 224.405 62.1708 224.299 61.9222 224.158C61.6543 224.06 61.3984 223.932 61.1592 223.776C61.4499 223.789 61.7336 223.87 61.9875 224.012C62.262 224.109 62.5109 224.267 62.7154 224.474Z" fill="#263238"/>
<path d="M63.4031 223.44C63.0829 223.407 62.7678 223.336 62.4643 223.229C62.1476 223.174 61.839 223.079 61.5457 222.948C62.1968 222.959 62.8352 223.131 63.4031 223.45V223.44Z" fill="#263238"/>
<path d="M64.0506 222.546C64.0205 222.581 63.6239 222.34 63.0768 222.175C62.5296 222.009 62.0728 221.974 62.0728 221.929C62.4322 221.881 62.7978 221.911 63.1445 222.017C63.4911 222.124 63.8105 222.304 64.0808 222.546H64.0506Z" fill="#263238"/>
<path d="M64.3518 221.552C64.3267 221.593 63.9653 221.412 63.4884 221.286C63.1921 221.233 62.8988 221.165 62.6099 221.081C62.917 221.036 63.2301 221.055 63.5297 221.136C63.8292 221.217 64.109 221.359 64.3518 221.552Z" fill="#455A64"/>
<path d="M64.0205 220.709C63.8265 220.67 63.6432 220.59 63.4833 220.473C63.3041 220.364 63.136 220.238 62.9813 220.097C62.896 220.016 62.8056 219.926 62.7153 219.83C62.6646 219.779 62.6208 219.722 62.5848 219.66C62.5604 219.62 62.5475 219.574 62.5475 219.527C62.5475 219.48 62.5604 219.434 62.5848 219.394C62.6367 219.33 62.7069 219.284 62.7859 219.262C62.8649 219.239 62.9489 219.241 63.0265 219.268C63.158 219.298 63.2813 219.356 63.388 219.439C63.5611 219.576 63.6931 219.759 63.7695 219.966C63.8553 220.146 63.89 220.345 63.8699 220.543C63.8699 220.543 63.8147 220.322 63.6691 220.011C63.5855 219.832 63.4598 219.675 63.3026 219.554C63.142 219.434 62.8358 219.334 62.7153 219.479C62.6701 219.534 62.7153 219.635 62.8257 219.73C62.9042 219.822 62.9881 219.909 63.0767 219.991C63.2254 220.132 63.383 220.263 63.5486 220.383C63.8297 220.589 64.0305 220.689 64.0205 220.709Z" fill="#455A64"/>
<path d="M63.9151 220.614C63.9186 220.409 63.9833 220.209 64.1008 220.041C64.212 219.845 64.3624 219.674 64.5426 219.539C64.6489 219.459 64.7654 219.393 64.889 219.344C64.9602 219.313 65.0378 219.301 65.1149 219.308C65.1638 219.311 65.211 219.328 65.2509 219.356C65.2909 219.385 65.322 219.424 65.3408 219.469C65.36 219.547 65.3605 219.627 65.3421 219.705C65.3238 219.783 65.2872 219.855 65.2354 219.916C65.1667 220.029 65.0822 220.132 64.9844 220.222C64.8205 220.374 64.625 220.487 64.4121 220.553C64.2231 220.633 64.0127 220.648 63.8147 220.594C64.0049 220.557 64.1927 220.508 64.3769 220.448C64.5638 220.37 64.7342 220.258 64.8789 220.117C64.9646 220.033 65.0388 219.938 65.0998 219.836C65.1349 219.792 65.161 219.742 65.1765 219.689C65.192 219.636 65.1967 219.58 65.1902 219.524C65.1651 219.449 65.0446 219.444 64.9342 219.489C64.8242 219.534 64.7198 219.591 64.6229 219.66C64.4526 219.774 64.3046 219.919 64.1862 220.087C63.9904 220.393 63.9452 220.619 63.9151 220.614Z" fill="#455A64"/>
<path d="M67.2384 220.538C67.0514 220.532 66.8662 220.576 66.7012 220.664C66.3211 220.909 66.0319 221.272 65.8779 221.698C65.7241 222.125 65.7048 222.589 65.8227 223.028C65.9131 223.364 66.0336 223.555 66.0135 223.57C65.8712 223.433 65.7688 223.259 65.7173 223.068C65.5508 222.611 65.5508 222.11 65.7173 221.653C65.8821 221.193 66.2087 220.809 66.636 220.573C67.0074 220.393 67.2735 220.523 67.2384 220.538Z" fill="#263238"/>
<path d="M65.3508 223.43C65.2125 223.709 65.0293 223.963 64.8086 224.183C64.6258 224.434 64.4018 224.653 64.146 224.83C64.2843 224.551 64.4675 224.297 64.6882 224.077C64.871 223.826 65.095 223.607 65.3508 223.43Z" fill="#263238"/>
<path d="M66.0285 222.807C66.0737 222.807 66.1239 222.898 66.169 223.023C66.2142 223.149 66.2343 223.259 66.169 223.279C66.1038 223.299 66.0435 223.214 65.9984 223.073C65.9532 222.933 65.9883 222.817 66.0285 222.807Z" fill="#263238"/>
<path d="M66.0988 221.813C66.1389 221.813 66.1339 221.944 66.0988 222.074C66.0636 222.205 66.0335 222.31 65.9883 222.305C65.9432 222.3 65.913 222.185 65.9432 222.044C65.9733 221.904 66.0586 221.798 66.0988 221.813Z" fill="#263238"/>
<path d="M66.6811 221.01C66.7062 221.045 66.6409 221.141 66.5506 221.231C66.4602 221.322 66.3648 221.397 66.3297 221.372C66.2946 221.347 66.3297 221.231 66.4351 221.126C66.5405 221.02 66.651 220.975 66.6811 221.01Z" fill="#455A64"/>
<path d="M67.5948 220.624C67.5948 220.669 67.4944 220.714 67.3689 220.749C67.2434 220.784 67.1279 220.799 67.1128 220.749C67.0978 220.699 67.1881 220.629 67.3287 220.589C67.4693 220.548 67.5897 220.584 67.5948 220.624Z" fill="#455A64"/>
<path d="M77.8506 221.939L78.8546 217.345L70.2654 215.443L68.7594 222.14L69.2865 222.295C71.6258 222.953 81.2291 225.473 82.9208 225.342C84.7832 225.202 77.8506 221.939 77.8506 221.939Z" fill="#FF914D"/>
<path d="M71.8618 222.752C71.9001 221.999 71.6547 221.259 71.1741 220.679C70.7079 220.1 70.0416 219.716 69.3066 219.604L68.7795 222.019L71.8618 222.752Z" fill="#FF914D"/>
<path d="M81.209 223.661C81.209 223.661 83.6035 224.966 83.217 225.317C82.8305 225.669 73.0013 223.485 68.7594 222.14L68.8146 221.954L80.2301 224.594C80.2301 224.594 80.702 223.57 81.209 223.661Z" fill="#F0F0F0"/>
<path d="M68.6591 221.919C68.7039 221.941 68.751 221.957 68.7996 221.969L69.2213 222.084L70.7675 222.501C72.0727 222.842 73.8849 223.289 75.8979 223.741C77.9109 224.193 79.7382 224.554 81.0685 224.805L82.6448 225.086L83.0715 225.157H83.2221C83.1751 225.139 83.1263 225.127 83.0765 225.121L82.6498 225.031L81.0836 224.715C79.7583 224.449 77.931 224.067 75.923 223.62C73.915 223.174 72.0978 222.752 70.7875 222.426L69.2364 222.044L68.8097 221.944L68.6591 221.919Z" fill="#263238"/>
<path d="M80.1699 224.73C80.2966 224.486 80.4498 224.257 80.6267 224.047C80.8308 223.864 81.0548 223.704 81.2944 223.57C81.0049 223.609 80.7402 223.754 80.5514 223.977C80.3365 224.173 80.2008 224.441 80.1699 224.73Z" fill="#263238"/>
<path d="M77.926 222.878C77.926 222.903 78.1017 222.782 78.2673 222.612C78.433 222.441 78.5585 222.285 78.5384 222.265C78.5183 222.245 78.3627 222.366 78.192 222.536C78.0214 222.707 77.9059 222.857 77.926 222.878Z" fill="#263238"/>
<path d="M77.3135 222.355C77.3135 222.381 77.4842 222.32 77.6649 222.225C77.8456 222.13 77.9711 222.019 77.9611 221.994C77.951 221.969 77.7904 222.029 77.6097 222.13C77.4289 222.23 77.3135 222.33 77.3135 222.355Z" fill="#263238"/>
<path d="M77.0525 221.447C77.0525 221.477 77.2382 221.547 77.4892 221.608C77.6356 221.659 77.7919 221.677 77.946 221.658C77.8126 221.577 77.664 221.524 77.5093 221.502C77.3629 221.451 77.207 221.432 77.0525 221.447Z" fill="#263238"/>
<path d="M77.0273 220.844C77.1527 220.976 77.3159 221.066 77.4942 221.1C77.6621 221.172 77.8487 221.188 78.0263 221.146C77.8645 221.08 77.6963 221.031 77.5243 221C77.3632 220.935 77.197 220.883 77.0273 220.844Z" fill="#263238"/>
<path d="M78.3827 222.195C78.5583 222.267 78.7452 222.308 78.9349 222.315C79.1403 222.333 79.3469 222.333 79.5524 222.315C79.6763 222.309 79.7992 222.289 79.9188 222.255C79.9932 222.23 80.0557 222.178 80.0945 222.11C80.1118 222.071 80.1178 222.028 80.1115 221.986C80.1053 221.945 80.0872 221.905 80.0594 221.874C79.873 221.721 79.6398 221.638 79.3992 221.638C79.1587 221.638 78.9255 221.721 78.7391 221.874C78.6308 221.965 78.542 222.078 78.4781 222.205C78.4517 222.249 78.4362 222.299 78.4329 222.35C78.5252 222.191 78.646 222.05 78.7893 221.934C78.9453 221.822 79.13 221.758 79.3214 221.748C79.4366 221.735 79.5534 221.745 79.6646 221.778C79.7759 221.81 79.8794 221.865 79.969 221.939C80.0443 222.024 79.969 222.12 79.8736 222.155C79.7644 222.189 79.6516 222.211 79.5373 222.22C79.3367 222.234 79.1354 222.234 78.9349 222.22C78.5985 222.25 78.3877 222.18 78.3827 222.195Z" fill="#263238"/>
<path d="M78.5182 222.25C78.6112 222.148 78.6646 222.016 78.6688 221.879C78.6835 221.73 78.6629 221.581 78.6086 221.442C78.5791 221.351 78.5274 221.268 78.4582 221.201C78.389 221.135 78.3044 221.086 78.212 221.06C78.183 221.06 78.1541 221.065 78.1271 221.075C78.1 221.086 78.0753 221.101 78.0543 221.121C78.0334 221.142 78.0165 221.166 78.0048 221.192C77.9931 221.219 77.9868 221.247 77.9861 221.276C77.9765 221.368 77.9886 221.461 78.0212 221.547C78.067 221.685 78.1294 221.816 78.207 221.939C78.2711 222.056 78.3623 222.156 78.473 222.23C78.473 222.23 78.3877 222.105 78.2722 221.899C78.2082 221.777 78.1561 221.649 78.1166 221.517C78.0664 221.382 78.0614 221.161 78.207 221.166C78.3526 221.171 78.458 221.352 78.5182 221.482C78.5723 221.605 78.5981 221.739 78.5935 221.874C78.5805 222.001 78.5553 222.127 78.5182 222.25Z" fill="#263238"/>
<path d="M69.3568 219.61C69.3568 219.61 69.6078 219.64 69.9843 219.77C70.4777 219.94 70.9133 220.245 71.241 220.651C71.5687 221.056 71.7752 221.546 71.8367 222.064C71.8819 222.461 71.8367 222.712 71.8367 222.712C71.8576 222.657 71.8711 222.6 71.8769 222.541C71.8964 222.375 71.8964 222.206 71.8769 222.039C71.8356 221.501 71.6321 220.988 71.2934 220.568C70.9546 220.147 70.4965 219.84 69.9793 219.685C69.8241 219.637 69.6643 219.605 69.5024 219.59C69.4171 219.6 69.3568 219.6 69.3568 219.61Z" fill="#263238"/>
<path d="M71.0385 216.226C70.8524 216.8 70.6966 217.383 70.5716 217.973C70.4174 218.556 70.2967 219.148 70.2102 219.745C70.4007 219.173 70.5566 218.589 70.6771 217.998C70.8352 217.416 70.956 216.824 71.0385 216.226Z" fill="#455A64"/>
<path d="M73.1318 222.17C73.9275 222.511 74.7773 222.708 75.6418 222.752C75.6418 222.722 75.0796 222.632 74.3919 222.471C73.7041 222.31 73.1419 222.14 73.1318 222.17Z" fill="#263238"/>
<path d="M71.4501 221.793C71.42 221.793 71.4501 221.919 71.4953 222.064C71.5405 222.21 71.5304 222.325 71.5605 222.33C71.5907 222.335 71.6358 222.205 71.6007 222.039C71.5656 221.874 71.4702 221.773 71.4501 221.793Z" fill="#263238"/>
<path d="M70.9882 220.86C70.9631 220.86 70.9882 220.98 71.0685 221.09C71.1489 221.201 71.2141 221.276 71.2392 221.261C71.2643 221.246 71.2392 221.141 71.1589 221.03C71.0786 220.92 71.0133 220.845 70.9882 220.86Z" fill="#455A64"/>
<path d="M70.16 220.297C70.16 220.327 70.2755 220.353 70.391 220.428C70.5064 220.503 70.5867 220.588 70.6118 220.573C70.6369 220.558 70.6118 220.423 70.4462 220.337C70.2805 220.252 70.16 220.272 70.16 220.297Z" fill="#455A64"/>
<path d="M69.5526 219.986C69.5526 220.011 69.5777 220.066 69.643 220.107C69.7082 220.147 69.7735 220.167 69.7886 220.142C69.8036 220.117 69.7886 220.061 69.7032 220.021C69.6179 219.981 69.5727 219.961 69.5526 219.986Z" fill="#455A64"/>
<path d="M81.9419 144.239L71.7914 140.645L57.7856 143.185L58.1872 221.658L71.4802 221.482C71.4802 221.482 71.4802 220.568 71.4501 218.972L79.2461 221.106C79.2461 221.106 86.8414 195.443 89.4317 184.911C91.5753 176.116 81.9419 144.239 81.9419 144.239ZM71.2894 206.186C71.0836 187.201 70.8125 156.845 71.0886 152.894C71.0886 152.894 78.5333 179.389 78.6186 181.633C78.6538 182.984 74.5273 196.101 71.2894 206.186Z" fill="#263238"/>
<path d="M71.42 205.453C71.4903 205.453 71.5505 208.967 71.5505 213.309C71.5505 217.652 71.4953 221.171 71.425 221.171C71.3547 221.171 71.2945 217.657 71.2895 213.309C71.2844 208.962 71.3497 205.453 71.42 205.453Z" fill="#455A64"/>
<path d="M74.3015 219.62C74.3015 219.62 74.3015 219.559 74.3367 219.439C74.3718 219.318 74.4069 219.133 74.4622 218.937C74.5776 218.46 74.7433 217.782 74.9642 216.929C75.4109 215.167 76.0485 212.642 76.8416 209.529C78.4531 203.269 80.6719 194.65 83.1267 185.132C83.6287 183.209 84.1307 181.327 84.5825 179.525V179.58C82.951 171.267 81.3195 163.993 80.0293 158.807L78.5233 152.713C78.3476 152.01 78.2121 151.458 78.1117 151.071C78.0715 150.891 78.0364 150.75 78.0113 150.645C78.0055 150.595 78.0055 150.544 78.0113 150.494C78.0321 150.539 78.0489 150.586 78.0615 150.635L78.182 151.056C78.2924 151.443 78.443 151.99 78.6388 152.688C79.0253 154.109 79.5775 156.177 80.2352 158.767C81.5705 163.943 83.2472 171.217 84.8736 179.53V179.58L83.4229 185.187C80.9129 194.7 78.689 203.31 77.0575 209.564L75.0997 216.944C74.8688 217.802 74.683 218.475 74.5575 218.952C74.4923 219.173 74.4471 219.343 74.4069 219.454C74.3798 219.514 74.3443 219.57 74.3015 219.62Z" fill="#455A64"/>
<path d="M63.7846 221.005C63.7143 221.005 63.6541 205.212 63.6541 185.735C63.6541 166.257 63.7143 150.464 63.7846 150.464C63.8549 150.464 63.9151 166.252 63.9151 185.735C63.9151 205.217 63.8599 221.005 63.7846 221.005Z" fill="#455A64"/>
<path d="M67.4743 101.544L75.5063 101.941C75.5917 101.007 75.662 97.3926 75.662 97.3926C75.662 97.3926 79.0053 97.001 79.176 93.6727C79.3466 90.3445 79.0505 82.689 79.0505 82.689C77.1923 81.8 75.1302 81.4243 73.0779 81.6008C71.0256 81.7774 69.058 82.4997 67.379 83.693L66.877 84.0544L67.4743 101.544Z" fill="#E6BBAC"/>
<path d="M77.3737 88.3766C77.2876 88.2838 77.2397 88.1619 77.2397 88.0353C77.2397 87.9087 77.2876 87.7868 77.3737 87.6939C77.4113 87.6266 77.464 87.5689 77.5275 87.5252C77.5911 87.4816 77.6638 87.4531 77.7402 87.4421C77.8165 87.4311 77.8943 87.4379 77.9676 87.4618C78.0409 87.4857 78.1077 87.5262 78.1628 87.5802C78.2179 87.6341 78.2599 87.7 78.2854 87.7727C78.311 87.8455 78.3194 87.9232 78.3101 87.9997C78.3008 88.0762 78.2739 88.1496 78.2317 88.2141C78.1894 88.2786 78.1329 88.3325 78.0664 88.3716C77.9737 88.4613 77.85 88.5119 77.7211 88.5128C77.5921 88.5137 77.4677 88.465 77.3737 88.3766Z" fill="#263238"/>
<path d="M78.9099 87.6488C78.8547 87.704 78.5384 87.443 78.0816 87.4229C77.6248 87.4028 77.2834 87.6287 77.2332 87.5635C77.183 87.4982 77.2633 87.438 77.4139 87.3325C77.615 87.1974 77.8549 87.1322 78.0966 87.1468C78.3377 87.155 78.5691 87.2433 78.7543 87.3978C78.8898 87.5183 78.935 87.6237 78.9099 87.6488Z" fill="#263238"/>
<path d="M73.1319 87.8497C73.2182 87.9021 73.2867 87.9793 73.3284 88.0713C73.3702 88.1632 73.3833 88.2656 73.3659 88.3651C73.3486 88.4646 73.3016 88.5565 73.2312 88.6289C73.1608 88.7013 73.0702 88.7507 72.9713 88.7708C72.8723 88.7909 72.7696 88.7807 72.6765 88.7415C72.5835 88.7023 72.5044 88.6359 72.4496 88.5511C72.3949 88.4663 72.367 88.3669 72.3696 88.2659C72.3722 88.165 72.4051 88.0672 72.4642 87.9853C72.538 87.8828 72.6478 87.812 72.7715 87.7869C72.8953 87.7618 73.0239 87.7842 73.1319 87.8497Z" fill="#263238"/>
<path d="M73.9199 87.8646C73.8647 87.9198 73.5484 87.6588 73.0916 87.6387C72.6348 87.6186 72.2884 87.8445 72.2432 87.7843C72.1981 87.724 72.2734 87.6538 72.424 87.5483C72.6245 87.4157 72.8622 87.3504 73.1023 87.3622C73.3425 87.3739 73.5726 87.462 73.7593 87.6136C73.8998 87.714 73.945 87.8445 73.9199 87.8646Z" fill="#263238"/>
<path d="M75.6167 91.7302C75.8546 91.6429 76.1062 91.5987 76.3597 91.5996C76.4801 91.5996 76.5755 91.5695 76.5906 91.5043C76.595 91.3843 76.5691 91.2652 76.5153 91.1579C76.4099 90.8517 76.2994 90.5404 76.189 90.2141C75.8742 89.415 75.642 88.5857 75.4962 87.7393C75.8877 88.5026 76.2022 89.3031 76.435 90.1288C76.5404 90.4601 76.6458 90.7713 76.7462 91.0826C76.8158 91.2405 76.8317 91.4168 76.7914 91.5846C76.7725 91.6298 76.743 91.6698 76.7054 91.7012C76.6679 91.7327 76.6233 91.7546 76.5755 91.7653C76.5072 91.7743 76.438 91.7743 76.3697 91.7653C76.1185 91.7968 75.8638 91.7849 75.6167 91.7302Z" fill="#263238"/>
<path d="M74.1057 92.1669C73.6388 91.8657 75.3958 92.9149 76.3295 92.9048C76.1656 93.1381 75.9277 93.3092 75.6543 93.3903C75.3809 93.4714 75.0882 93.4578 74.8235 93.3516C73.8346 92.95 74.1057 92.1669 74.1057 92.1669Z" fill="white"/>
<path d="M75.677 97.3475C74.1397 97.3174 72.6459 96.8317 71.3849 95.9519C71.3849 95.9519 72.3236 98.3816 75.6519 98.2059L75.677 97.3475Z" fill="#D88876"/>
<path d="M67.5044 87.7141C67.4291 87.7141 65.0295 87.4329 65.3257 90.2542C65.6219 93.0754 68.3678 91.8455 68.3678 91.7602C68.3678 91.6748 67.5044 87.7141 67.5044 87.7141Z" fill="#E6BBAC"/>
<path d="M67.399 90.8817C67.399 90.8817 67.3538 90.9219 67.2735 90.9721C67.1615 91.0332 67.0305 91.0493 66.907 91.0173C66.7132 90.9197 66.5484 90.7727 66.4295 90.5911C66.3105 90.4096 66.2415 90.1999 66.2293 89.9831C66.199 89.742 66.2212 89.497 66.2946 89.2653C66.3127 89.1745 66.3522 89.0893 66.4099 89.0169C66.4675 88.9444 66.5416 88.8867 66.6259 88.8486C66.6805 88.8275 66.7407 88.8265 66.7959 88.8459C66.8511 88.8652 66.8976 88.9035 66.9271 88.954C66.9773 89.0293 66.9623 89.0896 66.9773 89.0896C66.9924 89.0896 67.0325 89.0394 66.9773 88.9239C66.9557 88.856 66.9114 88.7975 66.8518 88.7583C66.7668 88.7094 66.6668 88.6933 66.5707 88.7131C66.4563 88.7495 66.3532 88.8149 66.2714 88.9028C66.1896 88.9907 66.1319 89.0983 66.1038 89.2151C66.0093 89.4716 65.9783 89.7472 66.0135 90.0183C66.0265 90.2707 66.1134 90.5137 66.2633 90.7172C66.4132 90.9207 66.6196 91.0756 66.8568 91.1628C66.9348 91.1773 67.015 91.1739 67.0915 91.1531C67.168 91.1322 67.2388 91.0944 67.2986 91.0424C67.399 90.952 67.409 90.8867 67.399 90.8817Z" fill="#D88876"/>
<path d="M78.5886 82.8949C78.9926 82.7653 79.342 82.5051 79.5819 82.1553C79.8218 81.8054 79.9386 81.3857 79.9139 80.9622C79.8736 80.5398 79.7191 80.1364 79.4671 79.795C79.2151 79.4537 78.875 79.1873 78.4832 79.0245C78.0896 78.8662 77.667 78.793 77.2431 78.8094C76.8192 78.8258 76.4036 78.9316 76.0234 79.1199C75.8901 78.5032 75.5416 77.9542 75.0404 77.5711C74.5392 77.188 73.9179 76.9959 73.2879 77.0291C72.6579 77.0623 72.0604 77.3187 71.6022 77.7524C71.144 78.1861 70.8553 78.7687 70.7875 79.3959C70.6922 78.7584 69.9542 78.3919 69.3117 78.3919C68.9889 78.3673 68.6649 78.4165 68.3639 78.5356C68.063 78.6548 67.7931 78.8408 67.5747 79.0797C67.3663 79.3262 67.2566 79.6411 67.2668 79.9638C67.277 80.2864 67.4064 80.5938 67.63 80.8266C66.9037 80.7486 66.1743 80.9417 65.5818 81.3688C65.2913 81.5862 65.0597 81.8728 64.9081 82.2024C64.7564 82.532 64.6895 82.8943 64.7133 83.2563C64.7506 83.6154 64.8994 83.9538 65.1389 84.224C65.3784 84.4941 65.6966 84.6824 66.0487 84.7623C66.2896 84.8075 66.5858 84.8125 66.7213 85.0184C66.784 85.1424 66.8101 85.2816 66.7966 85.4199V87.8095C67.0188 87.7272 67.264 87.7334 67.4817 87.8268C67.6994 87.9203 67.8729 88.0938 67.9663 88.3115C68.1445 88.7502 68.2017 89.2286 68.132 89.697C68.3428 90.0032 68.8599 89.8978 69.0757 89.5966C69.2582 89.2735 69.3338 88.901 69.2916 88.5323L69.2464 84.687C69.4378 84.788 69.6518 84.8384 69.8681 84.8335C70.0845 84.8285 70.296 84.7684 70.4825 84.6588C70.6691 84.5491 70.8245 84.3937 70.9342 84.2071C71.0438 84.0205 71.1039 83.809 71.1088 83.5927C71.387 83.8471 71.7183 84.0364 72.0786 84.1469C72.439 84.2574 72.8195 84.2863 73.1925 84.2316C73.5654 84.1768 73.9215 84.0396 74.2349 83.8302C74.5483 83.6207 74.8111 83.3441 75.0043 83.0204C75.3971 83.3401 75.8269 83.6115 76.2844 83.8286C76.75 84.0404 77.2775 84.0726 77.7653 83.919C78.0054 83.8353 78.2142 83.6805 78.364 83.4751C78.5138 83.2697 78.5974 83.0235 78.6037 82.7694L78.433 82.6288" fill="#263238"/>
<path d="M105.154 111.062C104.611 111.062 104.08 111.223 103.629 111.525C103.177 111.827 102.825 112.255 102.617 112.757C102.41 113.259 102.355 113.811 102.461 114.344C102.567 114.876 102.829 115.366 103.213 115.75C103.597 116.134 104.086 116.395 104.619 116.501C105.151 116.607 105.703 116.553 106.205 116.345C106.707 116.137 107.136 115.785 107.438 115.334C107.739 114.882 107.9 114.351 107.9 113.808C107.901 113.447 107.83 113.09 107.693 112.756C107.555 112.423 107.353 112.12 107.098 111.865C106.842 111.61 106.539 111.407 106.206 111.27C105.873 111.132 105.515 111.061 105.154 111.062ZM105.154 113.311C104.999 113.311 104.846 113.265 104.717 113.178C104.587 113.092 104.486 112.968 104.426 112.824C104.367 112.68 104.351 112.522 104.381 112.369C104.412 112.216 104.487 112.076 104.597 111.966C104.707 111.855 104.848 111.78 105.001 111.75C105.154 111.719 105.312 111.735 105.456 111.795C105.6 111.854 105.723 111.955 105.81 112.085C105.896 112.215 105.943 112.367 105.943 112.523C105.944 112.627 105.924 112.73 105.885 112.827C105.846 112.923 105.788 113.011 105.715 113.085C105.642 113.159 105.554 113.217 105.458 113.257C105.362 113.297 105.259 113.317 105.154 113.316V113.311Z" fill="#FF914D"/>
<path d="M104.246 116.353V121.288C104.246 121.288 105.34 121.79 105.28 121.855C105.22 121.92 106.068 121.288 106.068 121.288V120.695L105.566 120.193L106.068 119.737L105.566 119.109L106.068 118.552L105.506 117.919L106.068 117.352V116.348L104.246 116.353Z" fill="#FF914D"/>
<path d="M108.212 106.67L105.074 103.864L101.911 106.71L102.845 106.855L102.926 109.732L107.198 109.807L107.072 106.795L108.212 106.67ZM105.049 109.27C104.952 109.262 104.859 109.226 104.782 109.167C104.705 109.107 104.647 109.026 104.615 108.934C104.583 108.842 104.579 108.742 104.602 108.648C104.626 108.553 104.677 108.468 104.748 108.401C104.82 108.335 104.909 108.291 105.005 108.275C105.101 108.258 105.2 108.27 105.289 108.309C105.379 108.348 105.455 108.412 105.509 108.494C105.562 108.575 105.591 108.671 105.591 108.768C105.591 108.838 105.577 108.906 105.549 108.97C105.522 109.034 105.481 109.091 105.43 109.138C105.379 109.185 105.319 109.221 105.253 109.244C105.188 109.267 105.118 109.276 105.049 109.27Z" fill="#263238"/>
<path d="M105.471 109.084C105.471 109.084 105.375 109.109 105.225 109.109C105.014 109.093 104.803 109.126 104.607 109.205C104.321 109.311 104.073 109.5 103.894 109.747C103.676 110.049 103.578 110.421 103.618 110.791C103.662 111.16 103.841 111.5 104.12 111.745C104.349 111.948 104.631 112.081 104.933 112.126C105.225 112.144 105.517 112.121 105.802 112.056C105.682 112.158 105.541 112.234 105.39 112.278C105.239 112.322 105.08 112.334 104.923 112.312C104.573 112.29 104.239 112.156 103.97 111.931C103.633 111.651 103.418 111.251 103.372 110.816C103.327 110.382 103.451 109.947 103.719 109.601C103.932 109.323 104.229 109.122 104.567 109.029C104.788 108.959 105.024 108.951 105.25 109.004C105.39 109.039 105.476 109.069 105.471 109.084Z" fill="#455A64"/>
<path d="M106.47 111.398C106.404 111.363 106.56 111.007 106.535 110.565C106.51 110.123 106.344 109.787 106.394 109.742C106.445 109.697 106.781 110.018 106.796 110.55C106.811 111.082 106.525 111.444 106.47 111.398Z" fill="#455A64"/>
<path d="M97.2228 107.387C97.5337 106.465 97.9321 105.574 98.4125 104.727C98.8474 104.054 99.4757 103.529 100.215 103.221C101.179 102.854 102.253 103 103.277 103.15L105.747 103.517C106.083 103.567 106.51 103.723 106.5 104.059C106.483 104.157 106.439 104.248 106.371 104.32C106.303 104.393 106.215 104.443 106.118 104.466C105.921 104.503 105.718 104.503 105.521 104.466C104.975 104.396 104.423 104.38 103.874 104.416C103.483 104.441 102.996 104.581 102.931 104.968C102.865 105.354 103.242 105.61 103.588 105.62C103.94 105.596 104.278 105.473 104.562 105.264L105.531 104.692C105.701 104.557 105.917 104.494 106.133 104.516C106.49 104.596 106.575 105.108 106.384 105.42C106.158 105.709 105.872 105.947 105.546 106.117C104.301 106.961 103.724 108.326 103.151 110.133" fill="#E6BBAC"/>
<path d="M97.2479 107.006L91.7259 121.243L85.983 107.955C84.1859 101.524 76.2442 101.103 76.2442 101.103L68.3879 100.099C65.5617 98.949 60.9834 99.9078 59.1913 100.897C56.9072 102.152 54.8791 106.012 54.4273 108.858C54.4273 108.858 46.5158 129.315 47.8662 131.448C49.2165 133.582 57.6652 141.93 57.6652 141.93L56.4855 146.237L69.9291 147.086L71.2895 141.78L71.4501 147.457L84.0905 148.346C83.5383 143.351 82.6447 138.331 82.4038 136.9L81.3998 122.247L81.5303 119.235L81.6508 118.924C82.8355 120.906 84.3264 123.442 86.1688 126.695C89.8635 133.221 93.5933 131.554 95.7821 128.933C96.7153 127.734 97.4182 126.373 97.8553 124.917L103.292 109.637L97.2479 107.006ZM58.7395 131.433C58.7395 131.514 57.3841 129.019 57.3841 129.019L59.362 122.493C59.362 122.493 58.7395 131.358 58.7395 131.433Z" fill="#FF914D"/>
<path d="M67.3588 100.264L71.6007 116.554L75.9982 101.258L75.5112 101.218L75.6267 99.2048L67.3588 98.2158V100.264Z" fill="white"/>
<path d="M67.1329 100.42C67.144 100.493 67.144 100.567 67.1329 100.641C67.1028 100.806 67.0676 101.017 67.0225 101.268C66.917 101.845 66.7664 102.633 66.5807 103.602C66.395 104.571 66.149 105.801 65.8829 107.146C65.7574 107.804 65.5667 108.562 65.9381 109.185C66.3096 109.807 67.0827 110.108 67.8457 110.364L67.9913 110.414L67.911 110.545C67.3036 111.604 67.3538 113.055 67.8006 114.305C68.0941 115.1 68.4396 115.875 68.8347 116.624C69.2062 117.374 69.5659 118.098 69.914 118.798C70.5967 120.193 71.2342 121.484 71.8015 122.628L71.6007 122.678C71.6007 120.836 71.6007 119.315 71.6007 118.216C71.6007 117.714 71.6007 117.297 71.6007 116.986C71.5889 116.842 71.5889 116.698 71.6007 116.554C71.6309 116.696 71.6444 116.841 71.6409 116.986C71.6409 117.297 71.666 117.704 71.686 118.216C71.7111 119.31 71.7513 120.831 71.7965 122.673V123.135L71.5856 122.724C71.0134 121.579 70.3658 120.294 69.663 118.908C69.3166 118.211 68.9552 117.483 68.5787 116.74C68.1771 115.979 67.8266 115.193 67.5295 114.385C67.0676 113.07 67.0275 111.569 67.67 110.42L67.7403 110.605C67.347 110.481 66.9656 110.321 66.6008 110.128C66.2338 109.94 65.9249 109.655 65.7072 109.305C65.5134 108.958 65.431 108.561 65.4713 108.166C65.5045 107.807 65.5632 107.451 65.647 107.101C65.9331 105.761 66.1841 104.591 66.4 103.587C66.6158 102.583 66.7865 101.84 66.902 101.268C66.9572 101.017 67.0074 100.811 67.0476 100.646C67.0665 100.567 67.0952 100.491 67.1329 100.42Z" fill="#263238"/>
<path d="M76.7663 101.358C76.8427 101.606 76.8998 101.86 76.937 102.116C77.0273 102.618 77.1528 103.326 77.2884 104.23C77.4239 105.133 77.5846 106.203 77.6799 107.428C77.6799 107.734 77.7201 108.045 77.7101 108.376C77.7128 108.735 77.6041 109.086 77.3988 109.38C76.9605 109.952 76.3881 110.407 75.7322 110.706V110.485C75.9612 110.675 76.1564 110.902 76.3095 111.157C76.3496 111.218 76.3848 111.283 76.4199 111.348C76.4417 111.404 76.4519 111.464 76.45 111.524V111.644C76.4199 111.8 76.3798 111.941 76.3396 112.086C75.8376 113.657 75.2151 115.098 74.6679 116.398C74.1208 117.699 73.5987 118.873 73.1619 119.847C72.7252 120.821 72.3587 121.614 72.1027 122.156L71.7965 122.779C71.7262 122.919 71.6861 122.99 71.676 122.985C71.688 122.904 71.7135 122.826 71.7513 122.754C71.8216 122.583 71.9069 122.372 72.0073 122.116L73.0113 119.777C73.433 118.773 73.925 117.603 74.4671 116.303C75.0093 115.003 75.6117 113.552 76.1087 112.011C76.151 111.878 76.1845 111.742 76.2091 111.604V111.514C76.2062 111.501 76.2062 111.487 76.2091 111.474L76.1037 111.293C75.969 111.069 75.7995 110.867 75.6017 110.696L75.441 110.56L75.6217 110.47C76.2375 110.196 76.7769 109.775 77.193 109.245C77.5846 108.743 77.4591 108.06 77.449 107.463C77.3737 106.253 77.2281 105.174 77.1177 104.27C77.0073 103.366 76.9119 102.689 76.8416 102.152C76.7914 101.89 76.7662 101.625 76.7663 101.358Z" fill="#263238"/>
<path d="M71.2895 142.402C71.2142 142.402 71.2895 137.794 71.4451 132.121C71.6007 126.448 71.7915 121.85 71.8818 121.85C71.9722 121.85 71.8818 126.453 71.7262 132.131C71.5706 137.809 71.3798 142.402 71.2895 142.402Z" fill="#263238"/>
<path d="M73.3527 125.961C73.3226 125.961 73.4882 125.776 73.7593 125.901C73.8516 125.94 73.929 126.007 73.9801 126.093C74.0311 126.179 74.0533 126.279 74.0431 126.379C74.033 126.478 73.9912 126.572 73.9238 126.646C73.8565 126.72 73.7671 126.77 73.669 126.79C73.5735 126.825 73.4691 126.828 73.3718 126.798C73.2745 126.768 73.1895 126.708 73.1299 126.625C73.0702 126.543 73.0391 126.443 73.0412 126.342C73.0434 126.24 73.0787 126.142 73.1419 126.062C73.3126 125.821 73.5384 125.876 73.5234 125.906C73.5083 125.936 73.3778 125.971 73.3025 126.152C73.2814 126.198 73.2704 126.247 73.2704 126.298C73.2704 126.348 73.2814 126.398 73.3025 126.443C73.3338 126.489 73.3796 126.523 73.4324 126.539C73.4852 126.555 73.542 126.554 73.5937 126.534C73.6482 126.525 73.6984 126.499 73.7365 126.459C73.7747 126.419 73.7985 126.368 73.8045 126.313C73.8026 126.263 73.7889 126.214 73.7644 126.17C73.74 126.127 73.7056 126.09 73.6639 126.062C73.5133 125.941 73.3728 125.992 73.3527 125.961Z" fill="#263238"/>
<path d="M73.4079 131.177C73.3728 131.177 73.5384 130.997 73.8145 131.117C73.8934 131.154 73.9613 131.211 74.0115 131.282C74.0616 131.354 74.0924 131.437 74.1007 131.524C74.104 131.638 74.068 131.751 73.9985 131.842C73.9291 131.933 73.8305 131.998 73.7191 132.026C73.6116 132.056 73.497 132.05 73.3933 132.009C73.2897 131.967 73.2029 131.892 73.1469 131.795C73.1095 131.715 73.0939 131.626 73.1019 131.538C73.1098 131.45 73.1409 131.365 73.192 131.293C73.3677 131.047 73.5886 131.102 73.5736 131.137C73.5585 131.172 73.428 131.202 73.3527 131.383C73.3315 131.429 73.3206 131.478 73.3206 131.529C73.3206 131.579 73.3315 131.629 73.3527 131.674C73.3877 131.716 73.4341 131.748 73.4863 131.764C73.5384 131.781 73.5943 131.782 73.6471 131.767C73.6999 131.753 73.7476 131.724 73.7844 131.684C73.8212 131.643 73.8456 131.593 73.8547 131.539C73.852 131.489 73.8379 131.44 73.8135 131.397C73.7892 131.353 73.7552 131.316 73.7141 131.288C73.5635 131.157 73.423 131.212 73.4079 131.177Z" fill="#263238"/>
<path d="M73.1821 137.081C73.1519 137.081 73.3126 136.9 73.5887 137.02C73.6678 137.056 73.7363 137.112 73.7873 137.183C73.8384 137.253 73.8703 137.336 73.8798 137.422C73.8829 137.537 73.8462 137.65 73.7758 137.742C73.7054 137.833 73.6056 137.898 73.4933 137.924C73.3858 137.955 73.2712 137.949 73.1675 137.907C73.0638 137.865 72.9771 137.79 72.921 137.693C72.8836 137.613 72.8681 137.524 72.876 137.436C72.884 137.348 72.9151 137.263 72.9662 137.191C73.1419 136.945 73.3678 137 73.3477 137.035C73.3276 137.071 73.2021 137.096 73.1268 137.281C73.1057 137.327 73.0948 137.377 73.0948 137.427C73.0948 137.477 73.1057 137.527 73.1268 137.573C73.1611 137.616 73.2078 137.648 73.2608 137.664C73.3137 137.68 73.3703 137.68 73.423 137.663C73.4776 137.653 73.5275 137.625 73.5655 137.585C73.6034 137.544 73.6273 137.492 73.6339 137.437C73.6292 137.387 73.6138 137.339 73.5886 137.296C73.5635 137.252 73.5293 137.215 73.4883 137.186C73.3377 137.061 73.1971 137.116 73.1821 137.081Z" fill="#263238"/>
<path d="M75.9983 117.131H79.693V116.554H75.8025L75.9983 117.131Z" fill="#263238"/>
<path d="M102.233 112.458C101.209 112.114 100.215 111.688 99.2609 111.183C98.2686 110.757 97.3118 110.254 96.3995 109.677C97.423 110.023 98.4168 110.451 99.3714 110.957C100.364 111.379 101.321 111.881 102.233 112.458Z" fill="#455A64"/>
<path d="M97.2228 108.567C97.2228 108.567 97.2529 108.401 97.4738 108.321C97.6057 108.267 97.7535 108.267 97.8854 108.321C97.9707 108.362 98.0413 108.429 98.0879 108.511C98.1345 108.594 98.155 108.689 98.1465 108.783C98.1473 108.882 98.1137 108.978 98.0514 109.055C97.9891 109.132 97.9021 109.185 97.8051 109.205C97.7261 109.214 97.6462 109.198 97.5767 109.16C97.5073 109.121 97.4519 109.061 97.4186 108.989C97.3939 108.945 97.381 108.896 97.381 108.846C97.381 108.796 97.3939 108.746 97.4186 108.703C97.4587 108.642 97.4989 108.637 97.5089 108.647C97.519 108.657 97.4788 108.773 97.5842 108.888C97.6896 109.004 97.8804 109.004 97.8955 108.768C97.9105 108.532 97.6947 108.457 97.529 108.482C97.3633 108.507 97.2529 108.592 97.2228 108.567Z" fill="#455A64"/>
<path d="M91.4398 124.23C91.3711 123.69 91.3915 123.142 91.5 122.608C91.5222 122.064 91.6324 121.526 91.8263 121.017C91.8689 122.102 91.7384 123.186 91.4398 124.23Z" fill="#263238"/>
<path d="M92.7199 124.074C92.4412 123.638 92.2344 123.16 92.1074 122.658C91.903 122.18 91.7808 121.671 91.746 121.152C92.2359 122.061 92.5653 123.048 92.7199 124.069V124.074Z" fill="#263238"/>
<path d="M72.6248 99.9028C72.4427 100.61 72.1237 101.275 71.686 101.861L72.424 103.869H73.0515L73.5836 101.941C73.5836 101.941 73.2121 101.645 72.941 99.8425L72.6248 99.9028Z" fill="#455A64"/>
<path d="M75.4862 101.173C75.4862 101.173 75.426 101.308 75.2653 101.519C75.043 101.845 74.7121 102.082 74.3316 102.187C74.1896 102.221 74.0418 102.222 73.8992 102.191C73.7565 102.16 73.6229 102.097 73.5083 102.006C73.2875 101.766 73.1395 101.468 73.0816 101.148C72.8868 100.456 72.7756 99.7426 72.7503 99.0241L73.0013 99.0542C72.8808 99.4659 72.7754 99.9026 72.6248 100.339C72.4824 100.777 72.2957 101.199 72.0676 101.599C71.9461 101.807 71.7733 101.98 71.5656 102.101C71.3665 102.217 71.1373 102.269 70.908 102.252C70.5175 102.21 70.1371 102.101 69.7835 101.931C69.4769 101.785 69.1816 101.618 68.9 101.429C68.4966 101.166 68.1078 100.881 67.7353 100.575C67.5882 100.476 67.4548 100.358 67.3387 100.224C67.3689 100.184 67.9713 100.641 68.9953 101.268C69.2754 101.436 69.5673 101.584 69.8688 101.71C70.2009 101.86 70.5553 101.955 70.918 101.991C71.1069 101.997 71.2938 101.95 71.4572 101.855C71.6206 101.76 71.7539 101.621 71.8417 101.454C72.0466 101.069 72.2146 100.666 72.3437 100.249C72.4842 99.8223 72.5947 99.3906 72.7202 98.9739C72.7243 98.9576 72.7316 98.9424 72.7416 98.929C72.7517 98.9155 72.7644 98.9043 72.7789 98.8959C72.7934 98.8875 72.8095 98.882 72.8261 98.8799C72.8428 98.8778 72.8597 98.879 72.8758 98.8836C72.902 98.8916 72.9252 98.9075 72.9422 98.929C72.9592 98.9505 72.9694 98.9767 72.9712 99.0041C72.9896 99.7056 73.0872 100.403 73.2623 101.082C73.3062 101.365 73.4259 101.63 73.6087 101.85C73.6995 101.924 73.8057 101.977 73.9194 102.005C74.0332 102.033 74.1517 102.035 74.2663 102.011C74.6191 101.926 74.9346 101.729 75.1649 101.449C75.2601 101.344 75.368 101.251 75.4862 101.173Z" fill="#E0E0E0"/>
<path d="M72.424 103.863C72.3186 104.124 70.3457 111.735 70.3457 111.735L71.5957 116.554L73.9099 108.522C73.9099 108.522 73.1268 103.607 73.0916 103.738C73.0565 103.868 72.424 103.863 72.424 103.863Z" fill="#455A64"/>
<path d="M65.1952 139.506C64.1749 139.706 63.1289 139.74 62.0978 139.606C61.0649 139.554 60.0475 139.334 59.0858 138.953C59.0858 138.878 60.4513 139.194 62.138 139.345C63.8247 139.495 65.1901 139.42 65.1952 139.506Z" fill="#263238"/>
<path d="M82.6296 140.545C81.9194 140.631 81.2013 140.631 80.4911 140.545C79.7773 140.55 79.0655 140.466 78.3727 140.294C79.0813 140.209 79.7975 140.209 80.5062 140.294C81.2214 140.293 81.9342 140.377 82.6296 140.545Z" fill="#263238"/>
<path d="M59.4423 115.324C59.4562 115.415 59.4562 115.509 59.4423 115.6C59.4423 115.811 59.4524 116.077 59.4724 116.398C59.4724 117.091 59.5076 118.09 59.5126 119.33C59.5126 121.805 59.4473 125.223 59.2465 128.993C59.0457 132.763 58.7445 136.172 58.4634 138.632C58.3279 139.862 58.2024 140.856 58.107 141.543C58.0618 141.86 58.0217 142.121 57.9915 142.332C57.9806 142.423 57.9621 142.514 57.9363 142.603C57.9219 142.511 57.9219 142.418 57.9363 142.327C57.9363 142.116 57.9765 141.85 58.0016 141.528C58.0668 140.806 58.1622 139.817 58.2727 138.617C58.4986 136.152 58.7747 132.748 58.9805 128.978C59.1863 125.208 59.2767 121.8 59.3218 119.325C59.3218 118.115 59.357 117.126 59.367 116.398C59.367 116.077 59.367 115.811 59.367 115.6C59.3776 115.505 59.403 115.412 59.4423 115.324Z" fill="#263238"/>
<path d="M57.379 129.265C57.6472 127.856 57.9993 126.465 58.4332 125.098C58.7856 123.705 59.2232 122.336 59.7434 120.997C59.4782 122.407 59.1279 123.8 58.6943 125.168C58.3395 126.559 57.9003 127.927 57.379 129.265Z" fill="#263238"/>
<path d="M58.9353 131.915C58.306 131.047 57.747 130.131 57.2636 129.174C56.703 128.259 56.2194 127.298 55.8179 126.303C56.4492 127.169 57.0083 128.086 57.4895 129.044C58.0502 129.959 58.5337 130.92 58.9353 131.915Z" fill="#263238"/>
</svg>
