<svg width="252" height="252" viewBox="0 0 252 252" fill="none" xmlns="http://www.w3.org/2000/svg">
<path d="M125.629 230.244V233.733L5.90155 164.613V161.124L125.629 230.244Z" fill="#E0E0E0"/>
<path d="M245.351 164.608L125.629 233.733V230.244L245.351 161.124V164.608Z" fill="#EBEBEB"/>
<path d="M224.176 148.895L125.629 205.792L27.0809 148.895L5.90155 161.124L125.629 230.244L245.351 161.124L224.176 148.895Z" fill="#F5F5F5"/>
<path d="M130.759 202.74L151.938 214.963L150.457 215.817L129.188 203.643L130.759 202.74Z" fill="#E0E0E0"/>
<path d="M224.171 148.895L188.353 169.582L186.777 170.486L186.622 170.576L169.423 180.506V180.511H169.418L167.847 181.415H167.842L150.131 191.65L148.555 192.554L130.844 202.785L129.268 203.693L125.629 205.797L124.052 204.888L27.0809 148.895L46.3929 137.746L109.078 101.551L125.629 91.9983L224.171 148.895Z" fill="#FF914D"/>
<path opacity="0.3" d="M224.171 148.895L188.353 169.582L186.777 170.486L186.622 170.576L169.423 180.506V180.511H169.418L167.847 181.415H167.842L150.131 191.65L148.555 192.554L130.844 202.785L129.268 203.693L125.629 205.797L124.052 204.888L27.0809 148.895L46.3929 137.746L109.078 101.551L125.629 91.9983L224.171 148.895Z" fill="white"/>
<path d="M188.519 171.495L171.265 181.575L169.343 180.461L167.842 179.597L153.931 171.565L152.44 170.707L141.572 164.432L158.931 154.407L169.8 160.682L171.366 161.586L185.206 169.582L186.777 170.486L188.519 171.495Z" fill="#F5F5F5"/>
<path d="M224.176 148.895L245.351 161.124L224.176 148.895Z" fill="#F5F5F5"/>
<path d="M150.091 191.625L171.265 203.849L169.784 204.702L148.515 192.534L150.091 191.625Z" fill="#E0E0E0"/>
<path d="M124.057 204.888L102.878 217.112L104.359 217.965L125.629 205.797L124.057 204.888Z" fill="#E0E0E0"/>
<path d="M104.54 193.643L83.3652 205.867L84.8461 206.725L106.116 194.552L104.54 193.643Z" fill="#E0E0E0"/>
<path d="M85.0268 182.398L63.8524 194.622L65.3333 195.481L86.6031 183.307L85.0268 182.398Z" fill="#E0E0E0"/>
<path d="M65.5141 171.154L44.3397 183.377L45.8206 184.236L67.0904 172.062L65.5141 171.154Z" fill="#E0E0E0"/>
<path d="M46.0013 159.909L24.827 172.133L26.3079 172.991L47.5726 160.818L46.0013 159.909Z" fill="#E0E0E0"/>
<path d="M188.353 169.577L209.528 181.806L208.047 182.66L186.777 170.486L188.353 169.577Z" fill="#E0E0E0"/>
<path d="M207.68 158.463L228.855 170.692L227.379 171.545L206.109 159.372L207.68 158.463Z" fill="#E0E0E0"/>
<path d="M169.418 180.511L190.597 192.735L189.116 193.593L167.847 181.42L169.418 180.511Z" fill="#E0E0E0"/>
<path d="M186.777 170.486L169.343 180.461L167.842 179.597L185.206 169.582L186.777 170.486Z" fill="#E0E0E0"/>
<path d="M171.366 161.585L153.931 171.565L152.44 170.707L169.8 160.682L171.366 161.585Z" fill="#E0E0E0"/>
<g opacity="0.1">
<path d="M179.784 142.374L178.193 143.227L160.829 153.247L117.039 178.533L46.3929 137.745L109.078 101.551L179.784 142.374Z" fill="black"/>
</g>
<path opacity="0.1" d="M143.294 217.438C149.54 217.438 154.604 214.514 154.604 210.907C154.604 207.3 149.54 204.376 143.294 204.376C137.048 204.376 131.984 207.3 131.984 210.907C131.984 214.514 137.048 217.438 143.294 217.438Z" fill="black"/>
<path opacity="0.1" d="M109.765 218.517C116.012 218.517 121.075 215.593 121.075 211.986C121.075 208.379 116.012 205.455 109.765 205.455C103.519 205.455 98.4553 208.379 98.4553 211.986C98.4553 215.593 103.519 218.517 109.765 218.517Z" fill="black"/>
<g opacity="0.1">
<path d="M206.365 144.723C207.871 145.602 207.871 147.017 206.365 147.891C205.515 148.321 204.575 148.546 203.622 148.546C202.669 148.546 201.729 148.321 200.878 147.891C199.372 147.017 199.372 145.602 200.878 144.723C201.729 144.293 202.669 144.068 203.622 144.068C204.575 144.068 205.515 144.293 206.365 144.723Z" fill="black"/>
</g>
<g opacity="0.1">
<path d="M190.397 164.537C191.903 165.416 191.903 166.831 190.397 167.705C189.547 168.136 188.608 168.36 187.656 168.36C186.703 168.36 185.764 168.136 184.915 167.705C183.409 166.831 183.409 165.416 184.915 164.537C185.764 164.106 186.703 163.882 187.656 163.882C188.608 163.882 189.547 164.106 190.397 164.537Z" fill="black"/>
</g>
<g opacity="0.1">
<path d="M51.5685 151.375C53.0745 152.248 53.0745 153.669 51.5685 154.542C50.7181 154.973 49.7783 155.197 48.8251 155.197C47.8719 155.197 46.9321 154.973 46.0816 154.542C44.5756 153.669 44.5756 152.248 46.0816 151.375C46.9321 150.944 47.8719 150.72 48.8251 150.72C49.7783 150.72 50.7181 150.944 51.5685 151.375Z" fill="black"/>
</g>
<path d="M54.5203 99.8243V138.8L117.085 174.919V121.998L66.5833 92.6558L54.5203 99.8243Z" fill="#EBEBEB"/>
<path d="M176.135 87.9069V140.823L155.287 152.856L137.928 162.881L117.085 174.919V122.003L147.963 81.2905L176.135 87.9069Z" fill="#FAFAFA"/>
<path d="M155.287 115.251V152.856L137.928 162.896V125.276C137.993 122.175 138.738 119.126 140.111 116.345C140.232 116.094 140.352 115.843 140.483 115.607C142.044 112.595 144.218 110.085 146.607 108.7C147.644 108.056 148.831 107.695 150.051 107.656C153.133 107.641 155.287 110.492 155.287 115.251Z" fill="#FF914D"/>
<path opacity="0.3" d="M155.287 115.251V152.856L137.928 162.896V125.276C137.993 122.175 138.738 119.126 140.111 116.345C140.232 116.094 140.352 115.843 140.483 115.607C142.044 112.595 144.218 110.085 146.607 108.7C147.644 108.056 148.831 107.695 150.051 107.656C153.133 107.641 155.287 110.492 155.287 115.251Z" fill="black"/>
<path d="M153.761 114.061L149.032 116.787L147.646 117.59L147.019 117.952L146.201 118.454L145.463 118.875L144.664 119.337L139.318 122.399C139.594 120.507 140.146 118.665 140.955 116.933C140.962 116.914 140.97 116.895 140.98 116.877C141.085 116.641 141.201 116.411 141.316 116.19C141.322 116.169 141.332 116.15 141.346 116.134C141.527 115.778 141.718 115.437 141.918 115.1C142.895 113.4 144.182 111.898 145.714 110.673C145.874 110.557 146.035 110.442 146.216 110.336C146.396 110.231 146.436 110.186 146.552 110.115L146.763 109.99C146.858 109.935 146.949 109.885 147.034 109.844C148.746 108.926 150.317 108.87 151.552 109.513C151.713 109.592 151.866 109.686 152.009 109.794L152.235 109.96L152.295 110.015C152.404 110.141 152.504 110.273 152.596 110.412C153.281 111.513 153.681 112.767 153.761 114.061Z" fill="#FAFAFA"/>
<path d="M154.288 114.593L148.354 118.027L146.216 119.262L146.155 119.297L145.362 119.754L139.233 123.293C139.258 122.997 139.293 122.695 139.333 122.399L144.679 119.312L145.478 118.85L146.216 118.428L147.034 117.926L147.661 117.565L149.047 116.762L153.776 114.036C153.695 112.743 153.295 111.491 152.611 110.391C152.519 110.253 152.419 110.121 152.31 109.995V109.96C152.441 110.069 152.565 110.186 152.681 110.311C153.53 111.28 154.117 112.726 154.288 114.593Z" fill="#FF914D"/>
<path opacity="0.6" d="M154.288 114.593L148.354 118.027L146.216 119.262L146.155 119.297L145.362 119.754L139.233 123.293C139.258 122.997 139.293 122.695 139.333 122.399L144.679 119.312L145.478 118.85L146.216 118.428L147.034 117.926L147.661 117.565L149.047 116.762L153.776 114.036C153.695 112.743 153.295 111.491 152.611 110.391C152.519 110.253 152.419 110.121 152.31 109.995V109.96C152.441 110.069 152.565 110.186 152.681 110.311C153.53 111.28 154.117 112.726 154.288 114.593Z" fill="black"/>
<path d="M145.658 119.051L144.915 119.478L144.865 119.508L144.609 119.342L144.183 119.066L140.955 116.933C140.962 116.914 140.97 116.895 140.98 116.877C141.085 116.641 141.201 116.411 141.316 116.19L144.981 118.604L145.407 118.88L145.658 119.051Z" fill="#FF914D"/>
<path opacity="0.6" d="M145.658 119.051L144.915 119.478L144.865 119.508L144.609 119.342L144.183 119.066L140.955 116.933C140.962 116.914 140.97 116.895 140.98 116.877C141.085 116.641 141.201 116.411 141.316 116.19L144.981 118.604L145.407 118.88L145.658 119.051Z" fill="black"/>
<path d="M152.23 109.96L152.159 110.09L152.114 110.171L148.55 116.541L148.118 117.319L147.857 117.781L147.385 118.052L147.019 118.268L146.2 118.74L145.698 119.016V110.673C145.859 110.557 146.02 110.442 146.2 110.336C146.381 110.231 146.421 110.186 146.537 110.115V118.464L146.728 118.117L147.019 117.615L147.164 117.359L151.547 109.528C151.708 109.607 151.86 109.701 152.004 109.809L152.23 109.96Z" fill="#FF914D"/>
<path opacity="0.6" d="M152.23 109.96L152.159 110.09L152.114 110.171L148.55 116.541L148.118 117.319L147.857 117.781L147.385 118.052L147.019 118.268L146.2 118.74L145.698 119.016V110.673C145.859 110.557 146.02 110.442 146.2 110.336C146.381 110.231 146.421 110.186 146.537 110.115V118.464L146.728 118.117L147.019 117.615L147.164 117.359L151.547 109.528C151.708 109.607 151.86 109.701 152.004 109.809L152.23 109.96Z" fill="black"/>
<path d="M146.14 119.297L145.347 119.754L144.915 119.478L144.664 119.312L140.98 116.877C141.085 116.642 141.201 116.411 141.316 116.19L141.09 116.039L141.12 115.984L141.346 116.134L145.463 118.85L145.714 119.016L146.14 119.297Z" fill="#FF914D"/>
<path d="M152.516 110.216C152.44 110.146 152.365 110.075 152.29 110.015C152.292 110.004 152.292 109.992 152.29 109.98L152.516 110.216Z" fill="#455A64"/>
<path d="M152.636 110.321L152.591 110.402L149.032 116.777L148.354 118.027L146.216 119.262V110.321C146.326 110.241 146.436 110.171 146.552 110.1L146.763 109.975C146.858 109.92 146.948 109.87 147.034 109.829V118.695L147.4 118.037L147.661 117.575L152.004 109.819L152.23 109.985L152.29 110.04V110.005C152.411 110.104 152.527 110.209 152.636 110.321Z" fill="#FF914D"/>
<path opacity="0.3" d="M152.636 110.321L152.591 110.402L149.032 116.777L148.354 118.027L146.216 119.262V110.321C146.326 110.241 146.436 110.171 146.552 110.1L146.763 109.975C146.858 109.92 146.948 109.87 147.034 109.829V118.695L147.4 118.037L147.661 117.575L152.004 109.819L152.23 109.985L152.29 110.04V110.005C152.411 110.104 152.527 110.209 152.636 110.321Z" fill="black"/>
<path opacity="0.3" d="M146.14 119.297L145.347 119.754L144.915 119.478L144.664 119.312L140.98 116.877C141.085 116.642 141.201 116.411 141.316 116.19L141.09 116.039L141.12 115.984L141.346 116.134L145.463 118.85L145.714 119.016L146.14 119.297Z" fill="black"/>
<path d="M140.322 140.15C140.301 140.154 140.278 140.154 140.257 140.15C140.237 140.138 140.221 140.121 140.21 140.101C140.198 140.08 140.192 140.058 140.192 140.035V126.887C140.192 126.864 140.198 126.841 140.21 126.821C140.221 126.801 140.237 126.784 140.257 126.772L145.729 123.614C145.748 123.602 145.771 123.595 145.794 123.595C145.817 123.595 145.84 123.602 145.859 123.614C145.88 123.626 145.897 123.642 145.91 123.663C145.922 123.683 145.929 123.706 145.929 123.73V136.847C145.928 136.87 145.921 136.893 145.909 136.913C145.896 136.933 145.879 136.95 145.859 136.962L140.392 140.12C140.371 140.135 140.347 140.145 140.322 140.15ZM140.458 126.973V139.784L145.658 136.772V123.971L140.458 126.973Z" fill="#FF914D"/>
<path d="M147.42 136.059C147.399 136.065 147.376 136.065 147.355 136.059C147.335 136.048 147.318 136.031 147.306 136.01C147.294 135.99 147.289 135.967 147.29 135.943V122.811C147.29 122.787 147.295 122.763 147.307 122.742C147.318 122.721 147.335 122.703 147.355 122.691L152.827 119.533C152.847 119.523 152.87 119.518 152.892 119.518C152.915 119.518 152.937 119.523 152.957 119.533C152.978 119.544 152.996 119.561 153.008 119.581C153.02 119.602 153.027 119.625 153.028 119.648V132.766C153.029 132.79 153.023 132.814 153.01 132.834C152.998 132.855 152.979 132.871 152.957 132.881L147.491 136.039C147.47 136.053 147.445 136.06 147.42 136.059ZM147.556 122.886V135.692L152.757 132.68V119.884L147.556 122.886Z" fill="#FF914D"/>
<path d="M140.322 156.003C140.301 156.008 140.278 156.008 140.257 156.003C140.237 155.991 140.221 155.974 140.21 155.954C140.198 155.933 140.192 155.911 140.192 155.888V142.775C140.191 142.752 140.196 142.729 140.208 142.708C140.219 142.688 140.236 142.671 140.257 142.66L145.729 139.502C145.748 139.49 145.771 139.483 145.794 139.483C145.817 139.483 145.84 139.49 145.859 139.502C145.88 139.513 145.898 139.53 145.91 139.55C145.923 139.571 145.929 139.594 145.929 139.618V152.73C145.929 152.754 145.922 152.778 145.91 152.799C145.897 152.82 145.88 152.838 145.859 152.851L140.387 156.003C140.366 156.007 140.344 156.007 140.322 156.003ZM140.458 142.831V155.637L145.658 152.625V139.849L140.458 142.831Z" fill="#FF914D"/>
<path d="M147.42 151.937C147.399 151.944 147.376 151.944 147.355 151.937C147.335 151.925 147.318 151.909 147.307 151.888C147.295 151.868 147.289 151.845 147.29 151.822V138.684C147.29 138.661 147.297 138.639 147.308 138.618C147.319 138.598 147.336 138.581 147.355 138.569L152.827 135.411C152.846 135.399 152.869 135.392 152.892 135.392C152.915 135.392 152.938 135.399 152.957 135.411C152.978 135.423 152.996 135.439 153.008 135.46C153.02 135.48 153.027 135.503 153.028 135.527V148.644C153.027 148.668 153.02 148.691 153.008 148.711C152.996 148.731 152.978 148.748 152.957 148.759L147.491 151.917C147.47 151.931 147.445 151.938 147.42 151.937ZM147.556 138.765V151.571L152.757 148.559V135.758L147.556 138.765Z" fill="#FF914D"/>
<path d="M152.486 136.626C152.367 136.627 152.251 136.589 152.156 136.517C152.061 136.445 151.993 136.344 151.962 136.229C151.93 136.114 151.938 135.992 151.984 135.882C152.03 135.772 152.111 135.681 152.214 135.622L153.961 134.618L153.51 134.357C153.449 134.322 153.396 134.275 153.353 134.22C153.311 134.164 153.279 134.101 153.261 134.034C153.243 133.966 153.238 133.895 153.247 133.826C153.256 133.757 153.279 133.69 153.314 133.629C153.349 133.568 153.395 133.515 153.451 133.473C153.506 133.43 153.57 133.399 153.637 133.38C153.705 133.362 153.775 133.357 153.845 133.367C153.914 133.376 153.981 133.398 154.042 133.433L155.302 134.156C155.383 134.203 155.45 134.271 155.497 134.353C155.544 134.434 155.569 134.526 155.569 134.62C155.569 134.714 155.544 134.807 155.497 134.888C155.45 134.97 155.383 135.038 155.302 135.085L152.752 136.556C152.671 136.603 152.579 136.628 152.486 136.626Z" fill="#263238"/>
<path d="M176.13 136.937L172.731 138.915V135.025L176.13 133.047V136.937Z" fill="#E0E0E0"/>
<path d="M176.13 129.156L172.731 131.134V127.244L176.13 125.266V129.156Z" fill="#E0E0E0"/>
<path d="M176.13 121.38L172.731 123.358V119.468L176.13 117.49V121.38Z" fill="#E0E0E0"/>
<path d="M176.13 113.599L172.731 115.577V111.687L176.13 109.709V113.599Z" fill="#E0E0E0"/>
<path d="M176.13 105.823L172.731 107.801V103.911L176.13 101.933V105.823Z" fill="#E0E0E0"/>
<path d="M176.13 98.0424L172.731 100.02V96.1297L176.13 94.1519V98.0424Z" fill="#E0E0E0"/>
<path d="M176.13 90.2662L172.731 92.2441V88.3536L176.13 86.3757V90.2662Z" fill="#E0E0E0"/>
<path d="M120.483 169.05L117.085 171.028V167.138L120.483 165.16V169.05Z" fill="#E0E0E0"/>
<path d="M120.483 161.274L117.085 163.247V159.362L120.483 157.384V161.274Z" fill="#E0E0E0"/>
<path d="M120.483 153.493L117.085 155.471V151.581L120.483 149.603V153.493Z" fill="#E0E0E0"/>
<path d="M120.483 145.712L117.085 147.69V143.805L120.483 141.827V145.712Z" fill="#E0E0E0"/>
<path d="M120.483 137.936L117.085 139.914V136.024L120.483 134.046V137.936Z" fill="#E0E0E0"/>
<path d="M120.483 130.16L117.085 132.133V128.248L120.483 126.27V130.16Z" fill="#E0E0E0"/>
<path d="M120.483 122.379L117.085 124.357V120.467L120.483 118.489V122.379Z" fill="#E0E0E0"/>
<path d="M113.681 165.16L117.085 167.138V163.247L113.681 161.274V165.16Z" fill="#E0E0E0"/>
<path d="M113.681 172.941L117.085 174.919V171.028L113.681 169.05V172.941Z" fill="#E0E0E0"/>
<path d="M113.681 157.384L117.085 159.362V155.471L113.681 153.493V157.384Z" fill="#E0E0E0"/>
<path d="M113.681 149.603L117.085 151.581V147.69L113.681 145.712V149.603Z" fill="#E0E0E0"/>
<path d="M113.681 141.827L117.085 143.805V139.914L113.681 137.936V141.827Z" fill="#E0E0E0"/>
<path d="M113.681 134.046L117.085 136.024V132.133L113.681 130.16V134.046Z" fill="#E0E0E0"/>
<path d="M113.681 126.27L117.085 128.248V124.357L113.681 122.379V126.27Z" fill="#E0E0E0"/>
<path d="M113.681 118.489L117.085 120.467V116.581L113.681 114.603V118.489Z" fill="#E0E0E0"/>
<path d="M54.5203 131.019L57.9238 132.997V129.106L54.5203 127.128V131.019Z" fill="#E0E0E0"/>
<path d="M54.5203 138.8L57.9238 140.773V136.887L54.5203 134.909V138.8Z" fill="#E0E0E0"/>
<path d="M54.5203 123.243L57.9238 125.216V121.33L54.5203 119.352V123.243Z" fill="#E0E0E0"/>
<path d="M54.5203 115.462L57.9238 117.44V113.549L54.5203 111.571V115.462Z" fill="#E0E0E0"/>
<path d="M54.5203 107.686L57.9238 109.664V105.773L54.5203 103.795V107.686Z" fill="#E0E0E0"/>
<path d="M79.9767 124.709V142.213L68.3303 135.487V117.977L79.9767 124.709Z" fill="#FAFAFA"/>
<path d="M68.9578 127.028L79.9767 133.388V124.709L68.9578 118.343V127.028Z" fill="#FF914D"/>
<path opacity="0.6" d="M68.9578 127.028L79.9767 133.388V124.709L68.9578 118.343V127.028Z" fill="white"/>
<path d="M69.2339 134.954V127.55L79.9767 133.75V132.851L69.2339 126.646V118.499L68.3253 117.977V135.487L79.9767 142.213V141.159L69.2339 134.954Z" fill="#FF914D"/>
<path opacity="0.2" d="M69.2339 134.954V127.55L79.9767 133.75V132.851L69.2339 126.646V118.499L68.3253 117.977V135.487L79.9767 142.213V141.159L69.2339 134.954Z" fill="black"/>
<path d="M103.275 138.162V155.667L91.6281 148.945V131.435L103.275 138.162Z" fill="#FAFAFA"/>
<path d="M92.2556 140.481L103.275 146.842V138.162L92.2556 131.797V140.481Z" fill="#FF914D"/>
<path opacity="0.6" d="M92.2556 140.481L103.275 146.842V138.162L92.2556 131.797V140.481Z" fill="white"/>
<path d="M92.5317 148.413V141.003L103.275 147.208V146.31L92.5317 140.105V131.957L91.6281 131.435V148.94L103.28 155.667V154.618L92.5317 148.413Z" fill="#FF914D"/>
<path opacity="0.2" d="M92.5317 148.413V141.003L103.275 147.208V146.31L92.5317 140.105V131.957L91.6281 131.435V148.94L103.28 155.667V154.618L92.5317 148.413Z" fill="black"/>
<path d="M158.259 117.977V135.481L169.905 128.755V111.245L158.259 117.977Z" fill="#FAFAFA"/>
<path d="M169.272 120.296L158.259 126.656V117.977L169.272 111.611V120.296Z" fill="#FF914D"/>
<path opacity="0.8" d="M169.272 120.296L158.259 126.656V117.977L169.272 111.611V120.296Z" fill="white"/>
<path d="M169.001 128.228V111.772L169.905 111.25V128.755L158.254 135.482V134.432L169.001 128.228Z" fill="#FF914D"/>
<path d="M158.259 126.119V127.023L169.689 120.421V119.518L158.259 126.119Z" fill="#FF914D"/>
<path d="M123.309 138.162V155.667L134.956 148.945V131.435L123.309 138.162Z" fill="#FAFAFA"/>
<path d="M134.328 140.481L123.309 146.842V138.162L134.328 131.797V140.481Z" fill="#FF914D"/>
<path opacity="0.8" d="M134.328 140.481L123.309 146.842V138.162L134.328 131.797V140.481Z" fill="white"/>
<path d="M134.052 148.413V131.957L134.961 131.435V148.94L123.309 155.667V154.618L134.052 148.413Z" fill="#FF914D"/>
<path d="M123.309 146.31V147.208L134.745 140.607V139.708L123.309 146.31Z" fill="#FF914D"/>
<path d="M105.604 135.481L111.176 131.576L147.42 85.0807L180.121 92.44L184.006 90.2111L147.099 81.5918L105.604 135.481Z" fill="#455A64"/>
<path d="M147.099 81.5918L88.2045 48.4849L47.0003 101.652L105.604 135.481L147.099 81.5918Z" fill="#263238"/>
<path d="M147.099 81.5918L184.006 90.2111L124.986 57.1042L88.2045 48.4849L147.099 81.5918Z" fill="#37474F"/>
<path d="M62.5473 156.46L60.4539 157.675C61.0835 155.479 61.2443 153.175 60.9258 150.913C60.7859 150.113 60.4963 149.347 60.0724 148.654C59.9118 148.313 58.6467 146.194 59.7612 145.22C60.8756 144.246 63.476 146.184 63.3605 151.41C63.3038 153.121 63.0305 154.818 62.5473 156.46Z" fill="#FF914D"/>
<path opacity="0.5" d="M62.5473 156.46L60.4539 157.675C61.0835 155.479 61.2443 153.175 60.9258 150.913C60.7859 150.113 60.4963 149.347 60.0724 148.654C59.9118 148.313 58.6467 146.194 59.7612 145.22C60.8756 144.246 63.476 146.184 63.3605 151.41C63.3038 153.121 63.0305 154.818 62.5473 156.46Z" fill="black"/>
<path d="M61.5784 157.128H61.5382C61.5131 157.117 61.4931 157.097 61.4819 157.072C61.4708 157.047 61.4694 157.018 61.478 156.992C62.0369 155.155 62.288 153.239 62.2209 151.32C62.1808 147.856 60.3736 146.019 60.3585 146.003C60.3395 145.983 60.3289 145.956 60.3289 145.928C60.3289 145.9 60.3395 145.873 60.3585 145.853C60.3781 145.834 60.4042 145.824 60.4313 145.824C60.4584 145.824 60.4845 145.834 60.5041 145.853C60.5041 145.853 62.3916 147.766 62.4318 151.315C62.4952 153.261 62.2391 155.204 61.6738 157.068C61.6652 157.086 61.6517 157.101 61.6348 157.112C61.6179 157.122 61.5983 157.128 61.5784 157.128Z" fill="white"/>
<path d="M60.9258 157.409L57.4921 159.447C57.4921 159.447 55.9058 159.211 56.0263 157.72C56.1468 156.229 56.7893 155.878 55.9911 155.21C55.193 154.543 54.9871 154.507 55.0223 153.87C55.0881 153.405 55.3287 152.983 55.6949 152.69C55.9191 152.506 56.0768 152.254 56.1439 151.972C56.211 151.69 56.1838 151.394 56.0664 151.129C55.6648 150.356 55.1277 149.623 55.9259 149.251C56.4279 149.041 57.211 149.307 57.7431 149.869C58.1357 150.368 58.6561 150.751 59.2491 150.978C59.7511 151.109 60.8103 151.119 60.7551 151.982C60.6999 152.846 60.4941 153.157 60.7049 153.544C61.0714 154.292 62.7731 154.683 60.9258 157.409Z" fill="#FF914D"/>
<path opacity="0.2" d="M60.9258 157.409L57.4921 159.447C57.4921 159.447 55.9058 159.211 56.0263 157.72C56.1468 156.229 56.7893 155.878 55.9911 155.21C55.193 154.543 54.9871 154.507 55.0223 153.87C55.0881 153.405 55.3287 152.983 55.6949 152.69C55.9191 152.506 56.0768 152.254 56.1439 151.972C56.211 151.69 56.1838 151.394 56.0664 151.129C55.6648 150.356 55.1277 149.623 55.9259 149.251C56.4279 149.041 57.211 149.307 57.7431 149.869C58.1357 150.368 58.6561 150.751 59.2491 150.978C59.7511 151.109 60.8103 151.119 60.7551 151.982C60.6999 152.846 60.4941 153.157 60.7049 153.544C61.0714 154.292 62.7731 154.683 60.9258 157.409Z" fill="black"/>
<path d="M59.5001 158.343C59.4864 158.342 59.4731 158.339 59.4608 158.333C59.4485 158.327 59.4375 158.318 59.4286 158.308C59.4197 158.298 59.413 158.286 59.4089 158.273C59.4047 158.26 59.4033 158.246 59.4047 158.232C59.4047 158.182 59.7762 153.117 56.2622 149.794C56.2435 149.774 56.233 149.748 56.233 149.721C56.233 149.694 56.2435 149.668 56.2622 149.648C56.2826 149.629 56.3095 149.618 56.3375 149.618C56.3654 149.618 56.3924 149.629 56.4128 149.648C59.9971 153.037 59.6206 158.182 59.6156 158.252C59.6118 158.279 59.5977 158.304 59.5761 158.321C59.5546 158.338 59.5273 158.346 59.5001 158.343Z" fill="white"/>
<path d="M58.8977 153.925C58.8839 153.924 58.8704 153.92 58.8581 153.913C58.8457 153.907 58.8348 153.898 58.826 153.887C58.8171 153.877 58.8104 153.864 58.8064 153.851C58.8023 153.837 58.801 153.823 58.8023 153.81C58.828 153.384 58.9422 152.968 59.1375 152.588C59.3328 152.209 59.6051 151.874 59.9369 151.606C59.9599 151.591 59.9876 151.586 60.0145 151.59C60.0413 151.595 60.0656 151.61 60.0824 151.631C60.1012 151.651 60.1116 151.677 60.1116 151.704C60.1116 151.731 60.1012 151.757 60.0824 151.777C59.78 152.031 59.5318 152.343 59.3524 152.695C59.173 153.046 59.0662 153.431 59.0383 153.825C59.0374 153.841 59.0328 153.857 59.0248 153.872C59.0168 153.887 59.0057 153.899 58.9922 153.909C58.9787 153.918 58.9632 153.925 58.9468 153.928C58.9305 153.931 58.9137 153.93 58.8977 153.925Z" fill="white"/>
<path d="M59.1537 154.804C59.1385 154.804 59.1234 154.801 59.1095 154.795C59.0956 154.789 59.0832 154.78 59.0734 154.769C59.0734 154.769 58.1999 153.83 56.227 154.101C56.1998 154.105 56.1719 154.099 56.1494 154.083C56.1268 154.067 56.1115 154.043 56.1066 154.016C56.1044 154.002 56.1051 153.988 56.1085 153.974C56.1119 153.96 56.118 153.948 56.1264 153.936C56.1348 153.925 56.1454 153.916 56.1575 153.909C56.1696 153.902 56.183 153.897 56.1969 153.895C58.2852 153.609 59.2089 154.588 59.2089 154.628C59.228 154.648 59.2386 154.675 59.2386 154.703C59.2386 154.731 59.228 154.758 59.2089 154.779C59.193 154.792 59.1739 154.8 59.1537 154.804Z" fill="white"/>
<path d="M89.5699 172.017L87.4766 173.237C88.1064 171.039 88.2672 168.734 87.9485 166.47C87.8085 165.67 87.519 164.904 87.0951 164.211C86.9344 163.87 85.6694 161.756 86.7788 160.778C87.8882 159.799 90.4986 161.741 90.3832 166.967C90.3271 168.678 90.0538 170.375 89.5699 172.017Z" fill="#FF914D"/>
<path opacity="0.5" d="M89.5699 172.017L87.4766 173.237C88.1064 171.039 88.2672 168.734 87.9485 166.47C87.8085 165.67 87.519 164.904 87.0951 164.211C86.9344 163.87 85.6694 161.756 86.7788 160.778C87.8882 159.799 90.4986 161.741 90.3832 166.967C90.3271 168.678 90.0538 170.375 89.5699 172.017Z" fill="black"/>
<path d="M88.6161 172.69H88.5759C88.5509 172.679 88.5308 172.659 88.5197 172.634C88.5085 172.609 88.5071 172.58 88.5157 172.554C89.0749 170.716 89.326 168.797 89.2586 166.877C89.2185 163.418 87.4113 161.581 87.3962 161.561C87.3772 161.54 87.3666 161.513 87.3666 161.485C87.3666 161.457 87.3772 161.43 87.3962 161.41C87.4158 161.391 87.4419 161.381 87.469 161.381C87.4961 161.381 87.5222 161.391 87.5418 161.41C87.5418 161.41 89.4293 163.323 89.4695 166.877C89.5339 168.821 89.2778 170.763 88.7115 172.625C88.7042 172.644 88.6912 172.661 88.6741 172.672C88.657 172.684 88.6368 172.69 88.6161 172.69Z" fill="white"/>
<path d="M87.9484 172.971L84.4897 175.004C84.4897 175.004 82.9034 174.768 83.0238 173.282C83.1443 171.796 83.7869 171.44 82.9887 170.772C82.1905 170.104 81.9847 170.074 82.0198 169.432C82.0839 168.968 82.325 168.547 82.6925 168.257C82.9164 168.072 83.0737 167.819 83.1408 167.536C83.2078 167.254 83.1809 166.957 83.064 166.691C82.6624 165.918 82.1253 165.185 82.9234 164.813C83.4254 164.603 84.2085 164.869 84.7407 165.436C85.1245 165.932 85.6366 166.314 86.2216 166.54C86.7236 166.671 87.7828 166.681 87.7276 167.544C87.6723 168.408 87.4665 168.714 87.6774 169.1C88.1141 169.853 89.7958 170.245 87.9484 172.971Z" fill="#FF914D"/>
<path opacity="0.2" d="M87.9484 172.971L84.4897 175.004C84.4897 175.004 82.9034 174.768 83.0238 173.282C83.1443 171.796 83.7869 171.44 82.9887 170.772C82.1905 170.104 81.9847 170.074 82.0198 169.432C82.0839 168.968 82.325 168.547 82.6925 168.257C82.9164 168.072 83.0737 167.819 83.1408 167.536C83.2078 167.254 83.1809 166.957 83.064 166.691C82.6624 165.918 82.1253 165.185 82.9234 164.813C83.4254 164.603 84.2085 164.869 84.7407 165.436C85.1245 165.932 85.6366 166.314 86.2216 166.54C86.7236 166.671 87.7828 166.681 87.7276 167.544C87.6723 168.408 87.4665 168.714 87.6774 169.1C88.1141 169.853 89.7958 170.245 87.9484 172.971Z" fill="black"/>
<path d="M86.5379 173.905C86.524 173.904 86.5105 173.9 86.4982 173.893C86.4859 173.887 86.475 173.878 86.4661 173.867C86.4572 173.856 86.4506 173.844 86.4465 173.831C86.4425 173.817 86.4411 173.803 86.4425 173.789C86.4425 173.739 86.814 168.674 83.3 165.356C83.2899 165.346 83.282 165.334 83.2765 165.321C83.2711 165.308 83.2683 165.295 83.2683 165.28C83.2683 165.266 83.2711 165.253 83.2765 165.24C83.282 165.227 83.2899 165.215 83.3 165.205C83.3196 165.186 83.3456 165.176 83.3727 165.176C83.3998 165.176 83.4259 165.186 83.4455 165.205C87.0348 168.594 86.6583 173.739 86.6533 173.804C86.6508 173.833 86.6373 173.859 86.6158 173.878C86.5943 173.897 86.5663 173.906 86.5379 173.905Z" fill="white"/>
<path d="M85.9204 169.482C85.8933 169.479 85.8682 169.467 85.8505 169.446C85.8327 169.425 85.8236 169.399 85.825 169.372C85.8497 168.945 85.9635 168.529 86.1589 168.15C86.3543 167.77 86.627 167.436 86.9595 167.168C86.9705 167.159 86.9831 167.153 86.9966 167.15C87.0101 167.147 87.0241 167.146 87.0378 167.148C87.0515 167.151 87.0645 167.156 87.0761 167.164C87.0877 167.171 87.0975 167.181 87.1051 167.193C87.1208 167.216 87.127 167.244 87.1223 167.271C87.1176 167.298 87.1024 167.322 87.08 167.338C86.7762 167.591 86.5271 167.903 86.3476 168.255C86.1681 168.607 86.062 168.992 86.0358 169.387C86.0346 169.401 86.0306 169.414 86.0241 169.426C86.0176 169.439 86.0087 169.45 85.998 169.458C85.9872 169.467 85.9748 169.474 85.9615 169.478C85.9482 169.482 85.9342 169.483 85.9204 169.482Z" fill="white"/>
<path d="M86.1764 170.361C86.1467 170.361 86.118 170.351 86.0961 170.331C86.0961 170.331 85.2226 169.392 83.2497 169.663C83.2359 169.665 83.2217 169.664 83.2081 169.661C83.1945 169.658 83.1817 169.651 83.1705 169.643C83.1593 169.635 83.1499 169.624 83.1428 169.612C83.1357 169.6 83.1311 169.586 83.1293 169.573C83.1271 169.559 83.1278 169.545 83.1313 169.532C83.1348 169.518 83.1409 169.506 83.1494 169.495C83.1579 169.484 83.1685 169.475 83.1805 169.469C83.1926 169.462 83.2059 169.458 83.2196 169.457C85.3079 169.171 86.2316 170.145 86.2316 170.19C86.2503 170.21 86.2608 170.236 86.2608 170.263C86.2608 170.29 86.2503 170.316 86.2316 170.336C86.2164 170.35 86.197 170.359 86.1764 170.361Z" fill="white"/>
<path d="M184.845 155.501L182.751 156.716C183.381 154.519 183.542 152.213 183.223 149.949C183.082 149.15 182.792 148.384 182.37 147.69C182.204 147.349 180.944 145.235 182.053 144.262C183.163 143.288 185.773 145.225 185.658 150.451C185.601 152.162 185.328 153.859 184.845 155.501Z" fill="#FF914D"/>
<path opacity="0.5" d="M184.845 155.501L182.751 156.716C183.381 154.519 183.542 152.213 183.223 149.949C183.082 149.15 182.792 148.384 182.37 147.69C182.204 147.349 180.944 145.235 182.053 144.262C183.163 143.288 185.773 145.225 185.658 150.451C185.601 152.162 185.328 153.859 184.845 155.501Z" fill="black"/>
<path d="M183.871 156.149H183.835C183.81 156.139 183.789 156.119 183.777 156.094C183.766 156.068 183.765 156.039 183.775 156.014C184.331 154.176 184.582 152.26 184.518 150.341C184.478 146.872 182.671 145.04 182.656 145.02C182.646 145.01 182.638 144.999 182.633 144.987C182.627 144.974 182.625 144.961 182.625 144.947C182.625 144.933 182.627 144.92 182.633 144.907C182.638 144.895 182.646 144.884 182.656 144.874C182.676 144.855 182.703 144.844 182.731 144.844C182.759 144.844 182.786 144.855 182.806 144.874C182.806 144.874 184.694 146.787 184.734 150.336C184.8 152.279 184.551 154.22 183.996 156.084C183.987 156.108 183.969 156.129 183.946 156.141C183.923 156.153 183.896 156.156 183.871 156.149Z" fill="white"/>
<path d="M183.223 156.43L179.764 158.438C179.764 158.438 178.178 158.207 178.298 156.716C178.419 155.225 179.061 154.874 178.258 154.206C177.455 153.539 177.254 153.508 177.289 152.866C177.359 152.404 177.599 151.985 177.962 151.691C178.188 151.508 178.346 151.256 178.414 150.974C178.481 150.691 178.453 150.395 178.334 150.13C177.937 149.352 177.395 148.624 178.198 148.253C178.7 148.042 179.483 148.303 180.015 148.87C180.399 149.366 180.911 149.748 181.496 149.974C181.998 150.11 183.057 150.12 183.002 150.978C182.947 151.837 182.736 152.153 182.952 152.54C183.369 153.313 185.07 153.704 183.223 156.43Z" fill="#FF914D"/>
<path opacity="0.2" d="M183.223 156.43L179.764 158.438C179.764 158.438 178.178 158.207 178.298 156.716C178.419 155.225 179.061 154.874 178.258 154.206C177.455 153.539 177.254 153.508 177.289 152.866C177.359 152.404 177.599 151.985 177.962 151.691C178.188 151.508 178.346 151.256 178.414 150.974C178.481 150.691 178.453 150.395 178.334 150.13C177.937 149.352 177.395 148.624 178.198 148.253C178.7 148.042 179.483 148.303 180.015 148.87C180.399 149.366 180.911 149.748 181.496 149.974C181.998 150.11 183.057 150.12 183.002 150.978C182.947 151.837 182.736 152.153 182.952 152.54C183.369 153.313 185.07 153.704 183.223 156.43Z" fill="black"/>
<path d="M181.812 157.364C181.799 157.362 181.785 157.359 181.773 157.352C181.76 157.346 181.749 157.337 181.741 157.326C181.732 157.315 181.725 157.303 181.721 157.289C181.717 157.276 181.716 157.262 181.717 157.248C181.717 157.198 182.088 152.133 178.58 148.815C178.566 148.807 178.554 148.796 178.546 148.783C178.537 148.769 178.531 148.755 178.529 148.739C178.527 148.723 178.528 148.707 178.533 148.692C178.538 148.677 178.546 148.664 178.556 148.652C178.567 148.641 178.58 148.632 178.595 148.626C178.61 148.62 178.625 148.618 178.641 148.619C178.657 148.62 178.672 148.625 178.686 148.633C178.699 148.64 178.711 148.651 178.72 148.664C182.309 152.053 181.933 157.198 181.928 157.268C181.927 157.282 181.923 157.296 181.916 157.308C181.91 157.32 181.901 157.331 181.89 157.34C181.879 157.349 181.867 157.356 181.854 157.36C181.84 157.364 181.826 157.365 181.812 157.364Z" fill="white"/>
<path d="M181.195 152.941C181.181 152.941 181.168 152.937 181.156 152.931C181.143 152.925 181.132 152.917 181.123 152.907C181.115 152.896 181.108 152.884 181.104 152.871C181.1 152.858 181.098 152.844 181.1 152.831C181.124 152.405 181.238 151.988 181.433 151.609C181.629 151.229 181.902 150.895 182.234 150.627C182.254 150.609 182.28 150.6 182.307 150.6C182.334 150.6 182.36 150.609 182.38 150.627C182.395 150.65 182.402 150.678 182.397 150.705C182.392 150.732 182.377 150.756 182.355 150.773C182.05 151.025 181.801 151.337 181.62 151.689C181.44 152.041 181.333 152.426 181.305 152.821C181.309 152.836 181.308 152.853 181.304 152.868C181.3 152.883 181.292 152.898 181.281 152.909C181.27 152.921 181.257 152.93 181.242 152.936C181.227 152.941 181.211 152.943 181.195 152.941Z" fill="white"/>
<path d="M181.446 153.825C181.417 153.823 181.39 153.81 181.371 153.79C181.371 153.79 180.497 152.851 178.519 153.122C178.496 153.117 178.475 153.104 178.46 153.085C178.445 153.066 178.437 153.043 178.437 153.019C178.437 152.995 178.445 152.972 178.46 152.953C178.475 152.934 178.496 152.921 178.519 152.916C180.608 152.63 181.531 153.609 181.531 153.649C181.543 153.665 181.55 153.684 181.552 153.703C181.554 153.723 181.551 153.743 181.543 153.761C181.535 153.778 181.522 153.794 181.506 153.805C181.489 153.816 181.471 153.823 181.451 153.825H181.446Z" fill="white"/>
<path d="M132.411 185.265L130.317 186.48C130.944 184.281 131.103 181.976 130.784 179.713C130.645 178.913 130.357 178.147 129.936 177.454C129.77 177.112 128.51 174.999 129.619 174.02C130.729 173.041 133.339 174.989 133.219 180.21C133.165 181.922 132.894 183.621 132.411 185.265Z" fill="#FF914D"/>
<path opacity="0.5" d="M132.411 185.265L130.317 186.48C130.944 184.281 131.103 181.976 130.784 179.713C130.645 178.913 130.357 178.147 129.936 177.454C129.77 177.112 128.51 174.999 129.619 174.02C130.729 173.041 133.339 174.989 133.219 180.21C133.165 181.922 132.894 183.621 132.411 185.265Z" fill="black"/>
<path d="M131.437 185.933H131.402C131.388 185.928 131.376 185.921 131.366 185.912C131.355 185.903 131.347 185.891 131.341 185.879C131.334 185.866 131.331 185.852 131.33 185.838C131.329 185.824 131.332 185.81 131.336 185.797C131.896 183.96 132.148 182.044 132.084 180.125C132.044 176.661 130.237 174.823 130.217 174.803C130.198 174.784 130.188 174.758 130.188 174.731C130.188 174.703 130.198 174.677 130.217 174.658C130.226 174.647 130.238 174.639 130.251 174.633C130.264 174.627 130.278 174.624 130.292 174.624C130.306 174.624 130.32 174.627 130.333 174.633C130.346 174.639 130.358 174.647 130.367 174.658C130.367 174.658 132.25 176.585 132.29 180.099C132.351 182.044 132.095 183.985 131.532 185.847C131.528 185.87 131.516 185.891 131.499 185.906C131.482 185.922 131.46 185.931 131.437 185.933Z" fill="white"/>
<path d="M130.784 186.214L127.325 188.247C127.325 188.247 125.744 188.016 125.864 186.525C125.985 185.034 126.628 184.683 125.824 184.015C125.021 183.347 124.82 183.317 124.855 182.675C124.924 182.212 125.164 181.793 125.528 181.5C125.754 181.317 125.912 181.065 125.98 180.783C126.047 180.5 126.019 180.203 125.9 179.939C125.503 179.161 124.961 178.433 125.764 178.061C126.241 177.845 127.049 178.111 127.581 178.679C127.964 179.176 128.476 179.558 129.062 179.783C129.564 179.914 130.618 179.929 130.568 180.787C130.518 181.646 130.307 181.962 130.518 182.348C130.935 183.111 132.631 183.488 130.784 186.214Z" fill="#FF914D"/>
<path opacity="0.2" d="M130.784 186.214L127.325 188.247C127.325 188.247 125.744 188.016 125.864 186.525C125.985 185.034 126.628 184.683 125.824 184.015C125.021 183.347 124.82 183.317 124.855 182.675C124.924 182.212 125.164 181.793 125.528 181.5C125.754 181.317 125.912 181.065 125.98 180.783C126.047 180.5 126.019 180.203 125.9 179.939C125.503 179.161 124.961 178.433 125.764 178.061C126.241 177.845 127.049 178.111 127.581 178.679C127.964 179.176 128.476 179.558 129.062 179.783C129.564 179.914 130.618 179.929 130.568 180.787C130.518 181.646 130.307 181.962 130.518 182.348C130.935 183.111 132.631 183.488 130.784 186.214Z" fill="black"/>
<path d="M129.379 187.128C129.365 187.126 129.351 187.122 129.339 187.116C129.327 187.109 129.316 187.1 129.307 187.09C129.298 187.079 129.291 187.067 129.287 187.053C129.283 187.04 129.282 187.026 129.283 187.012C129.283 186.962 129.655 181.897 126.141 178.578C126.122 178.558 126.111 178.531 126.111 178.503C126.111 178.475 126.122 178.448 126.141 178.428C126.16 178.409 126.186 178.399 126.213 178.399C126.241 178.399 126.267 178.409 126.286 178.428C129.875 181.816 129.494 186.962 129.494 187.032C129.493 187.046 129.489 187.059 129.482 187.072C129.476 187.084 129.467 187.095 129.456 187.104C129.445 187.113 129.433 187.119 129.42 187.123C129.406 187.128 129.392 187.129 129.379 187.128Z" fill="white"/>
<path d="M128.776 182.725C128.762 182.724 128.749 182.721 128.737 182.715C128.725 182.709 128.714 182.701 128.705 182.69C128.696 182.68 128.689 182.668 128.685 182.655C128.681 182.642 128.679 182.628 128.681 182.615C128.706 182.189 128.82 181.774 129.014 181.394C129.209 181.015 129.48 180.68 129.81 180.411C129.821 180.402 129.834 180.396 129.847 180.393C129.861 180.39 129.875 180.389 129.889 180.391C129.902 180.394 129.915 180.399 129.927 180.407C129.938 180.414 129.948 180.424 129.956 180.436C129.975 180.455 129.985 180.482 129.985 180.509C129.985 180.536 129.975 180.562 129.956 180.581C129.651 180.834 129.401 181.145 129.22 181.497C129.04 181.85 128.933 182.235 128.907 182.63C128.906 182.645 128.901 182.66 128.894 182.673C128.886 182.687 128.876 182.699 128.864 182.708C128.851 182.717 128.837 182.723 128.822 182.726C128.807 182.729 128.791 182.729 128.776 182.725Z" fill="white"/>
<path d="M129.012 183.614C128.998 183.613 128.984 183.61 128.971 183.604C128.958 183.598 128.946 183.589 128.937 183.578C128.937 183.578 128.063 182.64 126.085 182.911C126.072 182.914 126.058 182.914 126.044 182.91C126.03 182.907 126.017 182.901 126.006 182.893C125.995 182.884 125.986 182.873 125.98 182.861C125.974 182.848 125.97 182.834 125.97 182.82C125.968 182.807 125.968 182.794 125.971 182.781C125.975 182.768 125.98 182.755 125.988 182.745C125.996 182.734 126.006 182.725 126.018 182.718C126.029 182.711 126.042 182.707 126.055 182.705C128.149 182.419 129.067 183.398 129.067 183.438C129.086 183.457 129.096 183.484 129.096 183.511C129.096 183.538 129.086 183.564 129.067 183.583C129.053 183.599 129.033 183.61 129.012 183.614Z" fill="white"/>
<path d="M203.624 147.555C203.411 147.555 203.207 147.47 203.056 147.32C202.906 147.169 202.821 146.965 202.821 146.752V113.72C202.821 113.507 202.906 113.303 203.056 113.152C203.207 113.001 203.411 112.917 203.624 112.917C203.837 112.917 204.042 113.001 204.192 113.152C204.343 113.303 204.428 113.507 204.428 113.72V146.752C204.428 146.965 204.343 147.169 204.192 147.32C204.042 147.47 203.837 147.555 203.624 147.555Z" fill="#37474F"/>
<path d="M203.624 125.818C203.529 125.818 203.436 125.793 203.354 125.746C203.272 125.698 203.204 125.629 203.157 125.547L198.584 117.515C198.515 117.391 198.497 117.245 198.535 117.108C198.572 116.97 198.662 116.854 198.785 116.782C198.846 116.747 198.913 116.725 198.983 116.716C199.052 116.707 199.123 116.712 199.191 116.731C199.258 116.75 199.322 116.782 199.377 116.825C199.432 116.868 199.478 116.922 199.513 116.983L204.086 125.015C204.122 125.076 204.145 125.144 204.154 125.214C204.163 125.284 204.158 125.355 204.14 125.424C204.121 125.492 204.089 125.556 204.045 125.611C204.001 125.667 203.947 125.713 203.885 125.748C203.806 125.795 203.716 125.819 203.624 125.818Z" fill="#37474F"/>
<path d="M203.534 127.992C203.442 127.993 203.352 127.968 203.273 127.921C203.212 127.887 203.158 127.841 203.115 127.785C203.072 127.73 203.04 127.667 203.021 127.599C203.002 127.532 202.997 127.461 203.006 127.391C203.015 127.322 203.037 127.254 203.072 127.193L209.181 116.471C209.252 116.347 209.369 116.256 209.506 116.219C209.644 116.181 209.791 116.199 209.914 116.27C210.038 116.341 210.129 116.457 210.167 116.595C210.204 116.732 210.186 116.879 210.115 117.003L204.001 127.721C203.957 127.806 203.89 127.876 203.807 127.924C203.724 127.972 203.629 127.996 203.534 127.992Z" fill="#37474F"/>
<path d="M217.335 117.977C223.344 115.488 226.198 108.599 223.709 102.589C221.22 96.5803 214.331 93.7268 208.321 96.2158C202.312 98.7049 199.459 105.594 201.948 111.603C204.437 117.612 211.326 120.466 217.335 117.977Z" fill="#FF914D"/>
<path opacity="0.3" d="M217.335 117.977C223.344 115.488 226.198 108.599 223.709 102.589C221.22 96.5803 214.331 93.7268 208.321 96.2158C202.312 98.7049 199.459 105.594 201.948 111.603C204.437 117.612 211.326 120.466 217.335 117.977Z" fill="black"/>
<path d="M210.281 103.765C210.277 102.201 210.586 100.652 211.189 99.2085C211.792 97.7653 212.678 96.4574 213.795 95.3617C213.474 95.3617 213.147 95.3215 212.816 95.3215C210.883 95.321 208.98 95.7961 207.275 96.7049C205.569 97.6137 204.113 98.9283 203.036 100.533C201.959 102.137 201.292 103.982 201.097 105.905C200.901 107.827 201.181 109.769 201.913 111.557C202.644 113.346 203.805 114.927 205.292 116.161C206.779 117.395 208.547 118.245 210.44 118.634C212.333 119.023 214.293 118.941 216.147 118.394C218 117.847 219.691 116.852 221.069 115.497C218.128 115.249 215.387 113.906 213.389 111.733C211.391 109.56 210.282 106.717 210.281 103.765Z" fill="#FF914D"/>
<path opacity="0.4" d="M210.281 103.765C210.277 102.201 210.586 100.652 211.189 99.2085C211.792 97.7653 212.678 96.4574 213.795 95.3617C213.474 95.3617 213.147 95.3215 212.816 95.3215C210.883 95.321 208.98 95.7961 207.275 96.7049C205.569 97.6137 204.113 98.9283 203.036 100.533C201.959 102.137 201.292 103.982 201.097 105.905C200.901 107.827 201.181 109.769 201.913 111.557C202.644 113.346 203.805 114.927 205.292 116.161C206.779 117.395 208.547 118.245 210.44 118.634C212.333 119.023 214.293 118.941 216.147 118.394C218 117.847 219.691 116.852 221.069 115.497C218.128 115.249 215.387 113.906 213.389 111.733C211.391 109.56 210.282 106.717 210.281 103.765Z" fill="black"/>
<path d="M193.594 118.876C198.255 118.876 202.033 115.097 202.033 110.437C202.033 105.776 198.255 101.998 193.594 101.998C188.934 101.998 185.156 105.776 185.156 110.437C185.156 115.097 188.934 118.876 193.594 118.876Z" fill="#FF914D"/>
<path opacity="0.3" d="M193.594 118.876C198.255 118.876 202.033 115.097 202.033 110.437C202.033 105.776 198.255 101.998 193.594 101.998C188.934 101.998 185.156 105.776 185.156 110.437C185.156 115.097 188.934 118.876 193.594 118.876Z" fill="black"/>
<path d="M194.508 102.043C193.385 101.92 192.249 102.025 191.167 102.351C190.086 102.677 189.081 103.218 188.213 103.941C188.183 104.302 188.168 104.664 188.168 105.035C188.165 108.692 189.492 112.225 191.903 114.975C192.069 115.164 192.177 115.396 192.216 115.645C192.255 115.894 192.222 116.148 192.121 116.379C192.021 116.609 191.857 116.807 191.648 116.947C191.44 117.088 191.195 117.167 190.944 117.174H190.914C189.859 117.171 188.813 116.972 187.831 116.586C188.809 117.498 189.988 118.165 191.273 118.532C192.559 118.898 193.912 118.954 195.224 118.695C196.535 118.437 197.766 117.87 198.815 117.042C199.864 116.214 200.702 115.149 201.259 113.935C201.816 112.72 202.077 111.39 202.02 110.055C201.962 108.72 201.589 107.417 200.929 106.254C200.27 105.092 199.344 104.102 198.228 103.368C197.111 102.633 195.837 102.174 194.508 102.028V102.043Z" fill="#FF914D"/>
<path opacity="0.4" d="M194.508 102.043C193.385 101.92 192.249 102.025 191.167 102.351C190.086 102.677 189.081 103.218 188.213 103.941C188.183 104.302 188.168 104.664 188.168 105.035C188.165 108.692 189.492 112.225 191.903 114.975C192.069 115.164 192.177 115.396 192.216 115.645C192.255 115.894 192.222 116.148 192.121 116.379C192.021 116.609 191.857 116.807 191.648 116.947C191.44 117.088 191.195 117.167 190.944 117.174H190.914C189.859 117.171 188.813 116.972 187.831 116.586C188.809 117.498 189.988 118.165 191.273 118.532C192.559 118.898 193.912 118.954 195.224 118.695C196.535 118.437 197.766 117.87 198.815 117.042C199.864 116.214 200.702 115.149 201.259 113.935C201.816 112.72 202.077 111.39 202.02 110.055C201.962 108.72 201.589 107.417 200.929 106.254C200.27 105.092 199.344 104.102 198.228 103.368C197.111 102.633 195.837 102.174 194.508 102.028V102.043Z" fill="black"/>
<path d="M218.321 105.675C220.238 97.5528 215.208 89.4146 207.086 87.4976C198.964 85.5807 190.826 90.6108 188.909 98.7328C186.992 106.855 192.022 114.993 200.144 116.91C208.266 118.827 216.404 113.797 218.321 105.675Z" fill="#FF914D"/>
<path opacity="0.2" d="M207.931 112.139C205.35 112.138 202.812 111.476 200.559 110.216C198.306 108.956 196.413 107.139 195.062 104.94C193.71 102.741 192.944 100.232 192.838 97.6525C192.731 95.0732 193.287 92.5097 194.453 90.2063C192.658 91.5888 191.196 93.3574 190.178 95.3811C189.159 97.4048 188.608 99.6319 188.566 101.897C188.525 104.163 188.994 106.408 189.938 108.468C190.882 110.528 192.277 112.349 194.021 113.796C195.764 115.243 197.81 116.28 200.009 116.829C202.207 117.378 204.501 117.425 206.72 116.968C208.939 116.51 211.026 115.559 212.828 114.186C214.63 112.812 216.099 111.05 217.128 109.031C214.49 111.054 211.256 112.146 207.931 112.139Z" fill="black"/>
<path d="M48.9079 153.609C48.6949 153.609 48.4906 153.524 48.3399 153.373C48.1893 153.223 48.1047 153.019 48.1047 152.806V119.774C48.1047 119.561 48.1893 119.357 48.3399 119.206C48.4906 119.055 48.6949 118.971 48.9079 118.971C49.1209 118.971 49.3252 119.055 49.4758 119.206C49.6265 119.357 49.7111 119.561 49.7111 119.774V152.806C49.7111 153.019 49.6265 153.223 49.4758 153.373C49.3252 153.524 49.1209 153.609 48.9079 153.609Z" fill="#37474F"/>
<path d="M48.9079 131.872C48.8132 131.875 48.7195 131.851 48.6378 131.803C48.5561 131.755 48.4896 131.685 48.446 131.601L43.8678 123.569C43.7972 123.445 43.7787 123.298 43.8164 123.161C43.8541 123.024 43.9448 122.907 44.0686 122.836C44.1924 122.766 44.3392 122.747 44.4766 122.785C44.6141 122.822 44.731 122.913 44.8015 123.037L49.3747 131.069C49.4096 131.13 49.432 131.197 49.4408 131.267C49.4496 131.336 49.4445 131.407 49.4258 131.475C49.4072 131.542 49.3753 131.606 49.3321 131.661C49.2888 131.716 49.2351 131.762 49.1739 131.797C49.094 131.846 49.0019 131.872 48.9079 131.872Z" fill="#37474F"/>
<path d="M48.8225 134.051C48.7289 134.05 48.6371 134.025 48.5563 133.978C48.4754 133.93 48.4083 133.863 48.3617 133.782C48.315 133.7 48.2903 133.608 48.2902 133.515C48.29 133.421 48.3143 133.329 48.3607 133.248L54.4801 122.525C54.5506 122.401 54.6675 122.31 54.8049 122.273C54.9424 122.235 55.0892 122.254 55.213 122.324C55.3368 122.395 55.4275 122.512 55.4652 122.649C55.5028 122.786 55.4844 122.933 55.4138 123.057L49.2894 133.78C49.2417 133.861 49.1735 133.929 49.0917 133.977C49.0099 134.024 48.9172 134.05 48.8225 134.051Z" fill="#37474F"/>
<path d="M62.628 124.031C68.6371 121.542 71.4907 114.653 69.0016 108.644C66.5126 102.635 59.6235 99.7812 53.6143 102.27C47.6052 104.759 44.7517 111.648 47.2407 117.658C49.7298 123.667 56.6189 126.52 62.628 124.031Z" fill="#FF914D"/>
<path opacity="0.3" d="M62.628 124.031C68.6371 121.542 71.4907 114.653 69.0016 108.644C66.5126 102.635 59.6235 99.7812 53.6143 102.27C47.6052 104.759 44.7517 111.648 47.2407 117.658C49.7298 123.667 56.6189 126.52 62.628 124.031Z" fill="black"/>
<path d="M55.5694 109.819C55.5659 108.255 55.8749 106.706 56.4784 105.263C57.0818 103.82 57.9675 102.512 59.0834 101.416C58.7571 101.416 58.4359 101.376 58.0794 101.376C56.1466 101.374 54.2432 101.849 52.5371 102.757C50.831 103.665 49.3746 104.98 48.2966 106.584C47.2185 108.188 46.5518 110.033 46.3554 111.956C46.1589 113.878 46.4387 115.82 47.1701 117.609C47.9015 119.398 49.062 120.98 50.5492 122.214C52.0364 123.449 53.8045 124.298 55.6977 124.688C57.5908 125.077 59.5508 124.995 61.4045 124.448C63.2583 123.901 64.949 122.906 66.3273 121.551C63.3915 121.296 60.658 119.95 58.6663 117.778C56.6747 115.606 55.5697 112.766 55.5694 109.819Z" fill="#FF914D"/>
<path opacity="0.4" d="M55.5694 109.819C55.5659 108.255 55.8749 106.706 56.4784 105.263C57.0818 103.82 57.9675 102.512 59.0834 101.416C58.7571 101.416 58.4359 101.376 58.0794 101.376C56.1466 101.374 54.2432 101.849 52.5371 102.757C50.831 103.665 49.3746 104.98 48.2966 106.584C47.2185 108.188 46.5518 110.033 46.3554 111.956C46.1589 113.878 46.4387 115.82 47.1701 117.609C47.9015 119.398 49.062 120.98 50.5492 122.214C52.0364 123.449 53.8045 124.298 55.6977 124.688C57.5908 125.077 59.5508 124.995 61.4045 124.448C63.2583 123.901 64.949 122.906 66.3273 121.551C63.3915 121.296 60.658 119.95 58.6663 117.778C56.6747 115.606 55.5697 112.766 55.5694 109.819Z" fill="black"/>
<path d="M38.883 124.929C43.5435 124.929 47.3216 121.151 47.3216 116.491C47.3216 111.83 43.5435 108.052 38.883 108.052C34.2224 108.052 30.4443 111.83 30.4443 116.491C30.4443 121.151 34.2224 124.929 38.883 124.929Z" fill="#FF914D"/>
<path opacity="0.3" d="M38.883 124.929C43.5435 124.929 47.3216 121.151 47.3216 116.491C47.3216 111.83 43.5435 108.052 38.883 108.052C34.2224 108.052 30.4443 111.83 30.4443 116.491C30.4443 121.151 34.2224 124.929 38.883 124.929Z" fill="black"/>
<path d="M39.7966 108.097C38.6729 107.975 37.5361 108.08 36.4538 108.406C35.3716 108.732 34.3659 109.273 33.4965 109.995C33.4965 110.356 33.4563 110.718 33.4563 111.089C33.452 114.748 34.7797 118.283 37.1912 121.034C37.3579 121.223 37.4671 121.455 37.5059 121.704C37.5447 121.953 37.5115 122.208 37.4102 122.439C37.3088 122.669 37.1436 122.866 36.934 123.006C36.7244 123.146 36.4792 123.223 36.2274 123.228C35.1721 123.228 34.1264 123.028 33.1451 122.64C34.1223 123.549 35.3012 124.213 36.5849 124.577C37.8686 124.942 39.2204 124.996 40.5292 124.736C41.8381 124.477 43.0667 123.91 44.114 123.083C45.1613 122.256 45.9974 121.193 46.5537 119.98C47.11 118.767 47.3705 117.439 47.3138 116.106C47.2572 114.773 46.885 113.472 46.2279 112.311C45.5707 111.149 44.6474 110.161 43.5337 109.425C42.4201 108.69 41.1479 108.23 39.8217 108.082L39.7966 108.097Z" fill="#FF914D"/>
<path opacity="0.4" d="M39.7966 108.097C38.6729 107.975 37.5361 108.08 36.4538 108.406C35.3716 108.732 34.3659 109.273 33.4965 109.995C33.4965 110.356 33.4563 110.718 33.4563 111.089C33.452 114.748 34.7797 118.283 37.1912 121.034C37.3579 121.223 37.4671 121.455 37.5059 121.704C37.5447 121.953 37.5115 122.208 37.4102 122.439C37.3088 122.669 37.1436 122.866 36.934 123.006C36.7244 123.146 36.4792 123.223 36.2274 123.228C35.1721 123.228 34.1264 123.028 33.1451 122.64C34.1223 123.549 35.3012 124.213 36.5849 124.577C37.8686 124.942 39.2204 124.996 40.5292 124.736C41.8381 124.477 43.0667 123.91 44.114 123.083C45.1613 122.256 45.9974 121.193 46.5537 119.98C47.11 118.767 47.3705 117.439 47.3138 116.106C47.2572 114.773 46.885 113.472 46.2279 112.311C45.5707 111.149 44.6474 110.161 43.5337 109.425C42.4201 108.69 41.1479 108.23 39.8217 108.082L39.7966 108.097Z" fill="black"/>
<path d="M63.6151 111.733C65.532 103.611 60.5019 95.473 52.3799 93.556C44.2579 91.639 36.1197 96.6692 34.2028 104.791C32.2858 112.913 37.316 121.051 45.438 122.968C53.5599 124.885 61.6981 119.855 63.6151 111.733Z" fill="#FF914D"/>
<path opacity="0.2" d="M53.2201 118.193C50.6383 118.194 48.0991 117.534 45.8452 116.275C43.5913 115.016 41.6979 113.2 40.3459 111C38.9939 108.801 38.2284 106.291 38.1225 103.712C38.0167 101.132 38.5741 98.5682 39.7414 96.2654C37.9386 97.6439 36.4696 99.4109 35.4435 101.435C34.4174 103.459 33.8607 105.689 33.8146 107.958C33.7685 110.227 34.2343 112.477 35.1773 114.541C36.1203 116.606 37.5164 118.431 39.2617 119.881C41.0071 121.332 43.0569 122.371 45.2588 122.92C47.4607 123.47 49.7581 123.516 51.9804 123.056C54.2027 122.595 56.2927 121.64 58.0951 120.261C59.8976 118.882 61.3661 117.115 62.3916 115.09C59.7593 117.106 56.5354 118.196 53.2201 118.193Z" fill="black"/>
<path d="M189.518 166.068V159.618H185.839V166.068C185.854 166.23 185.912 166.385 186.006 166.517C186.1 166.649 186.228 166.754 186.376 166.821C186.78 167.024 187.226 167.13 187.678 167.13C188.131 167.13 188.577 167.024 188.981 166.821C189.129 166.755 189.257 166.65 189.352 166.518C189.446 166.385 189.504 166.23 189.518 166.068Z" fill="#455A64"/>
<path d="M188.966 158.865C189.684 159.281 189.684 159.954 188.966 160.371C188.562 160.576 188.116 160.683 187.663 160.683C187.21 160.683 186.764 160.576 186.361 160.371C185.643 159.959 185.643 159.286 186.361 158.865C186.764 158.659 187.21 158.552 187.663 158.552C188.116 158.552 188.562 158.659 188.966 158.865Z" fill="#37474F"/>
<path d="M195.04 130.572C194.898 130.572 194.761 130.515 194.66 130.415C194.56 130.314 194.503 130.177 194.503 130.035V124.011C194.496 123.936 194.504 123.861 194.528 123.79C194.551 123.719 194.59 123.653 194.64 123.598C194.69 123.543 194.752 123.498 194.82 123.468C194.889 123.438 194.963 123.422 195.038 123.422C195.113 123.422 195.187 123.438 195.255 123.468C195.324 123.498 195.385 123.543 195.435 123.598C195.486 123.653 195.524 123.719 195.547 123.79C195.571 123.861 195.579 123.936 195.572 124.011V130.035C195.573 130.105 195.56 130.175 195.533 130.24C195.507 130.305 195.468 130.364 195.418 130.414C195.369 130.464 195.31 130.504 195.245 130.531C195.18 130.558 195.11 130.572 195.04 130.572Z" fill="#37474F"/>
<path d="M203.614 135.989C203.544 135.989 203.474 135.975 203.409 135.948C203.345 135.92 203.286 135.881 203.236 135.831C203.187 135.781 203.148 135.722 203.121 135.657C203.095 135.591 203.081 135.522 203.082 135.451V129.427C203.075 129.353 203.083 129.278 203.107 129.206C203.131 129.135 203.169 129.07 203.219 129.015C203.269 128.959 203.331 128.915 203.399 128.884C203.468 128.854 203.542 128.838 203.617 128.838C203.692 128.838 203.766 128.854 203.834 128.884C203.903 128.915 203.964 128.959 204.015 129.015C204.065 129.07 204.103 129.135 204.127 129.206C204.15 129.278 204.159 129.353 204.151 129.427V135.451C204.151 135.594 204.095 135.73 203.994 135.831C203.893 135.932 203.757 135.989 203.614 135.989Z" fill="#37474F"/>
<path d="M187.706 159.834C187.563 159.834 187.427 159.777 187.326 159.676C187.225 159.576 187.169 159.439 187.169 159.296V119.804C187.171 119.71 187.197 119.619 187.245 119.538C187.292 119.457 187.36 119.39 187.442 119.344C187.523 119.297 187.615 119.273 187.709 119.272C187.803 119.272 187.895 119.296 187.977 119.342L210.241 132.199C210.356 132.273 210.438 132.39 210.47 132.524C210.503 132.658 210.482 132.799 210.413 132.918C210.344 133.037 210.232 133.125 210.1 133.164C209.968 133.203 209.826 133.19 209.704 133.127L188.243 120.733V159.296C188.243 159.367 188.229 159.437 188.202 159.502C188.175 159.567 188.136 159.626 188.086 159.676C188.036 159.726 187.977 159.766 187.911 159.793C187.846 159.82 187.776 159.834 187.706 159.834Z" fill="#37474F"/>
<path d="M190.407 126.18V141.476C190.406 141.839 190.502 142.197 190.684 142.512C190.867 142.827 191.13 143.087 191.446 143.268L208.664 153.212C208.797 153.289 208.947 153.329 209.1 153.329C209.253 153.329 209.404 153.289 209.536 153.213C209.669 153.137 209.779 153.027 209.856 152.895C209.933 152.763 209.974 152.612 209.975 152.459V137.163C209.974 136.8 209.877 136.443 209.695 136.128C209.513 135.814 209.251 135.553 208.936 135.371L191.717 125.427C191.584 125.35 191.434 125.31 191.281 125.31C191.128 125.309 190.978 125.349 190.845 125.426C190.712 125.502 190.602 125.612 190.525 125.744C190.448 125.876 190.407 126.027 190.407 126.18Z" fill="#455A64"/>
<path d="M198.577 135.72V138.18L196.12 136.768V134.308L194.868 133.589V139.827L196.12 140.546V137.989L198.577 139.401V141.958L199.828 142.678V136.44L198.577 135.72ZM203.727 145.025C205.427 146.002 206.686 145.363 206.686 143.5C206.686 141.638 205.427 139.55 203.727 138.574C202.02 137.592 200.768 138.245 200.768 140.099C200.768 141.952 202.02 144.044 203.727 145.025ZM203.727 143.796C202.761 143.241 202.035 142.012 202.035 140.827C202.035 139.642 202.761 139.248 203.727 139.803C204.693 140.358 205.419 141.587 205.419 142.772C205.419 143.957 204.693 144.351 203.727 143.796ZM197.271 152.315C198.809 153.199 199.72 152.707 199.72 150.871V147.378L198.484 146.667V150.107C198.484 151.292 198.044 151.529 197.279 151.09C196.522 150.654 196.073 149.907 196.073 148.722V145.282L194.822 144.562V148.056C194.822 149.891 195.733 151.431 197.271 152.315ZM202.734 155.455C204.279 156.343 205.029 155.882 205.029 154.84C205.029 152.549 201.884 151.535 201.884 150.386C201.884 149.994 202.17 149.837 202.912 150.263C203.391 150.539 203.909 150.997 204.411 151.615L204.797 150.741C204.295 150.087 203.599 149.5 202.92 149.109C201.382 148.226 200.64 148.682 200.64 149.742C200.64 152.059 203.785 153.064 203.785 154.232C203.785 154.615 203.484 154.727 202.742 154.301C202.093 153.928 201.413 153.27 200.957 152.624L200.532 153.467C201.011 154.17 201.877 154.962 202.734 155.455ZM196.112 161.383V159.94L198.623 161.383V160.26L196.112 158.817V157.462L198.955 159.097V157.938L194.868 155.589V161.827L199.056 164.234V163.075L196.112 161.383Z" fill="#FAFAFA"/>
<path d="M148.354 205.852C148.354 205.852 148.083 206.294 148.203 208.307C148.324 210.32 148.324 210.47 148.354 211.781C148.384 213.091 148.324 214.552 150.006 214.11C151.687 213.668 151.973 212.498 151.778 211.469C151.503 210.104 151.315 208.722 151.215 207.333C151.175 206.098 150.764 205.686 150.764 205.686L148.354 205.852Z" fill="#37474F"/>
<path d="M149.91 184.527L149.785 187.037C149.74 187.906 149.799 188.777 149.961 189.632C150.362 191.786 151.115 196.284 150.965 199.14C150.754 203.011 150.789 205.666 150.789 205.666C150.789 205.666 151.12 209.682 151.135 210.526C151.141 210.67 151.117 210.814 151.065 210.948C151.014 211.083 150.935 211.206 150.835 211.31C150.734 211.413 150.614 211.495 150.481 211.551C150.348 211.607 150.205 211.636 150.061 211.635C149.679 211.635 148.625 212.016 148.379 206.464C148.022 203.295 147.45 200.154 146.667 197.062C145.859 193.98 145.287 191.254 144.991 189.748C144.838 188.971 144.737 188.184 144.69 187.393L144.474 183.879L149.91 184.527Z" fill="#945959"/>
<path d="M141.733 205.621V205.656C141.728 206.123 141.631 206.583 141.447 207.012C141.314 207.352 141.248 207.715 141.251 208.081V209.587C141.251 209.649 141.227 209.708 141.183 209.752C141.14 209.796 141.082 209.822 141.02 209.823C140.989 209.823 140.958 209.817 140.93 209.805C140.901 209.793 140.875 209.776 140.853 209.754C140.831 209.732 140.814 209.706 140.802 209.677C140.79 209.649 140.784 209.618 140.784 209.587V207.278L141.733 205.621Z" fill="#263238"/>
<path d="M140.965 204.09C140.965 204.09 140.161 204.682 140.161 206.248C140.132 206.895 139.959 207.527 139.655 208.098C139.351 208.669 138.924 209.166 138.404 209.552C137.812 209.908 136.502 209.05 136.502 209.05C136.502 209.05 135.106 210.234 135.106 210.766C135.106 211.299 135.789 211.735 137.365 211.519C138.942 211.304 140.252 211.073 140.498 209.366C140.784 207.358 140.794 207.117 141.396 206.459C141.999 205.802 141.768 204.451 140.965 204.09Z" fill="#263238"/>
<path d="M143.721 178.674L137.561 185.119L138.028 199.973L138.174 204.025C138.053 206.384 136.422 208.763 136.422 208.763C136.389 209.081 136.389 209.4 136.422 209.717H137.902C140.744 209.717 140.955 203.794 140.955 203.794L141.05 202.338C141.143 200.952 141.324 199.574 141.592 198.211C143.003 191.209 142.446 187.559 142.446 187.559L143.721 178.674Z" fill="#945959"/>
<path d="M140.955 203.814C140.955 203.814 140.302 204.281 140.136 205.972C140.108 206.622 139.933 207.256 139.624 207.828C139.315 208.4 138.881 208.895 138.354 209.275C137.752 209.627 136.422 208.773 136.422 208.773C136.422 208.773 135.006 209.958 135.006 210.49C135.006 211.022 135.699 211.459 137.3 211.238C138.901 211.017 139.946 210.736 140.242 209.04C140.538 207.343 140.543 206.946 141.155 206.289C141.768 205.631 142.159 205.029 140.955 203.814Z" fill="#37474F"/>
<path d="M148.138 171.691C148.138 171.691 150.307 174.703 150.237 181.836C150.186 187.323 150.011 188.478 150.011 188.478C148.123 190.216 145.644 191.169 143.078 191.143C140.528 191.143 137.39 188.633 137.39 188.633C137.39 188.633 137.436 182.258 137.586 179.683C137.753 177.14 138.16 174.619 138.801 172.153L148.138 171.691Z" fill="#263238"/>
<path d="M128.731 160.085C128.668 159.863 128.625 159.636 128.605 159.407C128.611 158.909 128.419 158.429 128.073 158.072C127.712 157.57 127.918 157.158 127.571 157.068C127.225 156.977 126.989 158.137 127.365 158.674C126.983 158.418 126.668 158.073 126.447 157.67C126.206 157.123 125.789 156.31 125.443 156.164C125.096 156.018 123.887 157.449 124.384 158.774C124.881 160.1 127.044 161.44 127.044 161.44L128.731 160.085Z" fill="#945959"/>
<path d="M140.699 158.674H140.658C139.76 158.665 138.882 158.939 138.148 159.457L132.38 163.473L128.646 159.783C128.158 160.451 127.496 160.972 126.733 161.289L130.895 166.661C131.091 166.914 131.368 167.092 131.679 167.165C131.991 167.238 132.318 167.202 132.606 167.062L137.872 164.517L140.699 158.674Z" fill="#37474F"/>
<path d="M142.3 158.669H140.699C140.699 158.669 134.916 164.146 138.911 167.655C139.087 169.143 139.05 170.649 138.801 172.128C138.801 172.128 141.718 174.085 148.193 172.128L147.626 167.579L148.881 163.563L148.62 159.442C148.611 159.312 148.555 159.19 148.463 159.097C148.371 159.005 148.248 158.949 148.118 158.94L145.719 158.835L142.3 158.669Z" fill="#455A64"/>
<path d="M142.405 158.212L141.527 158.714L139.885 161.279C139.843 161.348 139.815 161.424 139.804 161.503C139.793 161.583 139.798 161.664 139.82 161.741L140.287 163.363L140.101 163.584C140.012 163.69 139.95 163.816 139.919 163.951C139.889 164.087 139.891 164.227 139.926 164.362L140.322 165.843L142.22 164.562C142.352 164.473 142.457 164.349 142.522 164.204C142.588 164.058 142.612 163.897 142.591 163.739V163.599L145.016 162.725C145.1 162.695 145.176 162.645 145.237 162.579C145.298 162.514 145.343 162.435 145.367 162.349L146.371 158.885L145.694 158.383L142.405 158.212Z" fill="#263238"/>
<path d="M145.678 150.285C145.678 151.017 145.461 151.732 145.055 152.341C144.648 152.949 144.071 153.424 143.395 153.704C142.718 153.984 141.975 154.057 141.257 153.914C140.539 153.771 139.88 153.419 139.363 152.902C138.845 152.384 138.493 151.725 138.35 151.007C138.207 150.29 138.281 149.546 138.561 148.87C138.841 148.194 139.315 147.616 139.923 147.209C140.532 146.803 141.247 146.586 141.979 146.586C142.465 146.585 142.946 146.68 143.395 146.866C143.844 147.052 144.253 147.324 144.596 147.668C144.94 148.012 145.212 148.42 145.398 148.869C145.584 149.318 145.679 149.799 145.678 150.285Z" fill="#263238"/>
<path d="M150.944 155.607C150.944 156.016 150.823 156.416 150.596 156.756C150.369 157.096 150.046 157.361 149.668 157.518C149.29 157.674 148.874 157.715 148.473 157.635C148.071 157.556 147.703 157.359 147.414 157.069C147.124 156.78 146.927 156.412 146.848 156.01C146.768 155.609 146.809 155.193 146.965 154.815C147.122 154.437 147.387 154.114 147.727 153.887C148.067 153.66 148.467 153.539 148.876 153.539C149.148 153.538 149.417 153.591 149.668 153.695C149.92 153.798 150.148 153.951 150.34 154.143C150.532 154.335 150.685 154.563 150.788 154.815C150.892 155.066 150.945 155.335 150.944 155.607Z" fill="#263238"/>
<path d="M148.245 155.404C149.098 154.552 149.227 153.298 148.533 152.604C147.839 151.91 146.585 152.038 145.732 152.891C144.879 153.744 144.751 154.998 145.445 155.692C146.138 156.386 147.392 156.257 148.245 155.404Z" fill="#FF914D"/>
<path d="M147.35 148.629C147.493 148.467 147.599 148.275 147.662 148.068C147.724 147.861 147.741 147.643 147.712 147.429C147.651 146.626 148.409 147.208 148.475 147.67C148.467 147.948 148.381 148.218 148.227 148.449C148.072 148.68 147.855 148.862 147.601 148.975L147.35 148.629Z" fill="#263238"/>
<path d="M147.606 148.79C147.822 148.801 148.037 148.767 148.238 148.688C148.439 148.609 148.621 148.488 148.771 148.333C149.363 147.791 149.373 148.744 149.052 149.081C148.832 149.243 148.572 149.342 148.3 149.365C148.028 149.388 147.754 149.335 147.511 149.211L147.606 148.79Z" fill="#263238"/>
<path d="M142.3 156.581V158.669C142.3 158.669 140.754 163.689 141.261 163.322C142.767 162.263 144.996 159.683 145.563 159.015C145.653 158.91 145.703 158.777 145.704 158.639V154.623L142.3 156.581Z" fill="#945959"/>
<path d="M145.663 153.935V154.055C144.905 157.067 142.938 157.695 142.3 157.851V153.222H145.588L145.663 153.935Z" fill="#703838"/>
<path d="M142.872 147.238C141.786 147.308 140.769 147.8 140.04 148.608C139.31 149.416 138.925 150.478 138.967 151.566C138.927 154.874 139.434 157.399 141.15 157.504C142.659 157.466 144.094 156.849 145.16 155.78C146.225 154.712 146.839 153.275 146.873 151.766C147.054 147.469 144.092 147.138 142.872 147.238Z" fill="#945959"/>
<path d="M141.281 152.896L141.311 154.839L140.172 154.507L141.281 152.896Z" fill="#703838"/>
<path d="M142.988 152.846C142.989 152.924 142.966 153.001 142.923 153.067C142.88 153.133 142.819 153.185 142.746 153.216C142.674 153.246 142.594 153.255 142.517 153.24C142.44 153.226 142.368 153.188 142.313 153.133C142.257 153.078 142.218 153.007 142.203 152.93C142.187 152.853 142.194 152.773 142.224 152.7C142.254 152.627 142.305 152.565 142.37 152.521C142.436 152.478 142.512 152.454 142.591 152.454C142.643 152.453 142.694 152.463 142.743 152.482C142.791 152.502 142.834 152.531 142.871 152.567C142.908 152.603 142.937 152.647 142.957 152.695C142.977 152.743 142.988 152.794 142.988 152.846Z" fill="#263238"/>
<path d="M140.382 152.605C140.383 152.657 140.373 152.708 140.354 152.757C140.335 152.805 140.306 152.849 140.27 152.887C140.233 152.924 140.19 152.954 140.142 152.974C140.094 152.995 140.043 153.006 139.991 153.006C139.939 153.007 139.887 152.997 139.839 152.978C139.791 152.959 139.748 152.93 139.711 152.893C139.674 152.857 139.644 152.814 139.624 152.766C139.604 152.718 139.594 152.667 139.594 152.615C139.588 152.559 139.593 152.503 139.61 152.45C139.627 152.397 139.655 152.348 139.693 152.306C139.73 152.264 139.775 152.231 139.826 152.208C139.877 152.185 139.932 152.174 139.988 152.174C140.044 152.174 140.099 152.185 140.15 152.208C140.201 152.231 140.247 152.264 140.284 152.306C140.321 152.348 140.349 152.397 140.366 152.45C140.383 152.503 140.389 152.559 140.382 152.615V152.605Z" fill="#263238"/>
<path d="M139.494 151.792L140.262 151.325C140.262 151.325 139.961 151.019 139.664 151.209C139.581 151.278 139.519 151.37 139.489 151.474C139.459 151.578 139.46 151.689 139.494 151.792Z" fill="#FF914D"/>
<path d="M141.06 155.501C141.461 155.311 141.85 155.096 142.225 154.859C142.225 154.859 142.476 155.496 141.954 155.757C141.798 155.824 141.624 155.836 141.461 155.789C141.298 155.742 141.156 155.641 141.06 155.501Z" fill="#703838"/>
<path d="M139.494 151.792L140.262 151.325C140.262 151.325 139.961 151.019 139.664 151.209C139.581 151.278 139.519 151.37 139.489 151.474C139.459 151.578 139.46 151.689 139.494 151.792Z" fill="#263238"/>
<path d="M144.679 152.344C144.679 152.344 144.474 154.071 145.714 154.071L146.015 152.524L144.679 152.344Z" fill="#263238"/>
<path d="M144.775 152.851C144.775 152.851 139.82 151.987 139.82 147.208C139.82 145.763 140.709 144.753 142.732 146.254C144.755 147.755 148.856 146.606 148.856 152.048C148.864 153.016 148.564 153.961 147.999 154.747C147.434 155.534 146.634 156.119 145.714 156.42V152.991L144.775 152.851Z" fill="#263238"/>
<path d="M145.653 153.895C145.648 153.583 145.713 153.274 145.844 152.991C145.904 152.819 146.014 152.667 146.159 152.557C146.305 152.446 146.48 152.381 146.662 152.369C146.813 152.37 146.961 152.404 147.097 152.467C147.234 152.53 147.355 152.622 147.453 152.736C147.551 152.851 147.623 152.984 147.665 153.129C147.707 153.273 147.718 153.425 147.697 153.574C147.658 154.072 147.426 154.535 147.051 154.865C146.676 155.195 146.187 155.366 145.689 155.341L145.653 153.895Z" fill="#945959"/>
<path d="M146.582 164.733L144.193 164.487V164.035L146.582 164.281V164.733Z" fill="#263238"/>
<path d="M139.956 166.972H138.982C138.982 166.706 138.876 166.45 138.688 166.262C138.499 166.074 138.244 165.968 137.978 165.968C137.711 165.968 137.456 166.074 137.268 166.262C137.08 166.45 136.974 166.706 136.974 166.972H136.396C136.336 166.972 136.275 166.986 136.221 167.013C136.167 167.04 136.119 167.08 136.083 167.129C136.047 167.178 136.023 167.234 136.013 167.294C136.003 167.354 136.007 167.416 136.025 167.474L136.321 168.423H140.699L140.327 167.238C140.302 167.16 140.252 167.092 140.185 167.044C140.118 166.996 140.038 166.971 139.956 166.972Z" fill="#FF914D"/>
<path opacity="0.7" d="M139.956 166.972H138.982C138.982 166.706 138.876 166.45 138.688 166.262C138.499 166.074 138.244 165.968 137.978 165.968C137.711 165.968 137.456 166.074 137.268 166.262C137.08 166.45 136.974 166.706 136.974 166.972H136.396C136.336 166.972 136.275 166.986 136.221 167.013C136.167 167.04 136.119 167.08 136.083 167.129C136.047 167.178 136.023 167.234 136.013 167.294C136.003 167.354 136.007 167.416 136.025 167.474L136.321 168.423H140.699L140.327 167.238C140.302 167.16 140.252 167.092 140.185 167.044C140.118 166.996 140.038 166.971 139.956 166.972Z" fill="black"/>
<path d="M142.877 167.479L145.317 176.686L137.456 176.721L134.424 167.569L142.877 167.479Z" fill="#FF914D"/>
<path opacity="0.3" d="M142.877 167.479L145.317 176.686L137.456 176.721L134.424 167.569L142.877 167.479Z" fill="black"/>
<path d="M139.956 167.384H138.982C138.982 167.117 138.876 166.862 138.688 166.674C138.499 166.485 138.244 166.38 137.978 166.38C137.711 166.38 137.456 166.485 137.268 166.674C137.08 166.862 136.974 167.117 136.974 167.384H136.396C136.336 167.383 136.275 167.397 136.221 167.424C136.167 167.452 136.119 167.491 136.083 167.54C136.047 167.589 136.023 167.646 136.013 167.706C136.003 167.766 136.007 167.828 136.025 167.886L136.166 168.347H140.538L140.327 167.65C140.302 167.572 140.252 167.504 140.185 167.456C140.118 167.408 140.038 167.383 139.956 167.384Z" fill="#FF914D"/>
<path opacity="0.5" d="M139.956 167.384H138.982C138.982 167.117 138.876 166.862 138.688 166.674C138.499 166.485 138.244 166.38 137.978 166.38C137.711 166.38 137.456 166.485 137.268 166.674C137.08 166.862 136.974 167.117 136.974 167.384H136.396C136.336 167.383 136.275 167.397 136.221 167.424C136.167 167.452 136.119 167.491 136.083 167.54C136.047 167.589 136.023 167.646 136.013 167.706C136.003 167.766 136.007 167.828 136.025 167.886L136.166 168.347H140.538L140.327 167.65C140.302 167.572 140.252 167.504 140.185 167.456C140.118 167.408 140.038 167.383 139.956 167.384Z" fill="black"/>
<path d="M146.19 170.933C145.762 171.028 145.321 171.052 144.885 171.003C144.383 170.903 144.383 170.451 143.64 170.466L143.881 171.47C143.149 171.611 142.401 171.656 141.657 171.605C140.653 171.49 140.995 172.374 141.155 172.609C141.316 172.845 141.989 174.236 143.424 174.115C144.567 173.966 145.695 173.724 146.798 173.393C146.907 172.964 146.909 172.516 146.803 172.086C146.697 171.657 146.487 171.261 146.19 170.933Z" fill="#945959"/>
<path d="M148.138 158.955C148.818 158.965 149.477 159.188 150.022 159.594C150.567 159.999 150.971 160.566 151.175 161.214L153.61 168.895C153.707 169.198 153.742 169.518 153.713 169.835C153.684 170.152 153.592 170.461 153.442 170.742C153.291 171.023 153.086 171.27 152.838 171.471C152.59 171.671 152.305 171.819 151.999 171.907L146.788 173.413C146.81 172.556 146.604 171.709 146.19 170.958L150.267 169.231L147.807 162.735C147.594 162.199 147.477 161.63 147.461 161.053C147.43 160.676 147.474 160.297 147.59 159.937C147.707 159.577 147.893 159.243 148.138 158.955Z" fill="#37474F"/>
<path d="M147.817 172.529C147.818 172.583 147.803 172.636 147.774 172.681C147.745 172.726 147.703 172.762 147.653 172.783C147.604 172.805 147.549 172.811 147.496 172.801C147.443 172.791 147.394 172.765 147.356 172.728C147.318 172.69 147.291 172.642 147.28 172.589C147.27 172.536 147.275 172.482 147.295 172.432C147.315 172.382 147.35 172.339 147.395 172.309C147.439 172.279 147.492 172.263 147.546 172.263C147.617 172.263 147.685 172.291 147.736 172.341C147.786 172.391 147.816 172.458 147.817 172.529Z" fill="#263238"/>
<path d="M148.731 172.293C148.732 172.347 148.716 172.4 148.687 172.446C148.658 172.491 148.615 172.527 148.566 172.548C148.516 172.569 148.461 172.575 148.408 172.564C148.355 172.554 148.306 172.528 148.268 172.49C148.23 172.452 148.204 172.403 148.193 172.35C148.183 172.297 148.189 172.242 148.21 172.192C148.231 172.142 148.267 172.1 148.312 172.071C148.357 172.041 148.411 172.026 148.465 172.027C148.535 172.028 148.602 172.057 148.651 172.106C148.701 172.156 148.729 172.223 148.731 172.293Z" fill="#263238"/>
<path d="M127.687 161.796C127.62 161.83 127.543 161.835 127.473 161.812C127.402 161.788 127.344 161.737 127.31 161.671C127.277 161.604 127.272 161.527 127.295 161.457C127.319 161.386 127.369 161.328 127.436 161.294C127.502 161.261 127.579 161.256 127.65 161.279C127.721 161.303 127.779 161.353 127.812 161.42C127.846 161.486 127.851 161.563 127.827 161.634C127.804 161.705 127.753 161.763 127.687 161.796Z" fill="#263238"/>
<path d="M128.329 162.494C128.282 162.52 128.228 162.53 128.175 162.525C128.122 162.52 128.071 162.499 128.029 162.465C127.988 162.432 127.957 162.386 127.941 162.335C127.926 162.283 127.926 162.229 127.941 162.177C127.957 162.126 127.987 162.08 128.028 162.046C128.07 162.012 128.12 161.991 128.174 161.986C128.227 161.98 128.281 161.991 128.328 162.016C128.376 162.042 128.414 162.08 128.44 162.128C128.474 162.191 128.481 162.265 128.46 162.334C128.44 162.402 128.392 162.46 128.329 162.494Z" fill="#263238"/>
<path d="M109.198 205.28C109.198 205.28 108.756 205.52 108.696 206.464C108.636 207.408 107.762 209.17 109.785 209.24C111.808 209.311 111.527 209.416 112.351 209.742C113.174 210.069 114.956 210.822 116.367 209.818C117.777 208.814 116.151 208.281 115.558 208.081C114.507 207.734 113.507 207.246 112.587 206.63C112.215 206.382 111.877 206.087 111.583 205.751L109.198 205.28Z" fill="#263238"/>
<path d="M102.672 207.629C102.672 207.629 102.326 207.729 102.311 208.422C102.296 209.115 101.748 210.169 102.491 210.797C103.234 211.424 103.35 211.344 103.802 212.303C104.078 213.002 104.606 213.573 105.283 213.903C105.959 214.233 106.735 214.298 107.456 214.085C109.62 213.608 108.254 212.308 108.074 212.117C107.893 211.926 105.774 209.833 105.564 209.145C105.437 208.765 105.277 208.398 105.087 208.046L102.672 207.629Z" fill="#263238"/>
<path d="M102.672 206.765V208.046C102.672 208.046 102.828 208.643 104.012 208.643C104.65 208.643 105.067 208.266 105.077 208.046V206.64L102.672 206.765Z" fill="#FFA8A7"/>
<path d="M109.198 204.481V205.757C109.198 205.757 109.354 206.359 110.538 206.359C111.176 206.359 111.598 205.977 111.608 205.757V204.356L109.198 204.481Z" fill="#FFA8A7"/>
<path d="M112.813 174.637L113.716 189.411C113.757 190.108 113.73 190.808 113.636 191.5L111.753 205.169C111.294 205.356 110.794 205.418 110.303 205.349C109.812 205.28 109.348 205.083 108.957 204.778L108.224 193.849C108.16 192.928 108.284 192.004 108.591 191.133L108.882 190.31L106.241 175.662L112.813 174.637Z" fill="#455A64"/>
<path d="M111 178.503C111 178.503 110.553 180.25 108.32 181.329L107.873 184.622L106.904 179.261L111 178.503Z" fill="#37474F"/>
<path d="M111.708 175.235C111.708 175.235 112.024 178.031 109.861 179.843C109.264 180.373 108.533 180.729 107.747 180.872L107.029 191.254L105.293 207.478C105.293 207.478 104.243 208.357 102.306 207.478L101.387 195.32C101.286 193.955 101.533 192.587 102.105 191.344L102.145 191.254C101.666 185.856 101.498 180.436 101.643 175.019L111.708 175.235Z" fill="#455A64"/>
<path d="M114.685 164.492L115.468 166.048C115.468 166.048 118.982 167.293 121.06 167.248L121.959 169.432C120.288 169.556 118.612 169.574 116.939 169.487C114.494 169.331 114.133 169.266 113.425 168.337C112.717 167.409 111.628 165.707 111.628 165.707L114.685 164.492Z" fill="#FFA8A7"/>
<path d="M121.06 167.248C121.25 167.118 121.426 166.97 121.587 166.806C121.741 166.612 121.931 166.451 122.148 166.331C122.364 166.212 122.602 166.136 122.847 166.108C123.435 165.963 123.545 165.501 123.851 165.657C124.158 165.812 123.621 166.851 122.988 167.027C123.443 167.076 123.903 167.014 124.328 166.846C124.861 166.575 125.699 166.209 126.04 166.344C126.382 166.48 126.427 168.327 125.202 169.03C123.977 169.733 121.452 169.402 121.452 169.402L121.06 167.248Z" fill="#FFA8A7"/>
<path d="M109.198 157.509C109.749 157.399 110.321 157.468 110.829 157.708C111.337 157.947 111.754 158.344 112.019 158.84L114.986 164.397C114.986 164.397 114.193 166.093 111.613 166.179L109.198 157.509Z" fill="#FF914D"/>
<path opacity="0.5" d="M109.198 157.509C109.749 157.399 110.321 157.468 110.829 157.708C111.337 157.947 111.754 158.344 112.019 158.84L114.986 164.397C114.986 164.397 114.193 166.093 111.613 166.179L109.198 157.509Z" fill="black"/>
<path d="M101.774 167.238L100.885 169.522L99.9563 177.248L97.7174 177.956C97.7174 177.956 97.5266 173.307 97.622 170.185C97.6468 169.349 97.8026 168.522 98.0838 167.735L98.7113 165.978L101.774 167.238Z" fill="#FFA8A7"/>
<path d="M105.011 158.277L102.195 159.086L101.668 166.962V175.019C101.668 175.019 103.42 176.525 107.582 176.525C109.494 176.486 111.339 175.818 112.833 174.622V164.492C112.833 163.583 113.194 158.378 109.233 157.464L108.556 157.6L105.011 158.277Z" fill="#FF914D"/>
<path opacity="0.3" d="M105.011 158.277L102.195 159.086L101.668 166.962V175.019C101.668 175.019 103.42 176.525 107.582 176.525C109.494 176.486 111.339 175.818 112.833 174.622V164.492C112.833 163.583 113.194 158.378 109.233 157.464L108.556 157.6L105.011 158.277Z" fill="black"/>
<path d="M103.787 158.629C103.787 158.629 104.73 159.562 104.053 162.173C103.497 164.149 102.826 166.092 102.045 167.991C101.339 168.124 100.611 168.063 99.9368 167.815C99.2631 167.566 98.6695 167.14 98.2194 166.58L100.227 161.058C100.397 160.578 100.678 160.146 101.048 159.797C101.419 159.447 101.867 159.192 102.356 159.05L103.787 158.629Z" fill="#FF914D"/>
<path opacity="0.5" d="M103.787 158.629C103.787 158.629 104.73 159.562 104.053 162.173C103.497 164.149 102.826 166.092 102.045 167.991C101.339 168.124 100.611 168.063 99.9368 167.815C99.2631 167.566 98.6695 167.14 98.2194 166.58L100.227 161.058C100.397 160.578 100.678 160.146 101.048 159.797C101.419 159.447 101.867 159.192 102.356 159.05L103.787 158.629Z" fill="black"/>
<path d="M99.9563 177.248C100.074 177.444 100.21 177.629 100.363 177.8C100.728 178.137 100.948 178.604 100.975 179.1C101.081 179.698 101.538 179.838 101.362 180.144C101.186 180.451 100.182 179.838 100.052 179.196C99.9716 179.646 100.003 180.11 100.142 180.546C100.378 181.093 100.694 181.957 100.554 182.288C100.413 182.619 98.5457 182.544 97.9282 181.284C97.3107 180.024 97.7977 177.524 97.7977 177.524L99.9563 177.248Z" fill="#FFA8A7"/>
<path d="M111.778 148.373C111.778 148.373 112.436 149.045 112.436 150.818C112.436 152.59 110.97 154.121 110.97 154.121V148.473L111.778 148.373Z" fill="#263238"/>
<path d="M111.778 148.835C112.062 148.669 112.301 148.437 112.476 148.159C112.65 147.881 112.756 147.565 112.782 147.238C112.873 146.109 112.21 146.515 111.984 146.611C111.758 146.706 111.071 146.957 111.071 146.957C111.071 146.957 111.698 146.305 111.327 145.868C111.05 145.547 109.71 146.561 108.023 146.761C106.337 146.962 104.71 146.947 104.233 148.458C104.233 148.458 102.602 148.784 102.993 151.646C103.385 154.507 104.499 156.164 105.001 156.134L111.778 148.835Z" fill="#263238"/>
<path d="M105.011 158.277L106.487 159.211C106.813 159.419 107.189 159.533 107.575 159.541C107.961 159.549 108.342 159.45 108.676 159.256C108.807 159.181 108.916 159.074 108.994 158.945C109.072 158.816 109.115 158.669 109.121 158.518C109.127 158.368 109.094 158.218 109.025 158.084C108.957 157.95 108.856 157.835 108.731 157.75L108.535 157.625V153.553H105.021L105.011 158.277Z" fill="#FFA8A7"/>
<path d="M108.535 157.625C107.771 157.518 107.056 157.187 106.48 156.673C105.904 156.159 105.494 155.486 105.303 154.738V153.553H108.535V157.625Z" fill="#F28F8F"/>
<path d="M109.359 147.775C109.359 147.775 112.712 147.901 112.105 153.297C111.824 155.838 111.603 157.238 109.439 157.238C107.275 157.238 104.063 155.602 104.268 151.244C104.474 146.887 109.359 147.775 109.359 147.775Z" fill="#FFA8A7"/>
<path d="M109.695 152.228V154.121L110.804 153.779L109.695 152.228Z" fill="#F28F8F"/>
<path d="M108.079 152.555C108.079 152.631 108.101 152.706 108.144 152.77C108.187 152.833 108.247 152.883 108.318 152.912C108.389 152.941 108.467 152.949 108.542 152.933C108.618 152.918 108.686 152.881 108.74 152.826C108.794 152.771 108.831 152.702 108.845 152.627C108.859 152.552 108.851 152.474 108.821 152.403C108.791 152.333 108.74 152.273 108.676 152.231C108.612 152.189 108.537 152.167 108.46 152.168C108.358 152.169 108.261 152.211 108.19 152.283C108.119 152.355 108.079 152.453 108.079 152.555Z" fill="#263238"/>
<path d="M110.614 152.283C110.614 152.36 110.636 152.434 110.679 152.498C110.721 152.562 110.782 152.611 110.852 152.64C110.923 152.67 111.001 152.677 111.076 152.662C111.151 152.647 111.22 152.611 111.274 152.557C111.328 152.503 111.365 152.434 111.379 152.359C111.394 152.284 111.387 152.206 111.357 152.135C111.328 152.065 111.279 152.004 111.215 151.962C111.151 151.919 111.077 151.897 111 151.897C110.898 151.897 110.799 151.937 110.727 152.01C110.654 152.082 110.614 152.181 110.614 152.283Z" fill="#263238"/>
<path d="M111.472 151.485L110.704 151.033C110.704 151.033 110.995 150.732 111.286 150.913C111.372 150.978 111.436 151.068 111.469 151.17C111.502 151.272 111.503 151.382 111.472 151.485Z" fill="#263238"/>
<path d="M108.259 151.35L107.582 151.907C107.582 151.907 107.396 151.53 107.667 151.32C107.756 151.261 107.862 151.232 107.968 151.238C108.075 151.243 108.177 151.282 108.259 151.35Z" fill="#263238"/>
<path d="M109.519 154.999C109.519 154.999 108.144 154.648 108.48 154.723C108.48 154.723 108.41 155.27 108.867 155.376C109.002 155.399 109.142 155.373 109.261 155.305C109.38 155.236 109.471 155.128 109.519 154.999Z" fill="#F28F8F"/>
<path d="M111.778 148.835C111.778 148.835 110.709 149.839 107.963 149.633C105.217 149.427 105.453 150.185 105.759 151.47C105.965 152.354 105.985 154.703 105.303 153.554H103.942V150.838C103.942 150.382 104.032 149.931 104.206 149.51C104.381 149.089 104.636 148.707 104.958 148.385C105.28 148.063 105.663 147.807 106.083 147.633C106.504 147.459 106.955 147.369 107.411 147.369H110.202L111.778 148.835Z" fill="#263238"/>
<path d="M105.333 153.413C105.333 153.413 105.197 152.113 104.294 152.088C104.134 152.088 103.977 152.122 103.832 152.188C103.687 152.253 103.557 152.349 103.452 152.469C103.347 152.589 103.269 152.729 103.223 152.882C103.177 153.034 103.163 153.195 103.184 153.353C103.22 153.879 103.459 154.37 103.851 154.723C104.242 155.076 104.756 155.263 105.282 155.245L105.333 153.413Z" fill="#FFA8A7"/>
<path d="M104.248 148.473C104.248 148.473 103.556 147.55 104.002 147.168C104.449 146.787 104.655 148.368 104.655 148.368L104.248 148.473Z" fill="#263238"/>
<path d="M104.309 148.764C104.309 148.764 103.154 148.764 103.129 148.162C103.104 147.56 104.474 148.378 104.474 148.378L104.309 148.764Z" fill="#263238"/>
<path d="M177.109 52.0893L180.869 54.2278V52.8975C180.869 52.8021 180.869 52.7067 180.869 52.6113C180.869 52.516 180.869 52.4306 180.869 52.3453V52.3152C181.004 50.5481 182.339 49.8754 183.966 50.8092C184.704 51.2615 185.336 51.8677 185.818 52.5862C186.185 50.1917 188.143 49.3283 190.502 50.6937C193.127 52.1997 195.251 55.8894 195.251 58.9215V61.7678C195.251 61.9937 195.31 62.2158 195.421 62.4121C195.533 62.6084 195.694 62.7721 195.888 62.8873L198.097 64.1824C198.577 64.4636 198.975 64.8654 199.252 65.348C199.528 65.8306 199.674 66.3772 199.674 66.9334C199.674 67.1637 199.613 67.3901 199.498 67.5896C199.383 67.7891 199.217 67.9547 199.018 68.0698C198.818 68.1848 198.592 68.2452 198.361 68.2449C198.131 68.2446 197.905 68.1835 197.706 68.0679L177.159 56.2006C176.614 55.885 176.162 55.4318 175.847 54.8865C175.533 54.3412 175.367 53.7228 175.367 53.0933C175.366 52.8894 175.42 52.689 175.522 52.5124C175.624 52.3358 175.771 52.1892 175.947 52.0874C176.124 51.9856 176.324 51.9321 176.528 51.9324C176.732 51.9328 176.932 51.9869 177.109 52.0893Z" fill="#E6E6E6"/>
<path d="M157.777 27.9481L160.558 29.5294V28.5254C160.558 28.4551 160.558 28.3848 160.558 28.3195C160.558 28.2543 160.558 28.184 160.558 28.1187C160.658 26.8135 161.647 26.3115 162.852 27.0093C163.4 27.3419 163.867 27.7909 164.222 28.3246C164.493 26.5525 165.939 25.915 167.686 26.924C168.71 27.5897 169.561 28.4878 170.172 29.5451C170.783 30.6024 171.135 31.789 171.2 33.0082V35.1166C171.201 35.283 171.244 35.4464 171.327 35.5907C171.41 35.7351 171.529 35.8554 171.672 35.9399L173.308 36.8987C173.66 37.1095 173.952 37.4083 174.153 37.7656C174.355 38.1229 174.46 38.5266 174.458 38.9368C174.458 39.1072 174.413 39.2746 174.328 39.4222C174.243 39.5697 174.12 39.6922 173.973 39.7772C173.825 39.8622 173.658 39.9068 173.487 39.9064C173.317 39.9061 173.15 39.8608 173.002 39.7752L157.822 31.0052C157.417 30.7729 157.081 30.438 156.848 30.0343C156.614 29.6306 156.491 29.1725 156.491 28.7061C156.489 28.5545 156.527 28.4051 156.601 28.2729C156.675 28.1407 156.783 28.0305 156.914 27.9535C157.044 27.8765 157.193 27.8354 157.344 27.8345C157.496 27.8335 157.645 27.8727 157.777 27.9481Z" fill="#E6E6E6"/>
<path d="M64.3544 47.8523L60.5945 49.9908V48.6605C60.5945 48.5652 60.5945 48.4698 60.5945 48.3794C60.5945 48.2891 60.5945 48.1937 60.5945 48.1083V48.0732C60.4589 46.3112 59.1236 45.6335 57.4921 46.5672C56.7554 47.0216 56.1254 47.6295 55.6447 48.3493C55.2733 45.9548 53.3205 45.0863 50.9611 46.4517C48.3356 47.9577 46.2122 51.6474 46.2122 54.6795V57.5309C46.2124 57.7561 46.1537 57.9775 46.0419 58.173C45.93 58.3686 45.7689 58.5314 45.5746 58.6453L43.3608 59.9405C42.8822 60.2227 42.4855 60.6249 42.2099 61.1073C41.9343 61.5898 41.7894 62.1358 41.7896 62.6914C41.79 62.9216 41.8508 63.1477 41.9659 63.347C42.0811 63.5463 42.2465 63.7119 42.4457 63.8272C42.6449 63.9426 42.8709 64.0037 43.101 64.0043C43.3312 64.005 43.5575 63.9452 43.7574 63.831L64.3042 51.9587C64.85 51.6442 65.303 51.1913 65.6177 50.6457C65.9324 50.1001 66.0975 49.4811 66.0964 48.8513C66.0957 48.6478 66.0415 48.4481 65.9392 48.2722C65.8369 48.0963 65.6902 47.9504 65.5137 47.8492C65.3372 47.748 65.1371 47.695 64.9336 47.6955C64.7302 47.6961 64.5304 47.7501 64.3544 47.8523Z" fill="#E6E6E6"/>
</svg>
