<svg width="50" height="50" viewBox="0 0 50 50" fill="none" xmlns="http://www.w3.org/2000/svg">
<path d="M15.625 22.9167H1.04169L1.04169 47.9167H15.625L15.625 22.9167Z" fill="#0277BD"/>
<path d="M15.625 48.9583H1.0417C0.466406 48.9583 0 48.492 0 47.9167L0 22.9167C0 22.3414 0.466406 21.875 1.0417 21.875H15.625C16.2003 21.875 16.6667 22.3414 16.6667 22.9167V47.9167C16.6667 48.492 16.2003 48.9583 15.625 48.9583ZM2.0833 46.875H14.5833L14.5833 23.9583H2.0833L2.0833 46.875Z" fill="#01579B"/>
<path d="M15.625 43.75C17.4404 45.0787 19.6255 45.807 21.875 45.8333H41.1458C43.1547 45.8403 44.789 44.2175 44.796 42.2085C44.7995 41.1984 44.3829 40.2323 43.6458 39.5416C45.6351 39.3266 47.0735 37.5397 46.8586 35.5505C46.7652 34.6864 46.3644 33.8848 45.7292 33.2916C47.7187 33.079 49.1593 31.2937 48.9466 29.3042C48.816 28.0827 48.0754 27.0105 46.9792 26.4561C48.9341 25.2421 49.5346 22.6731 48.3205 20.7183C47.5624 19.4975 46.2287 18.7536 44.7917 18.7499H30.2083C31.3527 15.7422 32.0545 12.5843 32.2916 9.37489C32.2916 5.46864 28.9062 2.08319 27.0833 2.08319C25.9591 2.0996 24.8675 2.46346 23.9583 3.12489V10.4166L17.7083 23.9583L15.625 25V43.75Z" fill="#ECEFF1"/>
<path d="M41.1458 46.875H21.875C19.3491 46.8549 16.8976 46.0173 14.8875 44.4875C14.6923 44.2918 14.5828 44.0265 14.5833 43.75V25C14.5833 24.6058 14.8059 24.2453 15.1583 24.0687L16.9146 23.1895L22.9166 10.1895V3.12499C22.9159 2.80839 23.0593 2.50858 23.3062 2.31044C24.4025 1.50477 25.7229 1.06132 27.0832 1.04169C29.4937 1.04169 33.3332 4.85624 33.3332 9.37499C33.1758 12.2178 32.6146 15.0236 31.6665 17.7083H44.7915C47.668 17.7083 49.9998 20.0401 49.9998 22.9166C50.0032 24.2093 49.5197 25.4558 48.6456 26.4083C50.4587 28.2336 50.4487 31.1831 48.6235 32.9962C48.2728 33.3445 47.8688 33.6348 47.4269 33.8562C47.7511 34.5027 47.9188 35.2164 47.9164 35.9395C47.9145 37.7028 46.9192 39.3146 45.3435 40.1062C45.6677 40.7527 45.8354 41.4664 45.833 42.1895C45.8287 44.7762 43.7324 46.8716 41.1458 46.875ZM16.6667 43.2729C18.2442 44.2169 20.0375 44.7398 21.875 44.7917H41.1458C42.5836 44.7905 43.7488 43.6253 43.75 42.1875C43.7501 41.4719 43.4519 40.7887 42.9271 40.302C42.508 39.9079 42.4878 39.2486 42.8819 38.8296C43.0508 38.65 43.2779 38.5361 43.5229 38.5083C44.9405 38.3585 45.9684 37.0877 45.8185 35.67C45.753 35.0509 45.466 34.4763 45.0104 34.052C44.5913 33.6579 44.5711 32.9986 44.9652 32.5796C45.1341 32.4 45.3612 32.2861 45.6062 32.2583C47.0239 32.1089 48.0521 30.8385 47.9027 29.4208C47.8103 28.5438 47.2766 27.7747 46.4874 27.3812C45.9762 27.1174 45.7756 26.4891 46.0395 25.9778C46.1263 25.8095 46.2574 25.6681 46.4187 25.5687C47.8834 24.6559 48.3309 22.7286 47.4181 21.2639C46.8523 20.3558 45.8613 19.8005 44.7915 19.7917H30.2083C29.633 19.7914 29.1669 19.3248 29.1672 18.7495C29.1673 18.6229 29.1903 18.4974 29.2355 18.3792C30.3332 15.4892 31.0116 12.4571 31.25 9.37499C31.25 5.96249 28.225 3.12499 27.0833 3.12499C26.3527 3.1368 25.6365 3.33085 25 3.68954V10.4166C24.9998 10.5676 24.9672 10.7168 24.9042 10.8541L18.6542 24.3958C18.555 24.6098 18.386 24.784 18.175 24.8895L16.6667 25.6437L16.6667 43.2729Z" fill="#01579B"/>
</svg>
