<svg width="252" height="252" viewBox="0 0 252 252" fill="none" xmlns="http://www.w3.org/2000/svg">
<path d="M221.948 132.567C222.952 119.229 219.85 105.303 215.693 92.9087C209.544 74.4551 197.536 55.5448 177.356 51.1774C165.719 48.6674 153.877 51.3581 143.897 57.6632C134.304 63.7274 126.829 71.5636 115.027 73.0797C103.095 74.6158 90.8511 73.9983 78.8583 73.9983C48.0204 73.9983 22.9957 106.392 29.2506 140.137C35.5056 173.881 65.0031 197.279 90.0278 197.279C112.517 197.279 131.021 183.791 152.381 180.166C162.973 178.369 173.611 180.498 184.093 177.807C196.276 174.674 207.732 167.21 214.484 156.402C219.082 149.032 221.321 140.915 221.948 132.567Z" fill="#FDDFBB"/>
<path opacity="0.7" d="M221.948 132.567C222.952 119.229 219.85 105.303 215.693 92.9087C209.544 74.4551 197.536 55.5448 177.356 51.1774C165.719 48.6674 153.877 51.3581 143.897 57.6632C134.304 63.7274 126.829 71.5636 115.027 73.0797C103.095 74.6158 90.8511 73.9983 78.8583 73.9983C48.0204 73.9983 22.9957 106.392 29.2506 140.137C35.5056 173.881 65.0031 197.279 90.0278 197.279C112.517 197.279 131.021 183.791 152.381 180.166C162.973 178.369 173.611 180.498 184.093 177.807C196.276 174.674 207.732 167.21 214.484 156.402C219.082 149.032 221.321 140.915 221.948 132.567Z" fill="white"/>
<path d="M218.339 127.883C218.339 127.883 218.339 125.373 214.825 121.894C211.311 118.415 209.082 116.397 209.082 116.397C209.082 116.397 207.335 122.14 210.588 125.639C212.976 128.096 215.565 130.35 218.329 132.376L218.339 127.883Z" fill="#FDDFBB"/>
<path d="M213.269 143.475C213.269 143.475 213.269 140.965 209.755 137.486C206.241 134.007 204.022 131.989 204.022 131.989C204.022 131.989 202.27 137.732 205.528 141.231C207.916 143.689 210.505 145.942 213.269 147.968V143.475Z" fill="#FDDFBB"/>
<path d="M218.118 132.135C218.118 132.135 218.384 129.655 222.229 126.548C226.075 123.44 228.519 121.693 228.519 121.693C228.519 121.693 229.649 127.587 226.055 130.729C223.421 132.921 220.608 134.889 217.646 136.613L218.118 132.135Z" fill="#FDDFBB"/>
<path d="M211.994 150.548C211.994 150.548 212.496 148.109 216.667 145.423C220.839 142.737 223.429 141.256 223.429 141.256C223.429 141.256 223.931 147.24 220.031 149.976C217.181 151.88 214.176 153.542 211.05 154.946L211.994 150.548Z" fill="#FDDFBB"/>
<path d="M213.143 170.628C213.143 170.628 213.143 168.118 216.657 164.634C220.171 161.151 222.395 159.143 222.395 159.143C222.395 159.143 224.147 164.885 220.889 168.379C218.502 170.839 215.913 173.095 213.148 175.121L213.143 170.628Z" fill="#FDDFBB"/>
<path d="M213.088 175.528C213.088 175.528 213.439 173.058 210.478 169.102C207.516 165.146 205.573 162.847 205.573 162.847C205.573 162.847 203.028 168.284 205.744 172.205C207.757 174.977 209.999 177.577 212.445 179.976L213.088 175.528Z" fill="#FDDFBB"/>
<path d="M209.639 190.051C209.639 190.051 209.639 187.541 213.153 184.062C216.667 180.583 218.896 178.565 218.896 178.565C218.896 178.565 220.643 184.308 217.39 187.807C215.001 190.265 212.412 192.52 209.649 194.549L209.639 190.051Z" fill="#FDDFBB"/>
<path d="M211.974 203.218C211.974 203.218 211.341 200.803 213.836 196.536C216.331 192.269 218.003 189.77 218.003 189.77C218.003 189.77 221.145 194.88 218.891 199.087C217.205 202.069 215.272 204.905 213.113 207.565L211.974 203.218Z" fill="#FDDFBB"/>
<path d="M218.655 127.245C218.479 129.845 218.161 132.432 217.701 134.996C216.316 142.135 212.862 146.743 211.482 153.189C210.101 159.635 214.067 167.943 212.988 176.226C211.908 184.509 208.705 189.112 209.624 194.639C210.543 200.166 215.382 215.136 215.382 215.136" stroke="#263238" stroke-linecap="round" stroke-linejoin="round"/>
<path d="M218.088 133.797L221.853 130.905" stroke="#263238" stroke-linecap="round" stroke-linejoin="round"/>
<path d="M218.264 130.468L216.682 127.662" stroke="#263238" stroke-linecap="round" stroke-linejoin="round"/>
<path d="M211.692 152.893C211.692 152.893 214.845 150.528 218.088 148.164" stroke="#263238" stroke-linecap="round" stroke-linejoin="round"/>
<path d="M213.269 147.968C213.269 147.968 210.638 142.818 207.661 139.404" stroke="#263238" stroke-linecap="round" stroke-linejoin="round"/>
<path d="M213.269 174.182C215.067 170.859 217.34 167.815 220.016 165.146" stroke="#263238" stroke-linecap="round" stroke-linejoin="round"/>
<path d="M212.656 177.686C211.7 175.433 210.556 173.263 209.238 171.201C207.4 168.485 207.134 168.133 207.134 168.133" stroke="#263238" stroke-linecap="round" stroke-linejoin="round"/>
<path d="M209.639 194.639C210.44 192.66 211.39 190.746 212.481 188.911C213.572 187.206 214.803 185.594 216.16 184.092" stroke="#263238" stroke-linecap="round" stroke-linejoin="round"/>
<path d="M213.113 207.565C212.93 205.674 213.256 203.767 214.057 202.043C215.372 199.503 216.858 196.175 217.47 194.86" stroke="#263238" stroke-linecap="round" stroke-linejoin="round"/>
<path d="M189.815 161.241C189.815 161.241 189.544 159.675 191.356 157.099C193.169 154.524 194.368 153.033 194.368 153.033C194.368 153.033 196.085 156.447 194.429 158.987C193.198 160.789 191.82 162.485 190.307 164.057L189.815 161.241Z" fill="#FDDFBB"/>
<path d="M194.69 170.468C194.69 170.468 194.419 168.901 196.231 166.326C198.043 163.751 199.243 162.26 199.243 162.26C199.243 162.26 200.96 165.673 199.303 168.219C198.072 170.018 196.693 171.712 195.182 173.284L194.69 170.468Z" fill="#FDDFBB"/>
<path d="M190.413 163.881C190.413 163.881 189.981 162.375 187.23 160.824C184.479 159.273 182.762 158.46 182.762 158.46C182.762 158.46 182.692 162.28 185.272 163.856C187.161 164.944 189.138 165.872 191.181 166.632L190.413 163.881Z" fill="#FDDFBB"/>
<path d="M196.256 174.765C196.256 174.765 195.664 173.289 192.772 172.054C189.881 170.819 188.073 170.177 188.073 170.177C188.073 170.177 188.405 173.982 191.156 175.277C193.149 176.16 195.213 176.875 197.325 177.415L196.256 174.765Z" fill="#FDDFBB"/>
<path d="M197.712 187.48C197.712 187.48 197.446 185.914 194.87 184.102C192.295 182.29 190.674 181.281 190.674 181.281C190.674 181.281 190.202 185.071 192.616 186.908C194.38 188.193 196.249 189.326 198.204 190.297L197.712 187.48Z" fill="#FDDFBB"/>
<path d="M198.284 190.548C198.284 190.548 197.782 189.042 199.223 186.23C200.663 183.419 201.617 181.778 201.617 181.778C201.617 181.778 203.801 184.91 202.526 187.666C201.565 189.623 200.442 191.495 199.168 193.263L198.284 190.548Z" fill="#FDDFBB"/>
<path d="M202.671 203.173C202.671 203.173 202.852 201.597 205.317 199.659C207.782 197.721 209.333 196.602 209.333 196.602C209.333 196.602 210.021 200.362 207.717 202.335C206.029 203.716 204.229 204.953 202.335 206.034L202.671 203.173Z" fill="#FDDFBB"/>
<path d="M202.014 199.277C202.014 199.277 201.743 197.711 199.173 195.899C196.602 194.087 194.986 193.078 194.986 193.078C194.986 193.078 194.514 196.868 196.929 198.71C198.694 199.993 200.563 201.126 202.516 202.099L202.014 199.277Z" fill="#FDDFBB"/>
<path d="M202.014 207.791C202.014 207.791 202.144 206.205 200.116 203.8C198.088 201.396 196.773 200.01 196.773 200.01C196.773 200.01 195.352 203.555 197.225 205.949C198.597 207.635 200.109 209.204 201.743 210.638L202.014 207.791Z" fill="#FDDFBB"/>
<path d="M189.549 160.869C189.942 162.481 190.423 164.07 190.99 165.628C192.631 169.956 195.297 172.471 196.863 176.361C198.43 180.252 196.863 185.899 198.409 190.974C199.956 196.05 202.516 198.59 202.516 202.154C202.516 205.718 201.13 215.633 201.13 215.633" stroke="#263238" stroke-linecap="round" stroke-linejoin="round"/>
<path d="M190.618 164.915L187.943 163.515" stroke="#263238" stroke-linecap="round" stroke-linejoin="round"/>
<path d="M190.147 162.847L190.829 160.92" stroke="#263238" stroke-linecap="round" stroke-linejoin="round"/>
<path d="M196.698 176.2C196.698 176.2 194.464 175.061 192.18 173.926" stroke="#263238" stroke-linecap="round" stroke-linejoin="round"/>
<path d="M195.177 173.284C195.835 171.215 196.701 169.219 197.762 167.325" stroke="#263238" stroke-linecap="round" stroke-linejoin="round"/>
<path d="M198.023 189.719C196.533 187.834 194.778 186.176 192.812 184.795" stroke="#263238" stroke-linecap="round" stroke-linejoin="round"/>
<path d="M198.786 191.848C199.143 190.333 199.625 188.85 200.227 187.415C201.085 185.513 201.231 185.262 201.231 185.262" stroke="#263238" stroke-linecap="round" stroke-linejoin="round"/>
<path d="M202.395 204.86C203.266 203.781 204.23 202.781 205.277 201.873C205.943 201.382 206.567 200.838 207.144 200.246" stroke="#263238" stroke-linecap="round" stroke-linejoin="round"/>
<path d="M202.516 202.154C201.799 200.997 200.995 199.896 200.111 198.861C199.241 197.911 198.294 197.035 197.28 196.24" stroke="#263238" stroke-linecap="round" stroke-linejoin="round"/>
<path d="M201.743 210.638C201.653 209.431 201.242 208.269 200.553 207.274C199.454 205.824 198.158 203.896 197.631 203.138" stroke="#263238" stroke-linecap="round" stroke-linejoin="round"/>
<path d="M47.2323 139.374L45.0336 133.094L47.2323 135.759L45.5055 126.337L48.1761 133.094L49.1198 119.896L50.6911 132.461L52.418 129.951V133.094L54.4611 128.852L53.3617 136.231L55.2442 134.976L52.2624 139.058L47.2323 139.374Z" fill="#FDDFBB"/>
<path d="M54.1448 137.803H45.9773L47.4482 154.293H52.674L54.1448 137.803Z" fill="#263238" stroke="#263238" stroke-linecap="round" stroke-linejoin="round"/>
<path d="M69.4659 154.108H41.64V213.042H69.4659V154.108Z" fill="white" stroke="#263238" stroke-linecap="round" stroke-linejoin="round"/>
<path d="M70.9869 154.108H55.5504V213.042H70.9869V154.108Z" fill="white" stroke="#263238" stroke-linecap="round" stroke-linejoin="round"/>
<path d="M69.25 154.108H55.5504V213.042H69.25V154.108Z" fill="#263238" stroke="#263238" stroke-linecap="round" stroke-linejoin="round"/>
<path d="M67.7089 199.338H55.5504V211.406H67.7089V199.338Z" fill="#FDDFBB" stroke="#263238" stroke-linecap="round" stroke-linejoin="round"/>
<path d="M67.7089 199.99H55.5504V201.537H67.7089V199.99Z" fill="white" stroke="#263238" stroke-linecap="round" stroke-linejoin="round"/>
<path d="M67.7089 208.876H55.5504V210.422H67.7089V208.876Z" fill="white" stroke="#263238" stroke-linecap="round" stroke-linejoin="round"/>
<path d="M57.8546 199.589V214.85" stroke="#263238" stroke-linecap="round" stroke-linejoin="round"/>
<path d="M62.0966 199.589V214.85" stroke="#263238" stroke-linecap="round" stroke-linejoin="round"/>
<path d="M65.8214 199.589V214.85" stroke="#263238" stroke-linecap="round" stroke-linejoin="round"/>
<path d="M67.7089 156.296H55.5504V174.042H67.7089V156.296Z" fill="#FDDFBB" stroke="#263238" stroke-linecap="round" stroke-linejoin="round"/>
<path d="M67.7089 157.039H55.5504V158.796H67.7089V157.039Z" fill="white" stroke="#263238" stroke-linecap="round" stroke-linejoin="round"/>
<path d="M67.7089 168.415H55.5504V170.172H67.7089V168.415Z" fill="white" stroke="#263238" stroke-linecap="round" stroke-linejoin="round"/>
<path d="M57.8546 156.577V173.922" stroke="#263238" stroke-linecap="round" stroke-linejoin="round"/>
<path d="M62.0966 156.577V173.922" stroke="#263238" stroke-linecap="round" stroke-linejoin="round"/>
<path d="M65.8214 156.577V173.922" stroke="#263238" stroke-linecap="round" stroke-linejoin="round"/>
<path d="M67.7089 177.682H55.5504V195.427H67.7089V177.682Z" fill="#FDDFBB" stroke="#263238" stroke-linecap="round" stroke-linejoin="round"/>
<path d="M67.7089 178.424H55.5504V180.181H67.7089V178.424Z" fill="white" stroke="#263238" stroke-linecap="round" stroke-linejoin="round"/>
<path d="M67.7089 189.8H55.5504V191.557H67.7089V189.8Z" fill="white" stroke="#263238" stroke-linecap="round" stroke-linejoin="round"/>
<path d="M57.8546 177.968V195.307" stroke="#263238" stroke-linecap="round" stroke-linejoin="round"/>
<path d="M62.0966 177.968V195.307" stroke="#263238" stroke-linecap="round" stroke-linejoin="round"/>
<path d="M65.8214 177.968V195.307" stroke="#263238" stroke-linecap="round" stroke-linejoin="round"/>
<path d="M69.4608 173.796H55.5504V175.814H69.4608V173.796Z" fill="white" stroke="#263238" stroke-linecap="round" stroke-linejoin="round"/>
<path d="M69.4608 195.317H55.5504V197.335H69.4608V195.317Z" fill="white" stroke="#263238" stroke-linecap="round" stroke-linejoin="round"/>
<path d="M69.4608 154.108V213.037" stroke="#263238" stroke-linecap="round" stroke-linejoin="round"/>
<path d="M53.5876 154.108V213.037H55.5505V156.296H69.2199V154.082L53.5876 154.108Z" fill="white" stroke="#263238" stroke-linecap="round" stroke-linejoin="round"/>
<path d="M55.5504 156.296V154.108" stroke="#263238" stroke-linecap="round" stroke-linejoin="round"/>
<path d="M69.3552 127.035C67.8944 124.218 67.282 122.2 67.282 121.733C67.282 120.81 69.29 120.258 69.29 120.258C72.4225 118.601 87.1562 120.996 93.7876 122.1C97.4998 122.747 101.255 123.116 105.022 123.204C105.022 123.204 105.941 122.471 107.03 121.548C108.12 120.624 113.29 114.55 115.318 114.018C117.346 113.486 119.184 114.756 119.184 114.756C119.184 114.756 122.502 116.764 121.945 117.15C121.388 117.537 113.29 124.515 111.262 125.805C109.234 127.095 105.002 126.543 101.318 127.281C98.1449 127.913 85.2937 128.696 82.347 128.937C80.134 129.462 77.8113 129.269 75.7156 128.385" fill="white"/>
<path d="M119.219 114.736C119.219 114.736 117.377 113.445 115.354 113.998C113.331 114.55 108.17 120.629 107.066 121.528C105.961 122.426 105.058 123.184 105.058 123.184C101.29 123.096 97.5351 122.727 93.8229 122.08C87.1914 120.975 72.4577 118.566 69.3253 120.238C69.3253 120.238 67.3173 120.79 67.3173 121.713C67.387 122.23 67.5202 122.736 67.7138 123.219L67.9899 123.32C67.9899 123.32 71.6696 122.933 79.6112 123.124C87.5529 123.315 105.921 124.404 107.101 124.831C107.603 125.022 111.162 124.218 115.108 122.823C118.12 120.368 121.659 117.301 122.015 117.085C122.537 116.759 119.219 114.736 119.219 114.736Z" fill="#FDDFBB"/>
<path opacity="0.5" d="M119.219 114.736C119.219 114.736 117.377 113.445 115.354 113.998C113.331 114.55 108.17 120.629 107.066 121.528C105.961 122.426 105.058 123.184 105.058 123.184C101.29 123.096 97.5351 122.727 93.8229 122.08C87.1914 120.975 72.4577 118.566 69.3253 120.238C69.3253 120.238 67.3173 120.79 67.3173 121.713C67.387 122.23 67.5202 122.736 67.7138 123.219L67.9899 123.32C67.9899 123.32 71.6696 122.933 79.6112 123.124C87.5529 123.315 105.921 124.404 107.101 124.831C107.603 125.022 111.162 124.218 115.108 122.823C118.12 120.368 121.659 117.301 122.015 117.085C122.537 116.759 119.219 114.736 119.219 114.736Z" fill="white"/>
<path d="M69.3552 127.035C67.8944 124.218 67.282 122.2 67.282 121.733C67.282 120.81 69.29 120.258 69.29 120.258C72.4225 118.601 87.1562 120.996 93.7876 122.1C97.4998 122.747 101.255 123.116 105.022 123.204C105.022 123.204 105.941 122.471 107.03 121.548C108.12 120.624 113.29 114.55 115.318 114.018C117.346 113.486 119.184 114.756 119.184 114.756C119.184 114.756 122.502 116.764 121.945 117.15C121.388 117.537 113.29 124.515 111.262 125.805C109.234 127.095 105.002 126.543 101.318 127.281C98.1449 127.913 85.2937 128.696 82.347 128.937C80.134 129.462 77.8113 129.269 75.7156 128.385" stroke="#263238" stroke-linecap="round" stroke-linejoin="round"/>
<path d="M142.1 143.41C142.433 142.777 142.933 142.248 143.545 141.879C144.158 141.51 144.859 141.316 145.574 141.317H179.057C179.057 141.317 181.477 141.317 180.754 145.915C180.031 150.513 170.102 178.59 167.702 187.079C165.303 195.568 164.796 213.459 164.796 213.459H124.636C124.636 213.459 127.818 170.673 142.1 143.41Z" fill="white"/>
<path opacity="0.16" d="M157.18 141.317H145.574C144.859 141.316 144.158 141.51 143.545 141.879C142.933 142.248 142.433 142.777 142.1 143.41C127.818 170.673 124.6 213.444 124.6 213.444H142.612L147.055 196.572L165.579 200.392C165.709 198.976 165.86 197.536 166.036 196.115L165.629 191.597C165.629 191.597 161.834 187.606 160.639 186.607C159.444 185.608 160.237 183.806 160.037 176.02C159.836 168.234 152.848 162.636 150.248 157.842C147.647 153.048 151.648 150.051 155.243 145.257C156.523 143.525 157.045 142.25 157.18 141.317Z" fill="black"/>
<path d="M142.1 143.41C142.433 142.777 142.933 142.248 143.545 141.879C144.158 141.51 144.859 141.316 145.574 141.317H179.057C179.057 141.317 181.477 141.317 180.754 145.915C180.031 150.513 170.102 178.59 167.702 187.079C165.303 195.568 164.796 213.459 164.796 213.459H124.636C124.636 213.459 127.818 170.673 142.1 143.41Z" stroke="#263238" stroke-linecap="round" stroke-linejoin="round"/>
<path d="M173.249 149.303C169.866 157.2 162.707 188.459 161.543 213.444H164.775C164.775 213.444 165.277 195.533 167.682 187.064C170.087 178.595 180.026 150.513 180.734 145.9C181.442 141.286 179.037 141.302 179.037 141.302C179.037 141.302 175.965 142.973 173.249 149.303Z" fill="#263238" stroke="#263238" stroke-linecap="round" stroke-linejoin="round"/>
<path d="M114.43 133.52C114.43 133.52 109.089 130.388 107.066 124.866C105.042 119.344 122.904 110.499 130.66 109.947C138.415 109.394 140.604 111.417 145.218 119.339C149.831 127.261 152.953 138.124 150.559 143.465C148.164 148.806 144.113 150.096 147.045 154.509C149.977 158.922 158.28 171.452 157.727 177.345C157.175 183.239 151.467 188.389 143.169 188.951C134.871 189.514 123.827 184.529 114.621 176.401C105.414 168.274 107.803 156.321 111.107 152.456C114.41 148.59 119.395 147.115 119.761 143.249C120.128 139.384 114.43 133.52 114.43 133.52Z" fill="#263238" stroke="#263238" stroke-linecap="round" stroke-linejoin="round"/>
<path d="M137.196 124.781C140.032 130.062 143.581 137.135 144.691 141.407C146.628 148.887 136.659 153.595 139.425 157.195" stroke="white" stroke-linecap="round" stroke-linejoin="round"/>
<path d="M133.33 117.863C133.33 117.863 134.435 119.746 135.961 122.517" stroke="white" stroke-linecap="round" stroke-linejoin="round"/>
<path d="M148.209 131.151C148.537 132.141 148.749 133.165 148.842 134.203" stroke="white" stroke-linecap="round" stroke-linejoin="round"/>
<path d="M135.248 115.117C135.248 115.117 143.973 121.563 147.457 129.279" stroke="white" stroke-linecap="round" stroke-linejoin="round"/>
<path d="M123.14 119.951C116.91 121.698 107.949 124.535 108.677 126.171" stroke="white" stroke-linecap="round" stroke-linejoin="round"/>
<path d="M128.898 118.415C128.898 118.415 127.567 118.747 125.584 119.279" stroke="white" stroke-linecap="round" stroke-linejoin="round"/>
<path d="M121.192 115.162C124.76 114.038 128.498 113.545 132.236 113.706" stroke="white" stroke-linecap="round" stroke-linejoin="round"/>
<path d="M118.652 116.201C119.216 115.907 119.8 115.652 120.399 115.438" stroke="white" stroke-linecap="round" stroke-linejoin="round"/>
<path d="M67.2821 121.734C67.2798 121.769 67.2798 121.804 67.2821 121.839C67.2798 121.804 67.2798 121.769 67.2821 121.734ZM69.3554 127.035C68.5099 125.486 67.8365 123.85 67.3474 122.155C67.8342 123.851 68.5076 125.487 69.3554 127.035ZM67.2921 121.869C67.2921 121.899 67.2921 121.934 67.2921 121.98C67.3022 121.934 67.2972 121.899 67.2921 121.869ZM67.3172 122.01C67.3234 122.059 67.3335 122.108 67.3474 122.155C67.3335 122.108 67.3234 122.059 67.3172 122.01ZM69.3554 127.03C71.2328 130.586 73.5686 133.88 76.303 136.829C82.9345 144.012 102.091 162.802 103.913 164.092C105.735 165.382 105.203 169.062 103.913 172.747C102.623 176.431 97.8338 181.783 98.0196 187.666C98.2053 193.55 100.028 202.586 99.8619 204.428C99.6962 206.27 95.0879 212.535 95.0879 212.535H142.607C142.607 212.535 136.684 205.005 136.684 202.43C136.684 199.855 144.816 166.858 145.182 164.464C145.549 162.069 144.078 160.413 141.131 160.227C138.185 160.041 126.95 157.647 126.398 155.804C125.845 153.962 129.344 146.964 129.344 146.964L118.3 147.516C118.3 147.516 117.748 152.305 117.01 153.229C116.272 154.153 115.168 152.305 112.588 151.02C110.007 149.735 105.058 148.626 103.195 147.15C101.333 145.674 83.6724 129.078 83.6724 129.078" fill="white"/>
<path d="M106.016 148.57C106.935 150.177 107.854 151.628 107.854 151.628C107.854 151.628 110.951 153.37 111.724 153.37C112.497 153.37 117.146 155.88 117.146 155.88C117.146 155.88 121.021 154.911 119.656 151.618C119.225 150.775 118.681 149.994 118.039 149.298C117.808 150.759 117.437 152.672 117 153.219C116.262 154.138 115.158 152.295 112.578 151.01C110.906 150.177 108.2 149.414 106.016 148.57Z" fill="#FDDFBB"/>
<path d="M96.5588 141.116C90.8711 135.85 83.6724 129.098 83.6724 129.098L79.4858 128.495L78.9838 128.777C78.9838 128.777 90.8008 139.233 93.3159 140.398C94.3333 140.866 95.439 141.11 96.5588 141.116Z" fill="#FDDFBB"/>
<path d="M102.517 146.567L102.066 146.166C102.297 146.547 102.427 146.788 102.427 146.788L102.517 146.567Z" fill="#FDDFBB"/>
<g opacity="0.5">
<path d="M106.016 148.57C106.935 150.177 107.854 151.628 107.854 151.628C107.854 151.628 110.951 153.37 111.724 153.37C112.497 153.37 117.146 155.88 117.146 155.88C117.146 155.88 121.021 154.911 119.656 151.618C119.225 150.775 118.681 149.994 118.039 149.298C117.808 150.759 117.437 152.672 117 153.219C116.262 154.138 115.158 152.295 112.578 151.01C110.906 150.177 108.2 149.414 106.016 148.57Z" fill="white"/>
<path d="M96.5588 141.116C90.8711 135.85 83.6724 129.098 83.6724 129.098L79.4858 128.495L78.9838 128.777C78.9838 128.777 90.8008 139.233 93.3159 140.398C94.3333 140.866 95.439 141.11 96.5588 141.116Z" fill="white"/>
<path d="M102.517 146.567L102.066 146.166C102.297 146.547 102.427 146.788 102.427 146.788L102.517 146.567Z" fill="white"/>
</g>
<path d="M69.3554 127.03C71.2328 130.586 73.5686 133.88 76.303 136.829C82.9345 144.012 102.091 162.802 103.913 164.092C105.735 165.382 105.203 169.062 103.913 172.747C102.623 176.431 97.8338 181.783 98.0196 187.666C98.2053 193.55 100.028 202.586 99.8619 204.428C99.6962 206.27 95.0879 212.535 95.0879 212.535H142.607C142.607 212.535 136.684 205.005 136.684 202.43C136.684 199.855 144.816 166.858 145.182 164.464C145.549 162.069 144.078 160.413 141.131 160.227C138.185 160.041 126.95 157.647 126.398 155.804C125.845 153.962 129.344 146.964 129.344 146.964L118.3 147.516C118.3 147.516 117.748 152.305 117.01 153.229C116.272 154.153 115.168 152.305 112.588 151.02C110.007 149.735 105.058 148.626 103.195 147.15C101.333 145.674 83.6724 129.078 83.6724 129.078M67.2821 121.734C67.2798 121.769 67.2798 121.804 67.2821 121.839C67.2798 121.804 67.2798 121.769 67.2821 121.734V121.734ZM69.3554 127.035C68.5099 125.486 67.8365 123.85 67.3474 122.155C67.8342 123.851 68.5076 125.487 69.3554 127.035V127.035ZM67.2921 121.869C67.2921 121.899 67.2921 121.934 67.2921 121.98C67.3022 121.934 67.2972 121.899 67.2921 121.869V121.869ZM67.3172 122.01C67.3234 122.059 67.3335 122.108 67.3474 122.155C67.3335 122.108 67.3234 122.059 67.3172 122.01Z" stroke="#263238" stroke-linecap="round" stroke-linejoin="round"/>
<path d="M83.6724 129.098C83.6724 129.098 77.7889 129.208 74.5059 126.502" stroke="#263238" stroke-linecap="round" stroke-linejoin="round"/>
<path d="M126.403 155.804C125.85 153.967 129.349 146.964 129.349 146.964L118.305 147.516C118.305 147.516 117.753 152.305 117.015 153.229C116.277 154.153 115.173 152.305 112.593 151.02C112.397 150.92 112.181 150.824 111.96 150.729L111.292 161.226C111.292 161.226 112.261 171.391 123.878 169.459C128.581 168.675 133.601 164.479 137.934 159.76C133.476 158.942 126.824 157.215 126.403 155.804Z" fill="white"/>
<path d="M126.091 148.355C126.091 148.355 125.424 152.099 124.887 156.241C124.349 160.382 123.953 163.465 123.953 163.465L126.403 155.804L129.164 147.687C129.164 147.687 126.493 147.687 126.091 148.355Z" fill="#FDDFBB"/>
<path opacity="0.5" d="M126.091 148.355C126.091 148.355 125.424 152.099 124.887 156.241C124.349 160.382 123.953 163.465 123.953 163.465L126.403 155.804L129.164 147.687C129.164 147.687 126.493 147.687 126.091 148.355Z" fill="white"/>
<path d="M126.403 155.804C125.85 153.967 129.349 146.964 129.349 146.964L118.305 147.516C118.305 147.516 117.753 152.305 117.015 153.229C116.277 154.153 115.173 152.305 112.593 151.02C112.397 150.92 112.181 150.824 111.96 150.729L111.292 161.226C111.292 161.226 112.261 171.391 123.878 169.459C128.581 168.675 133.601 164.479 137.934 159.76C133.476 158.942 126.824 157.215 126.403 155.804Z" stroke="#263238" stroke-linecap="round" stroke-linejoin="round"/>
<path d="M117.01 153.229C116.272 154.148 115.168 152.305 112.588 151.02C110.961 150.202 108.371 149.459 106.227 148.656C105.62 147.215 104.817 145.338 104.3 144.203C103.381 142.195 101.905 143.465 101.905 143.465C101.135 142.589 100.513 141.594 100.063 140.518C99.144 138.51 97.6681 138.676 95.6451 138.31C93.622 137.943 89.3801 134.073 89.3801 134.073C89.3801 134.073 87.3972 132.567 86.579 131.819C85.6252 133.696 83.341 136.999 78.4014 139.063C86.2777 147.29 102.256 162.923 103.933 164.097C105.775 165.382 105.223 169.067 103.933 172.752C102.643 176.436 97.8539 181.788 98.0396 187.671C98.2254 193.555 100.048 202.591 99.882 204.433C99.7163 206.075 96.0416 211.22 95.2435 212.324L97.1159 212.535H106.865C106.81 207.596 106.815 187.435 110.193 179.403C114.063 170.172 117.01 153.229 117.01 153.229Z" fill="#FDDFBB"/>
<path opacity="0.16" d="M112.588 151.02C110.961 150.202 108.371 149.459 106.227 148.656C105.62 147.215 104.817 145.338 104.3 144.203C103.381 142.195 101.905 143.465 101.905 143.465C101.135 142.589 100.513 141.594 100.063 140.518C99.144 138.51 97.6681 138.676 95.6451 138.31C93.622 137.943 89.3801 134.073 89.3801 134.073C89.3801 134.073 87.3972 132.567 86.579 131.819C86.1707 132.616 85.6847 133.371 85.1282 134.073C88.4213 136.859 92.0558 139.811 93.3258 140.398C95.8358 141.558 96.4232 140.589 98.3458 141.753C100.268 142.918 102.412 146.773 102.412 146.773C102.412 146.773 103.577 143.671 104.546 145.804C105.514 147.938 107.839 151.613 107.839 151.613C107.839 151.613 110.936 153.355 111.709 153.355C112.316 153.355 115.293 154.901 116.558 155.568C116.84 154.097 116.995 153.214 116.995 153.214C116.272 154.148 115.168 152.305 112.588 151.02Z" fill="black"/>
<path d="M117.01 153.229C116.272 154.148 115.168 152.305 112.588 151.02C110.961 150.202 108.371 149.459 106.227 148.656C105.62 147.215 104.817 145.338 104.3 144.203C103.381 142.195 101.905 143.465 101.905 143.465C101.135 142.589 100.513 141.594 100.063 140.518C99.144 138.51 97.6681 138.676 95.6451 138.31C93.622 137.943 89.3801 134.073 89.3801 134.073C89.3801 134.073 87.3972 132.567 86.579 131.819C85.6252 133.696 83.341 136.999 78.4014 139.063C86.2777 147.29 102.256 162.923 103.933 164.097C105.775 165.382 105.223 169.067 103.933 172.752C102.643 176.436 97.8539 181.788 98.0396 187.671C98.2254 193.555 100.048 202.591 99.882 204.433C99.7163 206.075 96.0416 211.22 95.2435 212.324L97.1159 212.535H106.865C106.81 207.596 106.815 187.435 110.193 179.403C114.063 170.172 117.01 153.229 117.01 153.229Z" stroke="#263238" stroke-linecap="round" stroke-linejoin="round"/>
<path d="M117.141 152.586C117.141 152.586 114.852 151.884 113.441 153.119C112.03 154.354 109.927 160.689 108.687 167.561C107.923 171.562 108.45 175.702 110.193 179.383C110.193 179.383 113.09 171.788 113.968 168.088C114.847 164.388 117.141 152.586 117.141 152.586Z" fill="#FDDFBB"/>
<path opacity="0.16" d="M112.748 153.706C112.748 153.706 114.405 153.304 115.088 153.535C115.662 153.782 116.2 154.108 116.684 154.504L117.141 152.586C116.456 152.236 115.678 152.108 114.917 152.22C113.777 152.451 112.748 153.706 112.748 153.706Z" fill="black"/>
<path d="M117.141 152.586C117.141 152.586 114.852 151.884 113.441 153.119C112.03 154.354 109.927 160.689 108.687 167.561C107.923 171.562 108.45 175.702 110.193 179.383C110.193 179.383 113.09 171.788 113.968 168.088C114.847 164.388 117.141 152.586 117.141 152.586Z" stroke="#263238" stroke-linecap="round" stroke-linejoin="round"/>
<path d="M101.724 153.189L104.671 165.162L98.0397 150.056" stroke="#263238" stroke-linecap="round" stroke-linejoin="round"/>
<path d="M121.137 212.535H142.612C142.612 212.535 136.689 205.005 136.689 202.43C136.689 199.855 144.821 166.858 145.187 164.464C145.554 162.069 144.083 160.413 141.136 160.227C138.19 160.041 126.955 157.647 126.403 155.804C126.403 155.804 122.166 170.724 120.695 180.854C119.43 189.544 120.74 207.575 121.137 212.535Z" fill="#FDDFBB"/>
<path opacity="0.16" d="M141.136 160.227C138.722 160.076 130.745 158.44 127.638 156.843L128.767 159.454C130.814 160.539 133.014 161.305 135.293 161.723C139.033 162.39 142.512 162.26 144.786 165.603L144.896 165.769C145.037 165.126 145.132 164.675 145.162 164.464C145.559 162.069 144.083 160.413 141.136 160.227Z" fill="black"/>
<path d="M121.137 212.535H142.612C142.612 212.535 136.689 205.005 136.689 202.43C136.689 199.855 144.821 166.858 145.187 164.464C145.554 162.069 144.083 160.413 141.136 160.227C138.19 160.041 126.955 157.647 126.403 155.804C126.403 155.804 122.166 170.724 120.695 180.854C119.43 189.544 120.74 207.575 121.137 212.535Z" stroke="#263238" stroke-linecap="round" stroke-linejoin="round"/>
<path d="M126.403 155.804C126.403 155.804 120.72 173.876 120.695 180.854C120.695 180.854 128.767 171.08 129.821 164.213C130.876 157.345 126.403 155.804 126.403 155.804Z" fill="#FDDFBB"/>
<path opacity="0.16" d="M125.424 158.113C126.278 158.085 127.126 158.265 127.894 158.637C128.663 159.01 129.33 159.564 129.836 160.252C129.836 160.252 128.722 156.974 126.403 155.804L125.424 158.113Z" fill="black"/>
<path d="M126.403 155.804C126.403 155.804 120.72 173.876 120.695 180.854C120.695 180.854 128.767 171.08 129.821 164.213C130.876 157.345 126.403 155.804 126.403 155.804Z" stroke="#263238" stroke-linecap="round" stroke-linejoin="round"/>
<path d="M187.069 209.137C187.069 209.137 191.231 209.307 193.957 209.699C195.775 209.945 197.605 210.091 199.439 210.136C199.439 210.136 197.933 207.094 196.326 206.235C194.72 205.377 191.808 203.841 189.368 204.182C186.929 204.523 183.44 206.983 183.731 207.766C184.022 208.549 185.322 208.901 187.069 209.137Z" fill="white"/>
<path d="M187.069 209.137C187.069 209.137 191.231 209.307 193.957 209.699C195.775 209.945 197.605 210.091 199.439 210.136C199.439 210.136 197.933 207.094 196.326 206.235C194.72 205.377 191.808 203.841 189.368 204.182C186.929 204.523 183.44 206.983 183.731 207.766C184.022 208.549 185.322 208.901 187.069 209.137Z" fill="#FDDFBB"/>
<path opacity="0.5" d="M187.069 209.137C187.069 209.137 191.231 209.307 193.957 209.699C195.775 209.945 197.605 210.091 199.439 210.136C199.439 210.136 197.933 207.094 196.326 206.235C194.72 205.377 191.808 203.841 189.368 204.182C186.929 204.523 183.44 206.983 183.731 207.766C184.022 208.549 185.322 208.901 187.069 209.137Z" fill="white"/>
<path d="M187.069 209.137C187.069 209.137 191.231 209.307 193.957 209.699C195.775 209.945 197.605 210.091 199.439 210.136C199.439 210.136 197.933 207.094 196.326 206.235C194.72 205.377 191.808 203.841 189.368 204.182C186.929 204.523 183.44 206.983 183.731 207.766C184.022 208.549 185.322 208.901 187.069 209.137Z" stroke="#263238" stroke-linecap="round" stroke-linejoin="round"/>
<path d="M193.982 207.892C193.982 207.892 197.28 206.18 198.103 206.205C198.927 206.23 204.398 209.93 204.127 210.522C203.943 210.797 203.677 211.007 203.368 211.122C203.058 211.237 202.719 211.252 202.4 211.165C201.793 210.879 198.108 209.312 198.108 209.312L195.699 209.88L193.982 207.892Z" fill="white"/>
<path d="M193.982 207.892C193.982 207.892 197.28 206.18 198.103 206.205C198.927 206.23 204.398 209.93 204.127 210.522C203.856 211.115 202.561 211.596 202.4 211.165C202.24 210.733 198.108 209.312 198.108 209.312L195.699 209.88L193.982 207.892Z" fill="#FDDFBB"/>
<path opacity="0.5" d="M193.982 207.892C193.982 207.892 197.28 206.18 198.103 206.205C198.927 206.23 204.398 209.93 204.127 210.522C203.856 211.115 202.561 211.596 202.4 211.165C202.24 210.733 198.108 209.312 198.108 209.312L195.699 209.88L193.982 207.892Z" fill="white"/>
<path d="M193.982 207.892C193.982 207.892 197.28 206.18 198.103 206.205C198.927 206.23 204.398 209.93 204.127 210.522C203.943 210.797 203.677 211.007 203.368 211.122C203.058 211.237 202.719 211.252 202.4 211.165C201.793 210.879 198.108 209.312 198.108 209.312L195.699 209.88L193.982 207.892Z" stroke="#263238" stroke-linecap="round" stroke-linejoin="round"/>
<path d="M191.627 205.076C191.627 205.076 196.025 204.935 196.898 205.377C197.772 205.819 201.718 212.586 201.125 213.077C200.533 213.569 198.896 213.424 198.947 212.877C198.997 212.329 195.312 208.705 195.312 208.705L192.446 208.078L191.627 205.076Z" fill="white"/>
<path d="M191.627 205.076C191.627 205.076 196.025 204.935 196.898 205.377C197.772 205.819 201.718 212.586 201.125 213.077C200.533 213.569 198.896 213.424 198.947 212.877C198.997 212.329 195.312 208.705 195.312 208.705L192.446 208.078L191.627 205.076Z" fill="#FDDFBB"/>
<path opacity="0.5" d="M191.627 205.076C191.627 205.076 196.025 204.935 196.898 205.377C197.772 205.819 201.718 212.586 201.125 213.077C200.533 213.569 198.896 213.424 198.947 212.877C198.997 212.329 195.312 208.705 195.312 208.705L192.446 208.078L191.627 205.076Z" fill="white"/>
<path d="M191.627 205.076C191.627 205.076 196.025 204.935 196.898 205.377C197.772 205.819 201.718 212.586 201.125 213.077C200.533 213.569 198.896 213.424 198.947 212.877C198.997 212.329 195.312 208.705 195.312 208.705L192.446 208.078L191.627 205.076Z" stroke="#263238" stroke-linecap="round" stroke-linejoin="round"/>
<path d="M189.022 204.167C189.022 204.167 193.475 204.021 194.358 204.473C195.242 204.925 199.238 211.767 198.635 212.269C198.033 212.771 196.386 212.616 196.437 212.063C196.487 211.511 192.757 207.842 192.757 207.842L189.855 207.204L189.022 204.167Z" fill="white"/>
<path d="M189.022 204.167C189.022 204.167 193.475 204.021 194.358 204.473C195.242 204.925 199.238 211.767 198.635 212.269C198.033 212.771 196.386 212.616 196.437 212.063C196.487 211.511 192.757 207.842 192.757 207.842L189.855 207.204L189.022 204.167Z" fill="#FDDFBB"/>
<path opacity="0.5" d="M189.022 204.167C189.022 204.167 193.475 204.021 194.358 204.473C195.242 204.925 199.238 211.767 198.635 212.269C198.033 212.771 196.386 212.616 196.437 212.063C196.487 211.511 192.757 207.842 192.757 207.842L189.855 207.204L189.022 204.167Z" fill="white"/>
<path d="M189.022 204.167C189.022 204.167 193.475 204.021 194.358 204.473C195.242 204.925 199.238 211.767 198.635 212.269C198.033 212.771 196.386 212.616 196.437 212.063C196.487 211.511 192.757 207.842 192.757 207.842L189.855 207.204L189.022 204.167Z" stroke="#263238" stroke-linecap="round" stroke-linejoin="round"/>
<path d="M138.395 178.655C141.618 183.62 148.089 196.2 149.977 197.616C152.923 199.825 172.622 205.186 174.519 206.652C176.417 208.118 176.286 209.588 178.084 210.126C179.881 210.663 186.618 212.204 189.188 212.445C191.758 212.686 190.608 211.094 190.608 211.094L186.226 208.082L190.046 207.139C190.046 207.139 193.876 211.747 194.594 211.998C195.312 212.249 196.577 211.998 196.497 211.431C196.356 210.522 192.27 203.088 190.819 202.771C189.368 202.455 180.563 203.675 180.563 203.675C180.563 203.675 162.095 191.22 161.764 190.779C161.764 190.779 160.659 187.646 159.756 186.356C158.852 185.066 158.28 185.437 158.28 185.437C158.28 185.437 158.651 183.776 158.099 183.223L155.152 180.277L155.047 180.417C154.545 179.413 154.043 178.269 153.491 176.963C151.949 173.334 146.493 163.148 145.574 161.678C144.886 160.578 139.123 159.79 136.202 159.459" fill="#FDDFBB"/>
<path opacity="0.16" d="M151.227 178.972C153.636 181.11 152.833 181.11 152.296 182.988C151.759 184.865 152.697 182.32 154.971 182.455C157.246 182.591 156.578 185.528 156.307 186.065C156.036 186.602 159.118 187.27 158.581 188.469C158.044 189.669 154.971 191.411 153.235 193.153C151.498 194.895 157.778 190.342 159.916 190.211C160.569 190.166 161.106 190.251 161.558 190.241C161.084 188.898 160.475 187.606 159.74 186.386C158.817 185.096 158.265 185.467 158.265 185.467C158.265 185.467 158.636 183.806 158.084 183.254L155.137 180.307L155.032 180.447C154.53 179.443 154.028 178.299 153.476 176.994C151.934 173.364 146.478 163.179 145.559 161.708C144.871 160.608 139.108 159.82 136.187 159.489L136.453 161.813L136.518 161.863C136.518 161.863 140.127 162.531 141.332 162.667C142.537 162.802 144.008 163.866 143.872 164.675C143.737 165.483 140.263 169.087 141.332 169.358C142.401 169.629 143.606 166.683 144.811 167.084C146.016 167.486 148.802 176.833 151.227 178.972Z" fill="black"/>
<path d="M138.395 178.655C141.618 183.62 148.089 196.2 149.977 197.616C152.923 199.825 172.622 205.186 174.519 206.652C176.417 208.118 176.286 209.588 178.084 210.126C179.881 210.663 186.618 212.204 189.188 212.445C191.758 212.686 190.608 211.094 190.608 211.094L186.226 208.082L190.046 207.139C190.046 207.139 193.876 211.747 194.594 211.998C195.312 212.249 196.577 211.998 196.497 211.431C196.356 210.522 192.27 203.088 190.819 202.771C189.368 202.455 180.563 203.675 180.563 203.675C180.563 203.675 162.095 191.22 161.764 190.779C161.764 190.779 160.659 187.646 159.756 186.356C158.852 185.066 158.28 185.437 158.28 185.437C158.28 185.437 158.651 183.776 158.099 183.223L155.152 180.277L155.047 180.417C154.545 179.413 154.043 178.269 153.491 176.963C151.949 173.334 146.493 163.148 145.574 161.678C144.886 160.578 139.123 159.79 136.202 159.459" stroke="#263238" stroke-linecap="round" stroke-linejoin="round"/>
<path d="M138.446 171.843C138.31 172.295 138.195 172.747 138.104 173.209" stroke="#263238" stroke-linecap="round" stroke-linejoin="round"/>
<path d="M143.325 163.535C141.748 165.333 140.417 167.334 139.369 169.484" stroke="#263238" stroke-linecap="round" stroke-linejoin="round"/>
<path d="M150.699 192.039C152.055 190.031 154.213 187.485 156.593 186.758" stroke="#263238" stroke-linecap="round" stroke-linejoin="round"/>
<path d="M149.198 194.508C149.198 194.508 149.439 194.037 149.871 193.324" stroke="#263238" stroke-linecap="round" stroke-linejoin="round"/>
<path d="M149.198 191.336C149.198 191.336 151.663 185.171 154.128 183.585C156.593 181.999 155.182 185.171 155.182 185.171" stroke="#263238" stroke-linecap="round" stroke-linejoin="round"/>
<path d="M174.519 206.657C176.422 208.128 176.286 209.594 178.084 210.131C179.881 210.668 186.618 212.209 189.188 212.45C191.758 212.691 190.608 211.1 190.608 211.1L186.226 208.088L190.046 207.144C190.046 207.144 193.876 211.752 194.594 212.003C195.312 212.254 196.678 212.345 196.497 211.436C196.146 209.679 192.27 203.093 190.819 202.776C189.369 202.46 180.563 203.68 180.563 203.68C180.563 203.68 163.741 192.134 161.899 190.884C154.756 191.572 151.357 195.312 149.926 197.556L149.977 197.596C152.923 199.825 172.622 205.186 174.519 206.657Z" fill="white"/>
<path d="M196.492 211.456C195.578 209.222 192.265 203.113 190.814 202.796C189.363 202.48 180.558 203.7 180.558 203.7C180.558 203.7 163.736 192.154 161.894 190.904C160.019 191.067 158.179 191.512 156.437 192.224C159.093 193.73 176.793 203.77 179.027 204.217C181.397 204.719 189.303 203.419 190.694 204.353C191.577 204.945 194.208 209.117 195.985 212.078C196.492 212.003 196.678 211.908 196.492 211.456Z" fill="#FDDFBB"/>
<path opacity="0.5" d="M196.492 211.456C195.066 208.258 192.265 203.113 190.814 202.796C189.363 202.48 180.558 203.7 180.558 203.7C180.558 203.7 163.736 192.154 161.894 190.904C160.019 191.067 158.179 191.512 156.437 192.224C159.093 193.73 176.793 203.77 179.027 204.217C181.397 204.719 189.303 203.419 190.694 204.353C191.577 204.945 194.208 209.117 195.985 212.078C196.492 212.003 196.693 211.903 196.492 211.456Z" fill="white"/>
<path d="M174.519 206.657C176.422 208.128 176.286 209.594 178.084 210.131C179.881 210.668 186.618 212.209 189.188 212.45C191.758 212.691 190.608 211.1 190.608 211.1L186.226 208.088L190.046 207.144C190.046 207.144 193.876 211.752 194.594 212.003C195.312 212.254 196.678 212.345 196.497 211.436C196.146 209.679 192.27 203.093 190.819 202.776C189.369 202.46 180.563 203.68 180.563 203.68C180.563 203.68 163.741 192.134 161.899 190.884C154.756 191.572 151.357 195.312 149.926 197.556L149.977 197.596C152.923 199.825 172.622 205.186 174.519 206.657Z" stroke="#263238" stroke-linecap="round" stroke-linejoin="round"/>
<path d="M130.153 118.998L115.032 125.308C114.849 127.965 114.191 130.568 113.09 132.993C111.302 136.773 112.347 143.927 114.063 147.787C115.78 151.648 123.345 150.137 126.111 149.655C127.987 149.298 129.825 148.762 131.598 148.053C132.406 148.365 133.279 148.465 134.136 148.346C134.994 148.226 135.806 147.891 136.498 147.371C136.498 147.371 128.406 124.655 130.153 118.998Z" fill="white"/>
<path d="M130.153 118.998L115.032 125.308C114.849 127.965 114.191 130.568 113.09 132.993C111.302 136.773 112.347 143.927 114.063 147.787C114.351 148.408 114.813 148.931 115.394 149.293V149.002C115.394 149.002 112.588 142.049 113.12 138.038C113.652 134.027 115.931 132.014 116.197 129.479C116.463 126.944 116.327 125.739 121.413 123.867C126.498 121.994 128.632 120.258 129.164 122.125C129.696 123.992 131.839 136.301 133.31 139.243C134.781 142.185 134.645 145.267 132.376 146.598C130.083 147.974 127.626 149.057 125.062 149.82L126.132 149.635C128.008 149.278 129.845 148.741 131.618 148.033C132.426 148.344 133.299 148.445 134.156 148.326C135.014 148.206 135.826 147.871 136.518 147.351C136.518 147.351 128.406 124.655 130.153 118.998Z" fill="#FDDFBB"/>
<path opacity="0.5" d="M130.153 118.998L115.032 125.308C114.849 127.965 114.191 130.568 113.09 132.993C111.302 136.773 112.347 143.927 114.063 147.787C114.351 148.408 114.813 148.931 115.394 149.293V149.002C115.394 149.002 112.588 142.049 113.12 138.038C113.652 134.027 115.931 132.014 116.197 129.479C116.463 126.944 116.327 125.739 121.413 123.867C126.498 121.994 128.632 120.258 129.164 122.125C129.696 123.992 131.839 136.301 133.31 139.243C134.781 142.185 134.645 145.267 132.376 146.598C130.083 147.974 127.626 149.057 125.062 149.82L126.132 149.635C128.008 149.278 129.845 148.741 131.618 148.033C132.426 148.344 133.299 148.445 134.156 148.326C135.014 148.206 135.826 147.871 136.518 147.351C136.518 147.351 128.406 124.655 130.153 118.998Z" fill="white"/>
<path d="M130.153 118.998L115.032 125.308C114.849 127.965 114.191 130.568 113.09 132.993C111.302 136.773 112.347 143.927 114.063 147.787C115.78 151.648 123.345 150.137 126.111 149.655C127.987 149.298 129.825 148.762 131.598 148.053C132.406 148.365 133.279 148.465 134.136 148.346C134.994 148.226 135.806 147.891 136.498 147.371C136.498 147.371 128.406 124.655 130.153 118.998Z" stroke="#263238" stroke-linecap="round" stroke-linejoin="round"/>
<path d="M122.512 128.892C122.553 129.781 122.443 130.67 122.186 131.522C121.784 132.526 117.994 136.472 118.11 136.899C118.225 137.326 118.566 138.696 119.239 138.827" stroke="#263238" stroke-linecap="round" stroke-linejoin="round"/>
<path d="M126.714 132.421C127.241 131.367 128.973 132.396 128.948 134.77" stroke="#263238" stroke-linecap="round" stroke-linejoin="round"/>
<path d="M118.13 129.319C118.13 129.319 119.606 128.671 120.926 131.061" stroke="#263238" stroke-linecap="round" stroke-linejoin="round"/>
<path d="M124.615 135.9C126.321 135.986 127.942 136.666 129.199 137.823" stroke="#263238" stroke-width="0.5" stroke-linecap="round" stroke-linejoin="round"/>
<path d="M116.348 132.762C117.229 132.88 118.091 133.118 118.908 133.47" stroke="#263238" stroke-width="0.5" stroke-linecap="round" stroke-linejoin="round"/>
<path d="M122.346 126.663C121.957 126.457 121.524 126.344 121.083 126.334C120.643 126.323 120.205 126.416 119.806 126.603C118.456 127.251 117.628 127.963 117.718 127.135C117.808 126.307 119.395 125.393 119.872 125.273C120.348 125.152 122.482 124.821 122.346 126.663Z" fill="#263238"/>
<path d="M126.132 124.791C127.539 125.929 128.657 127.385 129.395 129.038C130.399 131.548 131.192 128.807 130.399 127.165C129.605 125.524 127.311 123.777 126.132 124.791Z" fill="#263238"/>
<path d="M136.719 151.663C136.719 152.832 136.056 153.781 135.243 153.781C134.43 153.781 133.772 152.832 133.772 151.663C133.772 150.493 134.43 147.516 135.243 147.516C136.056 147.516 136.719 150.493 136.719 151.663Z" fill="#FDDFBB" stroke="#263238" stroke-linecap="round" stroke-linejoin="round"/>
<path d="M126.844 131.964C126.787 132.118 126.741 132.275 126.709 132.436C126.563 133.179 126.418 134.73 126.709 134.796C127 134.861 127.713 133.41 127.838 132.667C127.867 132.521 127.883 132.374 127.889 132.225C127.546 132.118 127.197 132.031 126.844 131.964Z" fill="#263238"/>
<path d="M118.28 129.173C118.236 129.304 118.2 129.439 118.175 129.575C118.024 130.318 118.029 131.949 118.346 132.009C118.662 132.07 119.179 130.544 119.325 129.801C119.361 129.62 119.381 129.437 119.385 129.253C119.025 129.155 118.65 129.127 118.28 129.173Z" fill="#263238"/>
<path d="M126.714 132.446L127.216 131.512C128.012 131.667 128.733 132.085 129.264 132.697" stroke="#263238" stroke-width="0.75" stroke-linecap="round" stroke-linejoin="round"/>
<path d="M118.28 129.173L118.782 128.586C118.782 128.586 118.998 128.48 120.183 129.017" stroke="#263238" stroke-width="0.75" stroke-linecap="round" stroke-linejoin="round"/>
<path d="M116.378 142.787C116.378 142.787 117.221 141.236 118.351 141.236C119.48 141.236 120.323 143.771 120.323 143.771" stroke="#263238" stroke-linecap="round" stroke-linejoin="round"/>
<path d="M80.0279 209.684C78.9364 209.63 77.8642 209.374 76.8653 208.931C76.726 208.879 76.5987 208.8 76.491 208.698C76.3834 208.596 76.2977 208.472 76.2391 208.336C76.1806 208.2 76.1504 208.053 76.1505 207.904C76.1506 207.756 76.1808 207.609 76.2395 207.472C76.2982 207.336 76.384 207.213 76.4917 207.111C76.5994 207.008 76.7268 206.929 76.8662 206.878C77.0055 206.826 77.1538 206.804 77.3021 206.812C77.4504 206.819 77.5956 206.857 77.7287 206.923C78.7327 207.35 80.0329 207.616 80.3793 207.465C81.0168 206.752 81.9957 202.445 80.7307 200.367C80.4446 199.905 80.1785 199.82 80.0028 199.8C79.2849 199.699 78.2207 200.437 77.8442 200.804C77.7394 200.902 77.6161 200.98 77.4814 201.031C77.3468 201.082 77.2033 201.106 77.0593 201.102C76.9152 201.098 76.7734 201.066 76.6419 201.007C76.5105 200.948 76.3919 200.863 76.293 200.758C76.1941 200.654 76.1169 200.53 76.0656 200.396C76.0144 200.261 75.9902 200.117 75.9944 199.973C75.9986 199.829 76.0311 199.688 76.0901 199.556C76.1491 199.425 76.2334 199.306 76.3382 199.207C76.534 199.016 78.3462 197.385 80.2789 197.646C80.7583 197.716 81.215 197.896 81.6138 198.171C82.0125 198.446 82.3425 198.809 82.5781 199.232C84.4405 202.269 83.1654 208.047 81.7347 209.192C81.2375 209.544 80.636 209.717 80.0279 209.684Z" fill="white"/>
<path d="M81.4988 200.035C81.3672 199.724 81.161 199.449 80.8984 199.235C80.6359 199.022 80.3249 198.876 79.9928 198.811C78.7378 198.61 77.5581 199.87 77.4276 200.01C77.3076 200.155 77.2335 200.332 77.2147 200.519C77.1959 200.706 77.2333 200.894 77.3222 201.06C77.5196 201.02 77.7022 200.926 77.8493 200.788C78.2258 200.437 79.29 199.699 80.0079 199.784C80.1836 199.784 80.4496 199.89 80.7358 200.352C82.0008 202.41 81.0219 206.737 80.3844 207.45C80.038 207.601 78.7428 207.335 77.7338 206.908C77.6096 206.856 77.4769 206.827 77.3423 206.822C77.3514 206.96 77.3948 207.093 77.4684 207.21C77.542 207.326 77.6436 207.423 77.7639 207.49C78.3987 207.829 79.0989 208.028 79.8171 208.072C80.2269 208.092 80.6283 207.952 80.9366 207.681C81.8803 206.812 82.7136 202.37 81.4988 200.035Z" fill="#FDDFBB"/>
<path opacity="0.5" d="M81.4988 200.035C81.3672 199.724 81.161 199.449 80.8984 199.235C80.6359 199.022 80.3249 198.876 79.9928 198.811C78.7378 198.61 77.5581 199.87 77.4276 200.01C77.3076 200.155 77.2335 200.332 77.2147 200.519C77.1959 200.706 77.2333 200.894 77.3222 201.06C77.5196 201.02 77.7022 200.926 77.8493 200.788C78.2258 200.437 79.29 199.699 80.0079 199.784C80.1836 199.784 80.4496 199.89 80.7358 200.352C82.0008 202.41 81.0219 206.737 80.3844 207.45C80.038 207.601 78.7428 207.335 77.7338 206.908C77.6096 206.856 77.4769 206.827 77.3423 206.822C77.3514 206.96 77.3948 207.093 77.4684 207.21C77.542 207.326 77.6436 207.423 77.7639 207.49C78.3987 207.829 79.0989 208.028 79.8171 208.072C80.2269 208.092 80.6283 207.952 80.9366 207.681C81.8803 206.812 82.7136 202.37 81.4988 200.035Z" fill="white"/>
<path d="M80.0279 209.684C78.9364 209.63 77.8642 209.374 76.8653 208.931C76.726 208.879 76.5987 208.8 76.491 208.698C76.3834 208.596 76.2977 208.472 76.2391 208.336C76.1806 208.2 76.1504 208.053 76.1505 207.904C76.1506 207.756 76.1808 207.609 76.2395 207.472C76.2982 207.336 76.384 207.213 76.4917 207.111C76.5994 207.008 76.7268 206.929 76.8662 206.878C77.0055 206.826 77.1538 206.804 77.3021 206.812C77.4504 206.819 77.5956 206.857 77.7287 206.923C78.7327 207.35 80.0329 207.616 80.3793 207.465C81.0168 206.752 81.9957 202.445 80.7307 200.367C80.4446 199.905 80.1785 199.82 80.0028 199.8C79.2849 199.699 78.2207 200.437 77.8442 200.804C77.7394 200.902 77.6161 200.98 77.4814 201.031C77.3468 201.082 77.2033 201.106 77.0593 201.102C76.9152 201.098 76.7734 201.066 76.6419 201.007C76.5105 200.948 76.3919 200.863 76.293 200.758C76.1941 200.654 76.1169 200.53 76.0656 200.396C76.0144 200.261 75.9902 200.117 75.9944 199.973C75.9986 199.829 76.0311 199.688 76.0901 199.556C76.1491 199.425 76.2334 199.306 76.3382 199.207C76.534 199.016 78.3462 197.385 80.2789 197.646C80.7583 197.716 81.215 197.896 81.6138 198.171C82.0125 198.446 82.3425 198.809 82.5781 199.232C84.4405 202.269 83.1654 208.047 81.7347 209.192C81.2375 209.544 80.636 209.717 80.0279 209.684V209.684Z" stroke="#263238" stroke-linecap="round" stroke-linejoin="round"/>
<path d="M78.1103 196.732H66.0372V212.756H78.1103V196.732Z" fill="white"/>
<path d="M70.9819 196.732H66.0372V212.756H70.9819V196.732Z" fill="#FDDFBB"/>
<path opacity="0.5" d="M70.9819 196.732H66.0372V212.756H70.9819V196.732Z" fill="white"/>
<path d="M78.1103 196.732H66.0372V212.756H78.1103V196.732Z" stroke="#263238" stroke-linecap="round" stroke-linejoin="round"/>
<path d="M144.455 212.535H92.8791L91.1974 184.182C91.1509 183.907 91.1646 183.626 91.2376 183.357C91.3105 183.087 91.441 182.837 91.6199 182.624C91.7989 182.41 92.0221 182.237 92.2741 182.118C92.5262 181.999 92.8011 181.936 93.0799 181.933H144.234C144.514 181.933 144.791 181.994 145.046 182.112C145.3 182.23 145.526 182.402 145.707 182.616C145.888 182.83 146.021 183.081 146.095 183.352C146.169 183.622 146.183 183.906 146.136 184.182L144.455 212.535Z" fill="#263238" stroke="#263238" stroke-linecap="round" stroke-linejoin="round"/>
<path d="M95.4192 182.611H143.862C144.136 182.608 144.407 182.665 144.656 182.778C144.905 182.891 145.127 183.057 145.305 183.265C145.484 183.472 145.615 183.716 145.689 183.98C145.763 184.243 145.779 184.52 145.735 184.79" stroke="white" stroke-linecap="round" stroke-linejoin="round"/>
<path d="M91.5739 184.343C91.6143 183.869 91.832 183.427 92.1838 183.106C92.5355 182.785 92.9952 182.608 93.4714 182.611" stroke="white" stroke-linecap="round" stroke-linejoin="round"/>
<path d="M144.67 209.774H92.6632V212.535H144.67V209.774Z" fill="white" stroke="#263238" stroke-linecap="round" stroke-linejoin="round"/>
<path d="M118.481 199.554C120.516 199.554 122.166 198.565 122.166 197.345C122.166 196.125 120.516 195.136 118.481 195.136C116.446 195.136 114.796 196.125 114.796 197.345C114.796 198.565 116.446 199.554 118.481 199.554Z" fill="white" stroke="#263238" stroke-linecap="round" stroke-linejoin="round"/>
<path d="M223.113 212.209H29.4113V216.913H223.113V212.209Z" fill="#263238"/>
<path d="M172.888 37.8092L79.7016 37.8092C76.5604 37.8092 74.0139 40.3557 74.0139 43.4969V96.9649C74.0139 100.106 76.5604 102.653 79.7016 102.653H172.888C176.029 102.653 178.575 100.106 178.575 96.9649V43.4969C178.575 40.3557 176.029 37.8092 172.888 37.8092Z" fill="#FDDFBB"/>
<path d="M128.754 75.0727C137.207 73.7143 142.958 65.7606 141.599 57.3076C140.241 48.8547 132.287 43.1035 123.834 44.462C115.381 45.8205 109.63 53.7742 110.989 62.2271C112.347 70.68 120.301 76.4312 128.754 75.0727Z" fill="#263238"/>
<path d="M126.177 62.6331L121.011 69.2646C120.836 69.5406 120.594 69.7687 120.308 69.9281C120.023 70.0876 119.702 70.1736 119.375 70.1782C118.926 70.1843 118.493 70.0129 118.17 69.7013C118.006 69.5507 117.876 69.3665 117.789 69.1612C117.703 68.9559 117.661 68.7343 117.668 68.5116C117.684 68.0128 117.86 67.5324 118.17 67.1411L124.058 59.8571L118.536 52.568C118.28 52.226 118.139 51.8109 118.135 51.3833C118.133 51.1283 118.185 50.8758 118.286 50.6416C118.387 50.4075 118.536 50.1968 118.722 50.0229C118.897 49.84 119.108 49.6946 119.341 49.5954C119.574 49.4961 119.824 49.4452 120.077 49.4456C120.402 49.4509 120.72 49.5372 121.002 49.6968C121.284 49.8564 121.522 50.0841 121.694 50.3592L126.684 56.9304L131.704 50.4697C131.883 50.1683 132.134 49.9158 132.435 49.7345C132.735 49.5532 133.075 49.4489 133.426 49.4305C133.643 49.43 133.858 49.4743 134.058 49.5607C134.257 49.6471 134.437 49.7736 134.585 49.9325C134.743 50.0815 134.87 50.2612 134.956 50.4606C135.042 50.66 135.087 50.8749 135.087 51.0922C135.082 51.481 134.948 51.857 134.706 52.1614L128.797 59.7215L134.505 67.2515C134.775 67.5881 134.925 68.0049 134.932 68.4363C134.933 68.6857 134.881 68.9325 134.778 69.1596C134.674 69.3867 134.523 69.5886 134.334 69.7515C133.966 70.1057 133.475 70.3036 132.964 70.3037C132.638 70.2997 132.318 70.2139 132.034 70.0543C131.75 69.8947 131.51 69.6663 131.337 69.3901L126.177 62.6331Z" fill="white"/>
<path d="M155.83 91.4228H96.7394C95.5412 91.4228 94.392 90.9468 93.5447 90.0995C92.6974 89.2523 92.2214 88.1031 92.2214 86.9048C92.2214 85.7066 92.6974 84.5574 93.5447 83.7101C94.392 82.8628 95.5412 82.3868 96.7394 82.3868H155.83C157.028 82.3868 158.177 82.8628 159.025 83.7101C159.872 84.5574 160.348 85.7066 160.348 86.9048C160.348 88.1031 159.872 89.2523 159.025 90.0995C158.177 90.9468 157.028 91.4228 155.83 91.4228Z" fill="white"/>
<path d="M104.837 88.3606C104.797 88.3606 104.758 88.3526 104.722 88.3371C104.686 88.3215 104.653 88.2988 104.626 88.2703C104.596 88.2408 104.573 88.2055 104.557 88.1667C104.542 88.1278 104.534 88.0862 104.536 88.0444C104.535 87.9737 104.555 87.9043 104.591 87.8436L105.043 87.1408H104.119C104.076 87.143 104.033 87.136 103.994 87.1204C103.954 87.1049 103.918 87.081 103.888 87.0504C103.836 86.9903 103.808 86.9137 103.808 86.8345C103.808 86.7553 103.836 86.6788 103.888 86.6187C103.918 86.5881 103.954 86.5642 103.994 86.5486C104.033 86.5331 104.076 86.5261 104.119 86.5283L105.027 86.5534L104.626 85.9008C104.586 85.834 104.563 85.7579 104.561 85.6799C104.559 85.6381 104.567 85.5965 104.582 85.5576C104.598 85.5188 104.621 85.4835 104.651 85.454C104.679 85.4253 104.713 85.4026 104.75 85.387C104.787 85.3715 104.827 85.3636 104.867 85.3637C104.923 85.3628 104.978 85.3786 105.026 85.4089C105.073 85.4393 105.11 85.4829 105.133 85.5344L105.575 86.3225L105.996 85.5695C106.023 85.5109 106.065 85.4607 106.118 85.4244C106.171 85.3882 106.233 85.3671 106.298 85.3637C106.337 85.3637 106.376 85.3717 106.412 85.3872C106.448 85.4028 106.481 85.4255 106.508 85.454C106.538 85.4816 106.561 85.5151 106.577 85.5523C106.592 85.5895 106.6 85.6296 106.599 85.6699C106.598 85.7412 106.577 85.8108 106.539 85.8707L106.097 86.5785L107.015 86.5534C107.058 86.5509 107.101 86.5577 107.141 86.5733C107.181 86.5889 107.217 86.6129 107.246 86.6438C107.298 86.7039 107.326 86.7804 107.326 86.8596C107.326 86.9388 107.298 87.0154 107.246 87.0755C107.217 87.1064 107.181 87.1304 107.141 87.146C107.101 87.1616 107.058 87.1684 107.015 87.1659H106.087L106.498 87.8084C106.545 87.886 106.571 87.9741 106.574 88.0644C106.575 88.1051 106.568 88.1457 106.554 88.1836C106.539 88.2216 106.517 88.2562 106.488 88.2853C106.462 88.3135 106.43 88.336 106.395 88.3516C106.359 88.3671 106.321 88.3753 106.282 88.3757C106.22 88.3742 106.16 88.3549 106.108 88.3203C106.057 88.2856 106.016 88.2369 105.991 88.1799L105.575 87.442L105.158 88.1799C105.128 88.238 105.081 88.2861 105.024 88.3182C104.967 88.3503 104.902 88.365 104.837 88.3606Z" fill="black"/>
<path d="M109.445 88.3606C109.406 88.3606 109.367 88.3526 109.33 88.337C109.294 88.3215 109.261 88.2988 109.234 88.2702C109.205 88.2407 109.181 88.2055 109.166 88.1666C109.15 88.1278 109.143 88.0861 109.144 88.0443C109.144 87.9736 109.163 87.9042 109.199 87.8435L109.651 87.1407H108.727C108.685 87.1429 108.642 87.136 108.602 87.1204C108.562 87.1048 108.526 87.0809 108.496 87.0504C108.445 86.9903 108.416 86.9137 108.416 86.8345C108.416 86.7553 108.445 86.6787 108.496 86.6186C108.526 86.588 108.562 86.5642 108.602 86.5486C108.642 86.533 108.685 86.5261 108.727 86.5283L109.636 86.5534L109.209 85.8757C109.169 85.8088 109.146 85.7328 109.144 85.6548C109.143 85.613 109.15 85.5713 109.166 85.5325C109.181 85.4936 109.205 85.4584 109.234 85.4289C109.262 85.4002 109.296 85.3774 109.333 85.3619C109.37 85.3464 109.41 85.3384 109.45 85.3385C109.506 85.3377 109.562 85.3534 109.609 85.3838C109.656 85.4142 109.694 85.4578 109.716 85.5092L110.158 86.2974L110.58 85.5444C110.606 85.4858 110.648 85.4356 110.701 85.3993C110.755 85.363 110.817 85.342 110.881 85.3385C110.92 85.3385 110.959 85.3465 110.996 85.3621C111.032 85.3776 111.064 85.4003 111.092 85.4289C111.121 85.4565 111.144 85.49 111.16 85.5272C111.176 85.5644 111.183 85.6044 111.182 85.6448C111.181 85.716 111.16 85.7857 111.122 85.8456L110.68 86.5534L111.599 86.5283C111.641 86.5258 111.684 86.5325 111.724 86.5481C111.764 86.5637 111.8 86.5878 111.83 86.6186C111.881 86.6787 111.91 86.7553 111.91 86.8345C111.91 86.9137 111.881 86.9903 111.83 87.0504C111.8 87.0812 111.764 87.1053 111.724 87.1209C111.684 87.1365 111.641 87.1432 111.599 87.1407H110.67L111.082 87.7833C111.128 87.8608 111.154 87.9489 111.157 88.0393C111.158 88.08 111.152 88.1205 111.137 88.1585C111.122 88.1964 111.1 88.231 111.072 88.2602C111.045 88.2884 111.013 88.3109 110.978 88.3264C110.943 88.3419 110.904 88.3501 110.866 88.3505C110.803 88.3496 110.743 88.3307 110.691 88.2959C110.639 88.2611 110.599 88.2121 110.575 88.1548L110.158 87.4168L109.741 88.1548C109.717 88.2136 109.676 88.2643 109.623 88.3007C109.571 88.3372 109.509 88.3579 109.445 88.3606Z" fill="black"/>
<path d="M114.053 88.3606C114.014 88.3606 113.975 88.3526 113.939 88.337C113.902 88.3215 113.87 88.2988 113.843 88.2702C113.813 88.2407 113.79 88.2055 113.774 88.1666C113.758 88.1278 113.751 88.0861 113.752 88.0443C113.752 87.9736 113.771 87.9042 113.807 87.8435L114.259 87.1407H113.336C113.293 87.1429 113.25 87.136 113.21 87.1204C113.171 87.1048 113.135 87.0809 113.105 87.0504C113.053 86.9903 113.025 86.9137 113.025 86.8345C113.025 86.7553 113.053 86.6787 113.105 86.6186C113.135 86.588 113.171 86.5642 113.21 86.5486C113.25 86.533 113.293 86.5261 113.336 86.5283L114.244 86.5534L113.817 85.8757C113.777 85.8088 113.755 85.7328 113.752 85.6548C113.751 85.613 113.758 85.5713 113.774 85.5325C113.79 85.4936 113.813 85.4584 113.843 85.4289C113.871 85.4002 113.904 85.3774 113.941 85.3619C113.978 85.3464 114.018 85.3384 114.058 85.3385C114.115 85.3377 114.17 85.3534 114.217 85.3838C114.264 85.4142 114.302 85.4578 114.324 85.5092L114.766 86.2974L115.188 85.5444C115.214 85.4858 115.257 85.4356 115.31 85.3993C115.363 85.363 115.425 85.342 115.489 85.3385C115.529 85.3385 115.568 85.3465 115.604 85.3621C115.64 85.3776 115.673 85.4003 115.7 85.4289C115.729 85.4565 115.753 85.49 115.768 85.5272C115.784 85.5644 115.791 85.6044 115.79 85.6448C115.79 85.716 115.769 85.7857 115.73 85.8456L115.288 86.5534L116.207 86.5283C116.25 86.5258 116.292 86.5325 116.332 86.5481C116.372 86.5637 116.408 86.5878 116.438 86.6186C116.49 86.6787 116.518 86.7553 116.518 86.8345C116.518 86.9137 116.49 86.9903 116.438 87.0504C116.408 87.0812 116.372 87.1053 116.332 87.1209C116.292 87.1365 116.25 87.1432 116.207 87.1407H115.278L115.69 87.7833C115.736 87.8608 115.762 87.9489 115.765 88.0393C115.767 88.08 115.76 88.1205 115.745 88.1585C115.731 88.1964 115.708 88.231 115.68 88.2602C115.653 88.2884 115.622 88.3109 115.586 88.3264C115.551 88.3419 115.513 88.3501 115.474 88.3505C115.412 88.3496 115.351 88.3307 115.299 88.2959C115.248 88.2611 115.207 88.2121 115.183 88.1548L114.766 87.4168L114.35 88.1548C114.325 88.2136 114.284 88.2643 114.231 88.3007C114.179 88.3372 114.117 88.3579 114.053 88.3606Z" fill="black"/>
<path d="M118.682 88.3606C118.642 88.3606 118.603 88.3526 118.567 88.337C118.531 88.3215 118.498 88.2988 118.471 88.2702C118.441 88.2407 118.418 88.2055 118.402 88.1666C118.387 88.1278 118.379 88.0861 118.381 88.0443C118.381 87.9736 118.4 87.9042 118.436 87.8435L118.888 87.1407H117.964C117.921 87.1429 117.879 87.136 117.839 87.1204C117.799 87.1048 117.763 87.0809 117.733 87.0504C117.681 86.9903 117.653 86.9137 117.653 86.8345C117.653 86.7553 117.681 86.6787 117.733 86.6186C117.763 86.588 117.799 86.5642 117.839 86.5486C117.879 86.533 117.921 86.5261 117.964 86.5283L118.873 86.5534L118.446 85.8757C118.406 85.8088 118.383 85.7328 118.381 85.6548C118.379 85.613 118.387 85.5713 118.402 85.5325C118.418 85.4936 118.441 85.4584 118.471 85.4289C118.499 85.4002 118.533 85.3774 118.57 85.3619C118.607 85.3464 118.647 85.3384 118.687 85.3385C118.743 85.3377 118.798 85.3534 118.846 85.3838C118.893 85.4142 118.93 85.4578 118.953 85.5092L119.395 86.2974L119.816 85.5444C119.843 85.4858 119.885 85.4356 119.938 85.3993C119.991 85.363 120.053 85.342 120.118 85.3385C120.157 85.3385 120.196 85.3465 120.232 85.3621C120.268 85.3776 120.301 85.4003 120.328 85.4289C120.358 85.4565 120.381 85.49 120.397 85.5272C120.412 85.5644 120.42 85.6044 120.419 85.6448C120.418 85.716 120.397 85.7857 120.359 85.8456L119.917 86.5534L120.835 86.5283C120.878 86.5258 120.921 86.5325 120.961 86.5481C121.001 86.5637 121.037 86.5878 121.066 86.6186C121.118 86.6787 121.146 86.7553 121.146 86.8345C121.146 86.9137 121.118 86.9903 121.066 87.0504C121.037 87.0812 121.001 87.1053 120.961 87.1209C120.921 87.1365 120.878 87.1432 120.835 87.1407H119.907L120.318 87.7833C120.365 87.8608 120.391 87.9489 120.394 88.0393C120.395 88.08 120.388 88.1205 120.374 88.1585C120.359 88.1964 120.337 88.231 120.308 88.2602C120.282 88.2884 120.25 88.3109 120.215 88.3264C120.179 88.3419 120.141 88.3501 120.102 88.3505C120.04 88.349 119.98 88.3298 119.928 88.2951C119.877 88.2604 119.836 88.2117 119.811 88.1548L119.395 87.4168L118.978 88.1548C118.953 88.2136 118.912 88.2643 118.86 88.3007C118.807 88.3372 118.746 88.3579 118.682 88.3606Z" fill="black"/>
<path d="M123.27 88.3606C123.231 88.3606 123.192 88.3526 123.156 88.337C123.119 88.3215 123.087 88.2988 123.059 88.2702C123.03 88.2407 123.006 88.2055 122.991 88.1666C122.975 88.1278 122.968 88.0862 122.969 88.0443C122.971 87.974 122.99 87.9052 123.024 87.8435L123.476 87.1407H122.552C122.51 87.1429 122.467 87.136 122.427 87.1204C122.387 87.1048 122.351 87.0809 122.321 87.0504C122.27 86.9903 122.241 86.9137 122.241 86.8345C122.241 86.7553 122.27 86.6787 122.321 86.6186C122.351 86.588 122.387 86.5642 122.427 86.5486C122.467 86.533 122.51 86.5261 122.552 86.5283L123.461 86.5534L123.034 85.8757C122.994 85.8088 122.972 85.7328 122.969 85.6548C122.968 85.613 122.975 85.5713 122.991 85.5325C123.006 85.4936 123.03 85.4584 123.059 85.4289C123.087 85.4002 123.121 85.3774 123.158 85.3619C123.195 85.3464 123.235 85.3384 123.275 85.3385C123.331 85.3377 123.387 85.3534 123.434 85.3838C123.481 85.4142 123.519 85.4578 123.541 85.5092L123.983 86.2974L124.405 85.5444C124.431 85.4858 124.473 85.4356 124.527 85.3993C124.58 85.363 124.642 85.342 124.706 85.3385C124.745 85.3379 124.785 85.3457 124.821 85.3612C124.857 85.3768 124.89 85.3999 124.917 85.4289C124.946 85.4565 124.969 85.49 124.985 85.5272C125.001 85.5644 125.008 85.6044 125.007 85.6448C125.006 85.716 124.986 85.7857 124.947 85.8456L124.505 86.5534L125.424 86.5283C125.467 86.5258 125.509 86.5325 125.549 86.5481C125.589 86.5637 125.625 86.5878 125.655 86.6186C125.706 86.6787 125.735 86.7553 125.735 86.8345C125.735 86.9137 125.706 86.9903 125.655 87.0504C125.625 87.0812 125.589 87.1053 125.549 87.1209C125.509 87.1365 125.467 87.1432 125.424 87.1407H124.495L124.907 87.7833C124.953 87.8608 124.979 87.9489 124.982 88.0393C124.983 88.08 124.977 88.1205 124.962 88.1585C124.947 88.1964 124.925 88.231 124.897 88.2602C124.87 88.2884 124.838 88.3109 124.803 88.3264C124.768 88.3419 124.729 88.3501 124.691 88.3505C124.629 88.349 124.568 88.3298 124.517 88.2951C124.465 88.2604 124.425 88.2117 124.4 88.1548L123.983 87.4168L123.566 88.1548C123.542 88.2136 123.501 88.2643 123.448 88.3007C123.396 88.3372 123.334 88.3579 123.27 88.3606Z" fill="black"/>
<path d="M127.878 88.3606C127.839 88.3606 127.8 88.3526 127.764 88.337C127.728 88.3215 127.695 88.2988 127.668 88.2702C127.638 88.2407 127.615 88.2055 127.599 88.1666C127.584 88.1278 127.576 88.0862 127.577 88.0443C127.58 87.974 127.599 87.9052 127.632 87.8435L128.084 87.1407H127.166C127.122 87.1433 127.079 87.1366 127.038 87.121C126.997 87.1054 126.96 87.0813 126.93 87.0504C126.878 86.9903 126.85 86.9137 126.85 86.8345C126.85 86.7553 126.878 86.6787 126.93 86.6186C126.96 86.5877 126.997 86.5636 127.038 86.548C127.079 86.5324 127.122 86.5257 127.166 86.5283L128.069 86.5534L127.643 85.8757C127.602 85.8088 127.58 85.7328 127.577 85.6548C127.576 85.613 127.584 85.5713 127.599 85.5325C127.615 85.4936 127.638 85.4584 127.668 85.4289C127.696 85.4002 127.729 85.3774 127.766 85.3619C127.804 85.3464 127.843 85.3384 127.883 85.3385C127.94 85.3377 127.995 85.3534 128.042 85.3838C128.09 85.4142 128.127 85.4578 128.15 85.5092L128.591 86.2974L129.013 85.5444C129.04 85.4858 129.082 85.4356 129.135 85.3993C129.188 85.363 129.25 85.342 129.314 85.3385C129.354 85.3379 129.393 85.3457 129.429 85.3612C129.466 85.3768 129.498 85.3999 129.525 85.4289C129.554 85.4565 129.578 85.49 129.593 85.5272C129.609 85.5644 129.616 85.6044 129.615 85.6448C129.615 85.716 129.594 85.7857 129.555 85.8456L129.113 86.5534L130.032 86.5283C130.075 86.5258 130.118 86.5325 130.157 86.5481C130.197 86.5637 130.233 86.5878 130.263 86.6186C130.315 86.6787 130.343 86.7553 130.343 86.8345C130.343 86.9137 130.315 86.9903 130.263 87.0504C130.233 87.0812 130.197 87.1053 130.157 87.1209C130.118 87.1365 130.075 87.1432 130.032 87.1407H129.103L129.515 87.7833C129.561 87.8608 129.587 87.9489 129.59 88.0393C129.592 88.08 129.585 88.1205 129.57 88.1585C129.556 88.1964 129.533 88.231 129.505 88.2602C129.479 88.2884 129.447 88.3109 129.411 88.3264C129.376 88.3419 129.338 88.3501 129.299 88.3505C129.237 88.349 129.177 88.3298 129.125 88.2951C129.073 88.2604 129.033 88.2117 129.008 88.1548L128.591 87.4168L128.175 88.1548C128.15 88.2136 128.109 88.2643 128.056 88.3007C128.004 88.3372 127.942 88.3579 127.878 88.3606Z" fill="black"/>
<path d="M132.487 88.3606C132.447 88.3606 132.408 88.3526 132.372 88.3371C132.336 88.3215 132.303 88.2988 132.276 88.2703C132.246 88.2408 132.223 88.2055 132.207 88.1667C132.192 88.1278 132.184 88.0862 132.186 88.0444C132.186 87.9737 132.205 87.9043 132.241 87.8436L132.693 87.1408H131.769C131.726 87.143 131.684 87.136 131.644 87.1205C131.604 87.1049 131.568 87.081 131.538 87.0504C131.486 86.9903 131.458 86.9137 131.458 86.8345C131.458 86.7553 131.486 86.6788 131.538 86.6187C131.568 86.5881 131.604 86.5642 131.644 86.5486C131.684 86.5331 131.726 86.5261 131.769 86.5283L132.678 86.5534L132.236 85.9008C132.196 85.834 132.173 85.7579 132.171 85.6799C132.169 85.6381 132.177 85.5965 132.192 85.5576C132.208 85.5188 132.231 85.4835 132.261 85.454C132.289 85.4253 132.323 85.4026 132.36 85.387C132.397 85.3715 132.437 85.3636 132.477 85.3637C132.533 85.3628 132.588 85.3786 132.636 85.409C132.683 85.4393 132.72 85.4829 132.743 85.5344L133.185 86.3225L133.606 85.5695C133.633 85.5109 133.675 85.4607 133.728 85.4244C133.781 85.3882 133.843 85.3671 133.908 85.3637C133.947 85.3631 133.986 85.3708 134.023 85.3864C134.059 85.4019 134.092 85.425 134.118 85.454C134.148 85.4816 134.171 85.5151 134.187 85.5523C134.202 85.5895 134.21 85.6296 134.209 85.6699C134.208 85.7412 134.187 85.8108 134.148 85.8707L133.707 86.5785L134.625 86.5534C134.668 86.5509 134.711 86.5577 134.751 86.5733C134.791 86.5889 134.827 86.6129 134.856 86.6438C134.908 86.7039 134.936 86.7804 134.936 86.8596C134.936 86.9388 134.908 87.0154 134.856 87.0755C134.827 87.1064 134.791 87.1304 134.751 87.146C134.711 87.1616 134.668 87.1684 134.625 87.1659H133.697L134.108 87.8084C134.155 87.886 134.181 87.9741 134.184 88.0644C134.185 88.1051 134.178 88.1457 134.164 88.1836C134.149 88.2216 134.127 88.2562 134.098 88.2853C134.072 88.3135 134.04 88.336 134.005 88.3516C133.969 88.3671 133.931 88.3753 133.892 88.3757C133.83 88.3742 133.77 88.3549 133.718 88.3203C133.667 88.2856 133.626 88.2369 133.601 88.1799L133.185 87.442L132.768 88.1799C132.741 88.2319 132.701 88.276 132.651 88.3077C132.602 88.3394 132.545 88.3576 132.487 88.3606Z" fill="black"/>
<path d="M137.095 88.3606C137.056 88.3606 137.017 88.3526 136.981 88.337C136.944 88.3215 136.912 88.2988 136.884 88.2702C136.855 88.2407 136.831 88.2055 136.816 88.1666C136.8 88.1278 136.793 88.0861 136.794 88.0443C136.796 87.974 136.815 87.9051 136.849 87.8435L137.301 87.1407H136.382C136.34 87.1439 136.297 87.1375 136.257 87.1218C136.217 87.1062 136.181 87.0818 136.152 87.0503C136.097 86.9918 136.066 86.9146 136.066 86.8345C136.066 86.7543 136.097 86.6772 136.152 86.6186C136.181 86.5872 136.217 86.5628 136.257 86.5471C136.297 86.5315 136.34 86.525 136.382 86.5283L137.286 86.5534L136.859 85.8757C136.819 85.8088 136.797 85.7328 136.794 85.6548C136.793 85.6137 136.8 85.5728 136.814 85.5345C136.829 85.4962 136.852 85.4612 136.88 85.4317C136.909 85.4022 136.943 85.3788 136.981 85.3628C137.019 85.3467 137.059 85.3385 137.1 85.3385C137.157 85.3377 137.212 85.3534 137.259 85.3838C137.306 85.4141 137.344 85.4578 137.366 85.5092L137.808 86.2973L138.23 85.5443C138.256 85.4857 138.298 85.4356 138.352 85.3993C138.405 85.363 138.467 85.342 138.531 85.3385C138.571 85.3373 138.61 85.3447 138.646 85.3603C138.683 85.3759 138.715 85.3993 138.742 85.4289C138.771 85.4565 138.795 85.4899 138.81 85.5272C138.826 85.5644 138.833 85.6044 138.832 85.6447C138.832 85.716 138.811 85.7857 138.772 85.8455L138.33 86.5534L139.249 86.5283C139.292 86.5257 139.334 86.5325 139.374 86.5481C139.414 86.5637 139.45 86.5878 139.48 86.6186C139.531 86.6787 139.56 86.7553 139.56 86.8345C139.56 86.9137 139.531 86.9903 139.48 87.0503C139.45 87.0812 139.414 87.1052 139.374 87.1208C139.334 87.1364 139.292 87.1432 139.249 87.1407H138.32L138.732 87.7833C138.778 87.8608 138.804 87.9489 138.807 88.0393C138.808 88.0788 138.802 88.1183 138.788 88.1553C138.774 88.1924 138.753 88.2263 138.726 88.2553C138.699 88.2842 138.667 88.3074 138.63 88.3238C138.594 88.3401 138.556 88.3492 138.516 88.3505C138.454 88.349 138.393 88.3298 138.342 88.2951C138.29 88.2604 138.25 88.2117 138.225 88.1547L137.808 87.4168L137.391 88.1547C137.367 88.2136 137.326 88.2643 137.273 88.3007C137.221 88.3372 137.159 88.3579 137.095 88.3606Z" fill="black"/>
<path d="M141.704 88.3606C141.664 88.3606 141.625 88.3526 141.589 88.337C141.553 88.3215 141.52 88.2988 141.493 88.2702C141.463 88.2407 141.44 88.2055 141.424 88.1666C141.409 88.1278 141.401 88.0861 141.402 88.0443C141.405 87.974 141.424 87.9051 141.458 87.8435L141.909 87.1407H140.986C140.944 87.1432 140.902 87.1363 140.863 87.1207C140.824 87.1051 140.789 87.0811 140.76 87.0503C140.705 86.9918 140.675 86.9146 140.675 86.8345C140.675 86.7543 140.705 86.6772 140.76 86.6186C140.789 86.5879 140.824 86.5638 140.863 86.5482C140.902 86.5326 140.944 86.5258 140.986 86.5283L141.894 86.5534L141.468 85.8757C141.427 85.8088 141.405 85.7328 141.402 85.6548C141.401 85.6137 141.408 85.5728 141.423 85.5345C141.438 85.4962 141.46 85.4612 141.488 85.4317C141.517 85.4022 141.551 85.3788 141.589 85.3628C141.627 85.3467 141.668 85.3385 141.709 85.3385C141.765 85.3377 141.82 85.3534 141.867 85.3838C141.915 85.4141 141.952 85.4578 141.975 85.5092L142.416 86.2973L142.838 85.5443C142.865 85.4857 142.907 85.4356 142.96 85.3993C143.013 85.363 143.075 85.342 143.139 85.3385C143.179 85.3373 143.218 85.3447 143.255 85.3603C143.291 85.3759 143.324 85.3993 143.35 85.4289C143.38 85.4565 143.403 85.4899 143.418 85.5272C143.434 85.5644 143.441 85.6044 143.44 85.6447C143.44 85.716 143.419 85.7857 143.38 85.8455L142.938 86.5534L143.857 86.5283C143.9 86.5257 143.943 86.5325 143.983 86.5481C144.022 86.5637 144.058 86.5878 144.088 86.6186C144.14 86.6787 144.168 86.7553 144.168 86.8345C144.168 86.9137 144.14 86.9903 144.088 87.0503C144.058 87.0812 144.022 87.1052 143.983 87.1208C143.943 87.1364 143.9 87.1432 143.857 87.1407H142.928L143.34 87.7833C143.387 87.8608 143.412 87.9489 143.415 88.0393C143.417 88.0788 143.41 88.1183 143.396 88.1553C143.382 88.1924 143.361 88.2263 143.334 88.2553C143.307 88.2842 143.275 88.3074 143.239 88.3238C143.203 88.3401 143.164 88.3492 143.124 88.3505C143.062 88.349 143.002 88.3298 142.95 88.2951C142.899 88.2604 142.858 88.2117 142.833 88.1547L142.416 87.4168L142 88.1547C141.975 88.2136 141.934 88.2643 141.882 88.3007C141.829 88.3372 141.767 88.3579 141.704 88.3606Z" fill="black"/>
<path d="M146.292 88.3606C146.252 88.3606 146.213 88.3526 146.177 88.337C146.141 88.3215 146.108 88.2988 146.081 88.2702C146.051 88.2407 146.028 88.2055 146.012 88.1666C145.997 88.1278 145.989 88.0861 145.991 88.0443C145.993 87.974 146.012 87.9051 146.046 87.8435L146.498 87.1407H145.574C145.532 87.1432 145.49 87.1363 145.451 87.1207C145.412 87.1051 145.377 87.0811 145.348 87.0503C145.293 86.9918 145.263 86.9146 145.263 86.8345C145.263 86.7543 145.293 86.6772 145.348 86.6186C145.377 86.5879 145.412 86.5638 145.451 86.5482C145.49 86.5326 145.532 86.5258 145.574 86.5283L146.483 86.5534L146.056 85.8757C146.016 85.8088 145.993 85.7328 145.991 85.6548C145.989 85.6129 145.997 85.5713 146.012 85.5325C146.028 85.4936 146.051 85.4584 146.081 85.4289C146.109 85.4002 146.143 85.3774 146.18 85.3619C146.217 85.3464 146.257 85.3384 146.297 85.3385C146.353 85.3377 146.408 85.3534 146.456 85.3838C146.503 85.4141 146.54 85.4578 146.563 85.5092L147.005 86.2973L147.426 85.5443C147.453 85.4857 147.495 85.4356 147.548 85.3993C147.601 85.363 147.663 85.342 147.728 85.3385C147.767 85.3373 147.807 85.3447 147.843 85.3603C147.879 85.3759 147.912 85.3993 147.938 85.4289C147.968 85.4565 147.991 85.4899 148.007 85.5272C148.022 85.5644 148.03 85.6044 148.029 85.6447C148.028 85.716 148.007 85.7857 147.968 85.8455L147.527 86.5534L148.445 86.5283C148.488 86.5257 148.531 86.5325 148.571 86.5481C148.611 86.5637 148.647 86.5878 148.676 86.6186C148.728 86.6787 148.756 86.7553 148.756 86.8345C148.756 86.9137 148.728 86.9903 148.676 87.0503C148.647 87.0812 148.611 87.1052 148.571 87.1208C148.531 87.1364 148.488 87.1432 148.445 87.1407H147.517L147.928 87.7833C147.975 87.8608 148.001 87.9489 148.004 88.0393C148.005 88.08 147.998 88.1205 147.984 88.1585C147.969 88.1964 147.947 88.231 147.918 88.2602C147.892 88.2883 147.86 88.3109 147.825 88.3264C147.789 88.3419 147.751 88.3501 147.712 88.3505C147.65 88.349 147.59 88.3298 147.538 88.2951C147.487 88.2604 147.446 88.2117 147.421 88.1547L147.005 87.4168L146.588 88.1547C146.563 88.2136 146.522 88.2643 146.47 88.3007C146.417 88.3372 146.356 88.3579 146.292 88.3606Z" fill="black"/>
<path d="M162.085 99.4648H168.224" stroke="white" stroke-width="3" stroke-linecap="round" stroke-linejoin="round"/>
<path d="M76.9305 54.2598V95.0372C76.9305 96.2182 77.3997 97.3507 78.2347 98.1858C79.0698 99.0208 80.2023 99.49 81.3833 99.49H156.257" stroke="white" stroke-width="3" stroke-linecap="round" stroke-linejoin="round"/>
<path d="M76.9305 43.4467V49.561" stroke="white" stroke-width="3" stroke-linecap="round" stroke-linejoin="round"/>
</svg>
