<svg width="16" height="16" viewBox="0 0 16 16" fill="none" xmlns="http://www.w3.org/2000/svg">
<path d="M15.7656 7.04468H15.4323V5.875C15.4323 5.61865 15.3444 5.36694 15.1848 5.16638L15.0181 4.95667V4.38745C15.0181 4.172 14.8429 3.99683 14.6274 3.99683H14.3732C14.1577 3.99683 13.9825 4.172 13.9825 4.38745V4.95667L13.8157 5.16638C13.6561 5.36694 13.5684 5.61865 13.5684 5.875V7.04468H13.2966V6.46875C13.2966 6.2124 13.2087 5.96082 13.0492 5.76013L12.8824 5.55042V4.9812C12.8824 4.76575 12.7073 4.59058 12.4918 4.59058H12.2375C12.0221 4.59058 11.8469 4.76575 11.8469 4.9812V5.55042L11.6801 5.76013C11.5205 5.96082 11.4326 6.21252 11.4326 6.46875V7.04468H10.6094V6.95312C10.6094 6.66992 10.379 6.43958 10.0958 6.43958H9.70117C9.57166 6.43958 9.4668 6.54456 9.4668 6.67395C9.4668 6.80334 9.57166 6.90833 9.70117 6.90833H10.0958C10.1205 6.90833 10.1406 6.92847 10.1406 6.95312V7.04468H8.23438V6.67395C8.23438 6.54456 8.12952 6.43958 8 6.43958C7.87048 6.43958 7.76562 6.54456 7.76562 6.67395V7.04468H5.85925V6.95312C5.85925 6.92847 5.87939 6.90833 5.90417 6.90833H6.29883C6.42834 6.90833 6.5332 6.80334 6.5332 6.67395C6.5332 6.54456 6.42834 6.43958 6.29883 6.43958H5.90417C5.62097 6.43958 5.3905 6.66992 5.3905 6.95312V7.04468H1.76563L1.76562 5.4552C1.76562 5.21106 1.96423 5.01245 2.20837 5.01245C2.45251 5.01245 2.651 5.21106 2.651 5.4552V6.2478C2.651 6.3772 2.75598 6.48218 2.88538 6.48218C3.01489 6.48218 3.11975 6.3772 3.11975 6.2478V5.4552C3.11975 4.95264 2.71094 4.5437 2.20837 4.5437C1.70581 4.5437 1.29688 4.95264 1.29688 5.4552L1.29688 6.27295H1.01038C0.880981 6.27295 0.776001 6.37781 0.776001 6.50732C0.776001 6.63672 0.880981 6.7417 1.01038 6.7417H1.29688V7.04468H0.234375C0.104858 7.04468 0 7.14954 0 7.27905L0 11.1301C0 11.2595 0.104858 11.3645 0.234375 11.3645C0.363892 11.3645 0.46875 11.2595 0.46875 11.1301V10.5198H4.48438L4.48438 14.8123H0.546875C0.503784 14.8123 0.46875 14.7772 0.46875 14.7341L0.46875 12.0676C0.46875 11.9381 0.363892 11.8333 0.234375 11.8333C0.104858 11.8333 0 11.9381 0 12.0676L0 14.7341C0 15.0356 0.245361 15.281 0.546875 15.281H15.4531C15.7546 15.281 16 15.0356 16 14.7341V12.0676C16 11.9381 15.8951 11.8333 15.7656 11.8333C15.6361 11.8333 15.5312 11.9381 15.5312 12.0676V14.7341C15.5312 14.7772 15.4962 14.8123 15.4531 14.8123H11.5156V10.5198H15.5312V11.1301C15.5312 11.2595 15.6361 11.3645 15.7656 11.3645C15.8951 11.3645 16 11.2595 16 11.1301V7.27905C16 7.14954 15.8951 7.04468 15.7656 7.04468ZM14.0371 5.875C14.0371 5.72424 14.0887 5.57617 14.1826 5.45813L14.4004 5.18433C14.4333 5.14294 14.4513 5.09143 14.4513 5.03845V4.46558H14.5493V5.03845C14.5493 5.09155 14.5673 5.14294 14.6003 5.18433L14.818 5.45813C14.9119 5.57617 14.9636 5.72424 14.9636 5.875V7.04468H14.0371V5.875ZM11.9015 6.46875C11.9015 6.31799 11.9531 6.16992 12.047 6.05188L12.2648 5.77808C12.2977 5.73669 12.3157 5.68518 12.3157 5.6322V5.05933H12.4137V5.6322C12.4137 5.68518 12.4316 5.73669 12.4646 5.77808L12.6824 6.05188C12.7762 6.16992 12.8279 6.31799 12.8279 6.46875V7.04468L11.9015 7.04468V6.46875ZM0.46875 7.51343L15.5312 7.51343V7.91675L0.46875 7.91675V7.51343ZM11.0469 8.3855V10.051H4.95312V8.3855H11.0469ZM0.46875 10.051L0.46875 8.3855H4.48438V10.051H0.46875ZM11.0469 14.8123H4.95313L4.95312 10.5198H11.0469V14.8123ZM11.5156 10.051V8.3855H15.5312V10.051H11.5156Z" fill="black"/>
<path d="M6.56567 9.80298C6.90515 9.80298 7.1814 9.52686 7.1814 9.18726C7.1814 8.84778 6.90515 8.57166 6.56567 8.57166C6.2262 8.57166 5.94995 8.84778 5.94995 9.18726C5.94995 9.52686 6.2262 9.80298 6.56567 9.80298ZM6.56567 9.04041C6.64673 9.04041 6.71265 9.10632 6.71265 9.18726C6.71265 9.26831 6.64673 9.33423 6.56567 9.33423C6.48462 9.33423 6.4187 9.26831 6.4187 9.18726C6.4187 9.10632 6.48462 9.04041 6.56567 9.04041Z" fill="black"/>
<path d="M9.43433 9.80298C9.7738 9.80298 10.05 9.52686 10.05 9.18726C10.05 8.84778 9.7738 8.57166 9.43433 8.57166C9.09485 8.57166 8.8186 8.84778 8.8186 9.18726C8.8186 9.52686 9.09485 9.80298 9.43433 9.80298ZM9.43433 9.04041C9.51538 9.04041 9.5813 9.10632 9.5813 9.18726C9.5813 9.26831 9.51538 9.33423 9.43433 9.33423C9.35327 9.33423 9.28735 9.26831 9.28735 9.18726C9.28735 9.10632 9.35327 9.04041 9.43433 9.04041Z" fill="black"/>
<path d="M4.875 3.43738L11.125 3.43738C11.3405 3.43738 11.5156 3.26221 11.5156 3.04675V2.3175C11.5156 2.3158 11.5156 2.31409 11.5155 2.31226C11.5155 2.31177 11.5155 2.31128 11.5155 2.31067C11.5155 2.30933 11.5154 2.30798 11.5154 2.30664C11.5154 2.30579 11.5153 2.30493 11.5153 2.30408C11.5151 2.30298 11.5151 2.30188 11.515 2.30078C11.515 2.29993 11.5149 2.29895 11.5148 2.29797C11.5148 2.29749 11.5148 2.297 11.5146 2.29639C11.5106 2.25085 11.4935 2.20898 11.467 2.17468C11.4669 2.17456 11.4669 2.17444 11.4668 2.17432C11.4661 2.17346 11.4653 2.17249 11.4646 2.17163C11.4644 2.17126 11.4641 2.1709 11.4639 2.17065C11.4628 2.16931 11.4617 2.16797 11.4606 2.16663C11.4601 2.16602 11.4597 2.16553 11.4592 2.16504C11.4587 2.16443 11.4581 2.16382 11.4576 2.16321C11.4569 2.16235 11.4563 2.16162 11.4556 2.16089C11.4552 2.1604 11.4548 2.16003 11.4545 2.15955C11.4534 2.15845 11.4524 2.15735 11.4513 2.15625C11.4509 2.15576 11.4506 2.1554 11.4502 2.15503C11.4493 2.15417 11.4485 2.15332 11.4476 2.15247C11.4473 2.1521 11.447 2.15173 11.4467 2.15137C11.4456 2.15027 11.4443 2.14905 11.4432 2.14795C11.4429 2.14771 11.4426 2.14746 11.4423 2.14722C11.4414 2.14636 11.4406 2.14551 11.4396 2.14465C11.4391 2.14417 11.4386 2.1438 11.4381 2.14331C11.4374 2.1427 11.4365 2.14197 11.4358 2.14124C11.4351 2.14062 11.4342 2.13989 11.4333 2.13928C11.4326 2.13855 11.4319 2.13794 11.4312 2.13733C11.4304 2.13672 11.4297 2.13611 11.429 2.1355C11.4286 2.13525 11.4282 2.13489 11.4277 2.13452C11.4153 2.12451 11.4017 2.11572 11.3873 2.1084L9.28735 0.985962V0.234253C9.28735 0.104858 9.1825 -0.00012207 9.05298 -0.00012207C8.92346 -0.00012207 8.8186 0.104858 8.8186 0.234253V1.03284C8.8186 1.17725 8.89771 1.3092 9.02502 1.37732L10.3456 2.08313L5.65442 2.08313L6.97485 1.37732C7.10229 1.3092 7.1814 1.17725 7.1814 1.03284V0.234253C7.1814 0.104858 7.07642 -0.00012207 6.94702 -0.00012207C6.8175 -0.00012207 6.71265 0.104858 6.71265 0.234253V0.985962L4.61267 2.10852C4.59827 2.11584 4.58472 2.12463 4.57214 2.13464C4.57178 2.13501 4.57141 2.13525 4.57104 2.13562C4.57019 2.13623 4.56946 2.13684 4.56873 2.13745C4.56799 2.13806 4.56726 2.13867 4.56653 2.13928C4.5658 2.14001 4.56494 2.14062 4.56421 2.14136C4.56335 2.14209 4.56262 2.1427 4.56189 2.14343C4.5614 2.14392 4.56091 2.14429 4.56042 2.14478C4.55945 2.14563 4.55859 2.14648 4.55762 2.14734C4.55737 2.14758 4.55701 2.14783 4.55676 2.14807C4.55566 2.14917 4.55444 2.15039 4.55334 2.15149C4.55298 2.15186 4.55261 2.1521 4.55237 2.15247C4.55151 2.15332 4.55066 2.1543 4.5498 2.15515C4.54944 2.15552 4.54907 2.15588 4.54871 2.15625C4.54761 2.15735 4.54651 2.15857 4.54553 2.15967C4.54517 2.16016 4.5448 2.16052 4.54443 2.16101C4.5437 2.16174 4.54297 2.16248 4.54236 2.16333C4.54187 2.16382 4.54126 2.16443 4.54077 2.16504C4.54028 2.16565 4.53992 2.16614 4.53943 2.16675C4.53833 2.16797 4.53723 2.16931 4.53613 2.17065C4.53589 2.17102 4.53564 2.17139 4.53528 2.17175C4.53455 2.17261 4.53394 2.17358 4.5332 2.17444C4.53308 2.17456 4.53296 2.17468 4.53296 2.1748C4.50647 2.20911 4.48938 2.25085 4.48523 2.29651C4.48523 2.297 4.48523 2.29761 4.48511 2.2981C4.48511 2.29907 4.48499 2.29993 4.48499 2.3009C4.48486 2.302 4.48474 2.3031 4.48474 2.3042C4.48474 2.30505 4.48462 2.30591 4.48462 2.30664C4.4845 2.30798 4.4845 2.30945 4.4845 2.31079C4.4845 2.31128 4.48438 2.31189 4.48438 2.31238V2.31763V3.04688C4.48438 3.26221 4.65955 3.43738 4.875 3.43738ZM11.0469 2.96863L4.95312 2.96863V2.55188L11.0469 2.55188V2.96863Z" fill="black"/>
<path d="M14.0938 8.75623H12.9531C12.8236 8.75623 12.7188 8.86108 12.7188 8.9906C12.7188 9.12 12.8236 9.22498 12.9531 9.22498H14.0938C14.2233 9.22498 14.3281 9.12 14.3281 8.9906C14.3281 8.86108 14.2233 8.75623 14.0938 8.75623Z" fill="black"/>
<path d="M3.04688 8.75623H1.90625C1.77673 8.75623 1.67188 8.86108 1.67188 8.9906C1.67188 9.12 1.77673 9.22498 1.90625 9.22498H3.04688C3.17639 9.22498 3.28125 9.12 3.28125 8.9906C3.28125 8.86108 3.17639 8.75623 3.04688 8.75623Z" fill="black"/>
<path d="M11.8125 11.9803V12.9634C11.8125 13.0929 11.9174 13.1978 12.0469 13.1978C12.1764 13.1978 12.2812 13.0929 12.2812 12.9634V11.9803C12.2812 11.8508 12.1764 11.746 12.0469 11.746C11.9174 11.746 11.8125 11.8508 11.8125 11.9803Z" fill="black"/>
<path d="M4.1875 12.9634V11.9803C4.1875 11.8508 4.08264 11.746 3.95312 11.746C3.82361 11.746 3.71875 11.8508 3.71875 11.9803V12.9634C3.71875 13.0929 3.82361 13.1978 3.95312 13.1978C4.08264 13.1978 4.1875 13.0929 4.1875 12.9634Z" fill="black"/>
<path d="M5.75 14.416H10.25C10.4655 14.416 10.6406 14.2408 10.6406 14.0254V11.3066C10.6406 11.0913 10.4655 10.916 10.25 10.916H5.75C5.53455 10.916 5.35938 11.0913 5.35938 11.3066V14.0254C5.35938 14.2408 5.53455 14.416 5.75 14.416ZM5.82812 11.3848H10.1719V13.9473H5.82812V11.3848Z" fill="black"/>
</svg>
