<svg width="118" height="157" viewBox="0 0 118 157" fill="none" xmlns="http://www.w3.org/2000/svg">
<path fill-rule="evenodd" clip-rule="evenodd" d="M1.00563 92.1537V90.4602C1.22484 85.4499 2.64173 80.5953 5.11019 76.3969C9.21895 71.3537 12.0316 65.1736 13.2531 58.5049C13.2531 53.3508 13.2531 48.1231 13.6503 42.969C15.7026 18.1558 37.3508 1 58.7343 1H59.2639C80.6473 1 102.296 18.1558 104.414 42.969C104.811 48.1231 104.414 53.3508 104.745 58.5049C105.983 65.189 108.793 71.3884 112.888 76.4706C115.375 80.6317 116.794 85.4686 116.993 90.4602V92.0801C117.14 98.8116 115.095 105.375 111.233 110.561C106.13 116.625 99.205 120.397 91.7693 121.164C69.9654 123.815 47.9666 123.815 26.1626 121.164C18.7353 120.364 11.8205 116.597 6.69905 110.561C2.89694 105.371 0.878819 98.8466 1.00563 92.1537Z" stroke="#200E32" stroke-width="1.5" stroke-linecap="round" stroke-linejoin="round"/>
<path d="M42.3137 146.785C45.7205 151.632 50.7234 154.768 56.2152 155.5C61.707 156.233 67.2348 154.501 71.5752 150.688C72.9101 149.56 74.1113 148.249 75.1501 146.785" stroke="#200E32" stroke-width="1.5" stroke-linecap="round" stroke-linejoin="round"/>
</svg>
