<svg width="252" height="252" viewBox="0 0 252 252" fill="none" xmlns="http://www.w3.org/2000/svg">
<path d="M198.295 82.1518C198.295 82.1518 200.177 56.7707 173.852 39.8483C147.527 22.9258 109.922 26.2139 84.5363 39.3764C59.1502 52.5388 62.9151 82.6036 54.4715 101.875C46.0279 121.147 26.736 124.465 28.1466 150.765C29.5572 177.065 46.0128 189.781 64.7926 194.012C83.5725 198.244 100.992 193.074 117.914 195.89C134.837 198.706 158.34 204.354 185.604 193.541C212.868 182.727 218.038 153.115 214.278 129.611C210.518 106.107 198.295 97.6485 198.295 82.1518Z" fill="#FDDFBB"/>
<path opacity="0.7" d="M198.295 82.1518C198.295 82.1518 200.177 56.7707 173.852 39.8483C147.527 22.9258 109.922 26.2139 84.5363 39.3764C59.1502 52.5388 62.9151 82.6036 54.4715 101.875C46.0279 121.147 26.736 124.465 28.1466 150.765C29.5572 177.065 46.0128 189.781 64.7926 194.012C83.5725 198.244 100.992 193.074 117.914 195.89C134.837 198.706 158.34 204.354 185.604 193.541C212.868 182.727 218.038 153.115 214.278 129.611C210.518 106.107 198.295 97.6485 198.295 82.1518Z" fill="white"/>
<path d="M172.994 182.11H76.2183L83.8587 174.736H165.353L172.994 182.11Z" fill="white" stroke="#263238" stroke-linecap="round" stroke-linejoin="round"/>
<path d="M162.241 177.582C162.241 179.088 144.716 180.328 123.085 180.328C101.454 180.328 83.929 179.098 83.929 177.582C83.929 176.066 101.454 174.831 123.085 174.831C144.716 174.831 162.241 176.061 162.241 177.582Z" fill="#FDDFBB"/>
<path opacity="0.5" d="M162.241 177.582C162.241 179.088 144.716 180.328 123.085 180.328C101.454 180.328 83.929 179.098 83.929 177.582C83.929 176.066 101.454 174.831 123.085 174.831C144.716 174.831 162.241 176.061 162.241 177.582Z" fill="white"/>
<path d="M172.994 182.11H76.2183V188.942H172.994V182.11Z" fill="#263238" stroke="#263238" stroke-linecap="round" stroke-linejoin="round"/>
<path d="M179.841 196.312H69.3708L76.2181 188.942H172.994L179.841 196.312Z" fill="white" stroke="#263238" stroke-linecap="round" stroke-linejoin="round"/>
<path d="M179.821 196.312H69.3909V203.5H179.821V196.312Z" fill="#263238" stroke="#263238" stroke-linecap="round" stroke-linejoin="round"/>
<path d="M123.537 109.225V63.2766H141.021V43.9446" stroke="#263238" stroke-miterlimit="10"/>
<path d="M130.369 63.0607V43.9446" stroke="#263238" stroke-miterlimit="10"/>
<path d="M124.842 116.549H205.343V105.103H220.729" stroke="#263238" stroke-miterlimit="10"/>
<path d="M120.896 116.152H44.3462V103.924H27.7751" stroke="#263238" stroke-miterlimit="10"/>
<path d="M107.874 31.7109V49.0751H98.01V60.1191H110.244V97.2119" stroke="#263238" stroke-miterlimit="10"/>
<path d="M161.935 83.0054V58.1463H168.641V47.4939H174.168" stroke="#263238" stroke-miterlimit="10"/>
<path d="M80.6508 80.6408V61.7003L75.1238 56.1733V42.3633" stroke="#263238" stroke-miterlimit="10"/>
<path d="M176.929 91.69H190.739V82.6138H199.816V77.4834H207.707" stroke="#263238" stroke-miterlimit="10"/>
<path d="M66.8358 94.8474H52.2377V83.4019H31.7209" stroke="#263238" stroke-miterlimit="10"/>
<path d="M80.2542 156.794V167.055H73.5475V178.501H54.2104" stroke="#263238" stroke-miterlimit="10"/>
<path d="M154.043 158.375V169.028H169.43V164.691H173.772V173.762H187.19" stroke="#263238" stroke-miterlimit="10"/>
<path d="M142.146 43.9447C142.145 44.1669 142.078 44.3838 141.954 44.568C141.83 44.7523 141.654 44.8956 141.448 44.98C141.243 45.0643 141.017 45.0859 140.799 45.0419C140.581 44.998 140.381 44.8905 140.225 44.733C140.068 44.5756 139.961 44.3752 139.918 44.1572C139.875 43.9392 139.898 43.7134 139.983 43.5082C140.068 43.303 140.212 43.1277 140.397 43.0044C140.582 42.881 140.799 42.8152 141.021 42.8152C141.17 42.8152 141.316 42.8444 141.453 42.9013C141.59 42.9581 141.714 43.0414 141.818 43.1463C141.923 43.2513 142.006 43.3758 142.062 43.5128C142.118 43.6498 142.147 43.7966 142.146 43.9447Z" fill="#263238" stroke="#263238" stroke-linecap="round" stroke-linejoin="round"/>
<path d="M131.534 43.9447C131.533 44.1669 131.466 44.3838 131.342 44.568C131.218 44.7523 131.042 44.8956 130.836 44.98C130.63 45.0643 130.405 45.0859 130.187 45.0419C129.969 44.998 129.769 44.8905 129.612 44.733C129.456 44.5756 129.349 44.3752 129.306 44.1572C129.263 43.9392 129.285 43.7134 129.371 43.5082C129.456 43.303 129.6 43.1277 129.785 43.0044C129.97 42.881 130.187 42.8152 130.409 42.8152C130.557 42.8152 130.704 42.8444 130.841 42.9013C130.977 42.9581 131.102 43.0414 131.206 43.1463C131.311 43.2513 131.393 43.3758 131.449 43.5128C131.506 43.6498 131.534 43.7966 131.534 43.9447Z" fill="#263238" stroke="#263238" stroke-linecap="round" stroke-linejoin="round"/>
<path d="M109.009 31.3846C109.009 31.6082 108.942 31.8268 108.818 32.0127C108.694 32.1985 108.517 32.3433 108.31 32.4286C108.104 32.514 107.876 32.536 107.657 32.4921C107.438 32.4481 107.237 32.34 107.079 32.1815C106.921 32.0231 106.814 31.8213 106.771 31.6019C106.728 31.3825 106.751 31.1552 106.837 30.9489C106.923 30.7426 107.069 30.5666 107.255 30.443C107.442 30.3195 107.661 30.2541 107.884 30.2551C108.032 30.2551 108.179 30.2844 108.316 30.3412C108.453 30.398 108.577 30.4813 108.681 30.5863C108.786 30.6912 108.868 30.8158 108.925 30.9528C108.981 31.0898 109.009 31.2365 109.009 31.3846Z" fill="#263238" stroke="#263238" stroke-linecap="round" stroke-linejoin="round"/>
<path d="M76.2582 41.796C76.2572 42.0182 76.1904 42.2351 76.0663 42.4194C75.9421 42.6036 75.7662 42.747 75.5606 42.8313C75.355 42.9156 75.1291 42.9372 74.9113 42.8932C74.6935 42.8493 74.4936 42.7418 74.3369 42.5843C74.1801 42.4269 74.0735 42.2265 74.0305 42.0085C73.9875 41.7905 74.0101 41.5647 74.0953 41.3595C74.1806 41.1543 74.3247 40.979 74.5095 40.8557C74.6944 40.7323 74.9116 40.6665 75.1337 40.6665C75.2818 40.6665 75.4285 40.6958 75.5652 40.7526C75.702 40.8094 75.8262 40.8927 75.9307 40.9976C76.0351 41.1026 76.1179 41.2271 76.1741 41.3641C76.2303 41.5012 76.2589 41.6479 76.2582 41.796Z" fill="#263238" stroke="#263238" stroke-linecap="round" stroke-linejoin="round"/>
<path d="M32.8454 83.4018C32.8464 83.6257 32.7809 83.8447 32.6572 84.0312C32.5334 84.2177 32.3571 84.3633 32.1505 84.4494C31.9439 84.5355 31.7164 84.5583 31.4968 84.5149C31.2772 84.4715 31.0755 84.3638 30.9173 84.2055C30.759 84.0473 30.6513 83.8455 30.6079 83.626C30.5645 83.4064 30.5873 83.1789 30.6734 82.9723C30.7595 82.7657 30.905 82.5893 31.0915 82.4656C31.2781 82.3419 31.4971 82.2764 31.7209 82.2774C32.0192 82.2774 32.3052 82.3958 32.5161 82.6067C32.7269 82.8176 32.8454 83.1036 32.8454 83.4018Z" fill="#263238" stroke="#263238" stroke-linecap="round" stroke-linejoin="round"/>
<path d="M28.9348 103.889C28.9348 104.112 28.8685 104.33 28.7444 104.516C28.6203 104.702 28.4439 104.847 28.2375 104.932C28.0311 105.018 27.804 105.04 27.5849 104.996C27.3658 104.953 27.1646 104.845 27.0066 104.687C26.8486 104.529 26.7411 104.328 26.6975 104.109C26.6539 103.89 26.6763 103.663 26.7618 103.456C26.8472 103.25 26.992 103.074 27.1778 102.949C27.3635 102.825 27.5819 102.759 27.8053 102.759C28.1048 102.759 28.3921 102.878 28.604 103.09C28.8158 103.302 28.9348 103.589 28.9348 103.889Z" fill="#263238" stroke="#263238" stroke-linecap="round" stroke-linejoin="round"/>
<path d="M55.4353 178.285C55.4353 178.508 55.3689 178.727 55.2446 178.913C55.1202 179.099 54.9435 179.243 54.7368 179.329C54.5302 179.414 54.3028 179.436 54.0836 179.392C53.8643 179.348 53.6631 179.24 53.5053 179.082C53.3476 178.923 53.2404 178.721 53.1974 178.502C53.1544 178.283 53.1774 178.055 53.2637 177.849C53.35 177.643 53.4955 177.467 53.6819 177.343C53.8683 177.22 54.0872 177.154 54.3108 177.155C54.4589 177.155 54.6055 177.185 54.7423 177.241C54.879 177.298 55.0032 177.381 55.1077 177.486C55.2122 177.591 55.2949 177.716 55.3511 177.853C55.4073 177.99 55.4359 178.137 55.4353 178.285Z" fill="#263238" stroke="#263238" stroke-linecap="round" stroke-linejoin="round"/>
<path d="M188.887 173.541C188.888 173.765 188.823 173.983 188.699 174.17C188.576 174.356 188.399 174.502 188.193 174.588C187.987 174.674 187.76 174.697 187.54 174.654C187.321 174.611 187.119 174.504 186.961 174.346C186.802 174.189 186.694 173.987 186.65 173.768C186.606 173.549 186.628 173.322 186.713 173.115C186.799 172.908 186.944 172.732 187.129 172.607C187.315 172.483 187.534 172.417 187.757 172.417C187.906 172.416 188.052 172.444 188.189 172.501C188.326 172.557 188.451 172.64 188.556 172.744C188.661 172.849 188.744 172.973 188.801 173.11C188.858 173.246 188.887 173.393 188.887 173.541Z" fill="#263238" stroke="#263238" stroke-linecap="round" stroke-linejoin="round"/>
<path d="M222.426 104.883C222.426 105.105 222.36 105.322 222.236 105.507C222.113 105.692 221.937 105.836 221.732 105.921C221.526 106.007 221.3 106.029 221.082 105.985C220.864 105.942 220.663 105.835 220.506 105.678C220.349 105.52 220.242 105.32 220.198 105.102C220.155 104.884 220.177 104.658 220.262 104.452C220.347 104.247 220.492 104.071 220.677 103.948C220.861 103.824 221.079 103.758 221.301 103.758C221.599 103.758 221.885 103.877 222.096 104.087C222.307 104.298 222.426 104.584 222.426 104.883Z" fill="#263238" stroke="#263238" stroke-linecap="round" stroke-linejoin="round"/>
<path d="M209.364 77.2424C209.364 77.4648 209.298 77.6822 209.174 77.8671C209.051 78.052 208.875 78.1962 208.67 78.2813C208.464 78.3664 208.238 78.3887 208.02 78.3453C207.802 78.3019 207.601 78.1948 207.444 78.0375C207.287 77.8803 207.18 77.6799 207.136 77.4618C207.093 77.2436 207.115 77.0176 207.2 76.8121C207.285 76.6066 207.43 76.431 207.614 76.3074C207.799 76.1839 208.017 76.1179 208.239 76.1179C208.537 76.1179 208.823 76.2364 209.034 76.4473C209.245 76.6582 209.364 76.9442 209.364 77.2424Z" fill="#263238" stroke="#263238" stroke-linecap="round" stroke-linejoin="round"/>
<path d="M176.021 47.4636C176.021 47.686 175.955 47.9034 175.831 48.0883C175.708 48.2732 175.532 48.4174 175.327 48.5025C175.121 48.5876 174.895 48.6099 174.677 48.5665C174.459 48.5231 174.258 48.416 174.101 48.2587C173.944 48.1015 173.837 47.9011 173.793 47.683C173.75 47.4648 173.772 47.2387 173.857 47.0333C173.942 46.8278 174.087 46.6522 174.271 46.5286C174.456 46.4051 174.674 46.3391 174.896 46.3391C175.194 46.3391 175.48 46.4576 175.691 46.6685C175.902 46.8793 176.021 47.1654 176.021 47.4636Z" fill="#263238" stroke="#263238" stroke-linecap="round" stroke-linejoin="round"/>
<path d="M138.265 166.739V156.95H108.808V166.739C108.799 169.939 107.693 173.04 105.675 175.524L104.385 177.12H142.678L141.393 175.524C139.375 173.04 138.271 169.939 138.265 166.739Z" fill="white"/>
<path d="M107.001 173.596H140.072C138.889 171.504 138.267 169.142 138.265 166.739V156.95H108.808V166.739C108.807 169.142 108.184 171.504 107.001 173.596Z" fill="#FDDFBB"/>
<path opacity="0.3" d="M107.001 173.596H140.072C138.889 171.504 138.267 169.142 138.265 166.739V156.95H108.808V166.739C108.807 169.142 108.184 171.504 107.001 173.596Z" fill="white"/>
<path d="M107.001 163.275H140.072C138.889 161.183 138.267 158.821 138.265 156.418V146.629H108.808V156.418C108.807 158.821 108.184 161.183 107.001 163.275Z" fill="#263238"/>
<path d="M138.265 166.739V156.95H108.808V166.739C108.799 169.939 107.693 173.04 105.675 175.524L104.385 177.12H142.678L141.393 175.524C139.375 173.04 138.271 169.939 138.265 166.739V166.739Z" stroke="#263238" stroke-linecap="round" stroke-linejoin="round"/>
<path d="M178.471 73.1108H68.6029C66.2519 73.1108 64.3459 75.0167 64.3459 77.3678V155.775C64.3459 158.126 66.2519 160.032 68.6029 160.032H178.471C180.822 160.032 182.728 158.126 182.728 155.775V77.3678C182.728 75.0167 180.822 73.1108 178.471 73.1108Z" fill="#263238" stroke="#263238" stroke-linecap="round" stroke-linejoin="round"/>
<path d="M64.3459 146.523H182.728V155.775C182.728 156.904 182.279 157.987 181.481 158.785C180.682 159.584 179.6 160.032 178.471 160.032H68.6029C67.4739 160.032 66.3911 159.584 65.5928 158.785C64.7944 157.987 64.3459 156.904 64.3459 155.775V146.523Z" fill="white" stroke="#263238" stroke-linecap="round" stroke-linejoin="round"/>
<path d="M176.769 78.5225H70.2996V139.932H176.769V78.5225Z" fill="white" stroke="#263238" stroke-linecap="round" stroke-linejoin="round"/>
<path d="M125.72 155.444C125.729 155.01 125.609 154.584 125.375 154.219C125.14 153.854 124.802 153.567 124.404 153.395C124.006 153.222 123.566 153.173 123.139 153.252C122.713 153.331 122.319 153.535 122.009 153.839C121.699 154.142 121.487 154.531 121.399 154.956C121.311 155.381 121.351 155.822 121.515 156.224C121.679 156.625 121.959 156.969 122.319 157.211C122.679 157.453 123.103 157.582 123.537 157.582C124.11 157.588 124.661 157.366 125.071 156.965C125.48 156.564 125.714 156.017 125.72 155.444Z" fill="#263238" stroke="#263238" stroke-linecap="round" stroke-linejoin="round"/>
<path d="M142.688 177.135H104.39V178.882H142.688V177.135Z" fill="white" stroke="#263238" stroke-linecap="round" stroke-linejoin="round"/>
<path d="M123.697 75.3347C118.346 80.3547 104.621 85.3747 88.6526 96.0623C88.6526 96.0623 89.6566 132.206 123.697 151.94V75.3347Z" fill="#FDDFBB" stroke="#263238" stroke-linecap="round" stroke-linejoin="round"/>
<path d="M123.697 75.3347C129.054 80.3547 142.773 85.3747 158.747 96.0623C158.747 96.0623 157.743 132.206 123.697 151.94V75.3347Z" fill="#263238" stroke="#263238" stroke-linecap="round" stroke-linejoin="round"/>
<path d="M123.697 78.4121C117.221 82.9 106.032 87.172 91.2229 97.0815C91.2229 97.0815 92.1516 130.565 123.697 148.868C155.248 130.565 156.177 97.0815 156.177 97.0815C141.368 87.172 130.213 82.9 123.697 78.4121Z" fill="#263238" stroke="#263238" stroke-linecap="round" stroke-linejoin="round"/>
<path d="M156.177 97.0815C141.368 87.177 130.213 82.9 123.697 78.4121V148.868C155.248 130.565 156.177 97.0815 156.177 97.0815Z" fill="#FDDFBB" stroke="#263238" stroke-linecap="round" stroke-linejoin="round"/>
<path d="M183.094 114.807H63.9795V122.518H183.094V114.807Z" fill="#263238" stroke="#263238" stroke-linecap="round" stroke-linejoin="round"/>
<path d="M66.3238 116.032C66.3267 116.19 66.2825 116.346 66.1966 116.479C66.1108 116.613 65.9872 116.717 65.8416 116.78C65.696 116.843 65.5351 116.861 65.3793 116.832C65.2235 116.803 65.0799 116.728 64.9667 116.617C64.8536 116.506 64.7761 116.364 64.744 116.208C64.712 116.053 64.7269 115.892 64.7868 115.745C64.8468 115.598 64.949 115.473 65.0806 115.384C65.2122 115.296 65.3671 115.249 65.5256 115.249C65.6295 115.248 65.7327 115.267 65.8291 115.305C65.9256 115.344 66.0134 115.402 66.0876 115.474C66.1618 115.547 66.2208 115.634 66.2614 115.73C66.3019 115.825 66.3231 115.928 66.3238 116.032Z" fill="white"/>
<path d="M65.0688 116.464C65.1562 116.555 65.269 116.619 65.3928 116.647C65.5166 116.674 65.6458 116.664 65.7638 116.618C65.8818 116.571 65.9833 116.491 66.0553 116.386C66.1274 116.282 66.1667 116.159 66.1682 116.032C66.1665 115.881 66.1093 115.736 66.0076 115.625C65.6759 115.883 65.3623 116.163 65.0688 116.464Z" fill="#263238"/>
<path d="M69.4563 116.032C69.4602 116.192 69.4165 116.349 69.3308 116.484C69.245 116.618 69.121 116.724 68.9746 116.788C68.8282 116.852 68.6661 116.871 68.509 116.842C68.3519 116.813 68.2069 116.739 68.0926 116.627C67.9782 116.516 67.8997 116.373 67.8671 116.216C67.8344 116.06 67.8491 115.897 67.9093 115.749C67.9694 115.602 68.0723 115.475 68.2048 115.386C68.3373 115.297 68.4933 115.249 68.653 115.249C68.7572 115.248 68.8606 115.267 68.9574 115.305C69.0541 115.344 69.1423 115.401 69.2169 115.474C69.2914 115.547 69.351 115.633 69.392 115.729C69.4331 115.825 69.4549 115.928 69.4563 116.032Z" fill="white"/>
<path d="M68.1963 116.464C68.2837 116.555 68.3965 116.619 68.5203 116.647C68.644 116.674 68.7732 116.664 68.8912 116.618C69.0092 116.571 69.1107 116.491 69.1828 116.386C69.2548 116.282 69.2941 116.159 69.2957 116.032C69.294 115.881 69.2368 115.736 69.135 115.625C68.8045 115.884 68.4909 116.164 68.1963 116.464Z" fill="#263238"/>
<path d="M72.5838 116.032C72.5678 116.233 72.4766 116.421 72.3282 116.558C72.1798 116.696 71.9852 116.772 71.7831 116.772C71.5811 116.772 71.3865 116.696 71.2381 116.558C71.0897 116.421 70.9984 116.233 70.9824 116.032C70.9984 115.831 71.0897 115.643 71.2381 115.505C71.3865 115.368 71.5811 115.292 71.7831 115.292C71.9852 115.292 72.1798 115.368 72.3282 115.505C72.4766 115.643 72.5678 115.831 72.5838 116.032Z" fill="white"/>
<path d="M71.3237 116.464C71.3836 116.526 71.4554 116.575 71.5348 116.608C71.6141 116.642 71.6994 116.659 71.7856 116.659C71.8686 116.66 71.951 116.644 72.028 116.613C72.105 116.582 72.1751 116.536 72.2343 116.478C72.2935 116.419 72.3407 116.35 72.373 116.274C72.4054 116.197 72.4224 116.115 72.4231 116.032C72.4234 115.881 72.3659 115.735 72.2625 115.625C71.9319 115.884 71.6183 116.164 71.3237 116.464Z" fill="#263238"/>
<path d="M75.7112 116.032C75.7142 116.19 75.6699 116.346 75.5841 116.479C75.4982 116.613 75.3746 116.717 75.2291 116.78C75.0835 116.843 74.9226 116.861 74.7667 116.832C74.6109 116.803 74.4673 116.728 74.3542 116.617C74.241 116.506 74.1635 116.364 74.1315 116.208C74.0994 116.053 74.1143 115.892 74.1743 115.745C74.2342 115.598 74.3365 115.473 74.4681 115.384C74.5996 115.296 74.7545 115.249 74.913 115.249C75.017 115.248 75.1201 115.267 75.2166 115.305C75.313 115.344 75.4009 115.402 75.4751 115.474C75.5492 115.547 75.6083 115.634 75.6488 115.73C75.6894 115.825 75.7106 115.928 75.7112 116.032Z" fill="white"/>
<path d="M74.4512 116.464C74.5393 116.555 74.6523 116.618 74.7762 116.645C74.9 116.672 75.0291 116.662 75.1471 116.615C75.2652 116.569 75.3669 116.489 75.4396 116.385C75.5123 116.282 75.5526 116.159 75.5556 116.032C75.5539 115.881 75.4967 115.736 75.3949 115.625C75.0617 115.883 74.7464 116.163 74.4512 116.464Z" fill="#263238"/>
<path d="M78.8386 116.032C78.8416 116.19 78.7974 116.346 78.7115 116.479C78.6257 116.613 78.5021 116.717 78.3565 116.78C78.2109 116.843 78.05 116.861 77.8942 116.832C77.7384 116.803 77.5948 116.728 77.4816 116.617C77.3685 116.506 77.2909 116.364 77.2589 116.208C77.2269 116.053 77.2418 115.892 77.3017 115.745C77.3617 115.598 77.4639 115.473 77.5955 115.384C77.7271 115.296 77.882 115.249 78.0405 115.249C78.1444 115.248 78.2475 115.267 78.344 115.305C78.4405 115.344 78.5283 115.402 78.6025 115.474C78.6767 115.547 78.7357 115.634 78.7763 115.73C78.8168 115.825 78.838 115.928 78.8386 116.032Z" fill="white"/>
<path d="M77.5635 116.464C77.6236 116.525 77.6954 116.574 77.7747 116.608C77.854 116.642 77.9392 116.659 78.0253 116.659C78.1088 116.661 78.1917 116.645 78.2693 116.615C78.3469 116.584 78.4176 116.538 78.4773 116.479C78.537 116.421 78.5846 116.352 78.6173 116.275C78.6501 116.198 78.6672 116.115 78.6679 116.032C78.6662 115.881 78.609 115.736 78.5072 115.625C78.1751 115.884 77.8599 116.164 77.5635 116.464Z" fill="#263238"/>
<path d="M81.9661 116.032C81.9691 116.19 81.9248 116.346 81.839 116.479C81.7531 116.613 81.6295 116.717 81.4839 116.78C81.3384 116.843 81.1774 116.861 81.0216 116.832C80.8658 116.803 80.7222 116.728 80.6091 116.617C80.4959 116.506 80.4184 116.364 80.3864 116.208C80.3543 116.053 80.3692 115.892 80.4292 115.745C80.4891 115.598 80.5914 115.473 80.7229 115.384C80.8545 115.296 81.0094 115.249 81.1679 115.249C81.2718 115.248 81.375 115.267 81.4714 115.305C81.5679 115.344 81.6557 115.402 81.7299 115.474C81.8041 115.547 81.8632 115.634 81.9037 115.73C81.9442 115.825 81.9654 115.928 81.9661 116.032Z" fill="white"/>
<path d="M80.7112 116.464C80.7986 116.555 80.9114 116.619 81.0351 116.647C81.1589 116.674 81.2881 116.664 81.4061 116.618C81.5241 116.571 81.6256 116.491 81.6977 116.386C81.7697 116.282 81.809 116.159 81.8106 116.032C81.8089 115.881 81.7517 115.736 81.6499 115.625C81.3183 115.883 81.0046 116.163 80.7112 116.464Z" fill="#263238"/>
<path d="M85.0935 116.032C85.0974 116.192 85.0538 116.349 84.968 116.484C84.8822 116.618 84.7582 116.724 84.6118 116.788C84.4654 116.852 84.3033 116.871 84.1462 116.842C83.9891 116.813 83.8441 116.739 83.7298 116.627C83.6154 116.516 83.5369 116.373 83.5043 116.216C83.4716 116.06 83.4863 115.897 83.5465 115.749C83.6066 115.602 83.7095 115.475 83.842 115.386C83.9745 115.297 84.1305 115.249 84.2903 115.249C84.3944 115.248 84.4978 115.267 84.5946 115.305C84.6913 115.344 84.7795 115.401 84.8541 115.474C84.9286 115.547 84.9882 115.633 85.0293 115.729C85.0703 115.825 85.0921 115.928 85.0935 116.032Z" fill="white"/>
<path d="M83.8386 116.464C83.926 116.555 84.0388 116.619 84.1626 116.647C84.2864 116.674 84.4155 116.664 84.5335 116.618C84.6516 116.571 84.7531 116.491 84.8251 116.386C84.8972 116.282 84.9365 116.159 84.938 116.032C84.9363 115.881 84.8791 115.736 84.7774 115.625C84.4468 115.884 84.1332 116.164 83.8386 116.464Z" fill="#263238"/>
<path d="M88.2261 116.032C88.2291 116.19 88.1848 116.346 88.099 116.479C88.0131 116.613 87.8895 116.717 87.7439 116.78C87.5984 116.843 87.4375 116.861 87.2816 116.832C87.1258 116.803 86.9822 116.728 86.8691 116.617C86.7559 116.506 86.6784 116.364 86.6464 116.208C86.6143 116.053 86.6292 115.892 86.6892 115.745C86.7491 115.598 86.8514 115.473 86.983 115.384C87.1145 115.296 87.2694 115.249 87.4279 115.249C87.5318 115.248 87.635 115.267 87.7315 115.305C87.8279 115.344 87.9158 115.402 87.9899 115.474C88.0641 115.547 88.1232 115.634 88.1637 115.73C88.2042 115.825 88.2254 115.928 88.2261 116.032Z" fill="white"/>
<path d="M86.9661 116.464C87.026 116.526 87.0978 116.575 87.1771 116.608C87.2564 116.642 87.3417 116.659 87.4279 116.659C87.511 116.66 87.5934 116.644 87.6703 116.613C87.7473 116.582 87.8174 116.536 87.8766 116.478C87.9358 116.419 87.983 116.35 88.0154 116.274C88.0478 116.197 88.0648 116.115 88.0654 116.032C88.0657 115.881 88.0082 115.735 87.9048 115.625C87.5742 115.884 87.2607 116.164 86.9661 116.464Z" fill="#263238"/>
<path d="M91.3535 116.032C91.3565 116.19 91.3123 116.346 91.2264 116.479C91.1405 116.613 91.0169 116.717 90.8714 116.78C90.7258 116.843 90.5649 116.861 90.4091 116.832C90.2533 116.803 90.1096 116.728 89.9965 116.617C89.8834 116.506 89.8058 116.364 89.7738 116.208C89.7418 116.053 89.7567 115.892 89.8166 115.745C89.8766 115.598 89.9788 115.473 90.1104 115.384C90.242 115.296 90.3969 115.249 90.5554 115.249C90.6593 115.248 90.7624 115.267 90.8589 115.305C90.9554 115.344 91.0432 115.402 91.1174 115.474C91.1916 115.547 91.2506 115.634 91.2912 115.73C91.3317 115.825 91.3529 115.928 91.3535 116.032Z" fill="white"/>
<path d="M90.1135 116.464C90.2016 116.555 90.3147 116.618 90.4385 116.645C90.5624 116.672 90.6914 116.662 90.8095 116.615C90.9275 116.569 91.0293 116.489 91.102 116.385C91.1747 116.282 91.215 116.159 91.2179 116.032C91.2162 115.881 91.159 115.736 91.0573 115.625C90.7252 115.884 90.4099 116.164 90.1135 116.464Z" fill="#263238"/>
<path d="M94.481 116.032C94.484 116.19 94.4397 116.346 94.3539 116.479C94.268 116.613 94.1444 116.717 93.9988 116.78C93.8533 116.843 93.6923 116.861 93.5365 116.832C93.3807 116.803 93.2371 116.728 93.1239 116.617C93.0108 116.506 92.9333 116.364 92.9012 116.208C92.8692 116.053 92.8841 115.892 92.9441 115.745C93.004 115.598 93.1063 115.473 93.2378 115.384C93.3694 115.296 93.5243 115.249 93.6828 115.249C93.7867 115.248 93.8899 115.267 93.9863 115.305C94.0828 115.344 94.1706 115.402 94.2448 115.474C94.319 115.547 94.3781 115.634 94.4186 115.73C94.4591 115.825 94.4803 115.928 94.481 116.032Z" fill="white"/>
<path d="M93.2209 116.464C93.281 116.525 93.3528 116.574 93.4321 116.608C93.5114 116.642 93.5967 116.659 93.6828 116.659C93.7663 116.661 93.8492 116.645 93.9268 116.615C94.0043 116.584 94.075 116.538 94.1348 116.479C94.1945 116.421 94.2421 116.352 94.2748 116.275C94.3075 116.198 94.3247 116.115 94.3253 116.032C94.3236 115.881 94.2665 115.736 94.1647 115.625C93.8326 115.884 93.5173 116.164 93.2209 116.464Z" fill="#263238"/>
<path d="M97.6084 116.032C97.6114 116.19 97.5672 116.346 97.4813 116.479C97.3954 116.613 97.2718 116.717 97.1263 116.78C96.9807 116.843 96.8198 116.861 96.664 116.832C96.5081 116.803 96.3645 116.728 96.2514 116.617C96.1383 116.506 96.0607 116.364 96.0287 116.208C95.9966 116.053 96.0115 115.892 96.0715 115.745C96.1314 115.598 96.2337 115.473 96.3653 115.384C96.4968 115.296 96.6517 115.249 96.8102 115.249C96.9142 115.248 97.0173 115.267 97.1138 115.305C97.2102 115.344 97.2981 115.402 97.3723 115.474C97.4464 115.547 97.5055 115.634 97.546 115.73C97.5866 115.825 97.6078 115.928 97.6084 116.032Z" fill="white"/>
<path d="M96.3533 116.464C96.4407 116.555 96.5535 116.619 96.6772 116.647C96.801 116.674 96.9302 116.664 97.0482 116.618C97.1662 116.571 97.2677 116.491 97.3398 116.386C97.4118 116.282 97.4511 116.159 97.4527 116.032C97.451 115.881 97.3938 115.736 97.292 115.625C96.9615 115.884 96.6479 116.164 96.3533 116.464Z" fill="#263238"/>
<path d="M100.741 116.032C100.745 116.192 100.701 116.349 100.615 116.484C100.529 116.619 100.405 116.725 100.258 116.789C100.111 116.852 99.9491 116.871 99.7918 116.842C99.6346 116.813 99.4896 116.737 99.3754 116.625C99.2613 116.513 99.1832 116.37 99.1511 116.213C99.119 116.057 99.1344 115.894 99.1954 115.746C99.2563 115.598 99.36 115.472 99.4931 115.383C99.6263 115.295 99.7828 115.248 99.9427 115.249C100.047 115.248 100.15 115.267 100.246 115.305C100.343 115.344 100.431 115.402 100.505 115.474C100.579 115.547 100.638 115.634 100.679 115.73C100.719 115.825 100.74 115.928 100.741 116.032Z" fill="white"/>
<path d="M99.481 116.464C99.5683 116.555 99.6811 116.619 99.8049 116.647C99.9287 116.674 100.058 116.664 100.176 116.618C100.294 116.571 100.395 116.491 100.467 116.386C100.539 116.282 100.579 116.159 100.58 116.032C100.581 115.881 100.523 115.735 100.42 115.625C100.089 115.884 99.7756 116.164 99.481 116.464Z" fill="#263238"/>
<path d="M103.868 116.032C103.871 116.19 103.827 116.346 103.741 116.479C103.655 116.613 103.532 116.717 103.386 116.78C103.241 116.843 103.08 116.861 102.924 116.832C102.768 116.803 102.625 116.728 102.511 116.617C102.398 116.506 102.321 116.364 102.289 116.208C102.257 116.053 102.272 115.892 102.332 115.745C102.391 115.598 102.494 115.473 102.625 115.384C102.757 115.296 102.912 115.249 103.07 115.249C103.174 115.248 103.277 115.267 103.374 115.305C103.47 115.344 103.558 115.402 103.632 115.474C103.706 115.547 103.766 115.634 103.806 115.73C103.847 115.825 103.868 115.928 103.868 116.032Z" fill="white"/>
<path d="M102.608 116.464C102.696 116.555 102.81 116.618 102.933 116.645C103.057 116.672 103.186 116.662 103.304 116.615C103.422 116.569 103.524 116.489 103.597 116.385C103.67 116.282 103.71 116.159 103.713 116.032C103.711 115.881 103.654 115.736 103.552 115.625C103.219 115.883 102.904 116.163 102.608 116.464Z" fill="#263238"/>
<path d="M106.996 116.032C106.999 116.19 106.955 116.346 106.869 116.479C106.783 116.613 106.659 116.717 106.514 116.78C106.368 116.843 106.207 116.861 106.051 116.832C105.896 116.803 105.752 116.728 105.639 116.617C105.526 116.506 105.448 116.364 105.416 116.208C105.384 116.053 105.399 115.892 105.459 115.745C105.519 115.598 105.621 115.473 105.753 115.384C105.884 115.296 106.039 115.249 106.198 115.249C106.302 115.248 106.405 115.267 106.501 115.305C106.598 115.344 106.686 115.402 106.76 115.474C106.834 115.547 106.893 115.634 106.933 115.73C106.974 115.825 106.995 115.928 106.996 116.032Z" fill="white"/>
<path d="M105.736 116.464C105.796 116.525 105.868 116.574 105.947 116.608C106.026 116.642 106.112 116.659 106.198 116.659C106.281 116.661 106.364 116.645 106.442 116.615C106.519 116.584 106.59 116.538 106.65 116.479C106.709 116.421 106.757 116.352 106.79 116.275C106.822 116.198 106.84 116.115 106.84 116.032C106.839 115.881 106.781 115.736 106.68 115.625C106.347 115.884 106.032 116.164 105.736 116.464Z" fill="#263238"/>
<path d="M66.3236 121.007C66.3276 121.165 66.2842 121.322 66.199 121.455C66.1138 121.589 65.9905 121.695 65.8451 121.758C65.6996 121.822 65.5386 121.84 65.3824 121.812C65.2263 121.783 65.0822 121.709 64.9686 121.598C64.8549 121.488 64.7769 121.345 64.7444 121.19C64.712 121.035 64.7265 120.873 64.7863 120.726C64.8461 120.579 64.9483 120.453 65.08 120.365C65.2117 120.276 65.3668 120.229 65.5255 120.229C65.629 120.227 65.7317 120.246 65.8279 120.285C65.924 120.323 66.0116 120.38 66.0857 120.452C66.1598 120.525 66.219 120.611 66.2598 120.706C66.3006 120.801 66.3223 120.903 66.3236 121.007Z" fill="white"/>
<path d="M65.0688 121.443C65.1276 121.505 65.1985 121.555 65.2771 121.588C65.3556 121.622 65.4402 121.639 65.5257 121.639C65.6094 121.64 65.6924 121.624 65.77 121.592C65.8476 121.561 65.9183 121.515 65.9779 121.456C66.0376 121.397 66.0851 121.327 66.1178 121.25C66.1504 121.173 66.1676 121.09 66.1682 121.007C66.1653 120.858 66.1082 120.715 66.0076 120.605C65.6759 120.863 65.3623 121.143 65.0688 121.443Z" fill="#263238"/>
<path d="M69.4561 121.007C69.4611 121.167 69.4183 121.324 69.3331 121.46C69.2479 121.595 69.1243 121.702 68.9781 121.766C68.8318 121.831 68.6696 121.851 68.5122 121.822C68.3547 121.794 68.2093 121.72 68.0944 121.609C67.9796 121.497 67.9006 121.354 67.8675 121.198C67.8344 121.041 67.8488 120.879 67.9087 120.73C67.9687 120.582 68.0716 120.455 68.2042 120.366C68.3367 120.276 68.493 120.229 68.6529 120.229C68.8624 120.226 69.0645 120.306 69.215 120.452C69.3655 120.598 69.4521 120.797 69.4561 121.007Z" fill="white"/>
<path d="M68.1963 121.443C68.2551 121.505 68.3259 121.555 68.4045 121.588C68.483 121.622 68.5676 121.639 68.6531 121.639C68.7368 121.64 68.8199 121.624 68.8975 121.592C68.9751 121.561 69.0457 121.515 69.1054 121.456C69.1651 121.397 69.2126 121.327 69.2452 121.25C69.2779 121.173 69.295 121.09 69.2957 121.007C69.2928 120.858 69.2356 120.715 69.135 120.605C68.8045 120.864 68.4909 121.144 68.1963 121.443Z" fill="#263238"/>
<path d="M72.5838 121.007C72.5888 121.167 72.5458 121.325 72.4605 121.46C72.3751 121.596 72.2511 121.702 72.1046 121.767C71.958 121.831 71.7956 121.851 71.638 121.822C71.4804 121.794 71.335 121.719 71.2203 121.607C71.1057 121.495 71.027 121.352 70.9945 121.195C70.962 121.038 70.9771 120.875 71.0379 120.727C71.0986 120.579 71.2023 120.452 71.3355 120.363C71.4687 120.275 71.6255 120.228 71.7856 120.229C71.8891 120.227 71.9919 120.246 72.088 120.285C72.1841 120.323 72.2717 120.38 72.3459 120.452C72.42 120.525 72.4791 120.611 72.52 120.706C72.5608 120.801 72.5825 120.903 72.5838 121.007Z" fill="white"/>
<path d="M71.3237 121.443C71.4114 121.535 71.5247 121.599 71.6489 121.627C71.7732 121.654 71.9027 121.643 72.021 121.596C72.1392 121.549 72.2406 121.468 72.3123 121.363C72.384 121.258 72.4226 121.134 72.4231 121.007C72.4226 120.857 72.3652 120.714 72.2625 120.605C71.9319 120.864 71.6183 121.144 71.3237 121.443Z" fill="#263238"/>
<path d="M75.7111 121.007C75.7151 121.165 75.6717 121.322 75.5865 121.455C75.5012 121.589 75.378 121.695 75.2325 121.758C75.0871 121.822 74.926 121.84 74.7699 121.812C74.6137 121.783 74.4697 121.709 74.356 121.598C74.2424 121.488 74.1643 121.345 74.1319 121.19C74.0994 121.035 74.114 120.873 74.1738 120.726C74.2335 120.579 74.3358 120.453 74.4675 120.365C74.5991 120.276 74.7542 120.229 74.9129 120.229C75.0164 120.227 75.1192 120.246 75.2153 120.285C75.3114 120.323 75.3991 120.38 75.4732 120.452C75.5473 120.525 75.6065 120.611 75.6473 120.706C75.6881 120.801 75.7098 120.903 75.7111 121.007Z" fill="white"/>
<path d="M74.4512 121.443C74.5396 121.535 74.6531 121.598 74.7774 121.625C74.9017 121.652 75.0311 121.641 75.1494 121.594C75.2676 121.547 75.3693 121.467 75.4417 121.362C75.514 121.257 75.5536 121.134 75.5556 121.007C75.5527 120.858 75.4955 120.715 75.3949 120.605C75.0617 120.863 74.7464 121.143 74.4512 121.443Z" fill="#263238"/>
<path d="M78.8385 121.007C78.8425 121.165 78.7991 121.322 78.7139 121.455C78.6286 121.589 78.5054 121.695 78.36 121.758C78.2145 121.822 78.0534 121.84 77.8973 121.812C77.7412 121.783 77.5971 121.709 77.4834 121.598C77.3698 121.488 77.2918 121.345 77.2593 121.19C77.2268 121.035 77.2414 120.873 77.3012 120.726C77.361 120.579 77.4632 120.453 77.5949 120.365C77.7266 120.276 77.8816 120.229 78.0404 120.229C78.1439 120.227 78.2466 120.246 78.3427 120.285C78.4389 120.323 78.5265 120.38 78.6006 120.452C78.6747 120.525 78.7339 120.611 78.7747 120.706C78.8155 120.801 78.8372 120.903 78.8385 121.007Z" fill="white"/>
<path d="M77.5635 121.443C77.6236 121.505 77.6954 121.554 77.7747 121.588C77.854 121.621 77.9392 121.639 78.0253 121.639C78.109 121.64 78.1921 121.624 78.2697 121.592C78.3473 121.561 78.4179 121.515 78.4776 121.456C78.5373 121.397 78.5848 121.327 78.6174 121.25C78.6501 121.173 78.6672 121.09 78.6679 121.007C78.665 120.858 78.6078 120.715 78.5072 120.605C78.1751 120.864 77.8599 121.144 77.5635 121.443Z" fill="#263238"/>
<path d="M81.966 121.007C81.97 121.165 81.9266 121.322 81.8413 121.455C81.7561 121.589 81.6329 121.695 81.4874 121.758C81.342 121.822 81.1809 121.84 81.0248 121.812C80.8686 121.783 80.7245 121.709 80.6109 121.598C80.4972 121.488 80.4192 121.345 80.3867 121.19C80.3543 121.035 80.3689 120.873 80.4287 120.726C80.4884 120.579 80.5907 120.453 80.7223 120.365C80.854 120.276 81.0091 120.229 81.1678 120.229C81.2713 120.227 81.374 120.246 81.4702 120.285C81.5663 120.323 81.6539 120.38 81.7281 120.452C81.8022 120.525 81.8613 120.611 81.9022 120.706C81.943 120.801 81.9647 120.903 81.966 121.007Z" fill="white"/>
<path d="M80.7112 121.443C80.77 121.505 80.8408 121.555 80.9194 121.588C80.9979 121.622 81.0825 121.639 81.168 121.639C81.2517 121.64 81.3348 121.624 81.4124 121.592C81.49 121.561 81.5606 121.515 81.6203 121.456C81.68 121.397 81.7275 121.327 81.7601 121.25C81.7928 121.173 81.8099 121.09 81.8106 121.007C81.8076 120.858 81.7505 120.715 81.6499 120.605C81.3183 120.863 81.0046 121.143 80.7112 121.443Z" fill="#263238"/>
<path d="M85.0936 121.007C85.0986 121.167 85.0557 121.324 84.9706 121.46C84.8854 121.595 84.7618 121.702 84.6155 121.766C84.4693 121.831 84.307 121.851 84.1496 121.822C83.9922 121.794 83.8467 121.72 83.7319 121.609C83.617 121.497 83.538 121.354 83.5049 121.198C83.4718 121.041 83.4862 120.879 83.5462 120.73C83.6062 120.582 83.7091 120.455 83.8416 120.366C83.9742 120.276 84.1304 120.229 84.2904 120.229C84.4999 120.226 84.7019 120.306 84.8524 120.452C85.0029 120.598 85.0896 120.797 85.0936 121.007Z" fill="white"/>
<path d="M83.8386 121.443C83.8974 121.505 83.9683 121.555 84.0468 121.588C84.1254 121.622 84.21 121.639 84.2954 121.639C84.3792 121.64 84.4622 121.624 84.5398 121.592C84.6174 121.561 84.6881 121.515 84.7477 121.456C84.8074 121.397 84.8549 121.327 84.8876 121.25C84.9202 121.173 84.9373 121.09 84.938 121.007C84.9351 120.858 84.878 120.715 84.7774 120.605C84.4468 120.864 84.1332 121.144 83.8386 121.443Z" fill="#263238"/>
<path d="M88.226 121.007C88.23 121.165 88.1866 121.322 88.1013 121.455C88.0161 121.589 87.8929 121.695 87.7474 121.758C87.602 121.822 87.4409 121.84 87.2848 121.812C87.1286 121.783 86.9845 121.709 86.8709 121.598C86.7573 121.488 86.6792 121.345 86.6468 121.19C86.6143 121.035 86.6289 120.873 86.6887 120.726C86.7484 120.579 86.8507 120.453 86.9824 120.365C87.114 120.276 87.2691 120.229 87.4278 120.229C87.5313 120.227 87.6341 120.246 87.7302 120.285C87.8263 120.323 87.9139 120.38 87.9881 120.452C88.0622 120.525 88.1213 120.611 88.1622 120.706C88.203 120.801 88.2247 120.903 88.226 121.007Z" fill="white"/>
<path d="M86.9661 121.443C87.0538 121.535 87.167 121.599 87.2913 121.627C87.4155 121.654 87.5451 121.643 87.6633 121.596C87.7815 121.549 87.883 121.468 87.9546 121.363C88.0263 121.258 88.0649 121.134 88.0654 121.007C88.0649 120.857 88.0075 120.714 87.9048 120.605C87.5742 120.864 87.2607 121.144 86.9661 121.443Z" fill="#263238"/>
<path d="M91.3534 121.007C91.3574 121.165 91.314 121.322 91.2288 121.455C91.1435 121.589 91.0203 121.695 90.8749 121.758C90.7294 121.822 90.5683 121.84 90.4122 121.812C90.2561 121.783 90.112 121.709 89.9983 121.598C89.8847 121.488 89.8067 121.345 89.7742 121.19C89.7417 121.035 89.7563 120.873 89.8161 120.726C89.8759 120.579 89.9781 120.453 90.1098 120.365C90.2415 120.276 90.3965 120.229 90.5553 120.229C90.6588 120.227 90.7615 120.246 90.8576 120.285C90.9538 120.323 91.0414 120.38 91.1155 120.452C91.1896 120.525 91.2488 120.611 91.2896 120.706C91.3304 120.801 91.3521 120.903 91.3534 121.007Z" fill="white"/>
<path d="M90.1135 121.443C90.2019 121.535 90.3154 121.598 90.4397 121.625C90.564 121.652 90.6935 121.641 90.8117 121.594C90.93 121.547 91.0317 121.467 91.104 121.362C91.1763 121.257 91.216 121.134 91.2179 121.007C91.215 120.858 91.1579 120.715 91.0573 120.605C90.7252 120.864 90.4099 121.144 90.1135 121.443Z" fill="#263238"/>
<path d="M94.4809 121.007C94.4849 121.165 94.4415 121.322 94.3562 121.455C94.271 121.589 94.1478 121.695 94.0023 121.758C93.8569 121.822 93.6958 121.84 93.5397 121.812C93.3835 121.783 93.2394 121.709 93.1258 121.598C93.0121 121.488 92.9341 121.345 92.9016 121.19C92.8692 121.035 92.8838 120.873 92.9435 120.726C93.0033 120.579 93.1056 120.453 93.2372 120.365C93.3689 120.276 93.524 120.229 93.6827 120.229C93.7862 120.227 93.8889 120.246 93.9851 120.285C94.0812 120.323 94.1688 120.38 94.243 120.452C94.3171 120.525 94.3762 120.611 94.4171 120.706C94.4579 120.801 94.4796 120.903 94.4809 121.007Z" fill="white"/>
<path d="M93.2209 121.443C93.281 121.505 93.3528 121.554 93.4321 121.588C93.5114 121.621 93.5967 121.639 93.6828 121.639C93.7665 121.64 93.8495 121.624 93.9271 121.592C94.0047 121.561 94.0754 121.515 94.1351 121.456C94.1947 121.397 94.2423 121.327 94.2749 121.25C94.3075 121.173 94.3247 121.09 94.3253 121.007C94.3224 120.858 94.2653 120.715 94.1647 120.605C93.8326 120.864 93.5173 121.144 93.2209 121.443Z" fill="#263238"/>
<path d="M97.6083 121.007C97.6123 121.165 97.5689 121.322 97.4837 121.455C97.3984 121.589 97.2752 121.695 97.1298 121.758C96.9843 121.822 96.8232 121.84 96.6671 121.812C96.511 121.783 96.3669 121.709 96.2532 121.598C96.1396 121.488 96.0615 121.345 96.0291 121.19C95.9966 121.035 96.0112 120.873 96.071 120.726C96.1308 120.579 96.233 120.453 96.3647 120.365C96.4963 120.276 96.6514 120.229 96.8101 120.229C96.9136 120.227 97.0164 120.246 97.1125 120.285C97.2086 120.323 97.2963 120.38 97.3704 120.452C97.4445 120.525 97.5037 120.611 97.5445 120.706C97.5853 120.801 97.607 120.903 97.6083 121.007Z" fill="white"/>
<path d="M96.3533 121.443C96.4121 121.505 96.4829 121.555 96.5615 121.588C96.64 121.622 96.7246 121.639 96.8101 121.639C96.8938 121.64 96.9769 121.624 97.0545 121.592C97.1321 121.561 97.2027 121.515 97.2624 121.456C97.322 121.397 97.3696 121.327 97.4022 121.25C97.4349 121.173 97.452 121.09 97.4527 121.007C97.4497 120.858 97.3926 120.715 97.292 120.605C96.9615 120.864 96.6479 121.144 96.3533 121.443Z" fill="#263238"/>
<path d="M100.741 121.007C100.746 121.167 100.703 121.325 100.617 121.46C100.532 121.596 100.408 121.702 100.262 121.767C100.115 121.831 99.9525 121.851 99.795 121.822C99.6374 121.794 99.492 121.719 99.3773 121.607C99.2626 121.495 99.184 121.352 99.1515 121.195C99.119 121.038 99.1341 120.875 99.1948 120.727C99.2556 120.579 99.3593 120.452 99.4925 120.363C99.6257 120.275 99.7825 120.228 99.9426 120.229C100.046 120.227 100.149 120.246 100.245 120.285C100.341 120.323 100.429 120.38 100.503 120.452C100.577 120.525 100.636 120.611 100.677 120.706C100.718 120.801 100.739 120.903 100.741 121.007Z" fill="white"/>
<path d="M99.481 121.443C99.5686 121.535 99.6819 121.599 99.8061 121.627C99.9304 121.654 100.06 121.643 100.178 121.596C100.296 121.549 100.398 121.468 100.47 121.363C100.541 121.258 100.58 121.134 100.58 121.007C100.58 120.857 100.522 120.714 100.42 120.605C100.089 120.864 99.7756 121.144 99.481 121.443Z" fill="#263238"/>
<path d="M103.868 121.007C103.872 121.165 103.829 121.322 103.744 121.455C103.658 121.589 103.535 121.695 103.39 121.758C103.244 121.822 103.083 121.84 102.927 121.812C102.771 121.783 102.627 121.709 102.513 121.598C102.4 121.488 102.322 121.345 102.289 121.19C102.257 121.035 102.271 120.873 102.331 120.726C102.391 120.579 102.493 120.453 102.625 120.365C102.756 120.276 102.911 120.229 103.07 120.229C103.174 120.227 103.276 120.246 103.373 120.285C103.469 120.323 103.556 120.38 103.63 120.452C103.705 120.525 103.764 120.611 103.805 120.706C103.845 120.801 103.867 120.903 103.868 121.007Z" fill="white"/>
<path d="M102.608 121.443C102.697 121.535 102.81 121.598 102.935 121.625C103.059 121.652 103.188 121.641 103.307 121.594C103.425 121.547 103.527 121.467 103.599 121.362C103.671 121.257 103.711 121.134 103.713 121.007C103.71 120.858 103.653 120.715 103.552 120.605C103.219 120.863 102.904 121.143 102.608 121.443Z" fill="#263238"/>
<path d="M106.996 121.007C107 121.165 106.956 121.322 106.871 121.455C106.786 121.589 106.663 121.695 106.517 121.758C106.372 121.822 106.211 121.84 106.055 121.812C105.898 121.783 105.754 121.709 105.641 121.598C105.527 121.488 105.449 121.345 105.417 121.19C105.384 121.035 105.399 120.873 105.458 120.726C105.518 120.579 105.62 120.453 105.752 120.365C105.884 120.276 106.039 120.229 106.198 120.229C106.301 120.227 106.404 120.246 106.5 120.285C106.596 120.323 106.684 120.38 106.758 120.452C106.832 120.525 106.891 120.611 106.932 120.706C106.973 120.801 106.994 120.903 106.996 121.007Z" fill="white"/>
<path d="M105.736 121.443C105.796 121.505 105.868 121.554 105.947 121.588C106.026 121.621 106.112 121.639 106.198 121.639C106.281 121.64 106.364 121.624 106.442 121.592C106.52 121.561 106.59 121.515 106.65 121.456C106.71 121.397 106.757 121.327 106.79 121.25C106.822 121.173 106.84 121.09 106.84 121.007C106.837 120.858 106.78 120.715 106.68 120.605C106.347 120.864 106.032 121.144 105.736 121.443Z" fill="#263238"/>
<path d="M141.659 116.032C141.662 116.19 141.618 116.346 141.532 116.479C141.446 116.613 141.322 116.717 141.177 116.78C141.031 116.843 140.87 116.861 140.715 116.832C140.559 116.803 140.415 116.728 140.302 116.617C140.189 116.506 140.111 116.364 140.079 116.208C140.047 116.053 140.062 115.892 140.122 115.745C140.182 115.598 140.284 115.473 140.416 115.384C140.547 115.296 140.702 115.249 140.861 115.249C140.965 115.248 141.068 115.267 141.164 115.305C141.261 115.344 141.349 115.402 141.423 115.474C141.497 115.547 141.556 115.634 141.597 115.73C141.637 115.825 141.658 115.928 141.659 116.032Z" fill="white"/>
<path d="M140.404 116.464C140.491 116.555 140.604 116.619 140.728 116.647C140.852 116.674 140.981 116.664 141.099 116.618C141.217 116.571 141.318 116.491 141.39 116.386C141.462 116.282 141.502 116.159 141.503 116.032C141.501 115.881 141.444 115.736 141.343 115.625C141.012 115.884 140.698 116.164 140.404 116.464Z" fill="#263238"/>
<path d="M144.791 116.032C144.795 116.192 144.752 116.349 144.666 116.484C144.58 116.619 144.455 116.725 144.309 116.789C144.162 116.852 144 116.871 143.842 116.842C143.685 116.813 143.54 116.737 143.426 116.625C143.312 116.513 143.234 116.37 143.202 116.213C143.17 116.057 143.185 115.894 143.246 115.746C143.307 115.598 143.411 115.472 143.544 115.383C143.677 115.295 143.833 115.248 143.993 115.249C144.097 115.248 144.2 115.267 144.297 115.305C144.393 115.344 144.481 115.402 144.555 115.474C144.629 115.547 144.689 115.634 144.729 115.73C144.77 115.825 144.791 115.928 144.791 116.032Z" fill="white"/>
<path d="M143.531 116.464C143.619 116.555 143.731 116.619 143.855 116.647C143.979 116.674 144.108 116.664 144.226 116.618C144.344 116.571 144.446 116.491 144.518 116.386C144.59 116.282 144.629 116.159 144.631 116.032C144.631 115.881 144.573 115.735 144.47 115.625C144.139 115.884 143.826 116.164 143.531 116.464Z" fill="#263238"/>
<path d="M147.919 116.032C147.922 116.19 147.877 116.346 147.792 116.479C147.706 116.613 147.582 116.717 147.437 116.78C147.291 116.843 147.13 116.861 146.974 116.832C146.818 116.803 146.675 116.728 146.562 116.617C146.449 116.506 146.371 116.364 146.339 116.208C146.307 116.053 146.322 115.892 146.382 115.745C146.442 115.598 146.544 115.473 146.676 115.384C146.807 115.296 146.962 115.249 147.121 115.249C147.224 115.248 147.328 115.267 147.424 115.305C147.521 115.344 147.608 115.402 147.683 115.474C147.757 115.547 147.816 115.634 147.856 115.73C147.897 115.825 147.918 115.928 147.919 116.032Z" fill="white"/>
<path d="M146.659 116.464C146.747 116.555 146.86 116.618 146.984 116.645C147.108 116.672 147.237 116.662 147.355 116.615C147.473 116.569 147.574 116.489 147.647 116.385C147.72 116.282 147.76 116.159 147.763 116.032C147.761 115.881 147.704 115.736 147.602 115.625C147.269 115.883 146.954 116.163 146.659 116.464Z" fill="#263238"/>
<path d="M151.046 116.032C151.049 116.19 151.005 116.346 150.919 116.479C150.833 116.613 150.71 116.717 150.564 116.78C150.418 116.843 150.258 116.861 150.102 116.832C149.946 116.803 149.802 116.728 149.689 116.617C149.576 116.506 149.498 116.364 149.466 116.208C149.434 116.053 149.449 115.892 149.509 115.745C149.569 115.598 149.671 115.473 149.803 115.384C149.935 115.296 150.089 115.249 150.248 115.249C150.352 115.248 150.455 115.267 150.552 115.305C150.648 115.344 150.736 115.402 150.81 115.474C150.884 115.547 150.943 115.634 150.984 115.73C151.024 115.825 151.046 115.928 151.046 116.032Z" fill="white"/>
<path d="M149.786 116.464C149.846 116.525 149.918 116.574 149.998 116.608C150.077 116.642 150.162 116.659 150.248 116.659C150.332 116.661 150.415 116.645 150.492 116.615C150.57 116.584 150.64 116.538 150.7 116.479C150.76 116.421 150.808 116.352 150.84 116.275C150.873 116.198 150.89 116.115 150.891 116.032C150.889 115.881 150.832 115.736 150.73 115.625C150.398 115.884 150.083 116.164 149.786 116.464Z" fill="#263238"/>
<path d="M154.174 116.032C154.177 116.19 154.133 116.346 154.047 116.479C153.961 116.613 153.837 116.717 153.692 116.78C153.546 116.843 153.385 116.861 153.229 116.832C153.074 116.803 152.93 116.728 152.817 116.617C152.704 116.506 152.626 116.364 152.594 116.208C152.562 116.053 152.577 115.892 152.637 115.745C152.697 115.598 152.799 115.473 152.931 115.384C153.062 115.296 153.217 115.249 153.376 115.249C153.48 115.248 153.583 115.267 153.679 115.305C153.776 115.344 153.864 115.402 153.938 115.474C154.012 115.547 154.071 115.634 154.111 115.73C154.152 115.825 154.173 115.928 154.174 116.032Z" fill="white"/>
<path d="M152.919 116.464C153.006 116.555 153.119 116.619 153.243 116.647C153.366 116.674 153.496 116.664 153.614 116.618C153.732 116.571 153.833 116.491 153.905 116.386C153.977 116.282 154.017 116.159 154.018 116.032C154.016 115.881 153.959 115.736 153.857 115.625C153.526 115.883 153.212 116.163 152.919 116.464Z" fill="#263238"/>
<path d="M157.306 116.032C157.31 116.192 157.266 116.349 157.181 116.484C157.095 116.618 156.971 116.724 156.824 116.788C156.678 116.852 156.516 116.871 156.359 116.842C156.202 116.813 156.057 116.739 155.942 116.627C155.828 116.516 155.75 116.373 155.717 116.216C155.684 116.06 155.699 115.897 155.759 115.749C155.819 115.602 155.922 115.475 156.055 115.386C156.187 115.297 156.343 115.249 156.503 115.249C156.607 115.248 156.71 115.267 156.807 115.305C156.904 115.344 156.992 115.401 157.067 115.474C157.141 115.547 157.201 115.633 157.242 115.729C157.283 115.825 157.305 115.928 157.306 116.032Z" fill="white"/>
<path d="M156.046 116.464C156.134 116.555 156.246 116.619 156.37 116.647C156.494 116.674 156.623 116.664 156.741 116.618C156.859 116.571 156.961 116.491 157.033 116.386C157.105 116.282 157.144 116.159 157.146 116.032C157.144 115.881 157.087 115.736 156.985 115.625C156.654 115.884 156.341 116.164 156.046 116.464Z" fill="#263238"/>
<path d="M160.434 116.032C160.438 116.192 160.394 116.349 160.308 116.484C160.222 116.619 160.098 116.725 159.951 116.789C159.804 116.852 159.642 116.871 159.485 116.842C159.327 116.813 159.182 116.737 159.068 116.625C158.954 116.513 158.876 116.37 158.844 116.213C158.812 116.057 158.827 115.894 158.888 115.746C158.949 115.598 159.053 115.472 159.186 115.383C159.319 115.295 159.476 115.248 159.636 115.249C159.74 115.248 159.843 115.267 159.939 115.305C160.036 115.344 160.123 115.402 160.198 115.474C160.272 115.547 160.331 115.634 160.371 115.73C160.412 115.825 160.433 115.928 160.434 116.032Z" fill="white"/>
<path d="M159.174 116.464C159.261 116.555 159.374 116.619 159.498 116.647C159.621 116.674 159.75 116.664 159.869 116.618C159.987 116.571 160.088 116.491 160.16 116.386C160.232 116.282 160.271 116.159 160.273 116.032C160.273 115.881 160.216 115.735 160.112 115.625C159.782 115.884 159.468 116.164 159.174 116.464Z" fill="#263238"/>
<path d="M163.561 116.032C163.564 116.19 163.52 116.346 163.434 116.479C163.348 116.613 163.224 116.717 163.079 116.78C162.933 116.843 162.772 116.861 162.617 116.832C162.461 116.803 162.317 116.728 162.204 116.617C162.091 116.506 162.013 116.364 161.981 116.208C161.949 116.053 161.964 115.892 162.024 115.745C162.084 115.598 162.186 115.473 162.318 115.384C162.449 115.296 162.604 115.249 162.763 115.249C162.867 115.248 162.97 115.267 163.066 115.305C163.163 115.344 163.251 115.402 163.325 115.474C163.399 115.547 163.458 115.634 163.499 115.73C163.539 115.825 163.56 115.928 163.561 116.032Z" fill="white"/>
<path d="M162.301 116.464C162.389 116.555 162.502 116.618 162.626 116.645C162.75 116.672 162.879 116.662 162.997 116.615C163.115 116.569 163.217 116.489 163.289 116.385C163.362 116.282 163.403 116.159 163.405 116.032C163.404 115.881 163.347 115.736 163.245 115.625C162.912 115.883 162.596 116.163 162.301 116.464Z" fill="#263238"/>
<path d="M166.689 116.032C166.691 116.19 166.647 116.346 166.561 116.479C166.476 116.613 166.352 116.717 166.206 116.78C166.061 116.843 165.9 116.861 165.744 116.832C165.588 116.803 165.445 116.728 165.331 116.617C165.218 116.506 165.141 116.364 165.109 116.208C165.077 116.053 165.092 115.892 165.152 115.745C165.212 115.598 165.314 115.473 165.445 115.384C165.577 115.296 165.732 115.249 165.89 115.249C165.994 115.248 166.097 115.267 166.194 115.305C166.29 115.344 166.378 115.402 166.452 115.474C166.527 115.547 166.586 115.634 166.626 115.73C166.667 115.825 166.688 115.928 166.689 116.032Z" fill="white"/>
<path d="M165.414 116.464C165.474 116.525 165.545 116.574 165.625 116.608C165.704 116.642 165.789 116.659 165.875 116.659C165.959 116.661 166.042 116.645 166.119 116.615C166.197 116.584 166.268 116.538 166.327 116.479C166.387 116.421 166.435 116.352 166.467 116.275C166.5 116.198 166.517 116.115 166.518 116.032C166.516 115.881 166.459 115.736 166.357 115.625C166.025 115.884 165.71 116.164 165.414 116.464Z" fill="#263238"/>
<path d="M169.816 116.032C169.819 116.19 169.775 116.346 169.689 116.479C169.603 116.613 169.479 116.717 169.334 116.78C169.188 116.843 169.027 116.861 168.871 116.832C168.716 116.803 168.572 116.728 168.459 116.617C168.346 116.506 168.268 116.364 168.236 116.208C168.204 116.053 168.219 115.892 168.279 115.745C168.339 115.598 168.441 115.473 168.573 115.384C168.704 115.296 168.859 115.249 169.018 115.249C169.122 115.248 169.225 115.267 169.321 115.305C169.418 115.344 169.506 115.402 169.58 115.474C169.654 115.547 169.713 115.634 169.754 115.73C169.794 115.825 169.815 115.928 169.816 116.032Z" fill="white"/>
<path d="M168.561 116.464C168.648 116.555 168.761 116.619 168.885 116.647C169.009 116.674 169.138 116.664 169.256 116.618C169.374 116.571 169.475 116.491 169.548 116.386C169.62 116.282 169.659 116.159 169.66 116.032C169.659 115.881 169.602 115.736 169.5 115.625C169.168 115.883 168.854 116.163 168.561 116.464Z" fill="#263238"/>
<path d="M172.944 116.032C172.948 116.192 172.904 116.349 172.818 116.484C172.732 116.618 172.608 116.724 172.462 116.788C172.316 116.852 172.153 116.871 171.996 116.842C171.839 116.813 171.694 116.739 171.58 116.627C171.466 116.516 171.387 116.373 171.354 116.216C171.322 116.06 171.336 115.897 171.397 115.749C171.457 115.602 171.56 115.475 171.692 115.386C171.825 115.297 171.981 115.249 172.14 115.249C172.245 115.248 172.348 115.267 172.445 115.305C172.541 115.344 172.63 115.401 172.704 115.474C172.779 115.547 172.838 115.633 172.879 115.729C172.92 115.825 172.942 115.928 172.944 116.032Z" fill="white"/>
<path d="M171.688 116.464C171.776 116.555 171.889 116.619 172.012 116.647C172.136 116.674 172.265 116.664 172.383 116.618C172.501 116.571 172.603 116.491 172.675 116.386C172.747 116.282 172.786 116.159 172.788 116.032C172.786 115.881 172.729 115.736 172.627 115.625C172.297 115.884 171.983 116.164 171.688 116.464Z" fill="#263238"/>
<path d="M176.076 116.032C176.079 116.19 176.035 116.346 175.949 116.479C175.863 116.613 175.739 116.717 175.594 116.78C175.448 116.843 175.287 116.861 175.131 116.832C174.976 116.803 174.832 116.728 174.719 116.617C174.606 116.506 174.528 116.364 174.496 116.208C174.464 116.053 174.479 115.892 174.539 115.745C174.599 115.598 174.701 115.473 174.833 115.384C174.964 115.296 175.119 115.249 175.278 115.249C175.382 115.248 175.485 115.267 175.581 115.305C175.678 115.344 175.766 115.402 175.84 115.474C175.914 115.547 175.973 115.634 176.014 115.73C176.054 115.825 176.075 115.928 176.076 116.032Z" fill="white"/>
<path d="M174.816 116.464C174.876 116.526 174.948 116.575 175.027 116.608C175.106 116.642 175.192 116.659 175.278 116.659C175.361 116.66 175.443 116.644 175.52 116.613C175.597 116.582 175.667 116.536 175.726 116.478C175.786 116.419 175.833 116.35 175.865 116.274C175.898 116.197 175.915 116.115 175.915 116.032C175.916 115.881 175.858 115.735 175.755 115.625C175.424 115.884 175.111 116.164 174.816 116.464Z" fill="#263238"/>
<path d="M179.203 116.032C179.206 116.19 179.162 116.346 179.076 116.479C178.99 116.613 178.867 116.717 178.721 116.78C178.576 116.843 178.415 116.861 178.259 116.832C178.103 116.803 177.96 116.728 177.846 116.617C177.733 116.506 177.656 116.364 177.624 116.208C177.592 116.053 177.607 115.892 177.666 115.745C177.726 115.598 177.829 115.473 177.96 115.384C178.092 115.296 178.247 115.249 178.405 115.249C178.509 115.248 178.612 115.267 178.709 115.305C178.805 115.344 178.893 115.402 178.967 115.474C179.041 115.547 179.1 115.634 179.141 115.73C179.182 115.825 179.203 115.928 179.203 116.032Z" fill="white"/>
<path d="M177.964 116.464C178.052 116.555 178.165 116.618 178.289 116.645C178.412 116.672 178.542 116.662 178.66 116.615C178.778 116.569 178.879 116.489 178.952 116.385C179.025 116.282 179.065 116.159 179.068 116.032C179.066 115.881 179.009 115.736 178.907 115.625C178.575 115.884 178.26 116.164 177.964 116.464Z" fill="#263238"/>
<path d="M182.331 116.032C182.334 116.19 182.29 116.346 182.204 116.479C182.118 116.613 181.994 116.717 181.849 116.78C181.703 116.843 181.542 116.861 181.386 116.832C181.231 116.803 181.087 116.728 180.974 116.617C180.861 116.506 180.783 116.364 180.751 116.208C180.719 116.053 180.734 115.892 180.794 115.745C180.854 115.598 180.956 115.473 181.088 115.384C181.219 115.296 181.374 115.249 181.533 115.249C181.637 115.248 181.74 115.267 181.836 115.305C181.933 115.344 182.02 115.402 182.095 115.474C182.169 115.547 182.228 115.634 182.268 115.73C182.309 115.825 182.33 115.928 182.331 116.032Z" fill="white"/>
<path d="M181.071 116.464C181.131 116.525 181.203 116.574 181.282 116.608C181.361 116.642 181.446 116.659 181.533 116.659C181.616 116.661 181.699 116.645 181.777 116.615C181.854 116.584 181.925 116.538 181.985 116.479C182.044 116.421 182.092 116.352 182.125 116.275C182.157 116.198 182.175 116.115 182.175 116.032C182.174 115.881 182.116 115.736 182.015 115.625C181.682 115.884 181.367 116.164 181.071 116.464Z" fill="#263238"/>
<path d="M141.659 121.007C141.663 121.165 141.619 121.322 141.534 121.455C141.449 121.589 141.326 121.695 141.18 121.758C141.035 121.822 140.874 121.84 140.718 121.812C140.561 121.783 140.417 121.709 140.304 121.598C140.19 121.488 140.112 121.345 140.08 121.19C140.047 121.035 140.062 120.873 140.122 120.726C140.181 120.579 140.284 120.453 140.415 120.365C140.547 120.276 140.702 120.229 140.861 120.229C140.964 120.227 141.067 120.246 141.163 120.285C141.259 120.323 141.347 120.38 141.421 120.452C141.495 120.525 141.554 120.611 141.595 120.706C141.636 120.801 141.658 120.903 141.659 121.007Z" fill="white"/>
<path d="M140.404 121.443C140.463 121.505 140.533 121.555 140.612 121.588C140.691 121.622 140.775 121.639 140.861 121.639C140.944 121.64 141.027 121.624 141.105 121.592C141.183 121.561 141.253 121.515 141.313 121.456C141.373 121.397 141.42 121.327 141.453 121.25C141.485 121.173 141.503 121.09 141.503 121.007C141.5 120.858 141.443 120.715 141.343 120.605C141.012 120.864 140.698 121.144 140.404 121.443Z" fill="#263238"/>
<path d="M144.791 121.007C144.796 121.167 144.753 121.325 144.668 121.46C144.583 121.596 144.459 121.702 144.312 121.767C144.166 121.831 144.003 121.851 143.845 121.822C143.688 121.794 143.542 121.719 143.428 121.607C143.313 121.495 143.235 121.352 143.202 121.195C143.17 121.038 143.185 120.875 143.245 120.727C143.306 120.579 143.41 120.452 143.543 120.363C143.676 120.275 143.833 120.228 143.993 120.229C144.097 120.227 144.199 120.246 144.296 120.285C144.392 120.323 144.479 120.38 144.553 120.452C144.628 120.525 144.687 120.611 144.727 120.706C144.768 120.801 144.79 120.903 144.791 121.007Z" fill="white"/>
<path d="M143.531 121.443C143.619 121.535 143.732 121.599 143.856 121.627C143.981 121.654 144.11 121.643 144.228 121.596C144.347 121.549 144.448 121.468 144.52 121.363C144.591 121.258 144.63 121.134 144.631 121.007C144.63 120.857 144.573 120.714 144.47 120.605C144.139 120.864 143.826 121.144 143.531 121.443Z" fill="#263238"/>
<path d="M147.919 121.007C147.923 121.165 147.879 121.322 147.794 121.455C147.709 121.589 147.586 121.695 147.44 121.758C147.295 121.822 147.134 121.84 146.978 121.812C146.822 121.783 146.677 121.709 146.564 121.598C146.45 121.488 146.372 121.345 146.34 121.19C146.307 121.035 146.322 120.873 146.382 120.726C146.441 120.579 146.544 120.453 146.675 120.365C146.807 120.276 146.962 120.229 147.121 120.229C147.224 120.227 147.327 120.246 147.423 120.285C147.519 120.323 147.607 120.38 147.681 120.452C147.755 120.525 147.814 120.611 147.855 120.706C147.896 120.801 147.918 120.903 147.919 121.007Z" fill="white"/>
<path d="M146.659 121.443C146.747 121.535 146.861 121.598 146.985 121.625C147.109 121.652 147.239 121.641 147.357 121.594C147.475 121.547 147.577 121.467 147.649 121.362C147.721 121.257 147.761 121.134 147.763 121.007C147.76 120.858 147.703 120.715 147.602 120.605C147.269 120.863 146.954 121.143 146.659 121.443Z" fill="#263238"/>
<path d="M151.046 121.007C151.05 121.165 151.007 121.322 150.922 121.455C150.836 121.589 150.713 121.695 150.568 121.758C150.422 121.822 150.261 121.84 150.105 121.812C149.949 121.783 149.805 121.709 149.691 121.598C149.578 121.488 149.5 121.345 149.467 121.19C149.435 121.035 149.449 120.873 149.509 120.726C149.569 120.579 149.671 120.453 149.803 120.365C149.934 120.276 150.089 120.229 150.248 120.229C150.352 120.227 150.454 120.246 150.551 120.285C150.647 120.323 150.734 120.38 150.808 120.452C150.883 120.525 150.942 120.611 150.982 120.706C151.023 120.801 151.045 120.903 151.046 121.007Z" fill="white"/>
<path d="M149.786 121.443C149.846 121.505 149.918 121.554 149.998 121.588C150.077 121.621 150.162 121.639 150.248 121.639C150.332 121.64 150.415 121.624 150.493 121.592C150.57 121.561 150.641 121.515 150.701 121.456C150.76 121.397 150.808 121.327 150.84 121.25C150.873 121.173 150.89 121.09 150.891 121.007C150.888 120.858 150.831 120.715 150.73 120.605C150.398 120.864 150.083 121.144 149.786 121.443Z" fill="#263238"/>
<path d="M154.174 121.007C154.178 121.165 154.134 121.322 154.049 121.455C153.964 121.589 153.841 121.695 153.695 121.758C153.55 121.822 153.389 121.84 153.233 121.812C153.076 121.783 152.932 121.709 152.819 121.598C152.705 121.488 152.627 121.345 152.595 121.19C152.562 121.035 152.577 120.873 152.636 120.726C152.696 120.579 152.798 120.453 152.93 120.365C153.062 120.276 153.217 120.229 153.376 120.229C153.479 120.227 153.582 120.246 153.678 120.285C153.774 120.323 153.862 120.38 153.936 120.452C154.01 120.525 154.069 120.611 154.11 120.706C154.151 120.801 154.172 120.903 154.174 121.007Z" fill="white"/>
<path d="M152.919 121.443C152.977 121.505 153.048 121.555 153.127 121.588C153.205 121.622 153.29 121.639 153.376 121.639C153.459 121.64 153.542 121.624 153.62 121.592C153.697 121.561 153.768 121.515 153.828 121.456C153.887 121.397 153.935 121.327 153.968 121.25C154 121.173 154.017 121.09 154.018 121.007C154.015 120.858 153.958 120.715 153.857 120.605C153.526 120.863 153.212 121.143 152.919 121.443Z" fill="#263238"/>
<path d="M157.306 121.007C157.311 121.167 157.268 121.324 157.183 121.46C157.098 121.595 156.974 121.702 156.828 121.766C156.682 121.831 156.52 121.851 156.362 121.822C156.205 121.794 156.059 121.72 155.945 121.609C155.83 121.497 155.751 121.354 155.718 121.198C155.684 121.041 155.699 120.879 155.759 120.73C155.819 120.582 155.922 120.455 156.054 120.366C156.187 120.276 156.343 120.229 156.503 120.229C156.713 120.226 156.915 120.306 157.065 120.452C157.216 120.598 157.302 120.797 157.306 121.007Z" fill="white"/>
<path d="M156.046 121.443C156.105 121.505 156.176 121.555 156.254 121.588C156.333 121.622 156.418 121.639 156.503 121.639C156.587 121.64 156.67 121.624 156.747 121.592C156.825 121.561 156.896 121.515 156.955 121.456C157.015 121.397 157.062 121.327 157.095 121.25C157.128 121.173 157.145 121.09 157.146 121.007C157.143 120.858 157.085 120.715 156.985 120.605C156.654 120.864 156.341 121.144 156.046 121.443Z" fill="#263238"/>
<path d="M160.434 121.007C160.439 121.167 160.396 121.325 160.31 121.46C160.225 121.596 160.101 121.702 159.954 121.767C159.808 121.831 159.645 121.851 159.488 121.822C159.33 121.794 159.185 121.719 159.07 121.607C158.956 121.495 158.877 121.352 158.844 121.195C158.812 121.038 158.827 120.875 158.888 120.727C158.948 120.579 159.052 120.452 159.185 120.363C159.319 120.275 159.475 120.228 159.635 120.229C159.739 120.227 159.842 120.246 159.938 120.285C160.034 120.323 160.122 120.38 160.196 120.452C160.27 120.525 160.329 120.611 160.37 120.706C160.411 120.801 160.432 120.903 160.434 121.007Z" fill="white"/>
<path d="M159.174 121.443C159.261 121.535 159.375 121.599 159.499 121.627C159.623 121.654 159.753 121.643 159.871 121.596C159.989 121.549 160.09 121.468 160.162 121.363C160.234 121.258 160.272 121.134 160.273 121.007C160.272 120.857 160.215 120.714 160.112 120.605C159.782 120.864 159.468 121.144 159.174 121.443Z" fill="#263238"/>
<path d="M163.561 121.007C163.565 121.165 163.522 121.322 163.437 121.455C163.351 121.589 163.228 121.695 163.083 121.758C162.937 121.822 162.776 121.84 162.62 121.812C162.464 121.783 162.32 121.709 162.206 121.598C162.092 121.488 162.014 121.345 161.982 121.19C161.95 121.035 161.964 120.873 162.024 120.726C162.084 120.579 162.186 120.453 162.318 120.365C162.449 120.276 162.604 120.229 162.763 120.229C162.867 120.227 162.969 120.246 163.065 120.285C163.162 120.323 163.249 120.38 163.323 120.452C163.397 120.525 163.457 120.611 163.497 120.706C163.538 120.801 163.56 120.903 163.561 121.007Z" fill="white"/>
<path d="M162.301 121.443C162.389 121.535 162.503 121.598 162.627 121.625C162.752 121.652 162.881 121.641 162.999 121.594C163.117 121.547 163.219 121.467 163.292 121.362C163.364 121.257 163.403 121.134 163.405 121.007C163.403 120.858 163.345 120.715 163.245 120.605C162.912 120.863 162.596 121.143 162.301 121.443Z" fill="#263238"/>
<path d="M166.689 121.007C166.693 121.165 166.649 121.322 166.564 121.455C166.479 121.589 166.356 121.695 166.21 121.758C166.065 121.822 165.904 121.84 165.747 121.812C165.591 121.783 165.447 121.709 165.334 121.598C165.22 121.488 165.142 121.345 165.109 121.19C165.077 121.035 165.092 120.873 165.151 120.726C165.211 120.579 165.313 120.453 165.445 120.365C165.577 120.276 165.732 120.229 165.89 120.229C165.994 120.227 166.097 120.246 166.193 120.285C166.289 120.323 166.377 120.38 166.451 120.452C166.525 120.525 166.584 120.611 166.625 120.706C166.666 120.801 166.687 120.903 166.689 121.007Z" fill="white"/>
<path d="M165.414 121.443C165.474 121.505 165.545 121.554 165.625 121.588C165.704 121.621 165.789 121.639 165.875 121.639C165.959 121.64 166.042 121.624 166.12 121.592C166.197 121.561 166.268 121.515 166.328 121.456C166.387 121.397 166.435 121.327 166.468 121.25C166.5 121.173 166.517 121.09 166.518 121.007C166.515 120.858 166.458 120.715 166.357 120.605C166.025 120.864 165.71 121.144 165.414 121.443Z" fill="#263238"/>
<path d="M169.816 121.007C169.82 121.165 169.777 121.322 169.691 121.455C169.606 121.589 169.483 121.695 169.338 121.758C169.192 121.822 169.031 121.84 168.875 121.812C168.719 121.783 168.575 121.709 168.461 121.598C168.347 121.488 168.269 121.345 168.237 121.19C168.204 121.035 168.219 120.873 168.279 120.726C168.339 120.579 168.441 120.453 168.572 120.365C168.704 120.276 168.859 120.229 169.018 120.229C169.121 120.227 169.224 120.246 169.32 120.285C169.416 120.323 169.504 120.38 169.578 120.452C169.652 120.525 169.711 120.611 169.752 120.706C169.793 120.801 169.815 120.903 169.816 121.007Z" fill="white"/>
<path d="M168.561 121.443C168.62 121.505 168.691 121.555 168.769 121.588C168.848 121.622 168.932 121.639 169.018 121.639C169.102 121.64 169.185 121.624 169.262 121.592C169.34 121.561 169.41 121.515 169.47 121.456C169.53 121.397 169.577 121.327 169.61 121.25C169.643 121.173 169.66 121.09 169.66 121.007C169.657 120.858 169.6 120.715 169.5 120.605C169.168 120.863 168.854 121.143 168.561 121.443Z" fill="#263238"/>
<path d="M172.943 121.007C172.948 121.167 172.906 121.324 172.82 121.46C172.735 121.595 172.612 121.702 172.465 121.766C172.319 121.831 172.157 121.851 171.999 121.822C171.842 121.794 171.697 121.72 171.582 121.609C171.467 121.497 171.388 121.354 171.355 121.198C171.322 121.041 171.336 120.879 171.396 120.73C171.456 120.582 171.559 120.455 171.691 120.366C171.824 120.276 171.98 120.229 172.14 120.229C172.35 120.226 172.552 120.306 172.702 120.452C172.853 120.598 172.939 120.797 172.943 121.007Z" fill="white"/>
<path d="M171.688 121.443C171.747 121.505 171.818 121.555 171.897 121.588C171.975 121.622 172.06 121.639 172.145 121.639C172.229 121.64 172.312 121.624 172.39 121.592C172.467 121.561 172.538 121.515 172.598 121.456C172.657 121.397 172.705 121.327 172.737 121.25C172.77 121.173 172.787 121.09 172.788 121.007C172.785 120.858 172.728 120.715 172.627 120.605C172.297 120.864 171.983 121.144 171.688 121.443Z" fill="#263238"/>
<path d="M176.076 121.007C176.08 121.165 176.037 121.322 175.951 121.455C175.866 121.589 175.743 121.695 175.598 121.758C175.452 121.822 175.291 121.84 175.135 121.812C174.979 121.783 174.835 121.709 174.721 121.598C174.607 121.488 174.529 121.345 174.497 121.19C174.464 121.035 174.479 120.873 174.539 120.726C174.599 120.579 174.701 120.453 174.832 120.365C174.964 120.276 175.119 120.229 175.278 120.229C175.381 120.227 175.484 120.246 175.58 120.285C175.676 120.323 175.764 120.38 175.838 120.452C175.912 120.525 175.971 120.611 176.012 120.706C176.053 120.801 176.075 120.903 176.076 121.007Z" fill="white"/>
<path d="M174.816 121.443C174.904 121.535 175.017 121.599 175.141 121.627C175.265 121.654 175.395 121.643 175.513 121.596C175.631 121.549 175.733 121.468 175.804 121.363C175.876 121.258 175.915 121.134 175.915 121.007C175.915 120.857 175.857 120.714 175.755 120.605C175.424 120.864 175.111 121.144 174.816 121.443Z" fill="#263238"/>
<path d="M179.204 121.007C179.208 121.165 179.164 121.322 179.079 121.455C178.994 121.589 178.87 121.695 178.725 121.758C178.58 121.822 178.418 121.84 178.262 121.812C178.106 121.783 177.962 121.709 177.848 121.598C177.735 121.488 177.657 121.345 177.624 121.19C177.592 121.035 177.606 120.873 177.666 120.726C177.726 120.579 177.828 120.453 177.96 120.365C178.092 120.276 178.247 120.229 178.405 120.229C178.509 120.227 178.612 120.246 178.708 120.285C178.804 120.323 178.891 120.38 178.966 120.452C179.04 120.525 179.099 120.611 179.14 120.706C179.181 120.801 179.202 120.903 179.204 121.007Z" fill="white"/>
<path d="M177.964 121.443C178.052 121.535 178.166 121.598 178.29 121.625C178.414 121.652 178.544 121.641 178.662 121.594C178.78 121.547 178.882 121.467 178.954 121.362C179.026 121.257 179.066 121.134 179.068 121.007C179.065 120.858 179.008 120.715 178.907 120.605C178.575 120.864 178.26 121.144 177.964 121.443Z" fill="#263238"/>
<path d="M182.331 121.007C182.335 121.165 182.292 121.322 182.206 121.455C182.121 121.589 181.998 121.695 181.852 121.758C181.707 121.822 181.546 121.84 181.39 121.812C181.234 121.783 181.09 121.709 180.976 121.598C180.862 121.488 180.784 121.345 180.752 121.19C180.719 121.035 180.734 120.873 180.794 120.726C180.853 120.579 180.956 120.453 181.087 120.365C181.219 120.276 181.374 120.229 181.533 120.229C181.636 120.227 181.739 120.246 181.835 120.285C181.931 120.323 182.019 120.38 182.093 120.452C182.167 120.525 182.226 120.611 182.267 120.706C182.308 120.801 182.33 120.903 182.331 121.007Z" fill="white"/>
<path d="M181.071 121.443C181.131 121.505 181.203 121.554 181.282 121.588C181.361 121.621 181.446 121.639 181.533 121.639C181.616 121.64 181.699 121.624 181.777 121.592C181.855 121.561 181.925 121.515 181.985 121.456C182.045 121.397 182.092 121.327 182.125 121.25C182.157 121.173 182.175 121.09 182.175 121.007C182.172 120.858 182.115 120.715 182.015 120.605C181.682 120.864 181.367 121.144 181.071 121.443Z" fill="#263238"/>
<path d="M136.001 112.171H111.8C111.274 112.172 110.77 111.966 110.394 111.598C110.019 111.23 109.803 110.729 109.792 110.204V99.0392C109.792 91.4238 116.122 85.2241 123.903 85.2241C131.684 85.2241 138.019 91.4238 138.019 99.0392V110.204C138.009 110.731 137.791 111.233 137.414 111.601C137.036 111.969 136.529 112.174 136.001 112.171ZM113.808 108.256H133.988V99.0392C133.988 96.3631 132.925 93.7966 131.033 91.9043C129.141 90.012 126.574 88.949 123.898 88.949C121.222 88.949 118.656 90.012 116.763 91.9043C114.871 93.7966 113.808 96.3631 113.808 99.0392V108.256Z" fill="white" stroke="#263238" stroke-linecap="round" stroke-linejoin="round"/>
<path d="M139.104 106.79H108.291V132.282H139.104V106.79Z" fill="#FDDFBB" stroke="#263238" stroke-linecap="round" stroke-linejoin="round"/>
<path d="M126.905 117.377C126.872 116.51 126.503 115.689 125.878 115.087C125.252 114.485 124.417 114.149 123.549 114.149C122.681 114.149 121.847 114.485 121.221 115.087C120.595 115.689 120.227 116.51 120.193 117.377C120.196 117.974 120.362 118.559 120.672 119.068C120.983 119.578 121.426 119.993 121.955 120.269L121.393 126.057H125.705L125.143 120.269C125.672 119.993 126.116 119.578 126.426 119.068C126.737 118.559 126.902 117.974 126.905 117.377Z" fill="#263238" stroke="#263238" stroke-linecap="round" stroke-linejoin="round"/>
<path d="M193.274 220.202C206.444 220.202 217.119 217.842 217.119 214.931C217.119 212.02 206.444 209.66 193.274 209.66C180.105 209.66 169.429 212.02 169.429 214.931C169.429 217.842 180.105 220.202 193.274 220.202Z" fill="#FDDFBB"/>
<path opacity="0.5" d="M193.274 220.202C206.444 220.202 217.119 217.842 217.119 214.931C217.119 212.02 206.444 209.66 193.274 209.66C180.105 209.66 169.429 212.02 169.429 214.931C169.429 217.842 180.105 220.202 193.274 220.202Z" fill="white"/>
<path d="M180.805 209.539C180.805 209.539 175.022 212.792 175.022 214.359C175.022 215.925 178.591 214.961 180.925 213.857C183.26 212.752 185.112 211.929 185.112 209.76C185.112 207.592 180.805 209.539 180.805 209.539Z" fill="#FDDFBB" stroke="#263238" stroke-miterlimit="10"/>
<path d="M208.49 209.539C208.49 209.539 214.273 212.792 214.273 214.359C214.273 215.925 210.704 214.961 208.37 213.857C206.035 212.752 204.183 211.929 204.183 209.76C204.183 207.592 208.49 209.539 208.49 209.539Z" fill="#FDDFBB" stroke="#263238" stroke-miterlimit="10"/>
<path d="M183.144 156.292L180.679 210.162C181.02 210.442 181.414 210.651 181.838 210.775C182.261 210.899 182.706 210.937 183.144 210.885C183.909 210.771 184.607 210.387 185.112 209.8L193.48 165.83H195.202L204.067 210.624C204.597 210.917 205.185 211.088 205.789 211.126C206.648 211.126 208.003 210.041 208.003 210.041L205.172 156.327L183.144 156.292Z" fill="#263238" stroke="#263238" stroke-miterlimit="10"/>
<path d="M191.758 123.647L180.559 128.22L183.511 154.244H204.921L208.862 127.257L196.678 123.406L191.758 123.647Z" fill="#FDDFBB" stroke="#263238" stroke-miterlimit="10"/>
<path d="M192.988 127.377L194.339 129.546L192.125 148.22L194.831 152.196L197.17 147.859L195.323 129.305L196.924 126.78L194.585 125.756L192.988 127.377Z" fill="#263238" stroke="#263238" stroke-miterlimit="10"/>
<path d="M194.585 125.756L192.787 128.833L189.585 124.566L191.377 122.432L194.585 125.756Z" fill="#FDDFBB" stroke="#263238" stroke-miterlimit="10"/>
<path d="M194.585 125.755L196.763 129.144L199.389 124.315L197.853 122.367L194.585 125.755Z" fill="#FDDFBB" stroke="#263238" stroke-miterlimit="10"/>
<path d="M190.237 133.04H182.692V135.61L186.467 137.056L190.237 135.449V133.04Z" fill="#FDDFBB" stroke="#263238" stroke-miterlimit="10"/>
<path d="M205.332 133.04H197.787V135.61L201.557 137.056L205.332 135.449V133.04Z" fill="#FDDFBB" stroke="#263238" stroke-miterlimit="10"/>
<path d="M205.172 153.762H183.144V156.292H205.172V153.762Z" fill="#263238" stroke="#263238" stroke-miterlimit="10"/>
<path d="M182.773 155.81L178.957 157.377C178.895 158.467 178.978 159.561 179.203 160.629C179.575 162.075 180.067 165.208 180.433 165.81C180.8 166.413 182.652 167.617 182.898 167.256C183.144 166.894 184.374 156.292 184.374 156.292L182.773 155.81Z" fill="#263238" stroke="#263238" stroke-miterlimit="10"/>
<path d="M191.377 118.04V122.432L194.585 125.756L197.853 122.367V117.975L191.377 118.04Z" fill="white" stroke="#263238" stroke-miterlimit="10"/>
<path d="M189.138 113.964C189.138 113.964 188.561 112.643 188.174 113.462C187.788 114.28 188.239 115.53 188.817 116.032C189.241 116.34 189.767 116.474 190.287 116.408L189.966 114.526L189.138 113.964Z" fill="white" stroke="#263238" stroke-miterlimit="10"/>
<path d="M199.58 113.964C199.58 113.964 200.157 112.643 200.543 113.462C200.93 114.28 200.478 115.53 199.901 116.032C199.475 116.34 198.947 116.475 198.425 116.408L198.746 114.526L199.58 113.964Z" fill="white" stroke="#263238" stroke-miterlimit="10"/>
<path d="M190.227 105.244C190.227 105.244 187.531 106.373 187.531 108.256C187.531 110.138 187.918 112.272 188.561 113.09C189.203 113.908 189.71 114.471 189.71 114.471L189.841 111.77L191.698 108.572C191.698 108.572 194.775 110.515 196.311 110.515C197.17 110.522 198.028 110.46 198.877 110.329L199.454 113.527L200.287 111.208V109.074C200.287 109.074 201.823 107.628 201.502 106.69C201.181 105.751 195.98 102.799 192.787 103.552C189.595 104.305 190.227 105.244 190.227 105.244Z" fill="#263238" stroke="#263238" stroke-miterlimit="10"/>
<path d="M188.942 111.579C188.942 111.579 189.71 116.283 190.353 117.538C191.198 118.93 192.233 120.198 193.43 121.303C193.877 121.614 195.543 121.363 196.186 121.363C196.829 121.363 198.696 117.598 199.002 116.91C199.308 116.222 199.504 110.324 199.504 110.324L198.942 109.26C198.942 109.26 196.186 109.952 194.007 109.074C192.825 108.65 191.767 107.938 190.93 107.001C190.93 107.001 190.739 109.134 189.966 110.389C189.193 111.644 188.942 111.579 188.942 111.579Z" fill="white" stroke="#263238" stroke-miterlimit="10"/>
<path d="M193.877 112.081C193.102 111.676 192.241 111.461 191.367 111.453C190.616 111.424 189.869 111.573 189.188 111.89C189.188 111.89 189.188 114.024 189.896 114.842C190.604 115.66 192.652 115.404 193.229 114.716C193.807 114.029 193.877 112.081 193.877 112.081Z" fill="#263238" stroke="#263238" stroke-miterlimit="10"/>
<path d="M194.775 112.081C195.551 111.676 196.411 111.461 197.285 111.453C198.036 111.424 198.783 111.573 199.464 111.89C199.464 111.89 199.464 114.024 198.756 114.842C198.048 115.66 196 115.404 195.428 114.716C194.856 114.029 194.775 112.081 194.775 112.081Z" fill="#263238" stroke="#263238" stroke-miterlimit="10"/>
<path d="M193.877 112.081H194.776" stroke="#263238" stroke-miterlimit="10"/>
<path d="M180.679 151.834L184.741 151.714L187.818 154.485C187.813 154.839 187.683 155.181 187.451 155.449C187.08 155.81 186.096 155.569 186.096 155.569C186.096 155.569 185.358 157.376 184.003 157.376C182.647 157.376 178.983 154.866 178.983 154.866L180.679 151.834Z" fill="white" stroke="#263238" stroke-miterlimit="10"/>
<path d="M180.559 128.22L166.899 146.172L178.957 154.846L180.679 151.834L176.99 144.726L182.035 140.148L180.559 128.22Z" fill="#FDDFBB" stroke="#263238" stroke-miterlimit="10"/>
<path d="M179.695 149.786L177.607 153.521" stroke="#263238" stroke-linecap="round" stroke-linejoin="round"/>
<path d="M176.99 144.726L175.388 140.63" stroke="#263238" stroke-linecap="round" stroke-linejoin="round"/>
<path d="M208.862 151.834L204.8 151.714L201.723 154.485C201.729 154.84 201.861 155.181 202.095 155.449C202.461 155.81 203.445 155.569 203.445 155.569C203.445 155.569 204.183 157.376 205.538 157.376C206.894 157.376 210.583 154.866 210.583 154.866L208.862 151.834Z" fill="white" stroke="#263238" stroke-miterlimit="10"/>
<path d="M208.862 127.257L222.642 146.172L210.584 154.847L208.862 151.835L212.551 144.726L206.768 140.027L208.862 127.257Z" fill="#FDDFBB" stroke="#263238" stroke-miterlimit="10"/>
<path d="M209.845 149.786L211.934 153.521" stroke="#263238" stroke-linecap="round" stroke-linejoin="round"/>
<path d="M212.551 144.726L214.153 140.63" stroke="#263238" stroke-linecap="round" stroke-linejoin="round"/>
<path d="M53.7185 220.202C66.8878 220.202 77.5635 217.842 77.5635 214.931C77.5635 212.02 66.8878 209.66 53.7185 209.66C40.5493 209.66 29.8735 212.02 29.8735 214.931C29.8735 217.842 40.5493 220.202 53.7185 220.202Z" fill="#FDDFBB"/>
<path opacity="0.5" d="M53.7185 220.202C66.8878 220.202 77.5635 217.842 77.5635 214.931C77.5635 212.02 66.8878 209.66 53.7185 209.66C40.5493 209.66 29.8735 212.02 29.8735 214.931C29.8735 217.842 40.5493 220.202 53.7185 220.202Z" fill="white"/>
<path d="M41.3292 209.539C41.3292 209.539 35.5461 212.792 35.5461 214.359C35.5461 215.925 39.1154 214.961 41.4547 213.857C43.794 212.752 45.6363 211.929 45.6363 209.76C45.6363 207.592 41.3292 209.539 41.3292 209.539Z" fill="#FDDFBB" stroke="#263238" stroke-miterlimit="10"/>
<path d="M69.0296 209.539C69.0296 209.539 74.8126 212.792 74.8126 214.359C74.8126 215.925 71.2484 214.961 68.9091 213.857C66.5698 212.752 64.7224 211.929 64.7224 209.76C64.7224 207.592 69.0296 209.539 69.0296 209.539Z" fill="#FDDFBB" stroke="#263238" stroke-miterlimit="10"/>
<path d="M43.6685 156.292L41.2087 210.162C41.5485 210.442 41.9417 210.651 42.3645 210.775C42.7873 210.9 43.231 210.937 43.6685 210.885C44.4335 210.771 45.132 210.387 45.6364 209.8L54.0047 165.83H55.7266L64.5869 210.644C65.1164 210.937 65.7046 211.108 66.3087 211.146C67.1722 211.146 68.5226 210.061 68.5226 210.061L65.6913 156.347L43.6685 156.292Z" fill="#263238" stroke="#263238" stroke-miterlimit="10"/>
<path d="M52.2829 123.647L41.0833 128.22L44.035 154.244H65.4503L69.386 127.257L57.2025 123.406L52.2829 123.647Z" fill="#FDDFBB" stroke="#263238" stroke-miterlimit="10"/>
<path d="M65.6962 153.762H43.6685V156.292H65.6962V153.762Z" fill="#263238" stroke="#263238" stroke-miterlimit="10"/>
<path d="M43.2971 155.81L39.4819 157.377C39.4193 158.467 39.502 159.561 39.7279 160.629C40.0994 162.075 40.5913 165.208 40.9628 165.81C41.3343 166.413 43.1766 167.617 43.4226 167.256C43.6686 166.894 44.8985 156.292 44.8985 156.292L43.2971 155.81Z" fill="#263238" stroke="#263238" stroke-miterlimit="10"/>
<path d="M51.9062 118.04V122.432L55.109 125.756L58.377 122.367V117.975L51.9062 118.04Z" fill="white" stroke="#263238" stroke-miterlimit="10"/>
<path d="M49.6625 113.964C49.6625 113.964 49.0852 112.643 48.6987 113.462C48.3122 114.28 48.764 115.53 49.3413 116.032C49.7676 116.34 50.2952 116.475 50.8171 116.408L50.4959 114.526L49.6625 113.964Z" fill="white" stroke="#263238" stroke-miterlimit="10"/>
<path d="M60.1039 113.964C60.1039 113.964 60.6812 112.643 61.0678 113.462C61.4543 114.28 61.0025 115.53 60.4252 116.032C60.0006 116.34 59.4747 116.474 58.9543 116.408L59.2706 114.526L60.1039 113.964Z" fill="white" stroke="#263238" stroke-miterlimit="10"/>
<path d="M50.7518 105.244C50.7518 105.244 48.061 106.373 48.061 108.256C48.061 110.138 48.4426 112.272 49.065 113.09C49.6875 113.908 50.2196 114.471 50.2196 114.471L50.3451 111.77L52.2025 108.572C52.2025 108.572 55.2798 110.515 56.8159 110.515C57.6746 110.522 58.5325 110.46 59.3811 110.329L59.9584 113.527L60.7918 111.208V109.074C60.7918 109.074 62.3279 107.628 62.0066 106.69C61.6853 105.751 56.4846 102.799 53.2919 103.552C50.0992 104.305 50.7518 105.244 50.7518 105.244Z" fill="#263238" stroke="#263238" stroke-miterlimit="10"/>
<path d="M49.4517 111.579C49.4517 111.579 50.2247 116.283 50.8623 117.538C51.7174 118.933 52.7634 120.202 53.9697 121.308C54.4164 121.619 56.0831 121.368 56.7256 121.368C57.3682 121.368 59.2356 117.603 59.5469 116.915C59.8581 116.227 60.0489 110.329 60.0489 110.329L59.4917 109.26C59.4917 109.26 56.7357 109.952 54.557 109.074C53.3744 108.65 52.3165 107.938 51.4797 107.001C51.4797 107.001 51.289 109.134 50.5209 110.389C49.7529 111.644 49.4517 111.579 49.4517 111.579Z" fill="white" stroke="#263238" stroke-miterlimit="10"/>
<path d="M54.4013 112.081C53.6262 111.676 52.7659 111.461 51.8913 111.453C51.1407 111.424 50.3938 111.573 49.7126 111.89C49.7126 111.89 49.7126 114.024 50.4154 114.842C51.1182 115.66 53.1714 115.404 53.7487 114.716C54.326 114.029 54.4013 112.081 54.4013 112.081Z" fill="#263238" stroke="#263238" stroke-miterlimit="10"/>
<path d="M55.2998 112.081C56.075 111.676 56.9353 111.461 57.8098 111.453C58.5604 111.424 59.3073 111.573 59.9885 111.89C59.9885 111.89 59.9885 114.024 59.2807 114.842C58.5728 115.66 56.5297 115.404 55.9524 114.716C55.3751 114.029 55.2998 112.081 55.2998 112.081Z" fill="#263238" stroke="#263238" stroke-miterlimit="10"/>
<path d="M54.4014 112.081H55.2999" stroke="#263238" stroke-miterlimit="10"/>
<path d="M53.5129 127.377L54.8632 129.546L52.6494 148.22L55.3602 152.196L57.6945 147.859L55.8522 129.305L57.4485 126.78L55.1092 125.756L53.5129 127.377Z" fill="#263238" stroke="#263238" stroke-miterlimit="10"/>
<path d="M55.1091 125.756L53.3119 128.833L50.1091 124.566L51.9063 122.432L55.1091 125.756Z" fill="#FDDFBB" stroke="#263238" stroke-miterlimit="10"/>
<path d="M55.1091 125.755L57.2878 129.144L59.9133 124.315L58.3772 122.367L55.1091 125.755Z" fill="#FDDFBB" stroke="#263238" stroke-miterlimit="10"/>
<path d="M41.0832 128.22L27.4238 146.172L39.4819 154.846L41.2087 151.834L37.514 144.726L42.5591 140.148L41.0832 128.22Z" fill="#FDDFBB" stroke="#263238" stroke-miterlimit="10"/>
<path d="M41.2089 151.834L45.265 151.714L48.3423 154.485C48.3373 154.839 48.2076 155.181 47.9758 155.449C47.6043 155.81 46.6204 155.569 46.6204 155.569C46.6204 155.569 45.8825 157.376 44.5271 157.376C43.1717 157.376 39.5071 154.866 39.5071 154.866L41.2089 151.834Z" fill="white" stroke="#263238" stroke-miterlimit="10"/>
<path d="M40.2249 149.786L38.1316 153.521" stroke="#263238" stroke-linecap="round" stroke-linejoin="round"/>
<path d="M37.5141 144.726L35.9177 140.63" stroke="#263238" stroke-linecap="round" stroke-linejoin="round"/>
<path d="M69.3861 127.257L83.166 146.172L71.1079 154.847L69.3861 151.835L73.0758 144.726L67.2927 140.027L69.3861 127.257Z" fill="#FDDFBB" stroke="#263238" stroke-miterlimit="10"/>
<path d="M69.386 151.834L65.3248 151.714L62.2476 154.485C62.2539 154.84 62.3855 155.181 62.619 155.449C62.9855 155.81 63.9694 155.569 63.9694 155.569C63.9694 155.569 64.7074 157.376 66.0628 157.376C67.4182 157.376 71.0828 154.866 71.0828 154.866L69.386 151.834Z" fill="white" stroke="#263238" stroke-miterlimit="10"/>
<path d="M70.3699 149.786L72.4632 153.521" stroke="#263238" stroke-linecap="round" stroke-linejoin="round"/>
<path d="M73.0757 144.726L74.6771 140.63" stroke="#263238" stroke-linecap="round" stroke-linejoin="round"/>
<path d="M50.7619 133.04H43.2168V135.61L46.9918 137.056L50.7619 135.449V133.04Z" fill="#FDDFBB" stroke="#263238" stroke-miterlimit="10"/>
<path d="M65.8568 133.04H58.3118V135.61L62.0868 137.056L65.8568 135.449V133.04Z" fill="#FDDFBB" stroke="#263238" stroke-miterlimit="10"/>
</svg>
